%TF.GenerationSoftware,KiCad,Pcbnew,(5.1.9)-1*%
%TF.CreationDate,2021-08-08T17:51:26+03:00*%
%TF.ProjectId,ESP8266DevBoard,45535038-3236-4364-9465-76426f617264,1.0*%
%TF.SameCoordinates,Original*%
%TF.FileFunction,Legend,Top*%
%TF.FilePolarity,Positive*%
%FSLAX46Y46*%
G04 Gerber Fmt 4.6, Leading zero omitted, Abs format (unit mm)*
G04 Created by KiCad (PCBNEW (5.1.9)-1) date 2021-08-08 17:51:26*
%MOMM*%
%LPD*%
G01*
G04 APERTURE LIST*
%ADD10C,0.120000*%
%ADD11C,0.150000*%
%ADD12C,0.300000*%
G04 APERTURE END LIST*
D10*
X155448000Y-46482000D02*
X155448000Y-41402000D01*
X155448000Y-54356000D02*
X156718000Y-54356000D01*
X155448000Y-54102000D02*
X155448000Y-54356000D01*
X155448000Y-46482000D02*
X155448000Y-54102000D01*
X159004000Y-46482000D02*
X155448000Y-46482000D01*
X159004000Y-41402000D02*
X159004000Y-46482000D01*
X155448000Y-41402000D02*
X159004000Y-41402000D01*
X180340000Y-62738000D02*
X183896000Y-62738000D01*
X180340000Y-67564000D02*
X180340000Y-62738000D01*
X183896000Y-67564000D02*
X180340000Y-67564000D01*
X183896000Y-55372000D02*
X183896000Y-67564000D01*
X182626000Y-55372000D02*
X183896000Y-55372000D01*
X179578000Y-80518000D02*
X179578000Y-76962000D01*
X184658000Y-80518000D02*
X179578000Y-80518000D01*
X184658000Y-76962000D02*
X184658000Y-80518000D01*
X169672000Y-76962000D02*
X184658000Y-76962000D01*
X169672000Y-78232000D02*
X169672000Y-76962000D01*
X169672000Y-72390000D02*
X169672000Y-73660000D01*
X179578000Y-72390000D02*
X169672000Y-72390000D01*
X179578000Y-75946000D02*
X179578000Y-72390000D01*
X184658000Y-75946000D02*
X179578000Y-75946000D01*
X184658000Y-72390000D02*
X184658000Y-75946000D01*
X179578000Y-72390000D02*
X184658000Y-72390000D01*
X179578000Y-75946000D02*
X179578000Y-72390000D01*
X169672000Y-67818000D02*
X169672000Y-69088000D01*
X184658000Y-67818000D02*
X169672000Y-67818000D01*
X184658000Y-71374000D02*
X184658000Y-67818000D01*
X179578000Y-71374000D02*
X184658000Y-71374000D01*
X179578000Y-67818000D02*
X179578000Y-71374000D01*
X169672000Y-75946000D02*
X169672000Y-74676000D01*
X154686000Y-75946000D02*
X169672000Y-75946000D01*
X154686000Y-72390000D02*
X154686000Y-75946000D01*
X154940000Y-72390000D02*
X154686000Y-72390000D01*
X159766000Y-72390000D02*
X154940000Y-72390000D01*
X159766000Y-75946000D02*
X159766000Y-72390000D01*
X159766000Y-67818000D02*
X159766000Y-71374000D01*
X154686000Y-67818000D02*
X159766000Y-67818000D01*
X169672000Y-71374000D02*
X169672000Y-70104000D01*
X154686000Y-71374000D02*
X169672000Y-71374000D01*
X154686000Y-67818000D02*
X154686000Y-71374000D01*
%TO.C,J2*%
X206900000Y-70250000D02*
X206900000Y-71450000D01*
X205600000Y-70250000D02*
X206900000Y-70250000D01*
X205600000Y-71450000D02*
X205600000Y-70250000D01*
X205600000Y-84250000D02*
X205600000Y-83050000D01*
X206900000Y-84250000D02*
X205600000Y-84250000D01*
X206900000Y-83050000D02*
X206900000Y-84250000D01*
X209500000Y-83050000D02*
X188300000Y-83050000D01*
X209500000Y-71450000D02*
X209500000Y-83050000D01*
X188300000Y-71450000D02*
X209500000Y-71450000D01*
X188300000Y-83050000D02*
X188300000Y-71450000D01*
%TO.C,J3*%
X206900000Y-55750000D02*
X206900000Y-56950000D01*
X205600000Y-55750000D02*
X206900000Y-55750000D01*
X205600000Y-56950000D02*
X205600000Y-55750000D01*
X205600000Y-69750000D02*
X205600000Y-68550000D01*
X206900000Y-69750000D02*
X205600000Y-69750000D01*
X206900000Y-68550000D02*
X206900000Y-69750000D01*
X209500000Y-68550000D02*
X188300000Y-68550000D01*
X209500000Y-56950000D02*
X209500000Y-68550000D01*
X188300000Y-56950000D02*
X209500000Y-56950000D01*
X188300000Y-68550000D02*
X188300000Y-56950000D01*
%TO.C,Y1*%
X179048000Y-83842000D02*
X179048000Y-91092000D01*
X182648000Y-83842000D02*
X179048000Y-83842000D01*
X182648000Y-91092000D02*
X182648000Y-83842000D01*
%TO.C,U4*%
X155666000Y-80918000D02*
X161676000Y-80918000D01*
X157916000Y-87738000D02*
X161676000Y-87738000D01*
X161676000Y-80918000D02*
X161676000Y-82178000D01*
X161676000Y-87738000D02*
X161676000Y-86478000D01*
%TO.C,U3*%
X150222000Y-88864000D02*
X150222000Y-94874000D01*
X143402000Y-91114000D02*
X143402000Y-94874000D01*
X150222000Y-94874000D02*
X148962000Y-94874000D01*
X143402000Y-94874000D02*
X144662000Y-94874000D01*
%TO.C,U2*%
X168168000Y-88392000D02*
X168168000Y-91842000D01*
X168168000Y-88392000D02*
X168168000Y-86442000D01*
X178288000Y-88392000D02*
X178288000Y-90342000D01*
X178288000Y-88392000D02*
X178288000Y-86442000D01*
%TO.C,U1*%
X161552000Y-48078000D02*
X160942000Y-48078000D01*
X161552000Y-48078000D02*
X161552000Y-40458000D01*
X161552000Y-64698000D02*
X161552000Y-64078000D01*
X163672000Y-64698000D02*
X161552000Y-64698000D01*
X177792000Y-64698000D02*
X175672000Y-64698000D01*
X177792000Y-64078000D02*
X177792000Y-64698000D01*
X177792000Y-40458000D02*
X177792000Y-48078000D01*
X161552000Y-40458000D02*
X177792000Y-40458000D01*
%TO.C,SW1*%
X196840000Y-47910000D02*
X196540000Y-47910000D01*
X196540000Y-48800000D02*
X196890000Y-48800000D01*
X196540000Y-48800000D02*
X196540000Y-47910000D01*
X199090000Y-49290000D02*
X199090000Y-54270000D01*
X203330000Y-47910000D02*
X199480000Y-47910000D01*
X203330000Y-55650000D02*
X203330000Y-47910000D01*
X199480000Y-55650000D02*
X203330000Y-55650000D01*
X196840000Y-55650000D02*
X196540000Y-55650000D01*
X196540000Y-55650000D02*
X196540000Y-54760000D01*
X196540000Y-54760000D02*
X196890000Y-54760000D01*
D11*
%TO.C,RV1*%
X112304000Y-67030000D02*
X112304000Y-72830000D01*
X124304000Y-67030000D02*
X124304000Y-72830000D01*
X112304000Y-67030000D02*
X124304000Y-67030000D01*
X112304000Y-72830000D02*
X124304000Y-72830000D01*
D10*
%TO.C,R18*%
X161063000Y-73940936D02*
X161063000Y-74395064D01*
X162533000Y-73940936D02*
X162533000Y-74395064D01*
%TO.C,R17*%
X167667000Y-73940936D02*
X167667000Y-74395064D01*
X169137000Y-73940936D02*
X169137000Y-74395064D01*
%TO.C,R16*%
X161063000Y-69368936D02*
X161063000Y-69823064D01*
X162533000Y-69368936D02*
X162533000Y-69823064D01*
%TO.C,R15*%
X167667000Y-69368936D02*
X167667000Y-69823064D01*
X169137000Y-69368936D02*
X169137000Y-69823064D01*
%TO.C,R14*%
X198347000Y-88111064D02*
X198347000Y-87656936D01*
X196877000Y-88111064D02*
X196877000Y-87656936D01*
%TO.C,R13*%
X170207000Y-73940936D02*
X170207000Y-74395064D01*
X171677000Y-73940936D02*
X171677000Y-74395064D01*
%TO.C,R12*%
X176811000Y-73940936D02*
X176811000Y-74395064D01*
X178281000Y-73940936D02*
X178281000Y-74395064D01*
%TO.C,R11*%
X170207000Y-69368936D02*
X170207000Y-69823064D01*
X171677000Y-69368936D02*
X171677000Y-69823064D01*
%TO.C,R10*%
X176811000Y-69368936D02*
X176811000Y-69823064D01*
X178281000Y-69368936D02*
X178281000Y-69823064D01*
%TO.C,R9*%
X182345064Y-48287000D02*
X181890936Y-48287000D01*
X182345064Y-49757000D02*
X181890936Y-49757000D01*
%TO.C,R8*%
X182345064Y-50573000D02*
X181890936Y-50573000D01*
X182345064Y-52043000D02*
X181890936Y-52043000D01*
%TO.C,R7*%
X182345064Y-60479000D02*
X181890936Y-60479000D01*
X182345064Y-61949000D02*
X181890936Y-61949000D01*
%TO.C,R6*%
X171677000Y-78967064D02*
X171677000Y-78512936D01*
X170207000Y-78967064D02*
X170207000Y-78512936D01*
%TO.C,R5*%
X182345064Y-58193000D02*
X181890936Y-58193000D01*
X182345064Y-59663000D02*
X181890936Y-59663000D01*
%TO.C,R4*%
X182345064Y-55907000D02*
X181890936Y-55907000D01*
X182345064Y-57377000D02*
X181890936Y-57377000D01*
%TO.C,R3*%
X156998936Y-51535000D02*
X157453064Y-51535000D01*
X156998936Y-50065000D02*
X157453064Y-50065000D01*
%TO.C,R2*%
X178281000Y-78967064D02*
X178281000Y-78512936D01*
X176811000Y-78967064D02*
X176811000Y-78512936D01*
%TO.C,R1*%
X156998936Y-53821000D02*
X157453064Y-53821000D01*
X156998936Y-52351000D02*
X157453064Y-52351000D01*
%TO.C,Q6*%
X165860000Y-75748000D02*
X164400000Y-75748000D01*
X165860000Y-72588000D02*
X163700000Y-72588000D01*
X165860000Y-72588000D02*
X165860000Y-73518000D01*
X165860000Y-75748000D02*
X165860000Y-74818000D01*
%TO.C,Q5*%
X165860000Y-71176000D02*
X164400000Y-71176000D01*
X165860000Y-68016000D02*
X163700000Y-68016000D01*
X165860000Y-68016000D02*
X165860000Y-68946000D01*
X165860000Y-71176000D02*
X165860000Y-70246000D01*
%TO.C,Q4*%
X175004000Y-75748000D02*
X173544000Y-75748000D01*
X175004000Y-72588000D02*
X172844000Y-72588000D01*
X175004000Y-72588000D02*
X175004000Y-73518000D01*
X175004000Y-75748000D02*
X175004000Y-74818000D01*
%TO.C,Q3*%
X175004000Y-71176000D02*
X173544000Y-71176000D01*
X175004000Y-68016000D02*
X172844000Y-68016000D01*
X175004000Y-68016000D02*
X175004000Y-68946000D01*
X175004000Y-71176000D02*
X175004000Y-70246000D01*
%TO.C,Q2*%
X175004000Y-80320000D02*
X173544000Y-80320000D01*
X175004000Y-77160000D02*
X172844000Y-77160000D01*
X175004000Y-77160000D02*
X175004000Y-78090000D01*
X175004000Y-80320000D02*
X175004000Y-79390000D01*
%TO.C,Q1*%
X165860000Y-80320000D02*
X164400000Y-80320000D01*
X165860000Y-77160000D02*
X163700000Y-77160000D01*
X165860000Y-77160000D02*
X165860000Y-78090000D01*
X165860000Y-80320000D02*
X165860000Y-79390000D01*
%TO.C,PS1*%
X154048000Y-41766000D02*
X128448000Y-41766000D01*
X128448000Y-41766000D02*
X128448000Y-87666000D01*
X154048000Y-41766000D02*
X154048000Y-87666000D01*
X154048000Y-87666000D02*
X128448000Y-87666000D01*
X143748000Y-41466000D02*
X141748000Y-41466000D01*
%TO.C,L1*%
X115864000Y-42070000D02*
X120864000Y-42070000D01*
X127364000Y-48570000D02*
X127364000Y-58070000D01*
X127364000Y-58070000D02*
X109364000Y-58070000D01*
X109364000Y-58070000D02*
X109364000Y-48570000D01*
X120864000Y-42070000D02*
G75*
G02*
X127364000Y-48570000I0J-6500000D01*
G01*
X109414000Y-48570000D02*
G75*
G02*
X115864000Y-42120000I6450000J0D01*
G01*
%TO.C,J4*%
X124358000Y-93274000D02*
X117958000Y-93274000D01*
X124358000Y-74874000D02*
X124358000Y-93274000D01*
X117958000Y-74874000D02*
X124358000Y-74874000D01*
X117958000Y-93274000D02*
X117958000Y-74874000D01*
D12*
X121158001Y-84073999D02*
G75*
G02*
X121158001Y-82074001I999999J999999D01*
G01*
X121157999Y-84074001D02*
G75*
G02*
X121157999Y-86073999I-999999J-999999D01*
G01*
D10*
%TO.C,J1*%
X175901500Y-99949000D02*
X175901500Y-98806000D01*
X168154500Y-99949000D02*
X168154500Y-98806000D01*
X175901500Y-100457000D02*
X176282500Y-100457000D01*
X176282500Y-100457000D02*
X175901500Y-99949000D01*
X175330000Y-100457000D02*
X175330000Y-99949000D01*
X175330000Y-99949000D02*
X175584000Y-99949000D01*
X175584000Y-99949000D02*
X175901500Y-100457000D01*
X168726000Y-100457000D02*
X168726000Y-100012500D01*
X168726000Y-100012500D02*
X168472000Y-100012500D01*
X168472000Y-100012500D02*
X168154500Y-100457000D01*
X168154500Y-100457000D02*
X167900500Y-100457000D01*
X167900500Y-100457000D02*
X167773500Y-100457000D01*
X167773500Y-100457000D02*
X168154500Y-99949000D01*
X168728000Y-100440000D02*
X175328000Y-100440000D01*
X175878000Y-96190000D02*
X175878000Y-96774000D01*
X173679000Y-94869000D02*
X173928000Y-94869000D01*
X170128000Y-94869000D02*
X170377000Y-94869000D01*
X168178000Y-96190000D02*
X168178000Y-96774000D01*
%TO.C,F1*%
X116154000Y-81174000D02*
X116154000Y-86974000D01*
X112954000Y-86974000D02*
X112954000Y-81174000D01*
%TO.C,D5*%
X154924000Y-88682000D02*
X154924000Y-92582000D01*
X152924000Y-88682000D02*
X152924000Y-92582000D01*
X154924000Y-88682000D02*
X152924000Y-88682000D01*
%TO.C,D4*%
X185436000Y-64988000D02*
X185436000Y-61088000D01*
X187436000Y-64988000D02*
X187436000Y-61088000D01*
X185436000Y-64988000D02*
X187436000Y-64988000D01*
%TO.C,D3*%
X202502000Y-86614000D02*
X202502000Y-86614000D01*
X202632000Y-86614000D02*
X202502000Y-86614000D01*
X202632000Y-86614000D02*
X202632000Y-86614000D01*
X202502000Y-86614000D02*
X202632000Y-86614000D01*
X202502000Y-89154000D02*
X202502000Y-89154000D01*
X202632000Y-89154000D02*
X202502000Y-89154000D01*
X202632000Y-89154000D02*
X202632000Y-89154000D01*
X202502000Y-89154000D02*
X202632000Y-89154000D01*
X202632000Y-86324000D02*
X202632000Y-85924000D01*
X203752000Y-86324000D02*
X202632000Y-86324000D01*
X203752000Y-85924000D02*
X203752000Y-86324000D01*
X202632000Y-85924000D02*
X203752000Y-85924000D01*
X202632000Y-89444000D02*
X202632000Y-86324000D01*
X202632000Y-86324000D02*
X206492000Y-86324000D01*
X202632000Y-89444000D02*
X206492000Y-89444000D01*
X206492000Y-86324000D02*
G75*
G02*
X206492000Y-89444000I0J-1560000D01*
G01*
%TO.C,D2*%
X185436000Y-79466000D02*
X185436000Y-75566000D01*
X187436000Y-79466000D02*
X187436000Y-75566000D01*
X185436000Y-79466000D02*
X187436000Y-79466000D01*
%TO.C,D1*%
X157464000Y-88682000D02*
X157464000Y-92582000D01*
X155464000Y-88682000D02*
X155464000Y-92582000D01*
X157464000Y-88682000D02*
X155464000Y-88682000D01*
%TO.C,C13*%
X157487252Y-78767000D02*
X156964748Y-78767000D01*
X157487252Y-80237000D02*
X156964748Y-80237000D01*
%TO.C,C12*%
X158015000Y-90162748D02*
X158015000Y-90685252D01*
X159485000Y-90162748D02*
X159485000Y-90685252D01*
%TO.C,C11*%
X152373000Y-90685252D02*
X152373000Y-90162748D01*
X150903000Y-90685252D02*
X150903000Y-90162748D01*
%TO.C,C10*%
X142721000Y-90685252D02*
X142721000Y-90162748D01*
X141251000Y-90685252D02*
X141251000Y-90162748D01*
%TO.C,C9*%
X140128000Y-95974000D02*
X140128000Y-94974000D01*
X140628000Y-95474000D02*
X139628000Y-95474000D01*
X139388000Y-89768437D02*
X138323563Y-88704000D01*
X139388000Y-96159563D02*
X138323563Y-97224000D01*
X139388000Y-96159563D02*
X139388000Y-94474000D01*
X139388000Y-89768437D02*
X139388000Y-91454000D01*
X138323563Y-88704000D02*
X130868000Y-88704000D01*
X138323563Y-97224000D02*
X130868000Y-97224000D01*
X130868000Y-97224000D02*
X130868000Y-94474000D01*
X130868000Y-88704000D02*
X130868000Y-91454000D01*
%TO.C,C8*%
X127364000Y-59864000D02*
X127364000Y-65104000D01*
X109124000Y-59864000D02*
X109124000Y-65104000D01*
X109124000Y-65104000D02*
X127364000Y-65104000D01*
X109124000Y-59864000D02*
X127364000Y-59864000D01*
%TO.C,C7*%
X181856748Y-95223000D02*
X182379252Y-95223000D01*
X181856748Y-93753000D02*
X182379252Y-93753000D01*
%TO.C,C6*%
X181856748Y-83031000D02*
X182379252Y-83031000D01*
X181856748Y-81561000D02*
X182379252Y-81561000D01*
%TO.C,C5*%
X167359000Y-86367252D02*
X167359000Y-85844748D01*
X165889000Y-86367252D02*
X165889000Y-85844748D01*
%TO.C,C4*%
X165889000Y-90162748D02*
X165889000Y-90685252D01*
X167359000Y-90162748D02*
X167359000Y-90685252D01*
%TO.C,C3*%
X157508752Y-47779000D02*
X156986248Y-47779000D01*
X157508752Y-49249000D02*
X156986248Y-49249000D01*
%TO.C,C2*%
X157487252Y-62257000D02*
X156964748Y-62257000D01*
X157487252Y-63727000D02*
X156964748Y-63727000D01*
%TO.C,C1*%
X156964748Y-61441000D02*
X157487252Y-61441000D01*
X156964748Y-59971000D02*
X157487252Y-59971000D01*
%TO.C,J2*%
D11*
X188642666Y-83526380D02*
X188642666Y-84240666D01*
X188595047Y-84383523D01*
X188499809Y-84478761D01*
X188356952Y-84526380D01*
X188261714Y-84526380D01*
X189071238Y-83621619D02*
X189118857Y-83574000D01*
X189214095Y-83526380D01*
X189452190Y-83526380D01*
X189547428Y-83574000D01*
X189595047Y-83621619D01*
X189642666Y-83716857D01*
X189642666Y-83812095D01*
X189595047Y-83954952D01*
X189023619Y-84526380D01*
X189642666Y-84526380D01*
%TO.C,J3*%
X188642666Y-69048380D02*
X188642666Y-69762666D01*
X188595047Y-69905523D01*
X188499809Y-70000761D01*
X188356952Y-70048380D01*
X188261714Y-70048380D01*
X189023619Y-69048380D02*
X189642666Y-69048380D01*
X189309333Y-69429333D01*
X189452190Y-69429333D01*
X189547428Y-69476952D01*
X189595047Y-69524571D01*
X189642666Y-69619809D01*
X189642666Y-69857904D01*
X189595047Y-69953142D01*
X189547428Y-70000761D01*
X189452190Y-70048380D01*
X189166476Y-70048380D01*
X189071238Y-70000761D01*
X189023619Y-69953142D01*
%TO.C,Y1*%
X183624190Y-88868190D02*
X184100380Y-88868190D01*
X183100380Y-89201523D02*
X183624190Y-88868190D01*
X183100380Y-88534857D01*
X184100380Y-87677714D02*
X184100380Y-88249142D01*
X184100380Y-87963428D02*
X183100380Y-87963428D01*
X183243238Y-88058666D01*
X183338476Y-88153904D01*
X183386095Y-88249142D01*
%TO.C,U4*%
X164298380Y-85089904D02*
X165107904Y-85089904D01*
X165203142Y-85042285D01*
X165250761Y-84994666D01*
X165298380Y-84899428D01*
X165298380Y-84708952D01*
X165250761Y-84613714D01*
X165203142Y-84566095D01*
X165107904Y-84518476D01*
X164298380Y-84518476D01*
X164631714Y-83613714D02*
X165298380Y-83613714D01*
X164250761Y-83851809D02*
X164965047Y-84089904D01*
X164965047Y-83470857D01*
%TO.C,U3*%
X146050095Y-97750380D02*
X146050095Y-98559904D01*
X146097714Y-98655142D01*
X146145333Y-98702761D01*
X146240571Y-98750380D01*
X146431047Y-98750380D01*
X146526285Y-98702761D01*
X146573904Y-98655142D01*
X146621523Y-98559904D01*
X146621523Y-97750380D01*
X147002476Y-97750380D02*
X147621523Y-97750380D01*
X147288190Y-98131333D01*
X147431047Y-98131333D01*
X147526285Y-98178952D01*
X147573904Y-98226571D01*
X147621523Y-98321809D01*
X147621523Y-98559904D01*
X147573904Y-98655142D01*
X147526285Y-98702761D01*
X147431047Y-98750380D01*
X147145333Y-98750380D01*
X147050095Y-98702761D01*
X147002476Y-98655142D01*
%TO.C,U2*%
X168108380Y-93979904D02*
X168917904Y-93979904D01*
X169013142Y-93932285D01*
X169060761Y-93884666D01*
X169108380Y-93789428D01*
X169108380Y-93598952D01*
X169060761Y-93503714D01*
X169013142Y-93456095D01*
X168917904Y-93408476D01*
X168108380Y-93408476D01*
X168203619Y-92979904D02*
X168156000Y-92932285D01*
X168108380Y-92837047D01*
X168108380Y-92598952D01*
X168156000Y-92503714D01*
X168203619Y-92456095D01*
X168298857Y-92408476D01*
X168394095Y-92408476D01*
X168536952Y-92456095D01*
X169108380Y-93027523D01*
X169108380Y-92408476D01*
%TO.C,U1*%
X179324095Y-42124380D02*
X179324095Y-42933904D01*
X179371714Y-43029142D01*
X179419333Y-43076761D01*
X179514571Y-43124380D01*
X179705047Y-43124380D01*
X179800285Y-43076761D01*
X179847904Y-43029142D01*
X179895523Y-42933904D01*
X179895523Y-42124380D01*
X180895523Y-43124380D02*
X180324095Y-43124380D01*
X180609809Y-43124380D02*
X180609809Y-42124380D01*
X180514571Y-42267238D01*
X180419333Y-42362476D01*
X180324095Y-42410095D01*
%TO.C,SW1*%
X198564761Y-53113333D02*
X198612380Y-52970476D01*
X198612380Y-52732380D01*
X198564761Y-52637142D01*
X198517142Y-52589523D01*
X198421904Y-52541904D01*
X198326666Y-52541904D01*
X198231428Y-52589523D01*
X198183809Y-52637142D01*
X198136190Y-52732380D01*
X198088571Y-52922857D01*
X198040952Y-53018095D01*
X197993333Y-53065714D01*
X197898095Y-53113333D01*
X197802857Y-53113333D01*
X197707619Y-53065714D01*
X197660000Y-53018095D01*
X197612380Y-52922857D01*
X197612380Y-52684761D01*
X197660000Y-52541904D01*
X197612380Y-52208571D02*
X198612380Y-51970476D01*
X197898095Y-51780000D01*
X198612380Y-51589523D01*
X197612380Y-51351428D01*
X198612380Y-50446666D02*
X198612380Y-51018095D01*
X198612380Y-50732380D02*
X197612380Y-50732380D01*
X197755238Y-50827619D01*
X197850476Y-50922857D01*
X197898095Y-51018095D01*
%TO.C,RV1*%
X117708761Y-74366380D02*
X117375428Y-73890190D01*
X117137333Y-74366380D02*
X117137333Y-73366380D01*
X117518285Y-73366380D01*
X117613523Y-73414000D01*
X117661142Y-73461619D01*
X117708761Y-73556857D01*
X117708761Y-73699714D01*
X117661142Y-73794952D01*
X117613523Y-73842571D01*
X117518285Y-73890190D01*
X117137333Y-73890190D01*
X117994476Y-73366380D02*
X118327809Y-74366380D01*
X118661142Y-73366380D01*
X119518285Y-74366380D02*
X118946857Y-74366380D01*
X119232571Y-74366380D02*
X119232571Y-73366380D01*
X119137333Y-73509238D01*
X119042095Y-73604476D01*
X118946857Y-73652095D01*
%TO.C,R18*%
X156154380Y-74810857D02*
X155678190Y-75144190D01*
X156154380Y-75382285D02*
X155154380Y-75382285D01*
X155154380Y-75001333D01*
X155202000Y-74906095D01*
X155249619Y-74858476D01*
X155344857Y-74810857D01*
X155487714Y-74810857D01*
X155582952Y-74858476D01*
X155630571Y-74906095D01*
X155678190Y-75001333D01*
X155678190Y-75382285D01*
X156154380Y-73858476D02*
X156154380Y-74429904D01*
X156154380Y-74144190D02*
X155154380Y-74144190D01*
X155297238Y-74239428D01*
X155392476Y-74334666D01*
X155440095Y-74429904D01*
X155582952Y-73287047D02*
X155535333Y-73382285D01*
X155487714Y-73429904D01*
X155392476Y-73477523D01*
X155344857Y-73477523D01*
X155249619Y-73429904D01*
X155202000Y-73382285D01*
X155154380Y-73287047D01*
X155154380Y-73096571D01*
X155202000Y-73001333D01*
X155249619Y-72953714D01*
X155344857Y-72906095D01*
X155392476Y-72906095D01*
X155487714Y-72953714D01*
X155535333Y-73001333D01*
X155582952Y-73096571D01*
X155582952Y-73287047D01*
X155630571Y-73382285D01*
X155678190Y-73429904D01*
X155773428Y-73477523D01*
X155963904Y-73477523D01*
X156059142Y-73429904D01*
X156106761Y-73382285D01*
X156154380Y-73287047D01*
X156154380Y-73096571D01*
X156106761Y-73001333D01*
X156059142Y-72953714D01*
X155963904Y-72906095D01*
X155773428Y-72906095D01*
X155678190Y-72953714D01*
X155630571Y-73001333D01*
X155582952Y-73096571D01*
%TO.C,R17*%
X159202380Y-74810857D02*
X158726190Y-75144190D01*
X159202380Y-75382285D02*
X158202380Y-75382285D01*
X158202380Y-75001333D01*
X158250000Y-74906095D01*
X158297619Y-74858476D01*
X158392857Y-74810857D01*
X158535714Y-74810857D01*
X158630952Y-74858476D01*
X158678571Y-74906095D01*
X158726190Y-75001333D01*
X158726190Y-75382285D01*
X159202380Y-73858476D02*
X159202380Y-74429904D01*
X159202380Y-74144190D02*
X158202380Y-74144190D01*
X158345238Y-74239428D01*
X158440476Y-74334666D01*
X158488095Y-74429904D01*
X158202380Y-73525142D02*
X158202380Y-72858476D01*
X159202380Y-73287047D01*
%TO.C,R16*%
X156154380Y-70238857D02*
X155678190Y-70572190D01*
X156154380Y-70810285D02*
X155154380Y-70810285D01*
X155154380Y-70429333D01*
X155202000Y-70334095D01*
X155249619Y-70286476D01*
X155344857Y-70238857D01*
X155487714Y-70238857D01*
X155582952Y-70286476D01*
X155630571Y-70334095D01*
X155678190Y-70429333D01*
X155678190Y-70810285D01*
X156154380Y-69286476D02*
X156154380Y-69857904D01*
X156154380Y-69572190D02*
X155154380Y-69572190D01*
X155297238Y-69667428D01*
X155392476Y-69762666D01*
X155440095Y-69857904D01*
X155154380Y-68429333D02*
X155154380Y-68619809D01*
X155202000Y-68715047D01*
X155249619Y-68762666D01*
X155392476Y-68857904D01*
X155582952Y-68905523D01*
X155963904Y-68905523D01*
X156059142Y-68857904D01*
X156106761Y-68810285D01*
X156154380Y-68715047D01*
X156154380Y-68524571D01*
X156106761Y-68429333D01*
X156059142Y-68381714D01*
X155963904Y-68334095D01*
X155725809Y-68334095D01*
X155630571Y-68381714D01*
X155582952Y-68429333D01*
X155535333Y-68524571D01*
X155535333Y-68715047D01*
X155582952Y-68810285D01*
X155630571Y-68857904D01*
X155725809Y-68905523D01*
%TO.C,R15*%
X159202380Y-70238857D02*
X158726190Y-70572190D01*
X159202380Y-70810285D02*
X158202380Y-70810285D01*
X158202380Y-70429333D01*
X158250000Y-70334095D01*
X158297619Y-70286476D01*
X158392857Y-70238857D01*
X158535714Y-70238857D01*
X158630952Y-70286476D01*
X158678571Y-70334095D01*
X158726190Y-70429333D01*
X158726190Y-70810285D01*
X159202380Y-69286476D02*
X159202380Y-69857904D01*
X159202380Y-69572190D02*
X158202380Y-69572190D01*
X158345238Y-69667428D01*
X158440476Y-69762666D01*
X158488095Y-69857904D01*
X158202380Y-68381714D02*
X158202380Y-68857904D01*
X158678571Y-68905523D01*
X158630952Y-68857904D01*
X158583333Y-68762666D01*
X158583333Y-68524571D01*
X158630952Y-68429333D01*
X158678571Y-68381714D01*
X158773809Y-68334095D01*
X159011904Y-68334095D01*
X159107142Y-68381714D01*
X159154761Y-68429333D01*
X159202380Y-68524571D01*
X159202380Y-68762666D01*
X159154761Y-68857904D01*
X159107142Y-68905523D01*
%TO.C,R14*%
X196414380Y-88526857D02*
X195938190Y-88860190D01*
X196414380Y-89098285D02*
X195414380Y-89098285D01*
X195414380Y-88717333D01*
X195462000Y-88622095D01*
X195509619Y-88574476D01*
X195604857Y-88526857D01*
X195747714Y-88526857D01*
X195842952Y-88574476D01*
X195890571Y-88622095D01*
X195938190Y-88717333D01*
X195938190Y-89098285D01*
X196414380Y-87574476D02*
X196414380Y-88145904D01*
X196414380Y-87860190D02*
X195414380Y-87860190D01*
X195557238Y-87955428D01*
X195652476Y-88050666D01*
X195700095Y-88145904D01*
X195747714Y-86717333D02*
X196414380Y-86717333D01*
X195366761Y-86955428D02*
X196081047Y-87193523D01*
X196081047Y-86574476D01*
%TO.C,R13*%
X181046380Y-74810857D02*
X180570190Y-75144190D01*
X181046380Y-75382285D02*
X180046380Y-75382285D01*
X180046380Y-75001333D01*
X180094000Y-74906095D01*
X180141619Y-74858476D01*
X180236857Y-74810857D01*
X180379714Y-74810857D01*
X180474952Y-74858476D01*
X180522571Y-74906095D01*
X180570190Y-75001333D01*
X180570190Y-75382285D01*
X181046380Y-73858476D02*
X181046380Y-74429904D01*
X181046380Y-74144190D02*
X180046380Y-74144190D01*
X180189238Y-74239428D01*
X180284476Y-74334666D01*
X180332095Y-74429904D01*
X180046380Y-73525142D02*
X180046380Y-72906095D01*
X180427333Y-73239428D01*
X180427333Y-73096571D01*
X180474952Y-73001333D01*
X180522571Y-72953714D01*
X180617809Y-72906095D01*
X180855904Y-72906095D01*
X180951142Y-72953714D01*
X180998761Y-73001333D01*
X181046380Y-73096571D01*
X181046380Y-73382285D01*
X180998761Y-73477523D01*
X180951142Y-73525142D01*
%TO.C,R12*%
X184094380Y-74810857D02*
X183618190Y-75144190D01*
X184094380Y-75382285D02*
X183094380Y-75382285D01*
X183094380Y-75001333D01*
X183142000Y-74906095D01*
X183189619Y-74858476D01*
X183284857Y-74810857D01*
X183427714Y-74810857D01*
X183522952Y-74858476D01*
X183570571Y-74906095D01*
X183618190Y-75001333D01*
X183618190Y-75382285D01*
X184094380Y-73858476D02*
X184094380Y-74429904D01*
X184094380Y-74144190D02*
X183094380Y-74144190D01*
X183237238Y-74239428D01*
X183332476Y-74334666D01*
X183380095Y-74429904D01*
X183189619Y-73477523D02*
X183142000Y-73429904D01*
X183094380Y-73334666D01*
X183094380Y-73096571D01*
X183142000Y-73001333D01*
X183189619Y-72953714D01*
X183284857Y-72906095D01*
X183380095Y-72906095D01*
X183522952Y-72953714D01*
X184094380Y-73525142D01*
X184094380Y-72906095D01*
%TO.C,R11*%
X181046380Y-70238857D02*
X180570190Y-70572190D01*
X181046380Y-70810285D02*
X180046380Y-70810285D01*
X180046380Y-70429333D01*
X180094000Y-70334095D01*
X180141619Y-70286476D01*
X180236857Y-70238857D01*
X180379714Y-70238857D01*
X180474952Y-70286476D01*
X180522571Y-70334095D01*
X180570190Y-70429333D01*
X180570190Y-70810285D01*
X181046380Y-69286476D02*
X181046380Y-69857904D01*
X181046380Y-69572190D02*
X180046380Y-69572190D01*
X180189238Y-69667428D01*
X180284476Y-69762666D01*
X180332095Y-69857904D01*
X181046380Y-68334095D02*
X181046380Y-68905523D01*
X181046380Y-68619809D02*
X180046380Y-68619809D01*
X180189238Y-68715047D01*
X180284476Y-68810285D01*
X180332095Y-68905523D01*
%TO.C,R10*%
X184094380Y-70238857D02*
X183618190Y-70572190D01*
X184094380Y-70810285D02*
X183094380Y-70810285D01*
X183094380Y-70429333D01*
X183142000Y-70334095D01*
X183189619Y-70286476D01*
X183284857Y-70238857D01*
X183427714Y-70238857D01*
X183522952Y-70286476D01*
X183570571Y-70334095D01*
X183618190Y-70429333D01*
X183618190Y-70810285D01*
X184094380Y-69286476D02*
X184094380Y-69857904D01*
X184094380Y-69572190D02*
X183094380Y-69572190D01*
X183237238Y-69667428D01*
X183332476Y-69762666D01*
X183380095Y-69857904D01*
X183094380Y-68667428D02*
X183094380Y-68572190D01*
X183142000Y-68476952D01*
X183189619Y-68429333D01*
X183284857Y-68381714D01*
X183475333Y-68334095D01*
X183713428Y-68334095D01*
X183903904Y-68381714D01*
X183999142Y-68429333D01*
X184046761Y-68476952D01*
X184094380Y-68572190D01*
X184094380Y-68667428D01*
X184046761Y-68762666D01*
X183999142Y-68810285D01*
X183903904Y-68857904D01*
X183713428Y-68905523D01*
X183475333Y-68905523D01*
X183284857Y-68857904D01*
X183189619Y-68810285D01*
X183142000Y-68762666D01*
X183094380Y-68667428D01*
%TO.C,R9*%
X181951333Y-47696380D02*
X181618000Y-47220190D01*
X181379904Y-47696380D02*
X181379904Y-46696380D01*
X181760857Y-46696380D01*
X181856095Y-46744000D01*
X181903714Y-46791619D01*
X181951333Y-46886857D01*
X181951333Y-47029714D01*
X181903714Y-47124952D01*
X181856095Y-47172571D01*
X181760857Y-47220190D01*
X181379904Y-47220190D01*
X182427523Y-47696380D02*
X182618000Y-47696380D01*
X182713238Y-47648761D01*
X182760857Y-47601142D01*
X182856095Y-47458285D01*
X182903714Y-47267809D01*
X182903714Y-46886857D01*
X182856095Y-46791619D01*
X182808476Y-46744000D01*
X182713238Y-46696380D01*
X182522761Y-46696380D01*
X182427523Y-46744000D01*
X182379904Y-46791619D01*
X182332285Y-46886857D01*
X182332285Y-47124952D01*
X182379904Y-47220190D01*
X182427523Y-47267809D01*
X182522761Y-47315428D01*
X182713238Y-47315428D01*
X182808476Y-47267809D01*
X182856095Y-47220190D01*
X182903714Y-47124952D01*
%TO.C,R8*%
X181951333Y-53410380D02*
X181618000Y-52934190D01*
X181379904Y-53410380D02*
X181379904Y-52410380D01*
X181760857Y-52410380D01*
X181856095Y-52458000D01*
X181903714Y-52505619D01*
X181951333Y-52600857D01*
X181951333Y-52743714D01*
X181903714Y-52838952D01*
X181856095Y-52886571D01*
X181760857Y-52934190D01*
X181379904Y-52934190D01*
X182522761Y-52838952D02*
X182427523Y-52791333D01*
X182379904Y-52743714D01*
X182332285Y-52648476D01*
X182332285Y-52600857D01*
X182379904Y-52505619D01*
X182427523Y-52458000D01*
X182522761Y-52410380D01*
X182713238Y-52410380D01*
X182808476Y-52458000D01*
X182856095Y-52505619D01*
X182903714Y-52600857D01*
X182903714Y-52648476D01*
X182856095Y-52743714D01*
X182808476Y-52791333D01*
X182713238Y-52838952D01*
X182522761Y-52838952D01*
X182427523Y-52886571D01*
X182379904Y-52934190D01*
X182332285Y-53029428D01*
X182332285Y-53219904D01*
X182379904Y-53315142D01*
X182427523Y-53362761D01*
X182522761Y-53410380D01*
X182713238Y-53410380D01*
X182808476Y-53362761D01*
X182856095Y-53315142D01*
X182903714Y-53219904D01*
X182903714Y-53029428D01*
X182856095Y-52934190D01*
X182808476Y-52886571D01*
X182713238Y-52838952D01*
%TO.C,R7*%
X181951333Y-67254380D02*
X181618000Y-66778190D01*
X181379904Y-67254380D02*
X181379904Y-66254380D01*
X181760857Y-66254380D01*
X181856095Y-66302000D01*
X181903714Y-66349619D01*
X181951333Y-66444857D01*
X181951333Y-66587714D01*
X181903714Y-66682952D01*
X181856095Y-66730571D01*
X181760857Y-66778190D01*
X181379904Y-66778190D01*
X182284666Y-66254380D02*
X182951333Y-66254380D01*
X182522761Y-67254380D01*
%TO.C,R6*%
X181046380Y-78906666D02*
X180570190Y-79240000D01*
X181046380Y-79478095D02*
X180046380Y-79478095D01*
X180046380Y-79097142D01*
X180094000Y-79001904D01*
X180141619Y-78954285D01*
X180236857Y-78906666D01*
X180379714Y-78906666D01*
X180474952Y-78954285D01*
X180522571Y-79001904D01*
X180570190Y-79097142D01*
X180570190Y-79478095D01*
X180046380Y-78049523D02*
X180046380Y-78240000D01*
X180094000Y-78335238D01*
X180141619Y-78382857D01*
X180284476Y-78478095D01*
X180474952Y-78525714D01*
X180855904Y-78525714D01*
X180951142Y-78478095D01*
X180998761Y-78430476D01*
X181046380Y-78335238D01*
X181046380Y-78144761D01*
X180998761Y-78049523D01*
X180951142Y-78001904D01*
X180855904Y-77954285D01*
X180617809Y-77954285D01*
X180522571Y-78001904D01*
X180474952Y-78049523D01*
X180427333Y-78144761D01*
X180427333Y-78335238D01*
X180474952Y-78430476D01*
X180522571Y-78478095D01*
X180617809Y-78525714D01*
%TO.C,R5*%
X181951333Y-65730380D02*
X181618000Y-65254190D01*
X181379904Y-65730380D02*
X181379904Y-64730380D01*
X181760857Y-64730380D01*
X181856095Y-64778000D01*
X181903714Y-64825619D01*
X181951333Y-64920857D01*
X181951333Y-65063714D01*
X181903714Y-65158952D01*
X181856095Y-65206571D01*
X181760857Y-65254190D01*
X181379904Y-65254190D01*
X182856095Y-64730380D02*
X182379904Y-64730380D01*
X182332285Y-65206571D01*
X182379904Y-65158952D01*
X182475142Y-65111333D01*
X182713238Y-65111333D01*
X182808476Y-65158952D01*
X182856095Y-65206571D01*
X182903714Y-65301809D01*
X182903714Y-65539904D01*
X182856095Y-65635142D01*
X182808476Y-65682761D01*
X182713238Y-65730380D01*
X182475142Y-65730380D01*
X182379904Y-65682761D01*
X182332285Y-65635142D01*
%TO.C,R4*%
X181951333Y-64206380D02*
X181618000Y-63730190D01*
X181379904Y-64206380D02*
X181379904Y-63206380D01*
X181760857Y-63206380D01*
X181856095Y-63254000D01*
X181903714Y-63301619D01*
X181951333Y-63396857D01*
X181951333Y-63539714D01*
X181903714Y-63634952D01*
X181856095Y-63682571D01*
X181760857Y-63730190D01*
X181379904Y-63730190D01*
X182808476Y-63539714D02*
X182808476Y-64206380D01*
X182570380Y-63158761D02*
X182332285Y-63873047D01*
X182951333Y-63873047D01*
%TO.C,R3*%
X157059333Y-44394380D02*
X156726000Y-43918190D01*
X156487904Y-44394380D02*
X156487904Y-43394380D01*
X156868857Y-43394380D01*
X156964095Y-43442000D01*
X157011714Y-43489619D01*
X157059333Y-43584857D01*
X157059333Y-43727714D01*
X157011714Y-43822952D01*
X156964095Y-43870571D01*
X156868857Y-43918190D01*
X156487904Y-43918190D01*
X157392666Y-43394380D02*
X158011714Y-43394380D01*
X157678380Y-43775333D01*
X157821238Y-43775333D01*
X157916476Y-43822952D01*
X157964095Y-43870571D01*
X158011714Y-43965809D01*
X158011714Y-44203904D01*
X157964095Y-44299142D01*
X157916476Y-44346761D01*
X157821238Y-44394380D01*
X157535523Y-44394380D01*
X157440285Y-44346761D01*
X157392666Y-44299142D01*
%TO.C,R2*%
X184094380Y-78906666D02*
X183618190Y-79240000D01*
X184094380Y-79478095D02*
X183094380Y-79478095D01*
X183094380Y-79097142D01*
X183142000Y-79001904D01*
X183189619Y-78954285D01*
X183284857Y-78906666D01*
X183427714Y-78906666D01*
X183522952Y-78954285D01*
X183570571Y-79001904D01*
X183618190Y-79097142D01*
X183618190Y-79478095D01*
X183189619Y-78525714D02*
X183142000Y-78478095D01*
X183094380Y-78382857D01*
X183094380Y-78144761D01*
X183142000Y-78049523D01*
X183189619Y-78001904D01*
X183284857Y-77954285D01*
X183380095Y-77954285D01*
X183522952Y-78001904D01*
X184094380Y-78573333D01*
X184094380Y-77954285D01*
%TO.C,R1*%
X157059333Y-45918380D02*
X156726000Y-45442190D01*
X156487904Y-45918380D02*
X156487904Y-44918380D01*
X156868857Y-44918380D01*
X156964095Y-44966000D01*
X157011714Y-45013619D01*
X157059333Y-45108857D01*
X157059333Y-45251714D01*
X157011714Y-45346952D01*
X156964095Y-45394571D01*
X156868857Y-45442190D01*
X156487904Y-45442190D01*
X158011714Y-45918380D02*
X157440285Y-45918380D01*
X157726000Y-45918380D02*
X157726000Y-44918380D01*
X157630761Y-45061238D01*
X157535523Y-45156476D01*
X157440285Y-45204095D01*
%TO.C,Q6*%
X157773619Y-74263238D02*
X157726000Y-74358476D01*
X157630761Y-74453714D01*
X157487904Y-74596571D01*
X157440285Y-74691809D01*
X157440285Y-74787047D01*
X157678380Y-74739428D02*
X157630761Y-74834666D01*
X157535523Y-74929904D01*
X157345047Y-74977523D01*
X157011714Y-74977523D01*
X156821238Y-74929904D01*
X156726000Y-74834666D01*
X156678380Y-74739428D01*
X156678380Y-74548952D01*
X156726000Y-74453714D01*
X156821238Y-74358476D01*
X157011714Y-74310857D01*
X157345047Y-74310857D01*
X157535523Y-74358476D01*
X157630761Y-74453714D01*
X157678380Y-74548952D01*
X157678380Y-74739428D01*
X156678380Y-73453714D02*
X156678380Y-73644190D01*
X156726000Y-73739428D01*
X156773619Y-73787047D01*
X156916476Y-73882285D01*
X157106952Y-73929904D01*
X157487904Y-73929904D01*
X157583142Y-73882285D01*
X157630761Y-73834666D01*
X157678380Y-73739428D01*
X157678380Y-73548952D01*
X157630761Y-73453714D01*
X157583142Y-73406095D01*
X157487904Y-73358476D01*
X157249809Y-73358476D01*
X157154571Y-73406095D01*
X157106952Y-73453714D01*
X157059333Y-73548952D01*
X157059333Y-73739428D01*
X157106952Y-73834666D01*
X157154571Y-73882285D01*
X157249809Y-73929904D01*
%TO.C,Q5*%
X157773619Y-69691238D02*
X157726000Y-69786476D01*
X157630761Y-69881714D01*
X157487904Y-70024571D01*
X157440285Y-70119809D01*
X157440285Y-70215047D01*
X157678380Y-70167428D02*
X157630761Y-70262666D01*
X157535523Y-70357904D01*
X157345047Y-70405523D01*
X157011714Y-70405523D01*
X156821238Y-70357904D01*
X156726000Y-70262666D01*
X156678380Y-70167428D01*
X156678380Y-69976952D01*
X156726000Y-69881714D01*
X156821238Y-69786476D01*
X157011714Y-69738857D01*
X157345047Y-69738857D01*
X157535523Y-69786476D01*
X157630761Y-69881714D01*
X157678380Y-69976952D01*
X157678380Y-70167428D01*
X156678380Y-68834095D02*
X156678380Y-69310285D01*
X157154571Y-69357904D01*
X157106952Y-69310285D01*
X157059333Y-69215047D01*
X157059333Y-68976952D01*
X157106952Y-68881714D01*
X157154571Y-68834095D01*
X157249809Y-68786476D01*
X157487904Y-68786476D01*
X157583142Y-68834095D01*
X157630761Y-68881714D01*
X157678380Y-68976952D01*
X157678380Y-69215047D01*
X157630761Y-69310285D01*
X157583142Y-69357904D01*
%TO.C,Q4*%
X182665619Y-74263238D02*
X182618000Y-74358476D01*
X182522761Y-74453714D01*
X182379904Y-74596571D01*
X182332285Y-74691809D01*
X182332285Y-74787047D01*
X182570380Y-74739428D02*
X182522761Y-74834666D01*
X182427523Y-74929904D01*
X182237047Y-74977523D01*
X181903714Y-74977523D01*
X181713238Y-74929904D01*
X181618000Y-74834666D01*
X181570380Y-74739428D01*
X181570380Y-74548952D01*
X181618000Y-74453714D01*
X181713238Y-74358476D01*
X181903714Y-74310857D01*
X182237047Y-74310857D01*
X182427523Y-74358476D01*
X182522761Y-74453714D01*
X182570380Y-74548952D01*
X182570380Y-74739428D01*
X181903714Y-73453714D02*
X182570380Y-73453714D01*
X181522761Y-73691809D02*
X182237047Y-73929904D01*
X182237047Y-73310857D01*
%TO.C,Q3*%
X182665619Y-69691238D02*
X182618000Y-69786476D01*
X182522761Y-69881714D01*
X182379904Y-70024571D01*
X182332285Y-70119809D01*
X182332285Y-70215047D01*
X182570380Y-70167428D02*
X182522761Y-70262666D01*
X182427523Y-70357904D01*
X182237047Y-70405523D01*
X181903714Y-70405523D01*
X181713238Y-70357904D01*
X181618000Y-70262666D01*
X181570380Y-70167428D01*
X181570380Y-69976952D01*
X181618000Y-69881714D01*
X181713238Y-69786476D01*
X181903714Y-69738857D01*
X182237047Y-69738857D01*
X182427523Y-69786476D01*
X182522761Y-69881714D01*
X182570380Y-69976952D01*
X182570380Y-70167428D01*
X181570380Y-69405523D02*
X181570380Y-68786476D01*
X181951333Y-69119809D01*
X181951333Y-68976952D01*
X181998952Y-68881714D01*
X182046571Y-68834095D01*
X182141809Y-68786476D01*
X182379904Y-68786476D01*
X182475142Y-68834095D01*
X182522761Y-68881714D01*
X182570380Y-68976952D01*
X182570380Y-69262666D01*
X182522761Y-69357904D01*
X182475142Y-69405523D01*
%TO.C,Q2*%
X182665619Y-78835238D02*
X182618000Y-78930476D01*
X182522761Y-79025714D01*
X182379904Y-79168571D01*
X182332285Y-79263809D01*
X182332285Y-79359047D01*
X182570380Y-79311428D02*
X182522761Y-79406666D01*
X182427523Y-79501904D01*
X182237047Y-79549523D01*
X181903714Y-79549523D01*
X181713238Y-79501904D01*
X181618000Y-79406666D01*
X181570380Y-79311428D01*
X181570380Y-79120952D01*
X181618000Y-79025714D01*
X181713238Y-78930476D01*
X181903714Y-78882857D01*
X182237047Y-78882857D01*
X182427523Y-78930476D01*
X182522761Y-79025714D01*
X182570380Y-79120952D01*
X182570380Y-79311428D01*
X181665619Y-78501904D02*
X181618000Y-78454285D01*
X181570380Y-78359047D01*
X181570380Y-78120952D01*
X181618000Y-78025714D01*
X181665619Y-77978095D01*
X181760857Y-77930476D01*
X181856095Y-77930476D01*
X181998952Y-77978095D01*
X182570380Y-78549523D01*
X182570380Y-77930476D01*
%TO.C,Q1*%
X163107619Y-78835238D02*
X163060000Y-78930476D01*
X162964761Y-79025714D01*
X162821904Y-79168571D01*
X162774285Y-79263809D01*
X162774285Y-79359047D01*
X163012380Y-79311428D02*
X162964761Y-79406666D01*
X162869523Y-79501904D01*
X162679047Y-79549523D01*
X162345714Y-79549523D01*
X162155238Y-79501904D01*
X162060000Y-79406666D01*
X162012380Y-79311428D01*
X162012380Y-79120952D01*
X162060000Y-79025714D01*
X162155238Y-78930476D01*
X162345714Y-78882857D01*
X162679047Y-78882857D01*
X162869523Y-78930476D01*
X162964761Y-79025714D01*
X163012380Y-79120952D01*
X163012380Y-79311428D01*
X163012380Y-77930476D02*
X163012380Y-78501904D01*
X163012380Y-78216190D02*
X162012380Y-78216190D01*
X162155238Y-78311428D01*
X162250476Y-78406666D01*
X162298095Y-78501904D01*
%TO.C,PS1*%
X127960380Y-85288285D02*
X126960380Y-85288285D01*
X126960380Y-84907333D01*
X127008000Y-84812095D01*
X127055619Y-84764476D01*
X127150857Y-84716857D01*
X127293714Y-84716857D01*
X127388952Y-84764476D01*
X127436571Y-84812095D01*
X127484190Y-84907333D01*
X127484190Y-85288285D01*
X127912761Y-84335904D02*
X127960380Y-84193047D01*
X127960380Y-83954952D01*
X127912761Y-83859714D01*
X127865142Y-83812095D01*
X127769904Y-83764476D01*
X127674666Y-83764476D01*
X127579428Y-83812095D01*
X127531809Y-83859714D01*
X127484190Y-83954952D01*
X127436571Y-84145428D01*
X127388952Y-84240666D01*
X127341333Y-84288285D01*
X127246095Y-84335904D01*
X127150857Y-84335904D01*
X127055619Y-84288285D01*
X127008000Y-84240666D01*
X126960380Y-84145428D01*
X126960380Y-83907333D01*
X127008000Y-83764476D01*
X127960380Y-82812095D02*
X127960380Y-83383523D01*
X127960380Y-83097809D02*
X126960380Y-83097809D01*
X127103238Y-83193047D01*
X127198476Y-83288285D01*
X127246095Y-83383523D01*
%TO.C,L1*%
X118197333Y-59522380D02*
X117721142Y-59522380D01*
X117721142Y-58522380D01*
X119054476Y-59522380D02*
X118483047Y-59522380D01*
X118768761Y-59522380D02*
X118768761Y-58522380D01*
X118673523Y-58665238D01*
X118578285Y-58760476D01*
X118483047Y-58808095D01*
%TO.C,J4*%
X116610380Y-84407333D02*
X117324666Y-84407333D01*
X117467523Y-84454952D01*
X117562761Y-84550190D01*
X117610380Y-84693047D01*
X117610380Y-84788285D01*
X116943714Y-83502571D02*
X117610380Y-83502571D01*
X116562761Y-83740666D02*
X117277047Y-83978761D01*
X117277047Y-83359714D01*
%TO.C,J1*%
X171694666Y-92797380D02*
X171694666Y-93511666D01*
X171647047Y-93654523D01*
X171551809Y-93749761D01*
X171408952Y-93797380D01*
X171313714Y-93797380D01*
X172694666Y-93797380D02*
X172123238Y-93797380D01*
X172408952Y-93797380D02*
X172408952Y-92797380D01*
X172313714Y-92940238D01*
X172218476Y-93035476D01*
X172123238Y-93083095D01*
%TO.C,F1*%
X111942571Y-84407333D02*
X111942571Y-84740666D01*
X112466380Y-84740666D02*
X111466380Y-84740666D01*
X111466380Y-84264476D01*
X112466380Y-83359714D02*
X112466380Y-83931142D01*
X112466380Y-83645428D02*
X111466380Y-83645428D01*
X111609238Y-83740666D01*
X111704476Y-83835904D01*
X111752095Y-83931142D01*
%TO.C,D5*%
X154376380Y-95480095D02*
X153376380Y-95480095D01*
X153376380Y-95242000D01*
X153424000Y-95099142D01*
X153519238Y-95003904D01*
X153614476Y-94956285D01*
X153804952Y-94908666D01*
X153947809Y-94908666D01*
X154138285Y-94956285D01*
X154233523Y-95003904D01*
X154328761Y-95099142D01*
X154376380Y-95242000D01*
X154376380Y-95480095D01*
X153376380Y-94003904D02*
X153376380Y-94480095D01*
X153852571Y-94527714D01*
X153804952Y-94480095D01*
X153757333Y-94384857D01*
X153757333Y-94146761D01*
X153804952Y-94051523D01*
X153852571Y-94003904D01*
X153947809Y-93956285D01*
X154185904Y-93956285D01*
X154281142Y-94003904D01*
X154328761Y-94051523D01*
X154376380Y-94146761D01*
X154376380Y-94384857D01*
X154328761Y-94480095D01*
X154281142Y-94527714D01*
%TO.C,D4*%
X186888380Y-67032095D02*
X185888380Y-67032095D01*
X185888380Y-66794000D01*
X185936000Y-66651142D01*
X186031238Y-66555904D01*
X186126476Y-66508285D01*
X186316952Y-66460666D01*
X186459809Y-66460666D01*
X186650285Y-66508285D01*
X186745523Y-66555904D01*
X186840761Y-66651142D01*
X186888380Y-66794000D01*
X186888380Y-67032095D01*
X186221714Y-65603523D02*
X186888380Y-65603523D01*
X185840761Y-65841619D02*
X186555047Y-66079714D01*
X186555047Y-65460666D01*
%TO.C,D3*%
X199914380Y-88622095D02*
X198914380Y-88622095D01*
X198914380Y-88384000D01*
X198962000Y-88241142D01*
X199057238Y-88145904D01*
X199152476Y-88098285D01*
X199342952Y-88050666D01*
X199485809Y-88050666D01*
X199676285Y-88098285D01*
X199771523Y-88145904D01*
X199866761Y-88241142D01*
X199914380Y-88384000D01*
X199914380Y-88622095D01*
X198914380Y-87717333D02*
X198914380Y-87098285D01*
X199295333Y-87431619D01*
X199295333Y-87288761D01*
X199342952Y-87193523D01*
X199390571Y-87145904D01*
X199485809Y-87098285D01*
X199723904Y-87098285D01*
X199819142Y-87145904D01*
X199866761Y-87193523D01*
X199914380Y-87288761D01*
X199914380Y-87574476D01*
X199866761Y-87669714D01*
X199819142Y-87717333D01*
%TO.C,D2*%
X186888380Y-81510095D02*
X185888380Y-81510095D01*
X185888380Y-81272000D01*
X185936000Y-81129142D01*
X186031238Y-81033904D01*
X186126476Y-80986285D01*
X186316952Y-80938666D01*
X186459809Y-80938666D01*
X186650285Y-80986285D01*
X186745523Y-81033904D01*
X186840761Y-81129142D01*
X186888380Y-81272000D01*
X186888380Y-81510095D01*
X185983619Y-80557714D02*
X185936000Y-80510095D01*
X185888380Y-80414857D01*
X185888380Y-80176761D01*
X185936000Y-80081523D01*
X185983619Y-80033904D01*
X186078857Y-79986285D01*
X186174095Y-79986285D01*
X186316952Y-80033904D01*
X186888380Y-80605333D01*
X186888380Y-79986285D01*
%TO.C,D1*%
X156916380Y-95480095D02*
X155916380Y-95480095D01*
X155916380Y-95242000D01*
X155964000Y-95099142D01*
X156059238Y-95003904D01*
X156154476Y-94956285D01*
X156344952Y-94908666D01*
X156487809Y-94908666D01*
X156678285Y-94956285D01*
X156773523Y-95003904D01*
X156868761Y-95099142D01*
X156916380Y-95242000D01*
X156916380Y-95480095D01*
X156916380Y-93956285D02*
X156916380Y-94527714D01*
X156916380Y-94242000D02*
X155916380Y-94242000D01*
X156059238Y-94337238D01*
X156154476Y-94432476D01*
X156202095Y-94527714D01*
%TO.C,C13*%
X156583142Y-78081142D02*
X156535523Y-78128761D01*
X156392666Y-78176380D01*
X156297428Y-78176380D01*
X156154571Y-78128761D01*
X156059333Y-78033523D01*
X156011714Y-77938285D01*
X155964095Y-77747809D01*
X155964095Y-77604952D01*
X156011714Y-77414476D01*
X156059333Y-77319238D01*
X156154571Y-77224000D01*
X156297428Y-77176380D01*
X156392666Y-77176380D01*
X156535523Y-77224000D01*
X156583142Y-77271619D01*
X157535523Y-78176380D02*
X156964095Y-78176380D01*
X157249809Y-78176380D02*
X157249809Y-77176380D01*
X157154571Y-77319238D01*
X157059333Y-77414476D01*
X156964095Y-77462095D01*
X157868857Y-77176380D02*
X158487904Y-77176380D01*
X158154571Y-77557333D01*
X158297428Y-77557333D01*
X158392666Y-77604952D01*
X158440285Y-77652571D01*
X158487904Y-77747809D01*
X158487904Y-77985904D01*
X158440285Y-78081142D01*
X158392666Y-78128761D01*
X158297428Y-78176380D01*
X158011714Y-78176380D01*
X157916476Y-78128761D01*
X157868857Y-78081142D01*
%TO.C,C12*%
X159361142Y-94876857D02*
X159408761Y-94924476D01*
X159456380Y-95067333D01*
X159456380Y-95162571D01*
X159408761Y-95305428D01*
X159313523Y-95400666D01*
X159218285Y-95448285D01*
X159027809Y-95495904D01*
X158884952Y-95495904D01*
X158694476Y-95448285D01*
X158599238Y-95400666D01*
X158504000Y-95305428D01*
X158456380Y-95162571D01*
X158456380Y-95067333D01*
X158504000Y-94924476D01*
X158551619Y-94876857D01*
X159456380Y-93924476D02*
X159456380Y-94495904D01*
X159456380Y-94210190D02*
X158456380Y-94210190D01*
X158599238Y-94305428D01*
X158694476Y-94400666D01*
X158742095Y-94495904D01*
X158551619Y-93543523D02*
X158504000Y-93495904D01*
X158456380Y-93400666D01*
X158456380Y-93162571D01*
X158504000Y-93067333D01*
X158551619Y-93019714D01*
X158646857Y-92972095D01*
X158742095Y-92972095D01*
X158884952Y-93019714D01*
X159456380Y-93591142D01*
X159456380Y-92972095D01*
%TO.C,C11*%
X151995142Y-94876857D02*
X152042761Y-94924476D01*
X152090380Y-95067333D01*
X152090380Y-95162571D01*
X152042761Y-95305428D01*
X151947523Y-95400666D01*
X151852285Y-95448285D01*
X151661809Y-95495904D01*
X151518952Y-95495904D01*
X151328476Y-95448285D01*
X151233238Y-95400666D01*
X151138000Y-95305428D01*
X151090380Y-95162571D01*
X151090380Y-95067333D01*
X151138000Y-94924476D01*
X151185619Y-94876857D01*
X152090380Y-93924476D02*
X152090380Y-94495904D01*
X152090380Y-94210190D02*
X151090380Y-94210190D01*
X151233238Y-94305428D01*
X151328476Y-94400666D01*
X151376095Y-94495904D01*
X152090380Y-92972095D02*
X152090380Y-93543523D01*
X152090380Y-93257809D02*
X151090380Y-93257809D01*
X151233238Y-93353047D01*
X151328476Y-93448285D01*
X151376095Y-93543523D01*
%TO.C,C10*%
X142343142Y-94876857D02*
X142390761Y-94924476D01*
X142438380Y-95067333D01*
X142438380Y-95162571D01*
X142390761Y-95305428D01*
X142295523Y-95400666D01*
X142200285Y-95448285D01*
X142009809Y-95495904D01*
X141866952Y-95495904D01*
X141676476Y-95448285D01*
X141581238Y-95400666D01*
X141486000Y-95305428D01*
X141438380Y-95162571D01*
X141438380Y-95067333D01*
X141486000Y-94924476D01*
X141533619Y-94876857D01*
X142438380Y-93924476D02*
X142438380Y-94495904D01*
X142438380Y-94210190D02*
X141438380Y-94210190D01*
X141581238Y-94305428D01*
X141676476Y-94400666D01*
X141724095Y-94495904D01*
X141438380Y-93305428D02*
X141438380Y-93210190D01*
X141486000Y-93114952D01*
X141533619Y-93067333D01*
X141628857Y-93019714D01*
X141819333Y-92972095D01*
X142057428Y-92972095D01*
X142247904Y-93019714D01*
X142343142Y-93067333D01*
X142390761Y-93114952D01*
X142438380Y-93210190D01*
X142438380Y-93305428D01*
X142390761Y-93400666D01*
X142343142Y-93448285D01*
X142247904Y-93495904D01*
X142057428Y-93543523D01*
X141819333Y-93543523D01*
X141628857Y-93495904D01*
X141533619Y-93448285D01*
X141486000Y-93400666D01*
X141438380Y-93305428D01*
%TO.C,C9*%
X134961333Y-98655142D02*
X134913714Y-98702761D01*
X134770857Y-98750380D01*
X134675619Y-98750380D01*
X134532761Y-98702761D01*
X134437523Y-98607523D01*
X134389904Y-98512285D01*
X134342285Y-98321809D01*
X134342285Y-98178952D01*
X134389904Y-97988476D01*
X134437523Y-97893238D01*
X134532761Y-97798000D01*
X134675619Y-97750380D01*
X134770857Y-97750380D01*
X134913714Y-97798000D01*
X134961333Y-97845619D01*
X135437523Y-98750380D02*
X135628000Y-98750380D01*
X135723238Y-98702761D01*
X135770857Y-98655142D01*
X135866095Y-98512285D01*
X135913714Y-98321809D01*
X135913714Y-97940857D01*
X135866095Y-97845619D01*
X135818476Y-97798000D01*
X135723238Y-97750380D01*
X135532761Y-97750380D01*
X135437523Y-97798000D01*
X135389904Y-97845619D01*
X135342285Y-97940857D01*
X135342285Y-98178952D01*
X135389904Y-98274190D01*
X135437523Y-98321809D01*
X135532761Y-98369428D01*
X135723238Y-98369428D01*
X135818476Y-98321809D01*
X135866095Y-98274190D01*
X135913714Y-98178952D01*
%TO.C,C8*%
X118077333Y-66397142D02*
X118029714Y-66444761D01*
X117886857Y-66492380D01*
X117791619Y-66492380D01*
X117648761Y-66444761D01*
X117553523Y-66349523D01*
X117505904Y-66254285D01*
X117458285Y-66063809D01*
X117458285Y-65920952D01*
X117505904Y-65730476D01*
X117553523Y-65635238D01*
X117648761Y-65540000D01*
X117791619Y-65492380D01*
X117886857Y-65492380D01*
X118029714Y-65540000D01*
X118077333Y-65587619D01*
X118648761Y-65920952D02*
X118553523Y-65873333D01*
X118505904Y-65825714D01*
X118458285Y-65730476D01*
X118458285Y-65682857D01*
X118505904Y-65587619D01*
X118553523Y-65540000D01*
X118648761Y-65492380D01*
X118839238Y-65492380D01*
X118934476Y-65540000D01*
X118982095Y-65587619D01*
X119029714Y-65682857D01*
X119029714Y-65730476D01*
X118982095Y-65825714D01*
X118934476Y-65873333D01*
X118839238Y-65920952D01*
X118648761Y-65920952D01*
X118553523Y-65968571D01*
X118505904Y-66016190D01*
X118458285Y-66111428D01*
X118458285Y-66301904D01*
X118505904Y-66397142D01*
X118553523Y-66444761D01*
X118648761Y-66492380D01*
X118839238Y-66492380D01*
X118934476Y-66444761D01*
X118982095Y-66397142D01*
X119029714Y-66301904D01*
X119029714Y-66111428D01*
X118982095Y-66016190D01*
X118934476Y-65968571D01*
X118839238Y-65920952D01*
%TO.C,C7*%
X178903333Y-94845142D02*
X178855714Y-94892761D01*
X178712857Y-94940380D01*
X178617619Y-94940380D01*
X178474761Y-94892761D01*
X178379523Y-94797523D01*
X178331904Y-94702285D01*
X178284285Y-94511809D01*
X178284285Y-94368952D01*
X178331904Y-94178476D01*
X178379523Y-94083238D01*
X178474761Y-93988000D01*
X178617619Y-93940380D01*
X178712857Y-93940380D01*
X178855714Y-93988000D01*
X178903333Y-94035619D01*
X179236666Y-93940380D02*
X179903333Y-93940380D01*
X179474761Y-94940380D01*
%TO.C,C6*%
X178903333Y-82653142D02*
X178855714Y-82700761D01*
X178712857Y-82748380D01*
X178617619Y-82748380D01*
X178474761Y-82700761D01*
X178379523Y-82605523D01*
X178331904Y-82510285D01*
X178284285Y-82319809D01*
X178284285Y-82176952D01*
X178331904Y-81986476D01*
X178379523Y-81891238D01*
X178474761Y-81796000D01*
X178617619Y-81748380D01*
X178712857Y-81748380D01*
X178855714Y-81796000D01*
X178903333Y-81843619D01*
X179760476Y-81748380D02*
X179570000Y-81748380D01*
X179474761Y-81796000D01*
X179427142Y-81843619D01*
X179331904Y-81986476D01*
X179284285Y-82176952D01*
X179284285Y-82557904D01*
X179331904Y-82653142D01*
X179379523Y-82700761D01*
X179474761Y-82748380D01*
X179665238Y-82748380D01*
X179760476Y-82700761D01*
X179808095Y-82653142D01*
X179855714Y-82557904D01*
X179855714Y-82319809D01*
X179808095Y-82224571D01*
X179760476Y-82176952D01*
X179665238Y-82129333D01*
X179474761Y-82129333D01*
X179379523Y-82176952D01*
X179331904Y-82224571D01*
X179284285Y-82319809D01*
%TO.C,C5*%
X166981142Y-83478666D02*
X167028761Y-83526285D01*
X167076380Y-83669142D01*
X167076380Y-83764380D01*
X167028761Y-83907238D01*
X166933523Y-84002476D01*
X166838285Y-84050095D01*
X166647809Y-84097714D01*
X166504952Y-84097714D01*
X166314476Y-84050095D01*
X166219238Y-84002476D01*
X166124000Y-83907238D01*
X166076380Y-83764380D01*
X166076380Y-83669142D01*
X166124000Y-83526285D01*
X166171619Y-83478666D01*
X166076380Y-82573904D02*
X166076380Y-83050095D01*
X166552571Y-83097714D01*
X166504952Y-83050095D01*
X166457333Y-82954857D01*
X166457333Y-82716761D01*
X166504952Y-82621523D01*
X166552571Y-82573904D01*
X166647809Y-82526285D01*
X166885904Y-82526285D01*
X166981142Y-82573904D01*
X167028761Y-82621523D01*
X167076380Y-82716761D01*
X167076380Y-82954857D01*
X167028761Y-83050095D01*
X166981142Y-83097714D01*
%TO.C,C4*%
X166981142Y-93384666D02*
X167028761Y-93432285D01*
X167076380Y-93575142D01*
X167076380Y-93670380D01*
X167028761Y-93813238D01*
X166933523Y-93908476D01*
X166838285Y-93956095D01*
X166647809Y-94003714D01*
X166504952Y-94003714D01*
X166314476Y-93956095D01*
X166219238Y-93908476D01*
X166124000Y-93813238D01*
X166076380Y-93670380D01*
X166076380Y-93575142D01*
X166124000Y-93432285D01*
X166171619Y-93384666D01*
X166409714Y-92527523D02*
X167076380Y-92527523D01*
X166028761Y-92765619D02*
X166743047Y-93003714D01*
X166743047Y-92384666D01*
%TO.C,C3*%
X157059333Y-42775142D02*
X157011714Y-42822761D01*
X156868857Y-42870380D01*
X156773619Y-42870380D01*
X156630761Y-42822761D01*
X156535523Y-42727523D01*
X156487904Y-42632285D01*
X156440285Y-42441809D01*
X156440285Y-42298952D01*
X156487904Y-42108476D01*
X156535523Y-42013238D01*
X156630761Y-41918000D01*
X156773619Y-41870380D01*
X156868857Y-41870380D01*
X157011714Y-41918000D01*
X157059333Y-41965619D01*
X157392666Y-41870380D02*
X158011714Y-41870380D01*
X157678380Y-42251333D01*
X157821238Y-42251333D01*
X157916476Y-42298952D01*
X157964095Y-42346571D01*
X158011714Y-42441809D01*
X158011714Y-42679904D01*
X157964095Y-42775142D01*
X157916476Y-42822761D01*
X157821238Y-42870380D01*
X157535523Y-42870380D01*
X157440285Y-42822761D01*
X157392666Y-42775142D01*
%TO.C,C2*%
X157059333Y-65127142D02*
X157011714Y-65174761D01*
X156868857Y-65222380D01*
X156773619Y-65222380D01*
X156630761Y-65174761D01*
X156535523Y-65079523D01*
X156487904Y-64984285D01*
X156440285Y-64793809D01*
X156440285Y-64650952D01*
X156487904Y-64460476D01*
X156535523Y-64365238D01*
X156630761Y-64270000D01*
X156773619Y-64222380D01*
X156868857Y-64222380D01*
X157011714Y-64270000D01*
X157059333Y-64317619D01*
X157440285Y-64317619D02*
X157487904Y-64270000D01*
X157583142Y-64222380D01*
X157821238Y-64222380D01*
X157916476Y-64270000D01*
X157964095Y-64317619D01*
X158011714Y-64412857D01*
X158011714Y-64508095D01*
X157964095Y-64650952D01*
X157392666Y-65222380D01*
X158011714Y-65222380D01*
%TO.C,C1*%
X157059333Y-59285142D02*
X157011714Y-59332761D01*
X156868857Y-59380380D01*
X156773619Y-59380380D01*
X156630761Y-59332761D01*
X156535523Y-59237523D01*
X156487904Y-59142285D01*
X156440285Y-58951809D01*
X156440285Y-58808952D01*
X156487904Y-58618476D01*
X156535523Y-58523238D01*
X156630761Y-58428000D01*
X156773619Y-58380380D01*
X156868857Y-58380380D01*
X157011714Y-58428000D01*
X157059333Y-58475619D01*
X158011714Y-59380380D02*
X157440285Y-59380380D01*
X157726000Y-59380380D02*
X157726000Y-58380380D01*
X157630761Y-58523238D01*
X157535523Y-58618476D01*
X157440285Y-58666095D01*
%TD*%
M02*
