M48
; DRILL file {KiCad (5.1.9)-1} date 08/08/21 17:51:31
; FORMAT={-:-/ absolute / metric / decimal}
; #@! TF.CreationDate,2021-08-08T17:51:31+03:00
; #@! TF.GenerationSoftware,Kicad,Pcbnew,(5.1.9)-1
; #@! TF.FileFunction,Plated,1,2,PTH
FMAT,2
METRIC
T1C0.400
T2C0.800
T3C0.900
T4C1.000
T5C1.200
T6C1.300
T7C1.500
T8C2.000
T9C3.200
%
G90
G05
T1
X159.766Y-70.612
X159.766Y-75.184
X159.766Y-78.74
X160.782Y-81.026
X161.036Y-91.44
X162.306Y-81.026
X162.792Y-89.386
X162.814Y-91.44
X164.084Y-71.882
X164.592Y-91.44
X164.846Y-49.022
X164.846Y-58.42
X164.846Y-59.944
X165.608Y-71.882
X166.37Y-97.79
X167.132Y-71.882
X167.894Y-77.978
X169.164Y-88.9
X170.18Y-51.054
X170.942Y-71.882
X171.178Y-92.964
X171.196Y-88.9
X172.228Y-92.964
X172.466Y-51.054
X172.466Y-58.42
X172.994Y-87.991
X173.736Y-88.734
X174.244Y-71.882
X174.244Y-75.438
X174.752Y-51.054
X174.752Y-53.086
X174.752Y-55.118
X175.768Y-70.866
X177.8Y-97.79
X179.578Y-54.356
X179.578Y-64.516
X179.578Y-66.04
X179.578Y-75.184
X181.102Y-53.086
X181.102Y-54.356
X181.356Y-80.518
X182.88Y-78.74
X184.658Y-78.74
T2
X114.364Y-48.57
X114.364Y-55.57
X114.554Y-68.58
X122.054Y-71.28
X122.364Y-48.57
X122.364Y-55.57
X190.11Y-60.845
X190.11Y-63.385
X190.11Y-75.345
X190.11Y-77.885
X192.65Y-62.115
X192.65Y-64.655
X192.65Y-76.615
X192.65Y-79.155
T3
X201.422Y-86.614
X201.422Y-89.154
T4
X200.66Y-49.53
X200.66Y-54.03
T5
X110.744Y-62.484
X125.744Y-62.484
T6
X198.16Y-48.28
X198.16Y-55.28
T7
X131.998Y-45.466
X131.998Y-83.966
X139.998Y-83.966
X142.748Y-45.466
T8
X121.158Y-78.074
X121.158Y-90.074
T9
X105.05Y-70.0
X187.8Y-50.0
X187.8Y-90.0
T0
M30
