%TF.GenerationSoftware,KiCad,Pcbnew,(5.1.9)-1*%
%TF.CreationDate,2022-09-19T23:43:11+03:00*%
%TF.ProjectId,ESP8266DevBoard,45535038-3236-4364-9465-76426f617264,1.1*%
%TF.SameCoordinates,Original*%
%TF.FileFunction,Copper,L2,Bot*%
%TF.FilePolarity,Positive*%
%FSLAX46Y46*%
G04 Gerber Fmt 4.6, Leading zero omitted, Abs format (unit mm)*
G04 Created by KiCad (PCBNEW (5.1.9)-1) date 2022-09-19 23:43:11*
%MOMM*%
%LPD*%
G01*
G04 APERTURE LIST*
%TA.AperFunction,NonConductor*%
%ADD10C,0.300000*%
%TD*%
%TA.AperFunction,ComponentPad*%
%ADD11O,1.700000X1.700000*%
%TD*%
%TA.AperFunction,ComponentPad*%
%ADD12R,1.700000X1.700000*%
%TD*%
%TA.AperFunction,ComponentPad*%
%ADD13C,1.600000*%
%TD*%
%TA.AperFunction,ComponentPad*%
%ADD14R,1.600000X1.600000*%
%TD*%
%TA.AperFunction,ComponentPad*%
%ADD15C,6.400000*%
%TD*%
%TA.AperFunction,ComponentPad*%
%ADD16C,1.700000*%
%TD*%
%TA.AperFunction,ComponentPad*%
%ADD17C,2.200000*%
%TD*%
%TA.AperFunction,ComponentPad*%
%ADD18C,1.800000*%
%TD*%
%TA.AperFunction,ComponentPad*%
%ADD19R,3.000000X3.000000*%
%TD*%
%TA.AperFunction,ComponentPad*%
%ADD20C,3.000000*%
%TD*%
%TA.AperFunction,ComponentPad*%
%ADD21C,3.800000*%
%TD*%
%TA.AperFunction,ComponentPad*%
%ADD22R,1.800000X1.800000*%
%TD*%
%TA.AperFunction,ComponentPad*%
%ADD23C,2.400000*%
%TD*%
%TA.AperFunction,ViaPad*%
%ADD24C,0.800000*%
%TD*%
%TA.AperFunction,Conductor*%
%ADD25C,1.000000*%
%TD*%
%TA.AperFunction,Conductor*%
%ADD26C,0.500000*%
%TD*%
%TA.AperFunction,Conductor*%
%ADD27C,0.200000*%
%TD*%
%TA.AperFunction,Conductor*%
%ADD28C,0.254000*%
%TD*%
%TA.AperFunction,Conductor*%
%ADD29C,0.100000*%
%TD*%
G04 APERTURE END LIST*
D10*
X189230000Y-41148000D02*
X193040000Y-41148000D01*
X185420000Y-41148000D02*
X189230000Y-41148000D01*
X185420000Y-44450000D02*
X189230000Y-44450000D01*
X189230000Y-44450000D02*
X193040000Y-44450000D01*
X185420000Y-41148000D02*
X185420000Y-44450000D01*
X189230000Y-41148000D02*
X189230000Y-44450000D01*
X193040000Y-41148000D02*
X193040000Y-44450000D01*
X191436571Y-42247428D02*
X191365142Y-42176000D01*
X191222285Y-42104571D01*
X190865142Y-42104571D01*
X190722285Y-42176000D01*
X190650857Y-42247428D01*
X190579428Y-42390285D01*
X190579428Y-42533142D01*
X190650857Y-42747428D01*
X191508000Y-43604571D01*
X190579428Y-43604571D01*
D11*
%TO.P,J5,5*%
%TO.N,GND*%
X181610000Y-97790000D03*
%TO.P,J5,4*%
%TO.N,RTS*%
X184150000Y-97790000D03*
%TO.P,J5,3*%
%TO.N,TX*%
X186690000Y-97790000D03*
%TO.P,J5,2*%
%TO.N,RX*%
X189230000Y-97790000D03*
D12*
%TO.P,J5,1*%
%TO.N,DTR*%
X191770000Y-97790000D03*
%TD*%
D13*
%TO.P,J3,8*%
%TO.N,GND*%
X192913000Y-56388000D03*
%TO.P,J3,7*%
%TO.N,Net-(J3-Pad7)*%
X195453000Y-57658000D03*
%TO.P,J3,6*%
%TO.N,Net-(J3-Pad6)*%
X192913000Y-58928000D03*
%TO.P,J3,5*%
%TO.N,Net-(J3-Pad5)*%
X195453000Y-60198000D03*
%TO.P,J3,4*%
%TO.N,Net-(J3-Pad4)*%
X192913000Y-61468000D03*
%TO.P,J3,3*%
%TO.N,Net-(J3-Pad3)*%
X195453000Y-62738000D03*
%TO.P,J3,2*%
%TO.N,Net-(J3-Pad2)*%
X192913000Y-64008000D03*
D14*
%TO.P,J3,1*%
%TO.N,Net-(D4-Pad1)*%
X195453000Y-65278000D03*
%TD*%
D13*
%TO.P,J2,8*%
%TO.N,GND*%
X192913000Y-74930000D03*
%TO.P,J2,7*%
%TO.N,Net-(J2-Pad7)*%
X195453000Y-76200000D03*
%TO.P,J2,6*%
%TO.N,Net-(J2-Pad6)*%
X192913000Y-77470000D03*
%TO.P,J2,5*%
%TO.N,Net-(J2-Pad5)*%
X195453000Y-78740000D03*
%TO.P,J2,4*%
%TO.N,Net-(J2-Pad4)*%
X192913000Y-80010000D03*
%TO.P,J2,3*%
%TO.N,Net-(J2-Pad3)*%
X195453000Y-81280000D03*
%TO.P,J2,2*%
%TO.N,Net-(J2-Pad2)*%
X192913000Y-82550000D03*
D14*
%TO.P,J2,1*%
%TO.N,Net-(D2-Pad1)*%
X195453000Y-83820000D03*
%TD*%
D15*
%TO.P,H1,1*%
%TO.N,N/C*%
X105050000Y-70000000D03*
%TD*%
%TO.P,H3,1*%
%TO.N,GND*%
X187800000Y-50000000D03*
%TD*%
%TO.P,H2,1*%
%TO.N,GND*%
X187800000Y-90000000D03*
%TD*%
D16*
%TO.P,SW1,1*%
%TO.N,GND*%
X163068000Y-97155000D03*
%TO.P,SW1,2*%
%TO.N,RST*%
X158568000Y-97155000D03*
D17*
%TO.P,SW1,4*%
%TO.N,GND*%
X164318000Y-94655000D03*
%TO.P,SW1,3*%
X157318000Y-94655000D03*
%TD*%
D18*
%TO.P,RV1,2*%
%TO.N,Net-(C8-Pad2)*%
X122054000Y-71280000D03*
%TO.P,RV1,1*%
%TO.N,Net-(C8-Pad1)*%
X114554000Y-68580000D03*
%TD*%
D19*
%TO.P,PS1,1*%
%TO.N,Net-(L1-Pad2)*%
X142748000Y-45466000D03*
D20*
%TO.P,PS1,4*%
%TO.N,+12V*%
X139998000Y-83966000D03*
%TO.P,PS1,2*%
%TO.N,Net-(L1-Pad4)*%
X131998000Y-45466000D03*
%TO.P,PS1,3*%
%TO.N,GND*%
X131998000Y-83966000D03*
%TD*%
D13*
%TO.P,L1,3*%
%TO.N,Net-(C8-Pad1)*%
X114364000Y-55570000D03*
%TO.P,L1,4*%
%TO.N,Net-(L1-Pad4)*%
X114364000Y-48570000D03*
%TO.P,L1,2*%
%TO.N,Net-(L1-Pad2)*%
X122364000Y-48570000D03*
%TO.P,L1,1*%
%TO.N,Net-(C8-Pad2)*%
X122364000Y-55570000D03*
%TD*%
D21*
%TO.P,J4,2*%
%TO.N,Net-(C8-Pad2)*%
X121158000Y-78074000D03*
%TO.P,J4,1*%
%TO.N,Net-(F1-Pad2)*%
X121158000Y-90074000D03*
%TD*%
D18*
%TO.P,D3,2*%
%TO.N,+5V*%
X154559000Y-96647000D03*
D22*
%TO.P,D3,1*%
%TO.N,Net-(D3-Pad1)*%
X152019000Y-96647000D03*
%TD*%
D23*
%TO.P,C8,2*%
%TO.N,Net-(C8-Pad2)*%
X125744000Y-62484000D03*
%TO.P,C8,1*%
%TO.N,Net-(C8-Pad1)*%
X110744000Y-62484000D03*
%TD*%
D24*
%TO.N,GND*%
X177800000Y-97790000D03*
X166370000Y-97790000D03*
X161798000Y-91440000D03*
X159512000Y-91440000D03*
X164211000Y-91440000D03*
X160782000Y-81407000D03*
X162560000Y-81407000D03*
X179578000Y-64516000D03*
X179578000Y-62611000D03*
X174752000Y-51054000D03*
X172466000Y-51054000D03*
X170180000Y-51054000D03*
X166500000Y-86000000D03*
%TO.N,+12V*%
X184658000Y-79629000D03*
X182880000Y-79629000D03*
X175387000Y-71882000D03*
X153651000Y-83500000D03*
X151746000Y-83500000D03*
%TO.N,+5V*%
X162792500Y-89386500D03*
X186563000Y-70612000D03*
X182626000Y-75184000D03*
X160676500Y-89386500D03*
X180975000Y-75184000D03*
%TO.N,D_N*%
X171178000Y-92964000D03*
X172993854Y-87991309D03*
%TO.N,D_P*%
X172228000Y-92964000D03*
X173736318Y-88733773D03*
%TO.N,Net-(J2-Pad2)*%
X167005000Y-78613000D03*
%TO.N,Net-(J3-Pad2)*%
X167005000Y-74041000D03*
%TO.N,RST*%
X164592000Y-49022000D03*
X167005000Y-81407000D03*
%TO.N,RTS*%
X165000000Y-88000000D03*
%TO.N,GPIO0*%
X175387000Y-81407000D03*
X174752000Y-57023000D03*
%TO.N,DATA0_1*%
X174752000Y-55118000D03*
X161925000Y-78613000D03*
%TO.N,DATA1_1*%
X174752000Y-53086000D03*
X170307000Y-78613000D03*
%TO.N,DATA0_2*%
X164592000Y-59055000D03*
X161925000Y-74041000D03*
%TO.N,DATA1_2*%
X164592000Y-61087000D03*
X178689000Y-69469000D03*
%TO.N,TX*%
X181102000Y-54356000D03*
X169164000Y-88900000D03*
%TO.N,RX*%
X181102000Y-53086000D03*
X171196000Y-88900000D03*
%TO.N,Net-(J2-Pad7)*%
X183769000Y-74041000D03*
%TO.N,Net-(J2-Pad6)*%
X177292000Y-75184000D03*
%TO.N,Net-(J2-Pad4)*%
X175387000Y-78613000D03*
%TO.N,Net-(J3-Pad7)*%
X167005000Y-67437000D03*
%TO.N,Net-(J3-Pad6)*%
X175387000Y-67437000D03*
%TO.N,Net-(J3-Pad4)*%
X185674000Y-66294000D03*
%TO.N,BUZZ_1*%
X164592000Y-57023000D03*
X174625000Y-74168000D03*
%TO.N,LED_1*%
X164592000Y-54991000D03*
X179070000Y-75184000D03*
%TO.N,BUZZ_2*%
X175387000Y-69596000D03*
X170688000Y-62611000D03*
%TO.N,LED_2*%
X167005000Y-69596000D03*
X168656000Y-62611000D03*
%TD*%
D25*
%TO.N,+12V*%
X182880000Y-79629000D02*
X184658000Y-79629000D01*
X179000000Y-83500000D02*
X179004500Y-83504500D01*
X153651000Y-83500000D02*
X179000000Y-83500000D01*
X179004500Y-83504500D02*
X182880000Y-79629000D01*
D26*
%TO.N,+5V*%
X154559000Y-96647000D02*
X154559000Y-93472000D01*
X154559000Y-93472000D02*
X155448000Y-92583000D01*
X155448000Y-92583000D02*
X161925000Y-92583000D01*
X162792500Y-91715500D02*
X162792500Y-89386500D01*
X161925000Y-92583000D02*
X162792500Y-91715500D01*
X183896000Y-70612000D02*
X186563000Y-70612000D01*
X190754000Y-83312000D02*
X193040000Y-85598000D01*
X185420000Y-83312000D02*
X190754000Y-83312000D01*
X197485000Y-71501000D02*
X196596000Y-70612000D01*
X196596000Y-70612000D02*
X186563000Y-70612000D01*
X193040000Y-85598000D02*
X196596000Y-85598000D01*
X197485000Y-84709000D02*
X197485000Y-71501000D01*
X196596000Y-85598000D02*
X197485000Y-84709000D01*
X162792500Y-89386500D02*
X160676500Y-89386500D01*
X182626000Y-71882000D02*
X182626000Y-75184000D01*
X183896000Y-70612000D02*
X182626000Y-71882000D01*
X182626000Y-75184000D02*
X180975000Y-75184000D01*
X183982000Y-84750000D02*
X183991000Y-84741000D01*
X163500000Y-84750000D02*
X183982000Y-84750000D01*
X162792500Y-85457500D02*
X163500000Y-84750000D01*
X183991000Y-84741000D02*
X185420000Y-83312000D01*
X162792500Y-89386500D02*
X162792500Y-85457500D01*
D27*
%TO.N,D_N*%
X171478000Y-92664000D02*
X171478000Y-89931428D01*
X172993854Y-88415574D02*
X172993854Y-87991309D01*
X171178000Y-92964000D02*
X171478000Y-92664000D01*
X171478000Y-89931428D02*
X172993854Y-88415574D01*
%TO.N,D_P*%
X173312053Y-88733773D02*
X173736318Y-88733773D01*
X171928000Y-90117826D02*
X173312053Y-88733773D01*
X171928000Y-92664000D02*
X171928000Y-90117826D01*
X172228000Y-92964000D02*
X171928000Y-92664000D01*
D26*
%TO.N,Net-(J2-Pad2)*%
X189230000Y-78867000D02*
X192913000Y-82550000D01*
X177223970Y-78300030D02*
X188663030Y-78300030D01*
X176530000Y-78994000D02*
X177223970Y-78300030D01*
X176530000Y-81915000D02*
X176530000Y-78994000D01*
X176022000Y-82423000D02*
X176530000Y-81915000D01*
X174879000Y-82423000D02*
X176022000Y-82423000D01*
X174371000Y-81915000D02*
X174879000Y-82423000D01*
X174371000Y-80645000D02*
X174371000Y-81915000D01*
X188663030Y-78300030D02*
X189230000Y-78867000D01*
X173228000Y-79502000D02*
X174371000Y-80645000D01*
X167894000Y-79502000D02*
X173228000Y-79502000D01*
X167005000Y-78613000D02*
X167894000Y-79502000D01*
%TO.N,Net-(J3-Pad2)*%
X167005000Y-74041000D02*
X168313999Y-72732001D01*
X189218002Y-64008000D02*
X192913000Y-64008000D01*
X180494001Y-72732001D02*
X189218002Y-64008000D01*
X168313999Y-72732001D02*
X180494001Y-72732001D01*
%TO.N,RST*%
X164592000Y-49022000D02*
X164592000Y-51278969D01*
X160280179Y-52040969D02*
X157535950Y-54785198D01*
X163830000Y-52040969D02*
X160280179Y-52040969D01*
X164592000Y-51278969D02*
X163830000Y-52040969D01*
X165761011Y-80163011D02*
X167005000Y-81407000D01*
X159336086Y-80163011D02*
X165761011Y-80163011D01*
X157535950Y-78362876D02*
X159336086Y-80163011D01*
X157535950Y-54785198D02*
X157535950Y-78362876D01*
X149733000Y-81153000D02*
X150722989Y-80163011D01*
X149733000Y-97536000D02*
X149733000Y-81153000D01*
X157044000Y-98679000D02*
X150876000Y-98679000D01*
X150876000Y-98679000D02*
X149733000Y-97536000D01*
X158568000Y-97155000D02*
X157044000Y-98679000D01*
X157528146Y-78362876D02*
X155728011Y-80163011D01*
X157535950Y-78362876D02*
X157528146Y-78362876D01*
X150722989Y-80163011D02*
X155728011Y-80163011D01*
%TO.N,RTS*%
X184150000Y-98850000D02*
X184150000Y-97790000D01*
X183750000Y-99250000D02*
X184150000Y-98850000D01*
X179500000Y-99250000D02*
X183750000Y-99250000D01*
X179000000Y-97500000D02*
X179000000Y-98750000D01*
X178200010Y-96700010D02*
X179000000Y-97500000D01*
X169700010Y-96700010D02*
X178200010Y-96700010D01*
X168463990Y-95463990D02*
X169700010Y-96700010D01*
X179000000Y-98750000D02*
X179500000Y-99250000D01*
X165000000Y-89000000D02*
X168463990Y-92463990D01*
X165000000Y-88000000D02*
X165000000Y-89000000D01*
X168463990Y-92463990D02*
X168463990Y-95463990D01*
%TO.N,GPIO0*%
X171869999Y-54140999D02*
X174752000Y-57023000D01*
X159635980Y-55655057D02*
X161150038Y-54140999D01*
X161150038Y-54140999D02*
X171869999Y-54140999D01*
X159635980Y-74989908D02*
X159635980Y-55655057D01*
X160976092Y-76330020D02*
X159635980Y-74989908D01*
X175387000Y-79871002D02*
X171846018Y-76330020D01*
X171846018Y-76330020D02*
X160976092Y-76330020D01*
X175387000Y-81407000D02*
X175387000Y-79871002D01*
%TO.N,DATA0_1*%
X161925000Y-78613000D02*
X159766000Y-78613000D01*
X159766000Y-78613000D02*
X158935970Y-77782970D01*
X173074989Y-53440989D02*
X174752000Y-55118000D01*
X160860085Y-53440989D02*
X173074989Y-53440989D01*
X158935970Y-55365104D02*
X160860085Y-53440989D01*
X158935970Y-77782970D02*
X158935970Y-55365104D01*
%TO.N,DATA1_1*%
X170307000Y-78613000D02*
X168263002Y-78613000D01*
X168263002Y-78613000D02*
X167374002Y-77724000D01*
X167374002Y-77724000D02*
X166370000Y-77724000D01*
X166370000Y-77724000D02*
X164630999Y-79463001D01*
X159626039Y-79463001D02*
X158235960Y-78072923D01*
X164630999Y-79463001D02*
X159626039Y-79463001D01*
X174406979Y-52740979D02*
X174752000Y-53086000D01*
X160570132Y-52740979D02*
X174406979Y-52740979D01*
X158235960Y-55075151D02*
X160570132Y-52740979D01*
X158235960Y-78072923D02*
X158235960Y-55075151D01*
%TO.N,DATA0_2*%
X161925000Y-74041000D02*
X161925000Y-59817000D01*
X162687000Y-59055000D02*
X164592000Y-59055000D01*
X161925000Y-59817000D02*
X162687000Y-59055000D01*
%TO.N,DATA1_2*%
X164588980Y-61090020D02*
X164592000Y-61087000D01*
X164588980Y-68437982D02*
X164588980Y-61090020D01*
X166596999Y-70446001D02*
X164588980Y-68437982D01*
X175795001Y-70446001D02*
X166596999Y-70446001D01*
X176772002Y-69469000D02*
X175795001Y-70446001D01*
X178689000Y-69469000D02*
X176772002Y-69469000D01*
%TO.N,TX*%
X169733990Y-88330010D02*
X169733990Y-86933010D01*
X169733990Y-86933010D02*
X170688000Y-85979000D01*
X170688000Y-85979000D02*
X174371000Y-85979000D01*
X185765047Y-84135990D02*
X190408952Y-84135990D01*
X183922038Y-85979000D02*
X185765047Y-84135990D01*
X174371000Y-85979000D02*
X183922038Y-85979000D01*
X190408952Y-84135990D02*
X190408954Y-84135992D01*
X192759962Y-86487000D02*
X190408952Y-84135990D01*
X197638011Y-54636011D02*
X198374000Y-55372000D01*
X181382011Y-54636011D02*
X197638011Y-54636011D01*
X181102000Y-54356000D02*
X181382011Y-54636011D01*
X192759962Y-86487000D02*
X196977000Y-86487000D01*
X196977000Y-86487000D02*
X198374000Y-85090000D01*
X198374000Y-85090000D02*
X198374000Y-55372000D01*
%TO.N,RX*%
X170434000Y-88138000D02*
X171196000Y-88900000D01*
X170434000Y-87222962D02*
X170434000Y-88138000D01*
X184211990Y-86679010D02*
X170977952Y-86679010D01*
X186055000Y-84836000D02*
X184211990Y-86679010D01*
X190119000Y-84836000D02*
X186055000Y-84836000D01*
X192470010Y-87187010D02*
X190119000Y-84836000D01*
X197266953Y-87187010D02*
X192470010Y-87187010D01*
X199074010Y-85379953D02*
X197266953Y-87187010D01*
X199074010Y-55082047D02*
X199074010Y-85379953D01*
X197927964Y-53936001D02*
X199074010Y-55082047D01*
X170977952Y-86679010D02*
X170434000Y-87222962D01*
X181952001Y-53936001D02*
X197927964Y-53936001D01*
X181102000Y-53086000D02*
X181952001Y-53936001D01*
%TO.N,Net-(J2-Pad7)*%
X195453000Y-76200000D02*
X184531000Y-76200000D01*
X183769000Y-75438000D02*
X183769000Y-74041000D01*
X184531000Y-76200000D02*
X183769000Y-75438000D01*
%TO.N,Net-(J2-Pad6)*%
X192909980Y-77466980D02*
X192913000Y-77470000D01*
X192343010Y-76900010D02*
X192913000Y-77470000D01*
X177992010Y-76900010D02*
X192343010Y-76900010D01*
X177292000Y-76200000D02*
X177992010Y-76900010D01*
X177292000Y-75184000D02*
X177292000Y-76200000D01*
%TO.N,Net-(J2-Pad4)*%
X191069990Y-78166990D02*
X192913000Y-80010000D01*
X175387000Y-78613000D02*
X176399980Y-77600020D01*
X190503020Y-77600020D02*
X191069990Y-78166990D01*
X176399980Y-77600020D02*
X190503020Y-77600020D01*
%TO.N,Net-(J3-Pad7)*%
X192062036Y-57658000D02*
X195453000Y-57658000D01*
X183133037Y-66586999D02*
X192062036Y-57658000D01*
X174978999Y-66586999D02*
X183133037Y-66586999D01*
X174128998Y-67437000D02*
X174978999Y-66586999D01*
X167005000Y-67437000D02*
X174128998Y-67437000D01*
%TO.N,Net-(J3-Pad6)*%
X191781998Y-58928000D02*
X192913000Y-58928000D01*
X183272998Y-67437000D02*
X191781998Y-58928000D01*
X175387000Y-67437000D02*
X183272998Y-67437000D01*
%TO.N,Net-(J3-Pad4)*%
X192913000Y-61468000D02*
X190231960Y-61468000D01*
X185674000Y-66025960D02*
X185674000Y-66294000D01*
X190231960Y-61468000D02*
X185674000Y-66025960D01*
%TO.N,BUZZ_1*%
X174625000Y-74168000D02*
X168402000Y-74168000D01*
X168402000Y-74168000D02*
X167640000Y-74930000D01*
X161555998Y-74930000D02*
X161036000Y-74410002D01*
X167640000Y-74930000D02*
X161555998Y-74930000D01*
X161036000Y-74410002D02*
X161036000Y-57912000D01*
X161925000Y-57023000D02*
X164592000Y-57023000D01*
X161036000Y-57912000D02*
X161925000Y-57023000D01*
%TO.N,LED_1*%
X168541961Y-75018001D02*
X167929953Y-75630010D01*
X175033001Y-75018001D02*
X168541961Y-75018001D01*
X175756002Y-74295000D02*
X175033001Y-75018001D01*
X161266045Y-75630010D02*
X160335990Y-74699955D01*
X167929953Y-75630010D02*
X161266045Y-75630010D01*
X160335990Y-74699955D02*
X160335990Y-55945010D01*
X161290000Y-54991000D02*
X164592000Y-54991000D01*
X160335990Y-55945010D02*
X161290000Y-54991000D01*
X178181000Y-74295000D02*
X179070000Y-75184000D01*
X175756002Y-74295000D02*
X178181000Y-74295000D01*
%TO.N,BUZZ_2*%
X170688000Y-65024000D02*
X170688000Y-62611000D01*
X175387000Y-69596000D02*
X174117000Y-68326000D01*
X174117000Y-68326000D02*
X166624000Y-68326000D01*
X166624000Y-68326000D02*
X165989000Y-67691000D01*
X165989000Y-67691000D02*
X165989000Y-67056000D01*
X165989000Y-67056000D02*
X166624000Y-66421000D01*
X166624000Y-66421000D02*
X170053000Y-66421000D01*
X170688000Y-65786000D02*
X170688000Y-65024000D01*
X170053000Y-66421000D02*
X170688000Y-65786000D01*
%TO.N,LED_2*%
X166904037Y-69596000D02*
X167005000Y-69596000D01*
X165288990Y-66766047D02*
X165288990Y-67980953D01*
X166334047Y-65720990D02*
X165288990Y-66766047D01*
X165288990Y-67980953D02*
X166904037Y-69596000D01*
X168086010Y-65720990D02*
X166334047Y-65720990D01*
X168656000Y-65151000D02*
X168086010Y-65720990D01*
X168656000Y-62611000D02*
X168656000Y-65151000D01*
%TO.N,TX*%
X169164000Y-88900000D02*
X169733990Y-88330010D01*
X170000000Y-96000000D02*
X169164000Y-95164000D01*
X186000000Y-96000000D02*
X170000000Y-96000000D01*
X186690000Y-96690000D02*
X186000000Y-96000000D01*
X169164000Y-95164000D02*
X169164000Y-88900000D01*
X186690000Y-97790000D02*
X186690000Y-96690000D01*
%TO.N,RX*%
X189230000Y-97790000D02*
X189230000Y-96770000D01*
X189230000Y-96770000D02*
X190000000Y-96000000D01*
X192470010Y-95029990D02*
X191500000Y-96000000D01*
X192470010Y-87187010D02*
X192470010Y-95029990D01*
X190000000Y-96000000D02*
X191500000Y-96000000D01*
%TD*%
D28*
%TO.N,GND*%
X160401000Y-48260000D02*
X160403440Y-48284776D01*
X160410667Y-48308601D01*
X160422403Y-48330557D01*
X160438197Y-48349803D01*
X160457443Y-48365597D01*
X160479399Y-48377333D01*
X160503224Y-48384560D01*
X160528000Y-48387000D01*
X163942895Y-48387000D01*
X163886711Y-48443184D01*
X163787341Y-48591901D01*
X163718894Y-48757146D01*
X163684000Y-48932570D01*
X163684000Y-49111430D01*
X163718894Y-49286854D01*
X163787341Y-49452099D01*
X163834000Y-49521929D01*
X163834001Y-50964995D01*
X163516027Y-51282969D01*
X160317411Y-51282969D01*
X160280179Y-51279302D01*
X160242947Y-51282969D01*
X160131585Y-51293937D01*
X159988702Y-51337280D01*
X159857019Y-51407666D01*
X159741599Y-51502389D01*
X159717864Y-51531310D01*
X157026301Y-54222874D01*
X156997370Y-54246618D01*
X156902647Y-54362039D01*
X156832261Y-54493722D01*
X156797492Y-54608340D01*
X156788918Y-54636605D01*
X156774283Y-54785198D01*
X156777950Y-54822430D01*
X156777951Y-78041097D01*
X155414039Y-79405011D01*
X150760221Y-79405011D01*
X150722989Y-79401344D01*
X150574395Y-79415979D01*
X150431512Y-79459322D01*
X150299829Y-79529708D01*
X150184409Y-79624431D01*
X150160676Y-79653350D01*
X149223347Y-80590681D01*
X149194421Y-80614420D01*
X149122783Y-80701711D01*
X149099697Y-80729841D01*
X149029312Y-80861523D01*
X148985968Y-81004407D01*
X148971333Y-81153000D01*
X148975001Y-81190242D01*
X148975000Y-97498768D01*
X148971333Y-97536000D01*
X148982225Y-97646585D01*
X148985968Y-97684593D01*
X149029311Y-97827476D01*
X149099697Y-97959159D01*
X149194420Y-98074580D01*
X149223351Y-98098323D01*
X150313685Y-99188659D01*
X150337420Y-99217580D01*
X150452840Y-99312303D01*
X150584523Y-99382689D01*
X150727406Y-99426032D01*
X150875999Y-99440667D01*
X150913231Y-99437000D01*
X157006768Y-99437000D01*
X157044000Y-99440667D01*
X157081232Y-99437000D01*
X157192594Y-99426032D01*
X157335477Y-99382689D01*
X157467160Y-99312303D01*
X157582580Y-99217580D01*
X157606323Y-99188649D01*
X158307237Y-98487736D01*
X158434249Y-98513000D01*
X158701751Y-98513000D01*
X158964114Y-98460813D01*
X159211254Y-98358444D01*
X159433675Y-98209828D01*
X159460106Y-98183397D01*
X162219208Y-98183397D01*
X162296843Y-98432472D01*
X162560883Y-98558371D01*
X162844411Y-98630339D01*
X163136531Y-98645611D01*
X163426019Y-98603599D01*
X163701747Y-98505919D01*
X163839157Y-98432472D01*
X163916792Y-98183397D01*
X163068000Y-97334605D01*
X162219208Y-98183397D01*
X159460106Y-98183397D01*
X159622828Y-98020675D01*
X159771444Y-97798254D01*
X159873813Y-97551114D01*
X159926000Y-97288751D01*
X159926000Y-97223531D01*
X161577389Y-97223531D01*
X161619401Y-97513019D01*
X161717081Y-97788747D01*
X161790528Y-97926157D01*
X162039603Y-98003792D01*
X162888395Y-97155000D01*
X162039603Y-96306208D01*
X161790528Y-96383843D01*
X161664629Y-96647883D01*
X161592661Y-96931411D01*
X161577389Y-97223531D01*
X159926000Y-97223531D01*
X159926000Y-97021249D01*
X159873813Y-96758886D01*
X159771444Y-96511746D01*
X159622828Y-96289325D01*
X159460106Y-96126603D01*
X162219208Y-96126603D01*
X163068000Y-96975395D01*
X163082143Y-96961253D01*
X163261748Y-97140858D01*
X163247605Y-97155000D01*
X164096397Y-98003792D01*
X164345472Y-97926157D01*
X164471371Y-97662117D01*
X164543339Y-97378589D01*
X164558611Y-97086469D01*
X164516599Y-96796981D01*
X164418919Y-96521253D01*
X164351868Y-96395808D01*
X164376639Y-96397409D01*
X164715439Y-96352489D01*
X165038966Y-96242336D01*
X165237274Y-96136338D01*
X165345107Y-95861712D01*
X164318000Y-94834605D01*
X164303858Y-94848748D01*
X164124253Y-94669143D01*
X164138395Y-94655000D01*
X164497605Y-94655000D01*
X165524712Y-95682107D01*
X165799338Y-95574274D01*
X165950216Y-95267616D01*
X166038369Y-94937415D01*
X166060409Y-94596361D01*
X166015489Y-94257561D01*
X165905336Y-93934034D01*
X165799338Y-93735726D01*
X165524712Y-93627893D01*
X164497605Y-94655000D01*
X164138395Y-94655000D01*
X163111288Y-93627893D01*
X162836662Y-93735726D01*
X162685784Y-94042384D01*
X162597631Y-94372585D01*
X162575591Y-94713639D01*
X162620511Y-95052439D01*
X162730664Y-95375966D01*
X162836662Y-95574274D01*
X163076408Y-95668411D01*
X162999469Y-95664389D01*
X162709981Y-95706401D01*
X162434253Y-95804081D01*
X162296843Y-95877528D01*
X162219208Y-96126603D01*
X159460106Y-96126603D01*
X159433675Y-96100172D01*
X159211254Y-95951556D01*
X158964114Y-95849187D01*
X158701751Y-95797000D01*
X158639608Y-95797000D01*
X158524714Y-95682106D01*
X158799338Y-95574274D01*
X158950216Y-95267616D01*
X159038369Y-94937415D01*
X159060409Y-94596361D01*
X159015489Y-94257561D01*
X158905336Y-93934034D01*
X158799338Y-93735726D01*
X158524712Y-93627893D01*
X157497605Y-94655000D01*
X157511748Y-94669143D01*
X157332143Y-94848748D01*
X157318000Y-94834605D01*
X156290893Y-95861712D01*
X156398726Y-96136338D01*
X156705384Y-96287216D01*
X157035585Y-96375369D01*
X157376639Y-96397409D01*
X157447204Y-96388053D01*
X157364556Y-96511746D01*
X157262187Y-96758886D01*
X157210000Y-97021249D01*
X157210000Y-97288751D01*
X157235264Y-97415763D01*
X156730028Y-97921000D01*
X155162575Y-97921000D01*
X155225938Y-97894754D01*
X155456548Y-97740665D01*
X155652665Y-97544548D01*
X155806754Y-97313938D01*
X155912892Y-97057699D01*
X155967000Y-96785676D01*
X155967000Y-96508324D01*
X155912892Y-96236301D01*
X155806754Y-95980062D01*
X155652665Y-95749452D01*
X155456548Y-95553335D01*
X155317000Y-95460092D01*
X155317000Y-94713639D01*
X155575591Y-94713639D01*
X155620511Y-95052439D01*
X155730664Y-95375966D01*
X155836662Y-95574274D01*
X156111288Y-95682107D01*
X157138395Y-94655000D01*
X156111288Y-93627893D01*
X155836662Y-93735726D01*
X155685784Y-94042384D01*
X155597631Y-94372585D01*
X155575591Y-94713639D01*
X155317000Y-94713639D01*
X155317000Y-93785973D01*
X155761973Y-93341000D01*
X156333020Y-93341000D01*
X156290893Y-93448288D01*
X157318000Y-94475395D01*
X158345107Y-93448288D01*
X163290893Y-93448288D01*
X164318000Y-94475395D01*
X165345107Y-93448288D01*
X165237274Y-93173662D01*
X164930616Y-93022784D01*
X164600415Y-92934631D01*
X164259361Y-92912591D01*
X163920561Y-92957511D01*
X163597034Y-93067664D01*
X163398726Y-93173662D01*
X163290893Y-93448288D01*
X158345107Y-93448288D01*
X158302980Y-93341000D01*
X161887768Y-93341000D01*
X161925000Y-93344667D01*
X161962232Y-93341000D01*
X162073594Y-93330032D01*
X162216477Y-93286689D01*
X162348160Y-93216303D01*
X162463580Y-93121580D01*
X162487323Y-93092649D01*
X163302160Y-92277814D01*
X163331080Y-92254080D01*
X163425803Y-92138660D01*
X163475140Y-92046357D01*
X163496188Y-92006979D01*
X163497403Y-92002974D01*
X163539532Y-91864094D01*
X163550500Y-91752732D01*
X163550500Y-91752723D01*
X163554166Y-91715501D01*
X163550500Y-91678279D01*
X163550500Y-89886429D01*
X163597159Y-89816599D01*
X163665606Y-89651354D01*
X163700500Y-89475930D01*
X163700500Y-89297070D01*
X163665606Y-89121646D01*
X163597159Y-88956401D01*
X163550500Y-88886571D01*
X163550500Y-85771473D01*
X163813973Y-85508000D01*
X170087026Y-85508000D01*
X169224337Y-86370691D01*
X169195411Y-86394430D01*
X169122460Y-86483321D01*
X169100687Y-86509851D01*
X169030302Y-86641533D01*
X168986958Y-86784417D01*
X168972323Y-86933010D01*
X168975991Y-86970252D01*
X168975990Y-88011609D01*
X168899146Y-88026894D01*
X168733901Y-88095341D01*
X168585184Y-88194711D01*
X168458711Y-88321184D01*
X168359341Y-88469901D01*
X168290894Y-88635146D01*
X168256000Y-88810570D01*
X168256000Y-88989430D01*
X168290894Y-89164854D01*
X168359341Y-89330099D01*
X168406001Y-89399930D01*
X168406001Y-91334027D01*
X165758000Y-88686028D01*
X165758000Y-88499929D01*
X165804659Y-88430099D01*
X165873106Y-88264854D01*
X165908000Y-88089430D01*
X165908000Y-87910570D01*
X165873106Y-87735146D01*
X165804659Y-87569901D01*
X165705289Y-87421184D01*
X165578816Y-87294711D01*
X165430099Y-87195341D01*
X165264854Y-87126894D01*
X165089430Y-87092000D01*
X164910570Y-87092000D01*
X164735146Y-87126894D01*
X164569901Y-87195341D01*
X164421184Y-87294711D01*
X164294711Y-87421184D01*
X164195341Y-87569901D01*
X164126894Y-87735146D01*
X164092000Y-87910570D01*
X164092000Y-88089430D01*
X164126894Y-88264854D01*
X164195341Y-88430099D01*
X164242000Y-88499930D01*
X164242001Y-88962759D01*
X164238333Y-89000000D01*
X164252968Y-89148593D01*
X164296312Y-89291477D01*
X164366697Y-89423159D01*
X164367167Y-89423732D01*
X164461421Y-89538580D01*
X164490347Y-89562319D01*
X167705990Y-92777964D01*
X167705991Y-95426748D01*
X167702323Y-95463990D01*
X167716958Y-95612583D01*
X167760302Y-95755467D01*
X167820286Y-95867689D01*
X167830688Y-95887150D01*
X167925411Y-96002570D01*
X167954337Y-96026309D01*
X169137695Y-97209669D01*
X169161430Y-97238590D01*
X169276850Y-97333313D01*
X169310702Y-97351407D01*
X169408533Y-97403699D01*
X169551416Y-97447042D01*
X169662778Y-97458010D01*
X169662787Y-97458010D01*
X169700009Y-97461676D01*
X169737231Y-97458010D01*
X177886037Y-97458010D01*
X178242000Y-97813974D01*
X178242001Y-98712758D01*
X178238333Y-98750000D01*
X178252968Y-98898593D01*
X178296312Y-99041477D01*
X178366519Y-99172825D01*
X178366698Y-99173160D01*
X178461421Y-99288580D01*
X178490347Y-99312319D01*
X178645028Y-99467000D01*
X128397000Y-99467000D01*
X128397000Y-85457653D01*
X130685952Y-85457653D01*
X130841962Y-85773214D01*
X131216745Y-85964020D01*
X131621551Y-86078044D01*
X132040824Y-86110902D01*
X132458451Y-86061334D01*
X132858383Y-85931243D01*
X133154038Y-85773214D01*
X133310048Y-85457653D01*
X131998000Y-84145605D01*
X130685952Y-85457653D01*
X128397000Y-85457653D01*
X128397000Y-84008824D01*
X129853098Y-84008824D01*
X129902666Y-84426451D01*
X130032757Y-84826383D01*
X130190786Y-85122038D01*
X130506347Y-85278048D01*
X131818395Y-83966000D01*
X132177605Y-83966000D01*
X133489653Y-85278048D01*
X133805214Y-85122038D01*
X133996020Y-84747255D01*
X134110044Y-84342449D01*
X134142902Y-83923176D01*
X134124512Y-83768229D01*
X137990000Y-83768229D01*
X137990000Y-84163771D01*
X138067166Y-84551712D01*
X138218533Y-84917145D01*
X138438284Y-85246025D01*
X138717975Y-85525716D01*
X139046855Y-85745467D01*
X139412288Y-85896834D01*
X139800229Y-85974000D01*
X140195771Y-85974000D01*
X140583712Y-85896834D01*
X140949145Y-85745467D01*
X141278025Y-85525716D01*
X141557716Y-85246025D01*
X141777467Y-84917145D01*
X141928834Y-84551712D01*
X142006000Y-84163771D01*
X142006000Y-83768229D01*
X141928834Y-83380288D01*
X141777467Y-83014855D01*
X141557716Y-82685975D01*
X141278025Y-82406284D01*
X140949145Y-82186533D01*
X140583712Y-82035166D01*
X140195771Y-81958000D01*
X139800229Y-81958000D01*
X139412288Y-82035166D01*
X139046855Y-82186533D01*
X138717975Y-82406284D01*
X138438284Y-82685975D01*
X138218533Y-83014855D01*
X138067166Y-83380288D01*
X137990000Y-83768229D01*
X134124512Y-83768229D01*
X134093334Y-83505549D01*
X133963243Y-83105617D01*
X133805214Y-82809962D01*
X133489653Y-82653952D01*
X132177605Y-83966000D01*
X131818395Y-83966000D01*
X130506347Y-82653952D01*
X130190786Y-82809962D01*
X129999980Y-83184745D01*
X129885956Y-83589551D01*
X129853098Y-84008824D01*
X128397000Y-84008824D01*
X128397000Y-82474347D01*
X130685952Y-82474347D01*
X131998000Y-83786395D01*
X133310048Y-82474347D01*
X133154038Y-82158786D01*
X132779255Y-81967980D01*
X132374449Y-81853956D01*
X131955176Y-81821098D01*
X131537549Y-81870666D01*
X131137617Y-82000757D01*
X130841962Y-82158786D01*
X130685952Y-82474347D01*
X128397000Y-82474347D01*
X128397000Y-70993000D01*
X152146000Y-70993000D01*
X152170776Y-70990560D01*
X152194601Y-70983333D01*
X152216557Y-70971597D01*
X152235803Y-70955803D01*
X152251597Y-70936557D01*
X152263333Y-70914601D01*
X152270560Y-70890776D01*
X152273000Y-70866000D01*
X152273000Y-40533000D01*
X160401000Y-40533000D01*
X160401000Y-48260000D01*
%TA.AperFunction,Conductor*%
D29*
G36*
X160401000Y-48260000D02*
G01*
X160403440Y-48284776D01*
X160410667Y-48308601D01*
X160422403Y-48330557D01*
X160438197Y-48349803D01*
X160457443Y-48365597D01*
X160479399Y-48377333D01*
X160503224Y-48384560D01*
X160528000Y-48387000D01*
X163942895Y-48387000D01*
X163886711Y-48443184D01*
X163787341Y-48591901D01*
X163718894Y-48757146D01*
X163684000Y-48932570D01*
X163684000Y-49111430D01*
X163718894Y-49286854D01*
X163787341Y-49452099D01*
X163834000Y-49521929D01*
X163834001Y-50964995D01*
X163516027Y-51282969D01*
X160317411Y-51282969D01*
X160280179Y-51279302D01*
X160242947Y-51282969D01*
X160131585Y-51293937D01*
X159988702Y-51337280D01*
X159857019Y-51407666D01*
X159741599Y-51502389D01*
X159717864Y-51531310D01*
X157026301Y-54222874D01*
X156997370Y-54246618D01*
X156902647Y-54362039D01*
X156832261Y-54493722D01*
X156797492Y-54608340D01*
X156788918Y-54636605D01*
X156774283Y-54785198D01*
X156777950Y-54822430D01*
X156777951Y-78041097D01*
X155414039Y-79405011D01*
X150760221Y-79405011D01*
X150722989Y-79401344D01*
X150574395Y-79415979D01*
X150431512Y-79459322D01*
X150299829Y-79529708D01*
X150184409Y-79624431D01*
X150160676Y-79653350D01*
X149223347Y-80590681D01*
X149194421Y-80614420D01*
X149122783Y-80701711D01*
X149099697Y-80729841D01*
X149029312Y-80861523D01*
X148985968Y-81004407D01*
X148971333Y-81153000D01*
X148975001Y-81190242D01*
X148975000Y-97498768D01*
X148971333Y-97536000D01*
X148982225Y-97646585D01*
X148985968Y-97684593D01*
X149029311Y-97827476D01*
X149099697Y-97959159D01*
X149194420Y-98074580D01*
X149223351Y-98098323D01*
X150313685Y-99188659D01*
X150337420Y-99217580D01*
X150452840Y-99312303D01*
X150584523Y-99382689D01*
X150727406Y-99426032D01*
X150875999Y-99440667D01*
X150913231Y-99437000D01*
X157006768Y-99437000D01*
X157044000Y-99440667D01*
X157081232Y-99437000D01*
X157192594Y-99426032D01*
X157335477Y-99382689D01*
X157467160Y-99312303D01*
X157582580Y-99217580D01*
X157606323Y-99188649D01*
X158307237Y-98487736D01*
X158434249Y-98513000D01*
X158701751Y-98513000D01*
X158964114Y-98460813D01*
X159211254Y-98358444D01*
X159433675Y-98209828D01*
X159460106Y-98183397D01*
X162219208Y-98183397D01*
X162296843Y-98432472D01*
X162560883Y-98558371D01*
X162844411Y-98630339D01*
X163136531Y-98645611D01*
X163426019Y-98603599D01*
X163701747Y-98505919D01*
X163839157Y-98432472D01*
X163916792Y-98183397D01*
X163068000Y-97334605D01*
X162219208Y-98183397D01*
X159460106Y-98183397D01*
X159622828Y-98020675D01*
X159771444Y-97798254D01*
X159873813Y-97551114D01*
X159926000Y-97288751D01*
X159926000Y-97223531D01*
X161577389Y-97223531D01*
X161619401Y-97513019D01*
X161717081Y-97788747D01*
X161790528Y-97926157D01*
X162039603Y-98003792D01*
X162888395Y-97155000D01*
X162039603Y-96306208D01*
X161790528Y-96383843D01*
X161664629Y-96647883D01*
X161592661Y-96931411D01*
X161577389Y-97223531D01*
X159926000Y-97223531D01*
X159926000Y-97021249D01*
X159873813Y-96758886D01*
X159771444Y-96511746D01*
X159622828Y-96289325D01*
X159460106Y-96126603D01*
X162219208Y-96126603D01*
X163068000Y-96975395D01*
X163082143Y-96961253D01*
X163261748Y-97140858D01*
X163247605Y-97155000D01*
X164096397Y-98003792D01*
X164345472Y-97926157D01*
X164471371Y-97662117D01*
X164543339Y-97378589D01*
X164558611Y-97086469D01*
X164516599Y-96796981D01*
X164418919Y-96521253D01*
X164351868Y-96395808D01*
X164376639Y-96397409D01*
X164715439Y-96352489D01*
X165038966Y-96242336D01*
X165237274Y-96136338D01*
X165345107Y-95861712D01*
X164318000Y-94834605D01*
X164303858Y-94848748D01*
X164124253Y-94669143D01*
X164138395Y-94655000D01*
X164497605Y-94655000D01*
X165524712Y-95682107D01*
X165799338Y-95574274D01*
X165950216Y-95267616D01*
X166038369Y-94937415D01*
X166060409Y-94596361D01*
X166015489Y-94257561D01*
X165905336Y-93934034D01*
X165799338Y-93735726D01*
X165524712Y-93627893D01*
X164497605Y-94655000D01*
X164138395Y-94655000D01*
X163111288Y-93627893D01*
X162836662Y-93735726D01*
X162685784Y-94042384D01*
X162597631Y-94372585D01*
X162575591Y-94713639D01*
X162620511Y-95052439D01*
X162730664Y-95375966D01*
X162836662Y-95574274D01*
X163076408Y-95668411D01*
X162999469Y-95664389D01*
X162709981Y-95706401D01*
X162434253Y-95804081D01*
X162296843Y-95877528D01*
X162219208Y-96126603D01*
X159460106Y-96126603D01*
X159433675Y-96100172D01*
X159211254Y-95951556D01*
X158964114Y-95849187D01*
X158701751Y-95797000D01*
X158639608Y-95797000D01*
X158524714Y-95682106D01*
X158799338Y-95574274D01*
X158950216Y-95267616D01*
X159038369Y-94937415D01*
X159060409Y-94596361D01*
X159015489Y-94257561D01*
X158905336Y-93934034D01*
X158799338Y-93735726D01*
X158524712Y-93627893D01*
X157497605Y-94655000D01*
X157511748Y-94669143D01*
X157332143Y-94848748D01*
X157318000Y-94834605D01*
X156290893Y-95861712D01*
X156398726Y-96136338D01*
X156705384Y-96287216D01*
X157035585Y-96375369D01*
X157376639Y-96397409D01*
X157447204Y-96388053D01*
X157364556Y-96511746D01*
X157262187Y-96758886D01*
X157210000Y-97021249D01*
X157210000Y-97288751D01*
X157235264Y-97415763D01*
X156730028Y-97921000D01*
X155162575Y-97921000D01*
X155225938Y-97894754D01*
X155456548Y-97740665D01*
X155652665Y-97544548D01*
X155806754Y-97313938D01*
X155912892Y-97057699D01*
X155967000Y-96785676D01*
X155967000Y-96508324D01*
X155912892Y-96236301D01*
X155806754Y-95980062D01*
X155652665Y-95749452D01*
X155456548Y-95553335D01*
X155317000Y-95460092D01*
X155317000Y-94713639D01*
X155575591Y-94713639D01*
X155620511Y-95052439D01*
X155730664Y-95375966D01*
X155836662Y-95574274D01*
X156111288Y-95682107D01*
X157138395Y-94655000D01*
X156111288Y-93627893D01*
X155836662Y-93735726D01*
X155685784Y-94042384D01*
X155597631Y-94372585D01*
X155575591Y-94713639D01*
X155317000Y-94713639D01*
X155317000Y-93785973D01*
X155761973Y-93341000D01*
X156333020Y-93341000D01*
X156290893Y-93448288D01*
X157318000Y-94475395D01*
X158345107Y-93448288D01*
X163290893Y-93448288D01*
X164318000Y-94475395D01*
X165345107Y-93448288D01*
X165237274Y-93173662D01*
X164930616Y-93022784D01*
X164600415Y-92934631D01*
X164259361Y-92912591D01*
X163920561Y-92957511D01*
X163597034Y-93067664D01*
X163398726Y-93173662D01*
X163290893Y-93448288D01*
X158345107Y-93448288D01*
X158302980Y-93341000D01*
X161887768Y-93341000D01*
X161925000Y-93344667D01*
X161962232Y-93341000D01*
X162073594Y-93330032D01*
X162216477Y-93286689D01*
X162348160Y-93216303D01*
X162463580Y-93121580D01*
X162487323Y-93092649D01*
X163302160Y-92277814D01*
X163331080Y-92254080D01*
X163425803Y-92138660D01*
X163475140Y-92046357D01*
X163496188Y-92006979D01*
X163497403Y-92002974D01*
X163539532Y-91864094D01*
X163550500Y-91752732D01*
X163550500Y-91752723D01*
X163554166Y-91715501D01*
X163550500Y-91678279D01*
X163550500Y-89886429D01*
X163597159Y-89816599D01*
X163665606Y-89651354D01*
X163700500Y-89475930D01*
X163700500Y-89297070D01*
X163665606Y-89121646D01*
X163597159Y-88956401D01*
X163550500Y-88886571D01*
X163550500Y-85771473D01*
X163813973Y-85508000D01*
X170087026Y-85508000D01*
X169224337Y-86370691D01*
X169195411Y-86394430D01*
X169122460Y-86483321D01*
X169100687Y-86509851D01*
X169030302Y-86641533D01*
X168986958Y-86784417D01*
X168972323Y-86933010D01*
X168975991Y-86970252D01*
X168975990Y-88011609D01*
X168899146Y-88026894D01*
X168733901Y-88095341D01*
X168585184Y-88194711D01*
X168458711Y-88321184D01*
X168359341Y-88469901D01*
X168290894Y-88635146D01*
X168256000Y-88810570D01*
X168256000Y-88989430D01*
X168290894Y-89164854D01*
X168359341Y-89330099D01*
X168406001Y-89399930D01*
X168406001Y-91334027D01*
X165758000Y-88686028D01*
X165758000Y-88499929D01*
X165804659Y-88430099D01*
X165873106Y-88264854D01*
X165908000Y-88089430D01*
X165908000Y-87910570D01*
X165873106Y-87735146D01*
X165804659Y-87569901D01*
X165705289Y-87421184D01*
X165578816Y-87294711D01*
X165430099Y-87195341D01*
X165264854Y-87126894D01*
X165089430Y-87092000D01*
X164910570Y-87092000D01*
X164735146Y-87126894D01*
X164569901Y-87195341D01*
X164421184Y-87294711D01*
X164294711Y-87421184D01*
X164195341Y-87569901D01*
X164126894Y-87735146D01*
X164092000Y-87910570D01*
X164092000Y-88089430D01*
X164126894Y-88264854D01*
X164195341Y-88430099D01*
X164242000Y-88499930D01*
X164242001Y-88962759D01*
X164238333Y-89000000D01*
X164252968Y-89148593D01*
X164296312Y-89291477D01*
X164366697Y-89423159D01*
X164367167Y-89423732D01*
X164461421Y-89538580D01*
X164490347Y-89562319D01*
X167705990Y-92777964D01*
X167705991Y-95426748D01*
X167702323Y-95463990D01*
X167716958Y-95612583D01*
X167760302Y-95755467D01*
X167820286Y-95867689D01*
X167830688Y-95887150D01*
X167925411Y-96002570D01*
X167954337Y-96026309D01*
X169137695Y-97209669D01*
X169161430Y-97238590D01*
X169276850Y-97333313D01*
X169310702Y-97351407D01*
X169408533Y-97403699D01*
X169551416Y-97447042D01*
X169662778Y-97458010D01*
X169662787Y-97458010D01*
X169700009Y-97461676D01*
X169737231Y-97458010D01*
X177886037Y-97458010D01*
X178242000Y-97813974D01*
X178242001Y-98712758D01*
X178238333Y-98750000D01*
X178252968Y-98898593D01*
X178296312Y-99041477D01*
X178366519Y-99172825D01*
X178366698Y-99173160D01*
X178461421Y-99288580D01*
X178490347Y-99312319D01*
X178645028Y-99467000D01*
X128397000Y-99467000D01*
X128397000Y-85457653D01*
X130685952Y-85457653D01*
X130841962Y-85773214D01*
X131216745Y-85964020D01*
X131621551Y-86078044D01*
X132040824Y-86110902D01*
X132458451Y-86061334D01*
X132858383Y-85931243D01*
X133154038Y-85773214D01*
X133310048Y-85457653D01*
X131998000Y-84145605D01*
X130685952Y-85457653D01*
X128397000Y-85457653D01*
X128397000Y-84008824D01*
X129853098Y-84008824D01*
X129902666Y-84426451D01*
X130032757Y-84826383D01*
X130190786Y-85122038D01*
X130506347Y-85278048D01*
X131818395Y-83966000D01*
X132177605Y-83966000D01*
X133489653Y-85278048D01*
X133805214Y-85122038D01*
X133996020Y-84747255D01*
X134110044Y-84342449D01*
X134142902Y-83923176D01*
X134124512Y-83768229D01*
X137990000Y-83768229D01*
X137990000Y-84163771D01*
X138067166Y-84551712D01*
X138218533Y-84917145D01*
X138438284Y-85246025D01*
X138717975Y-85525716D01*
X139046855Y-85745467D01*
X139412288Y-85896834D01*
X139800229Y-85974000D01*
X140195771Y-85974000D01*
X140583712Y-85896834D01*
X140949145Y-85745467D01*
X141278025Y-85525716D01*
X141557716Y-85246025D01*
X141777467Y-84917145D01*
X141928834Y-84551712D01*
X142006000Y-84163771D01*
X142006000Y-83768229D01*
X141928834Y-83380288D01*
X141777467Y-83014855D01*
X141557716Y-82685975D01*
X141278025Y-82406284D01*
X140949145Y-82186533D01*
X140583712Y-82035166D01*
X140195771Y-81958000D01*
X139800229Y-81958000D01*
X139412288Y-82035166D01*
X139046855Y-82186533D01*
X138717975Y-82406284D01*
X138438284Y-82685975D01*
X138218533Y-83014855D01*
X138067166Y-83380288D01*
X137990000Y-83768229D01*
X134124512Y-83768229D01*
X134093334Y-83505549D01*
X133963243Y-83105617D01*
X133805214Y-82809962D01*
X133489653Y-82653952D01*
X132177605Y-83966000D01*
X131818395Y-83966000D01*
X130506347Y-82653952D01*
X130190786Y-82809962D01*
X129999980Y-83184745D01*
X129885956Y-83589551D01*
X129853098Y-84008824D01*
X128397000Y-84008824D01*
X128397000Y-82474347D01*
X130685952Y-82474347D01*
X131998000Y-83786395D01*
X133310048Y-82474347D01*
X133154038Y-82158786D01*
X132779255Y-81967980D01*
X132374449Y-81853956D01*
X131955176Y-81821098D01*
X131537549Y-81870666D01*
X131137617Y-82000757D01*
X130841962Y-82158786D01*
X130685952Y-82474347D01*
X128397000Y-82474347D01*
X128397000Y-70993000D01*
X152146000Y-70993000D01*
X152170776Y-70990560D01*
X152194601Y-70983333D01*
X152216557Y-70971597D01*
X152235803Y-70955803D01*
X152251597Y-70936557D01*
X152263333Y-70914601D01*
X152270560Y-70890776D01*
X152273000Y-70866000D01*
X152273000Y-40533000D01*
X160401000Y-40533000D01*
X160401000Y-48260000D01*
G37*
%TD.AperFunction*%
D28*
X185166976Y-40537147D02*
X185052666Y-40598246D01*
X184952473Y-40680473D01*
X184870246Y-40780666D01*
X184809147Y-40894976D01*
X184771521Y-41019010D01*
X184758817Y-41148000D01*
X184762000Y-41180319D01*
X184762001Y-44417671D01*
X184758817Y-44450000D01*
X184771521Y-44578990D01*
X184809147Y-44703024D01*
X184870246Y-44817334D01*
X184952473Y-44917527D01*
X185052666Y-44999754D01*
X185166976Y-45060853D01*
X185291010Y-45098479D01*
X185387681Y-45108000D01*
X185387682Y-45108000D01*
X185420000Y-45111183D01*
X185452319Y-45108000D01*
X189197682Y-45108000D01*
X189230000Y-45111183D01*
X189262319Y-45108000D01*
X193007682Y-45108000D01*
X193040000Y-45111183D01*
X193168990Y-45098479D01*
X193293024Y-45060853D01*
X193407334Y-44999754D01*
X193507527Y-44917527D01*
X193589754Y-44817334D01*
X193650853Y-44703024D01*
X193688479Y-44578990D01*
X193698000Y-44482319D01*
X193701183Y-44450000D01*
X193698000Y-44417681D01*
X193698000Y-41180319D01*
X193701183Y-41148000D01*
X193688479Y-41019010D01*
X193650853Y-40894976D01*
X193589754Y-40780666D01*
X193507527Y-40680473D01*
X193411772Y-40601888D01*
X193558054Y-40646053D01*
X193810409Y-40780232D01*
X194031896Y-40960873D01*
X194214078Y-41181092D01*
X194350018Y-41432507D01*
X194434533Y-41705531D01*
X194467001Y-42014445D01*
X194467000Y-45026174D01*
X194469431Y-45050861D01*
X194469279Y-45072741D01*
X194470005Y-45080148D01*
X194541407Y-45759487D01*
X194551117Y-45806791D01*
X194560173Y-45854261D01*
X194562324Y-45861385D01*
X194764315Y-46513917D01*
X194783026Y-46558429D01*
X194801132Y-46603242D01*
X194804626Y-46609813D01*
X195129515Y-47210683D01*
X195156520Y-47250719D01*
X195182981Y-47291155D01*
X195187684Y-47296922D01*
X195623096Y-47823245D01*
X195657375Y-47857286D01*
X195691175Y-47891800D01*
X195696909Y-47896544D01*
X196226259Y-48328270D01*
X196266490Y-48354999D01*
X196306355Y-48382295D01*
X196312901Y-48385835D01*
X196916025Y-48706522D01*
X196960659Y-48724919D01*
X197005091Y-48743962D01*
X197012200Y-48746162D01*
X197666126Y-48943594D01*
X197713499Y-48952974D01*
X197760767Y-48963021D01*
X197768168Y-48963799D01*
X198447988Y-49030456D01*
X198447995Y-49030456D01*
X198473825Y-49033000D01*
X202973934Y-49033000D01*
X203284446Y-49063446D01*
X203558054Y-49146053D01*
X203810409Y-49280232D01*
X204031896Y-49460873D01*
X204214078Y-49681092D01*
X204350018Y-49932507D01*
X204434533Y-50205531D01*
X204467000Y-50514435D01*
X204467001Y-89473923D01*
X204436554Y-89784443D01*
X204353947Y-90058054D01*
X204219765Y-90310412D01*
X204039127Y-90531896D01*
X203818905Y-90714080D01*
X203567493Y-90850018D01*
X203294469Y-90934533D01*
X202985565Y-90967000D01*
X198473825Y-90967000D01*
X198449138Y-90969431D01*
X198427258Y-90969279D01*
X198419852Y-90970005D01*
X197740513Y-91041407D01*
X197693209Y-91051117D01*
X197645739Y-91060173D01*
X197638617Y-91062323D01*
X197638611Y-91062325D01*
X196986083Y-91264316D01*
X196941578Y-91283024D01*
X196896759Y-91301132D01*
X196890192Y-91304624D01*
X196890187Y-91304626D01*
X196890183Y-91304629D01*
X196289317Y-91629515D01*
X196249240Y-91656547D01*
X196208846Y-91682981D01*
X196203078Y-91687684D01*
X195676755Y-92123096D01*
X195642714Y-92157375D01*
X195608200Y-92191175D01*
X195603456Y-92196909D01*
X195171730Y-92726259D01*
X195145001Y-92766490D01*
X195117705Y-92806355D01*
X195114165Y-92812902D01*
X194793478Y-93416025D01*
X194775081Y-93460659D01*
X194756038Y-93505091D01*
X194753838Y-93512200D01*
X194556406Y-94166126D01*
X194547026Y-94213499D01*
X194536979Y-94260767D01*
X194536201Y-94268168D01*
X194469544Y-94947988D01*
X194469544Y-94947996D01*
X194467000Y-94973826D01*
X194467001Y-97973924D01*
X194436554Y-98284443D01*
X194353947Y-98558054D01*
X194219765Y-98810412D01*
X194039127Y-99031896D01*
X193818905Y-99214080D01*
X193567493Y-99350018D01*
X193294469Y-99434533D01*
X192985565Y-99467000D01*
X184604973Y-99467000D01*
X184659654Y-99412318D01*
X184688580Y-99388580D01*
X184783303Y-99273160D01*
X184853689Y-99141477D01*
X184897032Y-98998594D01*
X184904885Y-98918855D01*
X185015675Y-98844828D01*
X185204828Y-98655675D01*
X185353444Y-98433254D01*
X185420000Y-98272574D01*
X185486556Y-98433254D01*
X185635172Y-98655675D01*
X185824325Y-98844828D01*
X186046746Y-98993444D01*
X186293886Y-99095813D01*
X186556249Y-99148000D01*
X186823751Y-99148000D01*
X187086114Y-99095813D01*
X187333254Y-98993444D01*
X187555675Y-98844828D01*
X187744828Y-98655675D01*
X187893444Y-98433254D01*
X187960000Y-98272574D01*
X188026556Y-98433254D01*
X188175172Y-98655675D01*
X188364325Y-98844828D01*
X188586746Y-98993444D01*
X188833886Y-99095813D01*
X189096249Y-99148000D01*
X189363751Y-99148000D01*
X189626114Y-99095813D01*
X189873254Y-98993444D01*
X190095675Y-98844828D01*
X190284828Y-98655675D01*
X190409543Y-98469025D01*
X190409543Y-98640000D01*
X190419351Y-98739585D01*
X190448399Y-98835343D01*
X190495571Y-98923595D01*
X190559052Y-99000948D01*
X190636405Y-99064429D01*
X190724657Y-99111601D01*
X190820415Y-99140649D01*
X190920000Y-99150457D01*
X192620000Y-99150457D01*
X192719585Y-99140649D01*
X192815343Y-99111601D01*
X192903595Y-99064429D01*
X192980948Y-99000948D01*
X193044429Y-98923595D01*
X193091601Y-98835343D01*
X193120649Y-98739585D01*
X193130457Y-98640000D01*
X193130457Y-96940000D01*
X193120649Y-96840415D01*
X193091601Y-96744657D01*
X193044429Y-96656405D01*
X192980948Y-96579052D01*
X192903595Y-96515571D01*
X192815343Y-96468399D01*
X192719585Y-96439351D01*
X192620000Y-96429543D01*
X192142429Y-96429543D01*
X192979669Y-95592305D01*
X193008590Y-95568570D01*
X193103313Y-95453150D01*
X193173699Y-95321467D01*
X193217042Y-95178584D01*
X193228010Y-95067222D01*
X193228010Y-95067213D01*
X193231676Y-95029991D01*
X193228010Y-94992769D01*
X193228010Y-87945010D01*
X197229721Y-87945010D01*
X197266953Y-87948677D01*
X197304185Y-87945010D01*
X197415547Y-87934042D01*
X197558430Y-87890699D01*
X197690113Y-87820313D01*
X197805533Y-87725590D01*
X197829276Y-87696659D01*
X199583669Y-85942268D01*
X199612590Y-85918533D01*
X199707313Y-85803113D01*
X199771618Y-85682807D01*
X199776009Y-85704881D01*
X199934914Y-86088513D01*
X200165609Y-86433772D01*
X200459228Y-86727391D01*
X200804487Y-86958086D01*
X201188119Y-87116991D01*
X201595380Y-87198000D01*
X202010620Y-87198000D01*
X202417881Y-87116991D01*
X202801513Y-86958086D01*
X203146772Y-86727391D01*
X203440391Y-86433772D01*
X203671086Y-86088513D01*
X203829991Y-85704881D01*
X203911000Y-85297620D01*
X203911000Y-84882380D01*
X203829991Y-84475119D01*
X203671086Y-84091487D01*
X203440391Y-83746228D01*
X203146772Y-83452609D01*
X202801513Y-83221914D01*
X202417881Y-83063009D01*
X202010620Y-82982000D01*
X201595380Y-82982000D01*
X201188119Y-83063009D01*
X200804487Y-83221914D01*
X200459228Y-83452609D01*
X200165609Y-83746228D01*
X199934914Y-84091487D01*
X199832010Y-84339920D01*
X199832010Y-74410080D01*
X199934914Y-74658513D01*
X200165609Y-75003772D01*
X200459228Y-75297391D01*
X200804487Y-75528086D01*
X201188119Y-75686991D01*
X201595380Y-75768000D01*
X202010620Y-75768000D01*
X202417881Y-75686991D01*
X202801513Y-75528086D01*
X203146772Y-75297391D01*
X203440391Y-75003772D01*
X203671086Y-74658513D01*
X203829991Y-74274881D01*
X203911000Y-73867620D01*
X203911000Y-73452380D01*
X203829991Y-73045119D01*
X203671086Y-72661487D01*
X203440391Y-72316228D01*
X203146772Y-72022609D01*
X202801513Y-71791914D01*
X202417881Y-71633009D01*
X202010620Y-71552000D01*
X201595380Y-71552000D01*
X201188119Y-71633009D01*
X200804487Y-71791914D01*
X200459228Y-72022609D01*
X200165609Y-72316228D01*
X199934914Y-72661487D01*
X199832010Y-72909920D01*
X199832010Y-67298080D01*
X199934914Y-67546513D01*
X200165609Y-67891772D01*
X200459228Y-68185391D01*
X200804487Y-68416086D01*
X201188119Y-68574991D01*
X201595380Y-68656000D01*
X202010620Y-68656000D01*
X202417881Y-68574991D01*
X202801513Y-68416086D01*
X203146772Y-68185391D01*
X203440391Y-67891772D01*
X203671086Y-67546513D01*
X203829991Y-67162881D01*
X203911000Y-66755620D01*
X203911000Y-66340380D01*
X203829991Y-65933119D01*
X203671086Y-65549487D01*
X203440391Y-65204228D01*
X203146772Y-64910609D01*
X202801513Y-64679914D01*
X202417881Y-64521009D01*
X202010620Y-64440000D01*
X201595380Y-64440000D01*
X201188119Y-64521009D01*
X200804487Y-64679914D01*
X200459228Y-64910609D01*
X200165609Y-65204228D01*
X199934914Y-65549487D01*
X199832010Y-65797920D01*
X199832010Y-55868080D01*
X199934914Y-56116513D01*
X200165609Y-56461772D01*
X200459228Y-56755391D01*
X200804487Y-56986086D01*
X201188119Y-57144991D01*
X201595380Y-57226000D01*
X202010620Y-57226000D01*
X202417881Y-57144991D01*
X202801513Y-56986086D01*
X203146772Y-56755391D01*
X203440391Y-56461772D01*
X203671086Y-56116513D01*
X203829991Y-55732881D01*
X203911000Y-55325620D01*
X203911000Y-54910380D01*
X203829991Y-54503119D01*
X203671086Y-54119487D01*
X203440391Y-53774228D01*
X203146772Y-53480609D01*
X202801513Y-53249914D01*
X202417881Y-53091009D01*
X202010620Y-53010000D01*
X201595380Y-53010000D01*
X201188119Y-53091009D01*
X200804487Y-53249914D01*
X200459228Y-53480609D01*
X200165609Y-53774228D01*
X199934914Y-54119487D01*
X199776009Y-54503119D01*
X199734797Y-54710306D01*
X199707313Y-54658887D01*
X199612590Y-54543467D01*
X199583670Y-54519733D01*
X198490287Y-53426352D01*
X198466544Y-53397421D01*
X198351124Y-53302698D01*
X198219441Y-53232312D01*
X198076558Y-53188969D01*
X197965196Y-53178001D01*
X197927964Y-53174334D01*
X197890732Y-53178001D01*
X189970317Y-53178001D01*
X190321276Y-52700881D01*
X187800000Y-50179605D01*
X185278724Y-52700881D01*
X185629683Y-53178001D01*
X182265974Y-53178001D01*
X181991491Y-52903518D01*
X181975106Y-52821146D01*
X181906659Y-52655901D01*
X181807289Y-52507184D01*
X181680816Y-52380711D01*
X181532099Y-52281341D01*
X181366854Y-52212894D01*
X181191430Y-52178000D01*
X181012570Y-52178000D01*
X180837146Y-52212894D01*
X180671901Y-52281341D01*
X180523184Y-52380711D01*
X180396711Y-52507184D01*
X180297341Y-52655901D01*
X180228894Y-52821146D01*
X180194000Y-52996570D01*
X180194000Y-53175430D01*
X180228894Y-53350854D01*
X180297341Y-53516099D01*
X180396711Y-53664816D01*
X180452895Y-53721000D01*
X180396711Y-53777184D01*
X180297341Y-53925901D01*
X180228894Y-54091146D01*
X180194000Y-54266570D01*
X180194000Y-54445430D01*
X180228894Y-54620854D01*
X180297341Y-54786099D01*
X180396711Y-54934816D01*
X180523184Y-55061289D01*
X180671901Y-55160659D01*
X180837146Y-55229106D01*
X180933119Y-55248196D01*
X180958851Y-55269314D01*
X181090534Y-55339700D01*
X181233417Y-55383043D01*
X181344779Y-55394011D01*
X181344788Y-55394011D01*
X181382010Y-55397677D01*
X181419232Y-55394011D01*
X191868642Y-55394011D01*
X191804023Y-55458630D01*
X191920296Y-55574903D01*
X191676329Y-55646486D01*
X191555429Y-55901996D01*
X191486700Y-56176184D01*
X191472783Y-56458512D01*
X191514213Y-56738130D01*
X191609397Y-57004292D01*
X191625966Y-57035292D01*
X191523456Y-57119420D01*
X191499721Y-57148341D01*
X182819065Y-65828999D01*
X175016231Y-65828999D01*
X174978999Y-65825332D01*
X174941767Y-65828999D01*
X174830405Y-65839967D01*
X174687522Y-65883310D01*
X174555839Y-65953696D01*
X174440419Y-66048419D01*
X174416680Y-66077345D01*
X173815026Y-66679000D01*
X170866973Y-66679000D01*
X171197660Y-66348314D01*
X171226580Y-66324580D01*
X171321303Y-66209160D01*
X171391689Y-66077477D01*
X171435032Y-65934594D01*
X171446000Y-65823232D01*
X171446000Y-65823231D01*
X171449667Y-65786000D01*
X171446000Y-65748768D01*
X171446000Y-63110929D01*
X171492659Y-63041099D01*
X171561106Y-62875854D01*
X171596000Y-62700430D01*
X171596000Y-62521570D01*
X171561106Y-62346146D01*
X171492659Y-62180901D01*
X171393289Y-62032184D01*
X171266816Y-61905711D01*
X171118099Y-61806341D01*
X170952854Y-61737894D01*
X170777430Y-61703000D01*
X170598570Y-61703000D01*
X170423146Y-61737894D01*
X170257901Y-61806341D01*
X170109184Y-61905711D01*
X169982711Y-62032184D01*
X169883341Y-62180901D01*
X169814894Y-62346146D01*
X169780000Y-62521570D01*
X169780000Y-62700430D01*
X169814894Y-62875854D01*
X169883341Y-63041099D01*
X169930001Y-63110930D01*
X169930000Y-64986768D01*
X169930000Y-65472027D01*
X169739027Y-65663000D01*
X169216394Y-65663000D01*
X169289303Y-65574160D01*
X169359689Y-65442477D01*
X169403032Y-65299594D01*
X169414000Y-65188232D01*
X169417667Y-65151000D01*
X169414000Y-65113768D01*
X169414000Y-63110929D01*
X169460659Y-63041099D01*
X169529106Y-62875854D01*
X169564000Y-62700430D01*
X169564000Y-62521570D01*
X169529106Y-62346146D01*
X169460659Y-62180901D01*
X169361289Y-62032184D01*
X169234816Y-61905711D01*
X169086099Y-61806341D01*
X168920854Y-61737894D01*
X168745430Y-61703000D01*
X168566570Y-61703000D01*
X168391146Y-61737894D01*
X168225901Y-61806341D01*
X168077184Y-61905711D01*
X167950711Y-62032184D01*
X167851341Y-62180901D01*
X167782894Y-62346146D01*
X167748000Y-62521570D01*
X167748000Y-62700430D01*
X167782894Y-62875854D01*
X167851341Y-63041099D01*
X167898000Y-63110929D01*
X167898001Y-64837026D01*
X167772037Y-64962990D01*
X166371279Y-64962990D01*
X166334047Y-64959323D01*
X166296815Y-64962990D01*
X166185453Y-64973958D01*
X166042570Y-65017301D01*
X165910887Y-65087687D01*
X165795467Y-65182410D01*
X165771732Y-65211331D01*
X165346980Y-65636084D01*
X165346980Y-61591449D01*
X165396659Y-61517099D01*
X165465106Y-61351854D01*
X165500000Y-61176430D01*
X165500000Y-60997570D01*
X165465106Y-60822146D01*
X165396659Y-60656901D01*
X165297289Y-60508184D01*
X165170816Y-60381711D01*
X165022099Y-60282341D01*
X164856854Y-60213894D01*
X164681430Y-60179000D01*
X164502570Y-60179000D01*
X164327146Y-60213894D01*
X164161901Y-60282341D01*
X164013184Y-60381711D01*
X163886711Y-60508184D01*
X163787341Y-60656901D01*
X163718894Y-60822146D01*
X163684000Y-60997570D01*
X163684000Y-61176430D01*
X163718894Y-61351854D01*
X163787341Y-61517099D01*
X163830981Y-61582410D01*
X163830980Y-68400750D01*
X163827313Y-68437982D01*
X163830980Y-68475213D01*
X163841948Y-68586575D01*
X163885291Y-68729458D01*
X163955677Y-68861141D01*
X164050400Y-68976562D01*
X164079331Y-69000305D01*
X166034684Y-70955660D01*
X166058419Y-70984581D01*
X166173839Y-71079304D01*
X166305522Y-71149690D01*
X166441097Y-71190816D01*
X166448405Y-71193033D01*
X166596999Y-71207668D01*
X166634231Y-71204001D01*
X174780894Y-71204001D01*
X174681711Y-71303184D01*
X174582341Y-71451901D01*
X174513894Y-71617146D01*
X174479000Y-71792570D01*
X174479000Y-71971430D01*
X174479511Y-71974001D01*
X168351230Y-71974001D01*
X168313998Y-71970334D01*
X168165405Y-71984969D01*
X168022522Y-72028312D01*
X167890839Y-72098698D01*
X167775419Y-72193421D01*
X167751684Y-72222342D01*
X166822518Y-73151509D01*
X166740146Y-73167894D01*
X166574901Y-73236341D01*
X166426184Y-73335711D01*
X166299711Y-73462184D01*
X166200341Y-73610901D01*
X166131894Y-73776146D01*
X166097000Y-73951570D01*
X166097000Y-74130430D01*
X166105269Y-74172000D01*
X162824731Y-74172000D01*
X162833000Y-74130430D01*
X162833000Y-73951570D01*
X162798106Y-73776146D01*
X162729659Y-73610901D01*
X162683000Y-73541071D01*
X162683000Y-60130973D01*
X163000973Y-59813000D01*
X164092071Y-59813000D01*
X164161901Y-59859659D01*
X164327146Y-59928106D01*
X164502570Y-59963000D01*
X164681430Y-59963000D01*
X164856854Y-59928106D01*
X165022099Y-59859659D01*
X165170816Y-59760289D01*
X165297289Y-59633816D01*
X165396659Y-59485099D01*
X165465106Y-59319854D01*
X165500000Y-59144430D01*
X165500000Y-58965570D01*
X165465106Y-58790146D01*
X165396659Y-58624901D01*
X165297289Y-58476184D01*
X165170816Y-58349711D01*
X165022099Y-58250341D01*
X164856854Y-58181894D01*
X164681430Y-58147000D01*
X164502570Y-58147000D01*
X164327146Y-58181894D01*
X164161901Y-58250341D01*
X164092071Y-58297000D01*
X162724232Y-58297000D01*
X162687000Y-58293333D01*
X162649768Y-58297000D01*
X162538406Y-58307968D01*
X162395523Y-58351311D01*
X162263840Y-58421697D01*
X162148420Y-58516420D01*
X162124685Y-58545341D01*
X161794000Y-58876027D01*
X161794000Y-58225973D01*
X162238973Y-57781000D01*
X164092071Y-57781000D01*
X164161901Y-57827659D01*
X164327146Y-57896106D01*
X164502570Y-57931000D01*
X164681430Y-57931000D01*
X164856854Y-57896106D01*
X165022099Y-57827659D01*
X165170816Y-57728289D01*
X165297289Y-57601816D01*
X165396659Y-57453099D01*
X165465106Y-57287854D01*
X165500000Y-57112430D01*
X165500000Y-56933570D01*
X165465106Y-56758146D01*
X165396659Y-56592901D01*
X165297289Y-56444184D01*
X165170816Y-56317711D01*
X165022099Y-56218341D01*
X164856854Y-56149894D01*
X164681430Y-56115000D01*
X164502570Y-56115000D01*
X164327146Y-56149894D01*
X164161901Y-56218341D01*
X164092071Y-56265000D01*
X161962232Y-56265000D01*
X161925000Y-56261333D01*
X161887768Y-56265000D01*
X161776406Y-56275968D01*
X161633523Y-56319311D01*
X161501840Y-56389697D01*
X161386420Y-56484420D01*
X161362686Y-56513340D01*
X161093990Y-56782037D01*
X161093990Y-56258982D01*
X161603974Y-55749000D01*
X164092071Y-55749000D01*
X164161901Y-55795659D01*
X164327146Y-55864106D01*
X164502570Y-55899000D01*
X164681430Y-55899000D01*
X164856854Y-55864106D01*
X165022099Y-55795659D01*
X165170816Y-55696289D01*
X165297289Y-55569816D01*
X165396659Y-55421099D01*
X165465106Y-55255854D01*
X165500000Y-55080430D01*
X165500000Y-54901570D01*
X165499489Y-54898999D01*
X171556027Y-54898999D01*
X173862509Y-57205483D01*
X173878894Y-57287854D01*
X173947341Y-57453099D01*
X174046711Y-57601816D01*
X174173184Y-57728289D01*
X174321901Y-57827659D01*
X174487146Y-57896106D01*
X174662570Y-57931000D01*
X174841430Y-57931000D01*
X175016854Y-57896106D01*
X175182099Y-57827659D01*
X175330816Y-57728289D01*
X175457289Y-57601816D01*
X175556659Y-57453099D01*
X175625106Y-57287854D01*
X175660000Y-57112430D01*
X175660000Y-56933570D01*
X175625106Y-56758146D01*
X175556659Y-56592901D01*
X175457289Y-56444184D01*
X175330816Y-56317711D01*
X175182099Y-56218341D01*
X175016854Y-56149894D01*
X174934483Y-56133509D01*
X174826974Y-56026000D01*
X174841430Y-56026000D01*
X175016854Y-55991106D01*
X175182099Y-55922659D01*
X175330816Y-55823289D01*
X175457289Y-55696816D01*
X175556659Y-55548099D01*
X175625106Y-55382854D01*
X175660000Y-55207430D01*
X175660000Y-55028570D01*
X175625106Y-54853146D01*
X175556659Y-54687901D01*
X175457289Y-54539184D01*
X175330816Y-54412711D01*
X175182099Y-54313341D01*
X175016854Y-54244894D01*
X174934483Y-54228509D01*
X174699973Y-53994000D01*
X174841430Y-53994000D01*
X175016854Y-53959106D01*
X175182099Y-53890659D01*
X175330816Y-53791289D01*
X175457289Y-53664816D01*
X175556659Y-53516099D01*
X175625106Y-53350854D01*
X175660000Y-53175430D01*
X175660000Y-52996570D01*
X175625106Y-52821146D01*
X175556659Y-52655901D01*
X175457289Y-52507184D01*
X175330816Y-52380711D01*
X175182099Y-52281341D01*
X175016854Y-52212894D01*
X174939630Y-52197533D01*
X174830139Y-52107676D01*
X174698456Y-52037290D01*
X174555573Y-51993947D01*
X174444211Y-51982979D01*
X174406979Y-51979312D01*
X174369747Y-51982979D01*
X164959964Y-51982979D01*
X165101659Y-51841284D01*
X165130580Y-51817549D01*
X165225303Y-51702129D01*
X165295689Y-51570446D01*
X165339032Y-51427563D01*
X165350000Y-51316201D01*
X165353667Y-51278969D01*
X165350000Y-51241737D01*
X165350000Y-49975695D01*
X183946520Y-49975695D01*
X184015822Y-50727938D01*
X184230548Y-51452208D01*
X184582445Y-52120670D01*
X184609452Y-52161088D01*
X185099119Y-52521276D01*
X187620395Y-50000000D01*
X187979605Y-50000000D01*
X190500881Y-52521276D01*
X190990548Y-52161088D01*
X191350849Y-51497118D01*
X191574694Y-50775615D01*
X191653480Y-50024305D01*
X191584178Y-49272062D01*
X191369452Y-48547792D01*
X191017555Y-47879330D01*
X190990548Y-47838912D01*
X190500881Y-47478724D01*
X187979605Y-50000000D01*
X187620395Y-50000000D01*
X185099119Y-47478724D01*
X184609452Y-47838912D01*
X184249151Y-48502882D01*
X184025306Y-49224385D01*
X183946520Y-49975695D01*
X165350000Y-49975695D01*
X165350000Y-49521929D01*
X165396659Y-49452099D01*
X165465106Y-49286854D01*
X165500000Y-49111430D01*
X165500000Y-48932570D01*
X165465106Y-48757146D01*
X165396659Y-48591901D01*
X165297289Y-48443184D01*
X165241105Y-48387000D01*
X178562000Y-48387000D01*
X178586776Y-48384560D01*
X178610601Y-48377333D01*
X178632557Y-48365597D01*
X178651803Y-48349803D01*
X178667597Y-48330557D01*
X178679333Y-48308601D01*
X178686560Y-48284776D01*
X178689000Y-48260000D01*
X178689000Y-47299119D01*
X185278724Y-47299119D01*
X187800000Y-49820395D01*
X190321276Y-47299119D01*
X189961088Y-46809452D01*
X189297118Y-46449151D01*
X188575615Y-46225306D01*
X187824305Y-46146520D01*
X187072062Y-46215822D01*
X186347792Y-46430548D01*
X185679330Y-46782445D01*
X185638912Y-46809452D01*
X185278724Y-47299119D01*
X178689000Y-47299119D01*
X178689000Y-40533000D01*
X185180647Y-40533000D01*
X185166976Y-40537147D01*
%TA.AperFunction,Conductor*%
D29*
G36*
X185166976Y-40537147D02*
G01*
X185052666Y-40598246D01*
X184952473Y-40680473D01*
X184870246Y-40780666D01*
X184809147Y-40894976D01*
X184771521Y-41019010D01*
X184758817Y-41148000D01*
X184762000Y-41180319D01*
X184762001Y-44417671D01*
X184758817Y-44450000D01*
X184771521Y-44578990D01*
X184809147Y-44703024D01*
X184870246Y-44817334D01*
X184952473Y-44917527D01*
X185052666Y-44999754D01*
X185166976Y-45060853D01*
X185291010Y-45098479D01*
X185387681Y-45108000D01*
X185387682Y-45108000D01*
X185420000Y-45111183D01*
X185452319Y-45108000D01*
X189197682Y-45108000D01*
X189230000Y-45111183D01*
X189262319Y-45108000D01*
X193007682Y-45108000D01*
X193040000Y-45111183D01*
X193168990Y-45098479D01*
X193293024Y-45060853D01*
X193407334Y-44999754D01*
X193507527Y-44917527D01*
X193589754Y-44817334D01*
X193650853Y-44703024D01*
X193688479Y-44578990D01*
X193698000Y-44482319D01*
X193701183Y-44450000D01*
X193698000Y-44417681D01*
X193698000Y-41180319D01*
X193701183Y-41148000D01*
X193688479Y-41019010D01*
X193650853Y-40894976D01*
X193589754Y-40780666D01*
X193507527Y-40680473D01*
X193411772Y-40601888D01*
X193558054Y-40646053D01*
X193810409Y-40780232D01*
X194031896Y-40960873D01*
X194214078Y-41181092D01*
X194350018Y-41432507D01*
X194434533Y-41705531D01*
X194467001Y-42014445D01*
X194467000Y-45026174D01*
X194469431Y-45050861D01*
X194469279Y-45072741D01*
X194470005Y-45080148D01*
X194541407Y-45759487D01*
X194551117Y-45806791D01*
X194560173Y-45854261D01*
X194562324Y-45861385D01*
X194764315Y-46513917D01*
X194783026Y-46558429D01*
X194801132Y-46603242D01*
X194804626Y-46609813D01*
X195129515Y-47210683D01*
X195156520Y-47250719D01*
X195182981Y-47291155D01*
X195187684Y-47296922D01*
X195623096Y-47823245D01*
X195657375Y-47857286D01*
X195691175Y-47891800D01*
X195696909Y-47896544D01*
X196226259Y-48328270D01*
X196266490Y-48354999D01*
X196306355Y-48382295D01*
X196312901Y-48385835D01*
X196916025Y-48706522D01*
X196960659Y-48724919D01*
X197005091Y-48743962D01*
X197012200Y-48746162D01*
X197666126Y-48943594D01*
X197713499Y-48952974D01*
X197760767Y-48963021D01*
X197768168Y-48963799D01*
X198447988Y-49030456D01*
X198447995Y-49030456D01*
X198473825Y-49033000D01*
X202973934Y-49033000D01*
X203284446Y-49063446D01*
X203558054Y-49146053D01*
X203810409Y-49280232D01*
X204031896Y-49460873D01*
X204214078Y-49681092D01*
X204350018Y-49932507D01*
X204434533Y-50205531D01*
X204467000Y-50514435D01*
X204467001Y-89473923D01*
X204436554Y-89784443D01*
X204353947Y-90058054D01*
X204219765Y-90310412D01*
X204039127Y-90531896D01*
X203818905Y-90714080D01*
X203567493Y-90850018D01*
X203294469Y-90934533D01*
X202985565Y-90967000D01*
X198473825Y-90967000D01*
X198449138Y-90969431D01*
X198427258Y-90969279D01*
X198419852Y-90970005D01*
X197740513Y-91041407D01*
X197693209Y-91051117D01*
X197645739Y-91060173D01*
X197638617Y-91062323D01*
X197638611Y-91062325D01*
X196986083Y-91264316D01*
X196941578Y-91283024D01*
X196896759Y-91301132D01*
X196890192Y-91304624D01*
X196890187Y-91304626D01*
X196890183Y-91304629D01*
X196289317Y-91629515D01*
X196249240Y-91656547D01*
X196208846Y-91682981D01*
X196203078Y-91687684D01*
X195676755Y-92123096D01*
X195642714Y-92157375D01*
X195608200Y-92191175D01*
X195603456Y-92196909D01*
X195171730Y-92726259D01*
X195145001Y-92766490D01*
X195117705Y-92806355D01*
X195114165Y-92812902D01*
X194793478Y-93416025D01*
X194775081Y-93460659D01*
X194756038Y-93505091D01*
X194753838Y-93512200D01*
X194556406Y-94166126D01*
X194547026Y-94213499D01*
X194536979Y-94260767D01*
X194536201Y-94268168D01*
X194469544Y-94947988D01*
X194469544Y-94947996D01*
X194467000Y-94973826D01*
X194467001Y-97973924D01*
X194436554Y-98284443D01*
X194353947Y-98558054D01*
X194219765Y-98810412D01*
X194039127Y-99031896D01*
X193818905Y-99214080D01*
X193567493Y-99350018D01*
X193294469Y-99434533D01*
X192985565Y-99467000D01*
X184604973Y-99467000D01*
X184659654Y-99412318D01*
X184688580Y-99388580D01*
X184783303Y-99273160D01*
X184853689Y-99141477D01*
X184897032Y-98998594D01*
X184904885Y-98918855D01*
X185015675Y-98844828D01*
X185204828Y-98655675D01*
X185353444Y-98433254D01*
X185420000Y-98272574D01*
X185486556Y-98433254D01*
X185635172Y-98655675D01*
X185824325Y-98844828D01*
X186046746Y-98993444D01*
X186293886Y-99095813D01*
X186556249Y-99148000D01*
X186823751Y-99148000D01*
X187086114Y-99095813D01*
X187333254Y-98993444D01*
X187555675Y-98844828D01*
X187744828Y-98655675D01*
X187893444Y-98433254D01*
X187960000Y-98272574D01*
X188026556Y-98433254D01*
X188175172Y-98655675D01*
X188364325Y-98844828D01*
X188586746Y-98993444D01*
X188833886Y-99095813D01*
X189096249Y-99148000D01*
X189363751Y-99148000D01*
X189626114Y-99095813D01*
X189873254Y-98993444D01*
X190095675Y-98844828D01*
X190284828Y-98655675D01*
X190409543Y-98469025D01*
X190409543Y-98640000D01*
X190419351Y-98739585D01*
X190448399Y-98835343D01*
X190495571Y-98923595D01*
X190559052Y-99000948D01*
X190636405Y-99064429D01*
X190724657Y-99111601D01*
X190820415Y-99140649D01*
X190920000Y-99150457D01*
X192620000Y-99150457D01*
X192719585Y-99140649D01*
X192815343Y-99111601D01*
X192903595Y-99064429D01*
X192980948Y-99000948D01*
X193044429Y-98923595D01*
X193091601Y-98835343D01*
X193120649Y-98739585D01*
X193130457Y-98640000D01*
X193130457Y-96940000D01*
X193120649Y-96840415D01*
X193091601Y-96744657D01*
X193044429Y-96656405D01*
X192980948Y-96579052D01*
X192903595Y-96515571D01*
X192815343Y-96468399D01*
X192719585Y-96439351D01*
X192620000Y-96429543D01*
X192142429Y-96429543D01*
X192979669Y-95592305D01*
X193008590Y-95568570D01*
X193103313Y-95453150D01*
X193173699Y-95321467D01*
X193217042Y-95178584D01*
X193228010Y-95067222D01*
X193228010Y-95067213D01*
X193231676Y-95029991D01*
X193228010Y-94992769D01*
X193228010Y-87945010D01*
X197229721Y-87945010D01*
X197266953Y-87948677D01*
X197304185Y-87945010D01*
X197415547Y-87934042D01*
X197558430Y-87890699D01*
X197690113Y-87820313D01*
X197805533Y-87725590D01*
X197829276Y-87696659D01*
X199583669Y-85942268D01*
X199612590Y-85918533D01*
X199707313Y-85803113D01*
X199771618Y-85682807D01*
X199776009Y-85704881D01*
X199934914Y-86088513D01*
X200165609Y-86433772D01*
X200459228Y-86727391D01*
X200804487Y-86958086D01*
X201188119Y-87116991D01*
X201595380Y-87198000D01*
X202010620Y-87198000D01*
X202417881Y-87116991D01*
X202801513Y-86958086D01*
X203146772Y-86727391D01*
X203440391Y-86433772D01*
X203671086Y-86088513D01*
X203829991Y-85704881D01*
X203911000Y-85297620D01*
X203911000Y-84882380D01*
X203829991Y-84475119D01*
X203671086Y-84091487D01*
X203440391Y-83746228D01*
X203146772Y-83452609D01*
X202801513Y-83221914D01*
X202417881Y-83063009D01*
X202010620Y-82982000D01*
X201595380Y-82982000D01*
X201188119Y-83063009D01*
X200804487Y-83221914D01*
X200459228Y-83452609D01*
X200165609Y-83746228D01*
X199934914Y-84091487D01*
X199832010Y-84339920D01*
X199832010Y-74410080D01*
X199934914Y-74658513D01*
X200165609Y-75003772D01*
X200459228Y-75297391D01*
X200804487Y-75528086D01*
X201188119Y-75686991D01*
X201595380Y-75768000D01*
X202010620Y-75768000D01*
X202417881Y-75686991D01*
X202801513Y-75528086D01*
X203146772Y-75297391D01*
X203440391Y-75003772D01*
X203671086Y-74658513D01*
X203829991Y-74274881D01*
X203911000Y-73867620D01*
X203911000Y-73452380D01*
X203829991Y-73045119D01*
X203671086Y-72661487D01*
X203440391Y-72316228D01*
X203146772Y-72022609D01*
X202801513Y-71791914D01*
X202417881Y-71633009D01*
X202010620Y-71552000D01*
X201595380Y-71552000D01*
X201188119Y-71633009D01*
X200804487Y-71791914D01*
X200459228Y-72022609D01*
X200165609Y-72316228D01*
X199934914Y-72661487D01*
X199832010Y-72909920D01*
X199832010Y-67298080D01*
X199934914Y-67546513D01*
X200165609Y-67891772D01*
X200459228Y-68185391D01*
X200804487Y-68416086D01*
X201188119Y-68574991D01*
X201595380Y-68656000D01*
X202010620Y-68656000D01*
X202417881Y-68574991D01*
X202801513Y-68416086D01*
X203146772Y-68185391D01*
X203440391Y-67891772D01*
X203671086Y-67546513D01*
X203829991Y-67162881D01*
X203911000Y-66755620D01*
X203911000Y-66340380D01*
X203829991Y-65933119D01*
X203671086Y-65549487D01*
X203440391Y-65204228D01*
X203146772Y-64910609D01*
X202801513Y-64679914D01*
X202417881Y-64521009D01*
X202010620Y-64440000D01*
X201595380Y-64440000D01*
X201188119Y-64521009D01*
X200804487Y-64679914D01*
X200459228Y-64910609D01*
X200165609Y-65204228D01*
X199934914Y-65549487D01*
X199832010Y-65797920D01*
X199832010Y-55868080D01*
X199934914Y-56116513D01*
X200165609Y-56461772D01*
X200459228Y-56755391D01*
X200804487Y-56986086D01*
X201188119Y-57144991D01*
X201595380Y-57226000D01*
X202010620Y-57226000D01*
X202417881Y-57144991D01*
X202801513Y-56986086D01*
X203146772Y-56755391D01*
X203440391Y-56461772D01*
X203671086Y-56116513D01*
X203829991Y-55732881D01*
X203911000Y-55325620D01*
X203911000Y-54910380D01*
X203829991Y-54503119D01*
X203671086Y-54119487D01*
X203440391Y-53774228D01*
X203146772Y-53480609D01*
X202801513Y-53249914D01*
X202417881Y-53091009D01*
X202010620Y-53010000D01*
X201595380Y-53010000D01*
X201188119Y-53091009D01*
X200804487Y-53249914D01*
X200459228Y-53480609D01*
X200165609Y-53774228D01*
X199934914Y-54119487D01*
X199776009Y-54503119D01*
X199734797Y-54710306D01*
X199707313Y-54658887D01*
X199612590Y-54543467D01*
X199583670Y-54519733D01*
X198490287Y-53426352D01*
X198466544Y-53397421D01*
X198351124Y-53302698D01*
X198219441Y-53232312D01*
X198076558Y-53188969D01*
X197965196Y-53178001D01*
X197927964Y-53174334D01*
X197890732Y-53178001D01*
X189970317Y-53178001D01*
X190321276Y-52700881D01*
X187800000Y-50179605D01*
X185278724Y-52700881D01*
X185629683Y-53178001D01*
X182265974Y-53178001D01*
X181991491Y-52903518D01*
X181975106Y-52821146D01*
X181906659Y-52655901D01*
X181807289Y-52507184D01*
X181680816Y-52380711D01*
X181532099Y-52281341D01*
X181366854Y-52212894D01*
X181191430Y-52178000D01*
X181012570Y-52178000D01*
X180837146Y-52212894D01*
X180671901Y-52281341D01*
X180523184Y-52380711D01*
X180396711Y-52507184D01*
X180297341Y-52655901D01*
X180228894Y-52821146D01*
X180194000Y-52996570D01*
X180194000Y-53175430D01*
X180228894Y-53350854D01*
X180297341Y-53516099D01*
X180396711Y-53664816D01*
X180452895Y-53721000D01*
X180396711Y-53777184D01*
X180297341Y-53925901D01*
X180228894Y-54091146D01*
X180194000Y-54266570D01*
X180194000Y-54445430D01*
X180228894Y-54620854D01*
X180297341Y-54786099D01*
X180396711Y-54934816D01*
X180523184Y-55061289D01*
X180671901Y-55160659D01*
X180837146Y-55229106D01*
X180933119Y-55248196D01*
X180958851Y-55269314D01*
X181090534Y-55339700D01*
X181233417Y-55383043D01*
X181344779Y-55394011D01*
X181344788Y-55394011D01*
X181382010Y-55397677D01*
X181419232Y-55394011D01*
X191868642Y-55394011D01*
X191804023Y-55458630D01*
X191920296Y-55574903D01*
X191676329Y-55646486D01*
X191555429Y-55901996D01*
X191486700Y-56176184D01*
X191472783Y-56458512D01*
X191514213Y-56738130D01*
X191609397Y-57004292D01*
X191625966Y-57035292D01*
X191523456Y-57119420D01*
X191499721Y-57148341D01*
X182819065Y-65828999D01*
X175016231Y-65828999D01*
X174978999Y-65825332D01*
X174941767Y-65828999D01*
X174830405Y-65839967D01*
X174687522Y-65883310D01*
X174555839Y-65953696D01*
X174440419Y-66048419D01*
X174416680Y-66077345D01*
X173815026Y-66679000D01*
X170866973Y-66679000D01*
X171197660Y-66348314D01*
X171226580Y-66324580D01*
X171321303Y-66209160D01*
X171391689Y-66077477D01*
X171435032Y-65934594D01*
X171446000Y-65823232D01*
X171446000Y-65823231D01*
X171449667Y-65786000D01*
X171446000Y-65748768D01*
X171446000Y-63110929D01*
X171492659Y-63041099D01*
X171561106Y-62875854D01*
X171596000Y-62700430D01*
X171596000Y-62521570D01*
X171561106Y-62346146D01*
X171492659Y-62180901D01*
X171393289Y-62032184D01*
X171266816Y-61905711D01*
X171118099Y-61806341D01*
X170952854Y-61737894D01*
X170777430Y-61703000D01*
X170598570Y-61703000D01*
X170423146Y-61737894D01*
X170257901Y-61806341D01*
X170109184Y-61905711D01*
X169982711Y-62032184D01*
X169883341Y-62180901D01*
X169814894Y-62346146D01*
X169780000Y-62521570D01*
X169780000Y-62700430D01*
X169814894Y-62875854D01*
X169883341Y-63041099D01*
X169930001Y-63110930D01*
X169930000Y-64986768D01*
X169930000Y-65472027D01*
X169739027Y-65663000D01*
X169216394Y-65663000D01*
X169289303Y-65574160D01*
X169359689Y-65442477D01*
X169403032Y-65299594D01*
X169414000Y-65188232D01*
X169417667Y-65151000D01*
X169414000Y-65113768D01*
X169414000Y-63110929D01*
X169460659Y-63041099D01*
X169529106Y-62875854D01*
X169564000Y-62700430D01*
X169564000Y-62521570D01*
X169529106Y-62346146D01*
X169460659Y-62180901D01*
X169361289Y-62032184D01*
X169234816Y-61905711D01*
X169086099Y-61806341D01*
X168920854Y-61737894D01*
X168745430Y-61703000D01*
X168566570Y-61703000D01*
X168391146Y-61737894D01*
X168225901Y-61806341D01*
X168077184Y-61905711D01*
X167950711Y-62032184D01*
X167851341Y-62180901D01*
X167782894Y-62346146D01*
X167748000Y-62521570D01*
X167748000Y-62700430D01*
X167782894Y-62875854D01*
X167851341Y-63041099D01*
X167898000Y-63110929D01*
X167898001Y-64837026D01*
X167772037Y-64962990D01*
X166371279Y-64962990D01*
X166334047Y-64959323D01*
X166296815Y-64962990D01*
X166185453Y-64973958D01*
X166042570Y-65017301D01*
X165910887Y-65087687D01*
X165795467Y-65182410D01*
X165771732Y-65211331D01*
X165346980Y-65636084D01*
X165346980Y-61591449D01*
X165396659Y-61517099D01*
X165465106Y-61351854D01*
X165500000Y-61176430D01*
X165500000Y-60997570D01*
X165465106Y-60822146D01*
X165396659Y-60656901D01*
X165297289Y-60508184D01*
X165170816Y-60381711D01*
X165022099Y-60282341D01*
X164856854Y-60213894D01*
X164681430Y-60179000D01*
X164502570Y-60179000D01*
X164327146Y-60213894D01*
X164161901Y-60282341D01*
X164013184Y-60381711D01*
X163886711Y-60508184D01*
X163787341Y-60656901D01*
X163718894Y-60822146D01*
X163684000Y-60997570D01*
X163684000Y-61176430D01*
X163718894Y-61351854D01*
X163787341Y-61517099D01*
X163830981Y-61582410D01*
X163830980Y-68400750D01*
X163827313Y-68437982D01*
X163830980Y-68475213D01*
X163841948Y-68586575D01*
X163885291Y-68729458D01*
X163955677Y-68861141D01*
X164050400Y-68976562D01*
X164079331Y-69000305D01*
X166034684Y-70955660D01*
X166058419Y-70984581D01*
X166173839Y-71079304D01*
X166305522Y-71149690D01*
X166441097Y-71190816D01*
X166448405Y-71193033D01*
X166596999Y-71207668D01*
X166634231Y-71204001D01*
X174780894Y-71204001D01*
X174681711Y-71303184D01*
X174582341Y-71451901D01*
X174513894Y-71617146D01*
X174479000Y-71792570D01*
X174479000Y-71971430D01*
X174479511Y-71974001D01*
X168351230Y-71974001D01*
X168313998Y-71970334D01*
X168165405Y-71984969D01*
X168022522Y-72028312D01*
X167890839Y-72098698D01*
X167775419Y-72193421D01*
X167751684Y-72222342D01*
X166822518Y-73151509D01*
X166740146Y-73167894D01*
X166574901Y-73236341D01*
X166426184Y-73335711D01*
X166299711Y-73462184D01*
X166200341Y-73610901D01*
X166131894Y-73776146D01*
X166097000Y-73951570D01*
X166097000Y-74130430D01*
X166105269Y-74172000D01*
X162824731Y-74172000D01*
X162833000Y-74130430D01*
X162833000Y-73951570D01*
X162798106Y-73776146D01*
X162729659Y-73610901D01*
X162683000Y-73541071D01*
X162683000Y-60130973D01*
X163000973Y-59813000D01*
X164092071Y-59813000D01*
X164161901Y-59859659D01*
X164327146Y-59928106D01*
X164502570Y-59963000D01*
X164681430Y-59963000D01*
X164856854Y-59928106D01*
X165022099Y-59859659D01*
X165170816Y-59760289D01*
X165297289Y-59633816D01*
X165396659Y-59485099D01*
X165465106Y-59319854D01*
X165500000Y-59144430D01*
X165500000Y-58965570D01*
X165465106Y-58790146D01*
X165396659Y-58624901D01*
X165297289Y-58476184D01*
X165170816Y-58349711D01*
X165022099Y-58250341D01*
X164856854Y-58181894D01*
X164681430Y-58147000D01*
X164502570Y-58147000D01*
X164327146Y-58181894D01*
X164161901Y-58250341D01*
X164092071Y-58297000D01*
X162724232Y-58297000D01*
X162687000Y-58293333D01*
X162649768Y-58297000D01*
X162538406Y-58307968D01*
X162395523Y-58351311D01*
X162263840Y-58421697D01*
X162148420Y-58516420D01*
X162124685Y-58545341D01*
X161794000Y-58876027D01*
X161794000Y-58225973D01*
X162238973Y-57781000D01*
X164092071Y-57781000D01*
X164161901Y-57827659D01*
X164327146Y-57896106D01*
X164502570Y-57931000D01*
X164681430Y-57931000D01*
X164856854Y-57896106D01*
X165022099Y-57827659D01*
X165170816Y-57728289D01*
X165297289Y-57601816D01*
X165396659Y-57453099D01*
X165465106Y-57287854D01*
X165500000Y-57112430D01*
X165500000Y-56933570D01*
X165465106Y-56758146D01*
X165396659Y-56592901D01*
X165297289Y-56444184D01*
X165170816Y-56317711D01*
X165022099Y-56218341D01*
X164856854Y-56149894D01*
X164681430Y-56115000D01*
X164502570Y-56115000D01*
X164327146Y-56149894D01*
X164161901Y-56218341D01*
X164092071Y-56265000D01*
X161962232Y-56265000D01*
X161925000Y-56261333D01*
X161887768Y-56265000D01*
X161776406Y-56275968D01*
X161633523Y-56319311D01*
X161501840Y-56389697D01*
X161386420Y-56484420D01*
X161362686Y-56513340D01*
X161093990Y-56782037D01*
X161093990Y-56258982D01*
X161603974Y-55749000D01*
X164092071Y-55749000D01*
X164161901Y-55795659D01*
X164327146Y-55864106D01*
X164502570Y-55899000D01*
X164681430Y-55899000D01*
X164856854Y-55864106D01*
X165022099Y-55795659D01*
X165170816Y-55696289D01*
X165297289Y-55569816D01*
X165396659Y-55421099D01*
X165465106Y-55255854D01*
X165500000Y-55080430D01*
X165500000Y-54901570D01*
X165499489Y-54898999D01*
X171556027Y-54898999D01*
X173862509Y-57205483D01*
X173878894Y-57287854D01*
X173947341Y-57453099D01*
X174046711Y-57601816D01*
X174173184Y-57728289D01*
X174321901Y-57827659D01*
X174487146Y-57896106D01*
X174662570Y-57931000D01*
X174841430Y-57931000D01*
X175016854Y-57896106D01*
X175182099Y-57827659D01*
X175330816Y-57728289D01*
X175457289Y-57601816D01*
X175556659Y-57453099D01*
X175625106Y-57287854D01*
X175660000Y-57112430D01*
X175660000Y-56933570D01*
X175625106Y-56758146D01*
X175556659Y-56592901D01*
X175457289Y-56444184D01*
X175330816Y-56317711D01*
X175182099Y-56218341D01*
X175016854Y-56149894D01*
X174934483Y-56133509D01*
X174826974Y-56026000D01*
X174841430Y-56026000D01*
X175016854Y-55991106D01*
X175182099Y-55922659D01*
X175330816Y-55823289D01*
X175457289Y-55696816D01*
X175556659Y-55548099D01*
X175625106Y-55382854D01*
X175660000Y-55207430D01*
X175660000Y-55028570D01*
X175625106Y-54853146D01*
X175556659Y-54687901D01*
X175457289Y-54539184D01*
X175330816Y-54412711D01*
X175182099Y-54313341D01*
X175016854Y-54244894D01*
X174934483Y-54228509D01*
X174699973Y-53994000D01*
X174841430Y-53994000D01*
X175016854Y-53959106D01*
X175182099Y-53890659D01*
X175330816Y-53791289D01*
X175457289Y-53664816D01*
X175556659Y-53516099D01*
X175625106Y-53350854D01*
X175660000Y-53175430D01*
X175660000Y-52996570D01*
X175625106Y-52821146D01*
X175556659Y-52655901D01*
X175457289Y-52507184D01*
X175330816Y-52380711D01*
X175182099Y-52281341D01*
X175016854Y-52212894D01*
X174939630Y-52197533D01*
X174830139Y-52107676D01*
X174698456Y-52037290D01*
X174555573Y-51993947D01*
X174444211Y-51982979D01*
X174406979Y-51979312D01*
X174369747Y-51982979D01*
X164959964Y-51982979D01*
X165101659Y-51841284D01*
X165130580Y-51817549D01*
X165225303Y-51702129D01*
X165295689Y-51570446D01*
X165339032Y-51427563D01*
X165350000Y-51316201D01*
X165353667Y-51278969D01*
X165350000Y-51241737D01*
X165350000Y-49975695D01*
X183946520Y-49975695D01*
X184015822Y-50727938D01*
X184230548Y-51452208D01*
X184582445Y-52120670D01*
X184609452Y-52161088D01*
X185099119Y-52521276D01*
X187620395Y-50000000D01*
X187979605Y-50000000D01*
X190500881Y-52521276D01*
X190990548Y-52161088D01*
X191350849Y-51497118D01*
X191574694Y-50775615D01*
X191653480Y-50024305D01*
X191584178Y-49272062D01*
X191369452Y-48547792D01*
X191017555Y-47879330D01*
X190990548Y-47838912D01*
X190500881Y-47478724D01*
X187979605Y-50000000D01*
X187620395Y-50000000D01*
X185099119Y-47478724D01*
X184609452Y-47838912D01*
X184249151Y-48502882D01*
X184025306Y-49224385D01*
X183946520Y-49975695D01*
X165350000Y-49975695D01*
X165350000Y-49521929D01*
X165396659Y-49452099D01*
X165465106Y-49286854D01*
X165500000Y-49111430D01*
X165500000Y-48932570D01*
X165465106Y-48757146D01*
X165396659Y-48591901D01*
X165297289Y-48443184D01*
X165241105Y-48387000D01*
X178562000Y-48387000D01*
X178586776Y-48384560D01*
X178610601Y-48377333D01*
X178632557Y-48365597D01*
X178651803Y-48349803D01*
X178667597Y-48330557D01*
X178679333Y-48308601D01*
X178686560Y-48284776D01*
X178689000Y-48260000D01*
X178689000Y-47299119D01*
X185278724Y-47299119D01*
X187800000Y-49820395D01*
X190321276Y-47299119D01*
X189961088Y-46809452D01*
X189297118Y-46449151D01*
X188575615Y-46225306D01*
X187824305Y-46146520D01*
X187072062Y-46215822D01*
X186347792Y-46430548D01*
X185679330Y-46782445D01*
X185638912Y-46809452D01*
X185278724Y-47299119D01*
X178689000Y-47299119D01*
X178689000Y-40533000D01*
X185180647Y-40533000D01*
X185166976Y-40537147D01*
G37*
%TD.AperFunction*%
D28*
X180414822Y-96908645D02*
X180265843Y-97158748D01*
X180168519Y-97433109D01*
X180289186Y-97663000D01*
X181483000Y-97663000D01*
X181483000Y-97643000D01*
X181737000Y-97643000D01*
X181737000Y-97663000D01*
X181757000Y-97663000D01*
X181757000Y-97917000D01*
X181737000Y-97917000D01*
X181737000Y-97937000D01*
X181483000Y-97937000D01*
X181483000Y-97917000D01*
X180289186Y-97917000D01*
X180168519Y-98146891D01*
X180265843Y-98421252D01*
X180307986Y-98492000D01*
X179813973Y-98492000D01*
X179758000Y-98436028D01*
X179758000Y-97537232D01*
X179761667Y-97500000D01*
X179747032Y-97351406D01*
X179703689Y-97208523D01*
X179633303Y-97076840D01*
X179538580Y-96961420D01*
X179509660Y-96937686D01*
X179329973Y-96758000D01*
X180550611Y-96758000D01*
X180414822Y-96908645D01*
%TA.AperFunction,Conductor*%
D29*
G36*
X180414822Y-96908645D02*
G01*
X180265843Y-97158748D01*
X180168519Y-97433109D01*
X180289186Y-97663000D01*
X181483000Y-97663000D01*
X181483000Y-97643000D01*
X181737000Y-97643000D01*
X181737000Y-97663000D01*
X181757000Y-97663000D01*
X181757000Y-97917000D01*
X181737000Y-97917000D01*
X181737000Y-97937000D01*
X181483000Y-97937000D01*
X181483000Y-97917000D01*
X180289186Y-97917000D01*
X180168519Y-98146891D01*
X180265843Y-98421252D01*
X180307986Y-98492000D01*
X179813973Y-98492000D01*
X179758000Y-98436028D01*
X179758000Y-97537232D01*
X179761667Y-97500000D01*
X179747032Y-97351406D01*
X179703689Y-97208523D01*
X179633303Y-97076840D01*
X179538580Y-96961420D01*
X179509660Y-96937686D01*
X179329973Y-96758000D01*
X180550611Y-96758000D01*
X180414822Y-96908645D01*
G37*
%TD.AperFunction*%
D28*
X166200341Y-79043099D02*
X166299711Y-79191816D01*
X166426184Y-79318289D01*
X166574901Y-79417659D01*
X166740146Y-79486106D01*
X166822518Y-79502491D01*
X167331685Y-80011659D01*
X167355420Y-80040580D01*
X167470840Y-80135303D01*
X167602523Y-80205689D01*
X167745406Y-80249032D01*
X167894000Y-80263667D01*
X167931232Y-80260000D01*
X172914028Y-80260000D01*
X173613000Y-80958974D01*
X173613001Y-81877758D01*
X173609333Y-81915000D01*
X173623968Y-82063593D01*
X173667312Y-82206477D01*
X173725319Y-82315000D01*
X173737698Y-82338160D01*
X173832421Y-82453580D01*
X173861347Y-82477319D01*
X173876028Y-82492000D01*
X153601482Y-82492000D01*
X153453397Y-82506585D01*
X153263389Y-82564224D01*
X153088276Y-82657824D01*
X152934788Y-82783788D01*
X152808824Y-82937276D01*
X152715224Y-83112389D01*
X152657585Y-83302397D01*
X152649272Y-83386801D01*
X152619106Y-83235146D01*
X152550659Y-83069901D01*
X152451289Y-82921184D01*
X152324816Y-82794711D01*
X152176099Y-82695341D01*
X152010854Y-82626894D01*
X151835430Y-82592000D01*
X151656570Y-82592000D01*
X151481146Y-82626894D01*
X151315901Y-82695341D01*
X151167184Y-82794711D01*
X151040711Y-82921184D01*
X150941341Y-83069901D01*
X150872894Y-83235146D01*
X150838000Y-83410570D01*
X150838000Y-83589430D01*
X150872894Y-83764854D01*
X150941341Y-83930099D01*
X151040711Y-84078816D01*
X151167184Y-84205289D01*
X151315901Y-84304659D01*
X151481146Y-84373106D01*
X151656570Y-84408000D01*
X151835430Y-84408000D01*
X152010854Y-84373106D01*
X152176099Y-84304659D01*
X152324816Y-84205289D01*
X152451289Y-84078816D01*
X152550659Y-83930099D01*
X152619106Y-83764854D01*
X152649272Y-83613199D01*
X152657585Y-83697603D01*
X152715224Y-83887611D01*
X152808824Y-84062724D01*
X152934788Y-84216212D01*
X153088276Y-84342176D01*
X153263389Y-84435776D01*
X153453397Y-84493415D01*
X153601482Y-84508000D01*
X162670027Y-84508000D01*
X162282846Y-84895182D01*
X162253921Y-84918920D01*
X162200024Y-84984594D01*
X162159197Y-85034341D01*
X162088812Y-85166023D01*
X162045468Y-85308907D01*
X162030833Y-85457500D01*
X162034501Y-85494742D01*
X162034500Y-88628500D01*
X161176429Y-88628500D01*
X161106599Y-88581841D01*
X160941354Y-88513394D01*
X160765930Y-88478500D01*
X160587070Y-88478500D01*
X160411646Y-88513394D01*
X160246401Y-88581841D01*
X160097684Y-88681211D01*
X159971211Y-88807684D01*
X159871841Y-88956401D01*
X159803394Y-89121646D01*
X159768500Y-89297070D01*
X159768500Y-89475930D01*
X159803394Y-89651354D01*
X159871841Y-89816599D01*
X159971211Y-89965316D01*
X160097684Y-90091789D01*
X160246401Y-90191159D01*
X160411646Y-90259606D01*
X160587070Y-90294500D01*
X160765930Y-90294500D01*
X160941354Y-90259606D01*
X161106599Y-90191159D01*
X161176429Y-90144500D01*
X162034501Y-90144500D01*
X162034500Y-91401526D01*
X161611027Y-91825000D01*
X155485232Y-91825000D01*
X155448000Y-91821333D01*
X155353026Y-91830687D01*
X155299406Y-91835968D01*
X155156523Y-91879311D01*
X155024840Y-91949697D01*
X154909420Y-92044420D01*
X154885685Y-92073341D01*
X154049346Y-92909681D01*
X154020421Y-92933420D01*
X153960725Y-93006160D01*
X153925697Y-93048841D01*
X153855312Y-93180523D01*
X153811968Y-93323407D01*
X153797333Y-93472000D01*
X153801001Y-93509242D01*
X153801000Y-95460092D01*
X153661452Y-95553335D01*
X153465335Y-95749452D01*
X153429457Y-95803147D01*
X153429457Y-95747000D01*
X153419649Y-95647415D01*
X153390601Y-95551657D01*
X153343429Y-95463405D01*
X153279948Y-95386052D01*
X153202595Y-95322571D01*
X153114343Y-95275399D01*
X153018585Y-95246351D01*
X152919000Y-95236543D01*
X151119000Y-95236543D01*
X151019415Y-95246351D01*
X150923657Y-95275399D01*
X150835405Y-95322571D01*
X150758052Y-95386052D01*
X150694571Y-95463405D01*
X150647399Y-95551657D01*
X150618351Y-95647415D01*
X150608543Y-95747000D01*
X150608543Y-97339570D01*
X150491000Y-97222028D01*
X150491000Y-81466972D01*
X151036963Y-80921011D01*
X155690779Y-80921011D01*
X155728011Y-80924678D01*
X155765243Y-80921011D01*
X155876605Y-80910043D01*
X156019488Y-80866700D01*
X156151171Y-80796314D01*
X156266591Y-80701591D01*
X156290334Y-80672660D01*
X157532048Y-79430947D01*
X158773771Y-80672670D01*
X158797506Y-80701591D01*
X158912926Y-80796314D01*
X159044609Y-80866700D01*
X159149341Y-80898470D01*
X159187492Y-80910043D01*
X159336086Y-80924678D01*
X159373318Y-80921011D01*
X165447039Y-80921011D01*
X166115509Y-81589483D01*
X166131894Y-81671854D01*
X166200341Y-81837099D01*
X166299711Y-81985816D01*
X166426184Y-82112289D01*
X166574901Y-82211659D01*
X166740146Y-82280106D01*
X166915570Y-82315000D01*
X167094430Y-82315000D01*
X167269854Y-82280106D01*
X167435099Y-82211659D01*
X167583816Y-82112289D01*
X167710289Y-81985816D01*
X167809659Y-81837099D01*
X167878106Y-81671854D01*
X167913000Y-81496430D01*
X167913000Y-81317570D01*
X167878106Y-81142146D01*
X167809659Y-80976901D01*
X167710289Y-80828184D01*
X167583816Y-80701711D01*
X167435099Y-80602341D01*
X167269854Y-80533894D01*
X167187483Y-80517509D01*
X166323334Y-79653362D01*
X166299591Y-79624431D01*
X166184171Y-79529708D01*
X166052488Y-79459322D01*
X165909605Y-79415979D01*
X165798243Y-79405011D01*
X165764304Y-79401668D01*
X166177651Y-78988322D01*
X166200341Y-79043099D01*
%TA.AperFunction,Conductor*%
D29*
G36*
X166200341Y-79043099D02*
G01*
X166299711Y-79191816D01*
X166426184Y-79318289D01*
X166574901Y-79417659D01*
X166740146Y-79486106D01*
X166822518Y-79502491D01*
X167331685Y-80011659D01*
X167355420Y-80040580D01*
X167470840Y-80135303D01*
X167602523Y-80205689D01*
X167745406Y-80249032D01*
X167894000Y-80263667D01*
X167931232Y-80260000D01*
X172914028Y-80260000D01*
X173613000Y-80958974D01*
X173613001Y-81877758D01*
X173609333Y-81915000D01*
X173623968Y-82063593D01*
X173667312Y-82206477D01*
X173725319Y-82315000D01*
X173737698Y-82338160D01*
X173832421Y-82453580D01*
X173861347Y-82477319D01*
X173876028Y-82492000D01*
X153601482Y-82492000D01*
X153453397Y-82506585D01*
X153263389Y-82564224D01*
X153088276Y-82657824D01*
X152934788Y-82783788D01*
X152808824Y-82937276D01*
X152715224Y-83112389D01*
X152657585Y-83302397D01*
X152649272Y-83386801D01*
X152619106Y-83235146D01*
X152550659Y-83069901D01*
X152451289Y-82921184D01*
X152324816Y-82794711D01*
X152176099Y-82695341D01*
X152010854Y-82626894D01*
X151835430Y-82592000D01*
X151656570Y-82592000D01*
X151481146Y-82626894D01*
X151315901Y-82695341D01*
X151167184Y-82794711D01*
X151040711Y-82921184D01*
X150941341Y-83069901D01*
X150872894Y-83235146D01*
X150838000Y-83410570D01*
X150838000Y-83589430D01*
X150872894Y-83764854D01*
X150941341Y-83930099D01*
X151040711Y-84078816D01*
X151167184Y-84205289D01*
X151315901Y-84304659D01*
X151481146Y-84373106D01*
X151656570Y-84408000D01*
X151835430Y-84408000D01*
X152010854Y-84373106D01*
X152176099Y-84304659D01*
X152324816Y-84205289D01*
X152451289Y-84078816D01*
X152550659Y-83930099D01*
X152619106Y-83764854D01*
X152649272Y-83613199D01*
X152657585Y-83697603D01*
X152715224Y-83887611D01*
X152808824Y-84062724D01*
X152934788Y-84216212D01*
X153088276Y-84342176D01*
X153263389Y-84435776D01*
X153453397Y-84493415D01*
X153601482Y-84508000D01*
X162670027Y-84508000D01*
X162282846Y-84895182D01*
X162253921Y-84918920D01*
X162200024Y-84984594D01*
X162159197Y-85034341D01*
X162088812Y-85166023D01*
X162045468Y-85308907D01*
X162030833Y-85457500D01*
X162034501Y-85494742D01*
X162034500Y-88628500D01*
X161176429Y-88628500D01*
X161106599Y-88581841D01*
X160941354Y-88513394D01*
X160765930Y-88478500D01*
X160587070Y-88478500D01*
X160411646Y-88513394D01*
X160246401Y-88581841D01*
X160097684Y-88681211D01*
X159971211Y-88807684D01*
X159871841Y-88956401D01*
X159803394Y-89121646D01*
X159768500Y-89297070D01*
X159768500Y-89475930D01*
X159803394Y-89651354D01*
X159871841Y-89816599D01*
X159971211Y-89965316D01*
X160097684Y-90091789D01*
X160246401Y-90191159D01*
X160411646Y-90259606D01*
X160587070Y-90294500D01*
X160765930Y-90294500D01*
X160941354Y-90259606D01*
X161106599Y-90191159D01*
X161176429Y-90144500D01*
X162034501Y-90144500D01*
X162034500Y-91401526D01*
X161611027Y-91825000D01*
X155485232Y-91825000D01*
X155448000Y-91821333D01*
X155353026Y-91830687D01*
X155299406Y-91835968D01*
X155156523Y-91879311D01*
X155024840Y-91949697D01*
X154909420Y-92044420D01*
X154885685Y-92073341D01*
X154049346Y-92909681D01*
X154020421Y-92933420D01*
X153960725Y-93006160D01*
X153925697Y-93048841D01*
X153855312Y-93180523D01*
X153811968Y-93323407D01*
X153797333Y-93472000D01*
X153801001Y-93509242D01*
X153801000Y-95460092D01*
X153661452Y-95553335D01*
X153465335Y-95749452D01*
X153429457Y-95803147D01*
X153429457Y-95747000D01*
X153419649Y-95647415D01*
X153390601Y-95551657D01*
X153343429Y-95463405D01*
X153279948Y-95386052D01*
X153202595Y-95322571D01*
X153114343Y-95275399D01*
X153018585Y-95246351D01*
X152919000Y-95236543D01*
X151119000Y-95236543D01*
X151019415Y-95246351D01*
X150923657Y-95275399D01*
X150835405Y-95322571D01*
X150758052Y-95386052D01*
X150694571Y-95463405D01*
X150647399Y-95551657D01*
X150618351Y-95647415D01*
X150608543Y-95747000D01*
X150608543Y-97339570D01*
X150491000Y-97222028D01*
X150491000Y-81466972D01*
X151036963Y-80921011D01*
X155690779Y-80921011D01*
X155728011Y-80924678D01*
X155765243Y-80921011D01*
X155876605Y-80910043D01*
X156019488Y-80866700D01*
X156151171Y-80796314D01*
X156266591Y-80701591D01*
X156290334Y-80672660D01*
X157532048Y-79430947D01*
X158773771Y-80672670D01*
X158797506Y-80701591D01*
X158912926Y-80796314D01*
X159044609Y-80866700D01*
X159149341Y-80898470D01*
X159187492Y-80910043D01*
X159336086Y-80924678D01*
X159373318Y-80921011D01*
X165447039Y-80921011D01*
X166115509Y-81589483D01*
X166131894Y-81671854D01*
X166200341Y-81837099D01*
X166299711Y-81985816D01*
X166426184Y-82112289D01*
X166574901Y-82211659D01*
X166740146Y-82280106D01*
X166915570Y-82315000D01*
X167094430Y-82315000D01*
X167269854Y-82280106D01*
X167435099Y-82211659D01*
X167583816Y-82112289D01*
X167710289Y-81985816D01*
X167809659Y-81837099D01*
X167878106Y-81671854D01*
X167913000Y-81496430D01*
X167913000Y-81317570D01*
X167878106Y-81142146D01*
X167809659Y-80976901D01*
X167710289Y-80828184D01*
X167583816Y-80701711D01*
X167435099Y-80602341D01*
X167269854Y-80533894D01*
X167187483Y-80517509D01*
X166323334Y-79653362D01*
X166299591Y-79624431D01*
X166184171Y-79529708D01*
X166052488Y-79459322D01*
X165909605Y-79415979D01*
X165798243Y-79405011D01*
X165764304Y-79401668D01*
X166177651Y-78988322D01*
X166200341Y-79043099D01*
G37*
%TD.AperFunction*%
D28*
X191712010Y-87500984D02*
X191712011Y-94716016D01*
X191186028Y-95242000D01*
X190037221Y-95242000D01*
X189999999Y-95238334D01*
X189962777Y-95242000D01*
X189962768Y-95242000D01*
X189851406Y-95252968D01*
X189708523Y-95296311D01*
X189576840Y-95366697D01*
X189461420Y-95461420D01*
X189437686Y-95490340D01*
X188720346Y-96207681D01*
X188691421Y-96231420D01*
X188642133Y-96291478D01*
X188596697Y-96346841D01*
X188526312Y-96478523D01*
X188482968Y-96621407D01*
X188479332Y-96658327D01*
X188364325Y-96735172D01*
X188175172Y-96924325D01*
X188026556Y-97146746D01*
X187960000Y-97307426D01*
X187893444Y-97146746D01*
X187744828Y-96924325D01*
X187555675Y-96735172D01*
X187449102Y-96663962D01*
X187448000Y-96652777D01*
X187448000Y-96652768D01*
X187437032Y-96541406D01*
X187393689Y-96398523D01*
X187323303Y-96266840D01*
X187228580Y-96151420D01*
X187199659Y-96127685D01*
X186562323Y-95490351D01*
X186538580Y-95461420D01*
X186423160Y-95366697D01*
X186291477Y-95296311D01*
X186148594Y-95252968D01*
X186037232Y-95242000D01*
X186000000Y-95238333D01*
X185962768Y-95242000D01*
X170313973Y-95242000D01*
X169922000Y-94850027D01*
X169922000Y-89399929D01*
X169968659Y-89330099D01*
X170037106Y-89164854D01*
X170053491Y-89082483D01*
X170180000Y-88955973D01*
X170306509Y-89082482D01*
X170322894Y-89164854D01*
X170391341Y-89330099D01*
X170490711Y-89478816D01*
X170617184Y-89605289D01*
X170765901Y-89704659D01*
X170895188Y-89758212D01*
X170878798Y-89812240D01*
X170867059Y-89931428D01*
X170870001Y-89961298D01*
X170870000Y-92108766D01*
X170747901Y-92159341D01*
X170599184Y-92258711D01*
X170472711Y-92385184D01*
X170373341Y-92533901D01*
X170304894Y-92699146D01*
X170270000Y-92874570D01*
X170270000Y-93053430D01*
X170304894Y-93228854D01*
X170373341Y-93394099D01*
X170472711Y-93542816D01*
X170599184Y-93669289D01*
X170747901Y-93768659D01*
X170913146Y-93837106D01*
X171088570Y-93872000D01*
X171267430Y-93872000D01*
X171442854Y-93837106D01*
X171608099Y-93768659D01*
X171703000Y-93705248D01*
X171797901Y-93768659D01*
X171963146Y-93837106D01*
X172138570Y-93872000D01*
X172317430Y-93872000D01*
X172492854Y-93837106D01*
X172658099Y-93768659D01*
X172806816Y-93669289D01*
X172933289Y-93542816D01*
X173032659Y-93394099D01*
X173101106Y-93228854D01*
X173136000Y-93053430D01*
X173136000Y-92874570D01*
X173101452Y-92700881D01*
X185278724Y-92700881D01*
X185638912Y-93190548D01*
X186302882Y-93550849D01*
X187024385Y-93774694D01*
X187775695Y-93853480D01*
X188527938Y-93784178D01*
X189252208Y-93569452D01*
X189920670Y-93217555D01*
X189961088Y-93190548D01*
X190321276Y-92700881D01*
X187800000Y-90179605D01*
X185278724Y-92700881D01*
X173101452Y-92700881D01*
X173101106Y-92699146D01*
X173032659Y-92533901D01*
X172933289Y-92385184D01*
X172806816Y-92258711D01*
X172658099Y-92159341D01*
X172536000Y-92108766D01*
X172536000Y-90369667D01*
X172929972Y-89975695D01*
X183946520Y-89975695D01*
X184015822Y-90727938D01*
X184230548Y-91452208D01*
X184582445Y-92120670D01*
X184609452Y-92161088D01*
X185099119Y-92521276D01*
X187620395Y-90000000D01*
X187979605Y-90000000D01*
X190500881Y-92521276D01*
X190990548Y-92161088D01*
X191350849Y-91497118D01*
X191574694Y-90775615D01*
X191653480Y-90024305D01*
X191584178Y-89272062D01*
X191369452Y-88547792D01*
X191017555Y-87879330D01*
X190990548Y-87838912D01*
X190500881Y-87478724D01*
X187979605Y-90000000D01*
X187620395Y-90000000D01*
X185099119Y-87478724D01*
X184609452Y-87838912D01*
X184249151Y-88502882D01*
X184025306Y-89224385D01*
X183946520Y-89975695D01*
X172929972Y-89975695D01*
X173349364Y-89556303D01*
X173471464Y-89606879D01*
X173646888Y-89641773D01*
X173825748Y-89641773D01*
X174001172Y-89606879D01*
X174166417Y-89538432D01*
X174315134Y-89439062D01*
X174441607Y-89312589D01*
X174540977Y-89163872D01*
X174609424Y-88998627D01*
X174644318Y-88823203D01*
X174644318Y-88644343D01*
X174609424Y-88468919D01*
X174540977Y-88303674D01*
X174441607Y-88154957D01*
X174315134Y-88028484D01*
X174166417Y-87929114D01*
X174001172Y-87860667D01*
X173889227Y-87838400D01*
X173866960Y-87726455D01*
X173798513Y-87561210D01*
X173715525Y-87437010D01*
X184174758Y-87437010D01*
X184211990Y-87440677D01*
X184249222Y-87437010D01*
X184360584Y-87426042D01*
X184503467Y-87382699D01*
X184635150Y-87312313D01*
X184651226Y-87299119D01*
X185278724Y-87299119D01*
X187800000Y-89820395D01*
X190321276Y-87299119D01*
X189961088Y-86809452D01*
X189297118Y-86449151D01*
X188575615Y-86225306D01*
X187824305Y-86146520D01*
X187072062Y-86215822D01*
X186347792Y-86430548D01*
X185679330Y-86782445D01*
X185638912Y-86809452D01*
X185278724Y-87299119D01*
X184651226Y-87299119D01*
X184750570Y-87217590D01*
X184774313Y-87188659D01*
X186368974Y-85594000D01*
X189805028Y-85594000D01*
X191712010Y-87500984D01*
%TA.AperFunction,Conductor*%
D29*
G36*
X191712010Y-87500984D02*
G01*
X191712011Y-94716016D01*
X191186028Y-95242000D01*
X190037221Y-95242000D01*
X189999999Y-95238334D01*
X189962777Y-95242000D01*
X189962768Y-95242000D01*
X189851406Y-95252968D01*
X189708523Y-95296311D01*
X189576840Y-95366697D01*
X189461420Y-95461420D01*
X189437686Y-95490340D01*
X188720346Y-96207681D01*
X188691421Y-96231420D01*
X188642133Y-96291478D01*
X188596697Y-96346841D01*
X188526312Y-96478523D01*
X188482968Y-96621407D01*
X188479332Y-96658327D01*
X188364325Y-96735172D01*
X188175172Y-96924325D01*
X188026556Y-97146746D01*
X187960000Y-97307426D01*
X187893444Y-97146746D01*
X187744828Y-96924325D01*
X187555675Y-96735172D01*
X187449102Y-96663962D01*
X187448000Y-96652777D01*
X187448000Y-96652768D01*
X187437032Y-96541406D01*
X187393689Y-96398523D01*
X187323303Y-96266840D01*
X187228580Y-96151420D01*
X187199659Y-96127685D01*
X186562323Y-95490351D01*
X186538580Y-95461420D01*
X186423160Y-95366697D01*
X186291477Y-95296311D01*
X186148594Y-95252968D01*
X186037232Y-95242000D01*
X186000000Y-95238333D01*
X185962768Y-95242000D01*
X170313973Y-95242000D01*
X169922000Y-94850027D01*
X169922000Y-89399929D01*
X169968659Y-89330099D01*
X170037106Y-89164854D01*
X170053491Y-89082483D01*
X170180000Y-88955973D01*
X170306509Y-89082482D01*
X170322894Y-89164854D01*
X170391341Y-89330099D01*
X170490711Y-89478816D01*
X170617184Y-89605289D01*
X170765901Y-89704659D01*
X170895188Y-89758212D01*
X170878798Y-89812240D01*
X170867059Y-89931428D01*
X170870001Y-89961298D01*
X170870000Y-92108766D01*
X170747901Y-92159341D01*
X170599184Y-92258711D01*
X170472711Y-92385184D01*
X170373341Y-92533901D01*
X170304894Y-92699146D01*
X170270000Y-92874570D01*
X170270000Y-93053430D01*
X170304894Y-93228854D01*
X170373341Y-93394099D01*
X170472711Y-93542816D01*
X170599184Y-93669289D01*
X170747901Y-93768659D01*
X170913146Y-93837106D01*
X171088570Y-93872000D01*
X171267430Y-93872000D01*
X171442854Y-93837106D01*
X171608099Y-93768659D01*
X171703000Y-93705248D01*
X171797901Y-93768659D01*
X171963146Y-93837106D01*
X172138570Y-93872000D01*
X172317430Y-93872000D01*
X172492854Y-93837106D01*
X172658099Y-93768659D01*
X172806816Y-93669289D01*
X172933289Y-93542816D01*
X173032659Y-93394099D01*
X173101106Y-93228854D01*
X173136000Y-93053430D01*
X173136000Y-92874570D01*
X173101452Y-92700881D01*
X185278724Y-92700881D01*
X185638912Y-93190548D01*
X186302882Y-93550849D01*
X187024385Y-93774694D01*
X187775695Y-93853480D01*
X188527938Y-93784178D01*
X189252208Y-93569452D01*
X189920670Y-93217555D01*
X189961088Y-93190548D01*
X190321276Y-92700881D01*
X187800000Y-90179605D01*
X185278724Y-92700881D01*
X173101452Y-92700881D01*
X173101106Y-92699146D01*
X173032659Y-92533901D01*
X172933289Y-92385184D01*
X172806816Y-92258711D01*
X172658099Y-92159341D01*
X172536000Y-92108766D01*
X172536000Y-90369667D01*
X172929972Y-89975695D01*
X183946520Y-89975695D01*
X184015822Y-90727938D01*
X184230548Y-91452208D01*
X184582445Y-92120670D01*
X184609452Y-92161088D01*
X185099119Y-92521276D01*
X187620395Y-90000000D01*
X187979605Y-90000000D01*
X190500881Y-92521276D01*
X190990548Y-92161088D01*
X191350849Y-91497118D01*
X191574694Y-90775615D01*
X191653480Y-90024305D01*
X191584178Y-89272062D01*
X191369452Y-88547792D01*
X191017555Y-87879330D01*
X190990548Y-87838912D01*
X190500881Y-87478724D01*
X187979605Y-90000000D01*
X187620395Y-90000000D01*
X185099119Y-87478724D01*
X184609452Y-87838912D01*
X184249151Y-88502882D01*
X184025306Y-89224385D01*
X183946520Y-89975695D01*
X172929972Y-89975695D01*
X173349364Y-89556303D01*
X173471464Y-89606879D01*
X173646888Y-89641773D01*
X173825748Y-89641773D01*
X174001172Y-89606879D01*
X174166417Y-89538432D01*
X174315134Y-89439062D01*
X174441607Y-89312589D01*
X174540977Y-89163872D01*
X174609424Y-88998627D01*
X174644318Y-88823203D01*
X174644318Y-88644343D01*
X174609424Y-88468919D01*
X174540977Y-88303674D01*
X174441607Y-88154957D01*
X174315134Y-88028484D01*
X174166417Y-87929114D01*
X174001172Y-87860667D01*
X173889227Y-87838400D01*
X173866960Y-87726455D01*
X173798513Y-87561210D01*
X173715525Y-87437010D01*
X184174758Y-87437010D01*
X184211990Y-87440677D01*
X184249222Y-87437010D01*
X184360584Y-87426042D01*
X184503467Y-87382699D01*
X184635150Y-87312313D01*
X184651226Y-87299119D01*
X185278724Y-87299119D01*
X187800000Y-89820395D01*
X190321276Y-87299119D01*
X189961088Y-86809452D01*
X189297118Y-86449151D01*
X188575615Y-86225306D01*
X187824305Y-86146520D01*
X187072062Y-86215822D01*
X186347792Y-86430548D01*
X185679330Y-86782445D01*
X185638912Y-86809452D01*
X185278724Y-87299119D01*
X184651226Y-87299119D01*
X184750570Y-87217590D01*
X184774313Y-87188659D01*
X186368974Y-85594000D01*
X189805028Y-85594000D01*
X191712010Y-87500984D01*
G37*
%TD.AperFunction*%
D28*
X186132901Y-71416659D02*
X186298146Y-71485106D01*
X186473570Y-71520000D01*
X186652430Y-71520000D01*
X186827854Y-71485106D01*
X186993099Y-71416659D01*
X187062929Y-71370000D01*
X196282027Y-71370000D01*
X196727001Y-71814974D01*
X196727001Y-75900248D01*
X196710734Y-75818470D01*
X196612135Y-75580430D01*
X196468990Y-75366199D01*
X196286801Y-75184010D01*
X196072570Y-75040865D01*
X195834530Y-74942266D01*
X195581827Y-74892000D01*
X195324173Y-74892000D01*
X195071470Y-74942266D01*
X194833430Y-75040865D01*
X194619199Y-75184010D01*
X194437010Y-75366199D01*
X194386361Y-75442000D01*
X194258270Y-75442000D01*
X194270571Y-75416004D01*
X194339300Y-75141816D01*
X194353217Y-74859488D01*
X194311787Y-74579870D01*
X194216603Y-74313708D01*
X194149671Y-74188486D01*
X193905702Y-74116903D01*
X193092605Y-74930000D01*
X193106748Y-74944143D01*
X192927143Y-75123748D01*
X192913000Y-75109605D01*
X192898858Y-75123748D01*
X192719253Y-74944143D01*
X192733395Y-74930000D01*
X191920298Y-74116903D01*
X191676329Y-74188486D01*
X191555429Y-74443996D01*
X191486700Y-74718184D01*
X191472783Y-75000512D01*
X191514213Y-75280130D01*
X191572100Y-75442000D01*
X184844973Y-75442000D01*
X184527000Y-75124027D01*
X184527000Y-74540929D01*
X184573659Y-74471099D01*
X184642106Y-74305854D01*
X184677000Y-74130430D01*
X184677000Y-73951570D01*
X184674162Y-73937298D01*
X192099903Y-73937298D01*
X192913000Y-74750395D01*
X193726097Y-73937298D01*
X193654514Y-73693329D01*
X193399004Y-73572429D01*
X193124816Y-73503700D01*
X192842488Y-73489783D01*
X192562870Y-73531213D01*
X192296708Y-73626397D01*
X192171486Y-73693329D01*
X192099903Y-73937298D01*
X184674162Y-73937298D01*
X184642106Y-73776146D01*
X184573659Y-73610901D01*
X184474289Y-73462184D01*
X184347816Y-73335711D01*
X184199099Y-73236341D01*
X184033854Y-73167894D01*
X183858430Y-73133000D01*
X183679570Y-73133000D01*
X183504146Y-73167894D01*
X183384000Y-73217660D01*
X183384000Y-72195972D01*
X184209974Y-71370000D01*
X186063071Y-71370000D01*
X186132901Y-71416659D01*
%TA.AperFunction,Conductor*%
D29*
G36*
X186132901Y-71416659D02*
G01*
X186298146Y-71485106D01*
X186473570Y-71520000D01*
X186652430Y-71520000D01*
X186827854Y-71485106D01*
X186993099Y-71416659D01*
X187062929Y-71370000D01*
X196282027Y-71370000D01*
X196727001Y-71814974D01*
X196727001Y-75900248D01*
X196710734Y-75818470D01*
X196612135Y-75580430D01*
X196468990Y-75366199D01*
X196286801Y-75184010D01*
X196072570Y-75040865D01*
X195834530Y-74942266D01*
X195581827Y-74892000D01*
X195324173Y-74892000D01*
X195071470Y-74942266D01*
X194833430Y-75040865D01*
X194619199Y-75184010D01*
X194437010Y-75366199D01*
X194386361Y-75442000D01*
X194258270Y-75442000D01*
X194270571Y-75416004D01*
X194339300Y-75141816D01*
X194353217Y-74859488D01*
X194311787Y-74579870D01*
X194216603Y-74313708D01*
X194149671Y-74188486D01*
X193905702Y-74116903D01*
X193092605Y-74930000D01*
X193106748Y-74944143D01*
X192927143Y-75123748D01*
X192913000Y-75109605D01*
X192898858Y-75123748D01*
X192719253Y-74944143D01*
X192733395Y-74930000D01*
X191920298Y-74116903D01*
X191676329Y-74188486D01*
X191555429Y-74443996D01*
X191486700Y-74718184D01*
X191472783Y-75000512D01*
X191514213Y-75280130D01*
X191572100Y-75442000D01*
X184844973Y-75442000D01*
X184527000Y-75124027D01*
X184527000Y-74540929D01*
X184573659Y-74471099D01*
X184642106Y-74305854D01*
X184677000Y-74130430D01*
X184677000Y-73951570D01*
X184674162Y-73937298D01*
X192099903Y-73937298D01*
X192913000Y-74750395D01*
X193726097Y-73937298D01*
X193654514Y-73693329D01*
X193399004Y-73572429D01*
X193124816Y-73503700D01*
X192842488Y-73489783D01*
X192562870Y-73531213D01*
X192296708Y-73626397D01*
X192171486Y-73693329D01*
X192099903Y-73937298D01*
X184674162Y-73937298D01*
X184642106Y-73776146D01*
X184573659Y-73610901D01*
X184474289Y-73462184D01*
X184347816Y-73335711D01*
X184199099Y-73236341D01*
X184033854Y-73167894D01*
X183858430Y-73133000D01*
X183679570Y-73133000D01*
X183504146Y-73167894D01*
X183384000Y-73217660D01*
X183384000Y-72195972D01*
X184209974Y-71370000D01*
X186063071Y-71370000D01*
X186132901Y-71416659D01*
G37*
%TD.AperFunction*%
D28*
X193106748Y-56373858D02*
X193092605Y-56388000D01*
X193106748Y-56402143D01*
X192927143Y-56581748D01*
X192913000Y-56567605D01*
X192898858Y-56581748D01*
X192719253Y-56402143D01*
X192733395Y-56388000D01*
X192719253Y-56373858D01*
X192898858Y-56194253D01*
X192913000Y-56208395D01*
X192927143Y-56194253D01*
X193106748Y-56373858D01*
%TA.AperFunction,Conductor*%
D29*
G36*
X193106748Y-56373858D02*
G01*
X193092605Y-56388000D01*
X193106748Y-56402143D01*
X192927143Y-56581748D01*
X192913000Y-56567605D01*
X192898858Y-56581748D01*
X192719253Y-56402143D01*
X192733395Y-56388000D01*
X192719253Y-56373858D01*
X192898858Y-56194253D01*
X192913000Y-56208395D01*
X192927143Y-56194253D01*
X193106748Y-56373858D01*
G37*
%TD.AperFunction*%
%TD*%
M02*
