%TF.GenerationSoftware,KiCad,Pcbnew,(5.1.9)-1*%
%TF.CreationDate,2022-09-19T23:43:11+03:00*%
%TF.ProjectId,ESP8266DevBoard,45535038-3236-4364-9465-76426f617264,1.1*%
%TF.SameCoordinates,Original*%
%TF.FileFunction,Soldermask,Top*%
%TF.FilePolarity,Negative*%
%FSLAX46Y46*%
G04 Gerber Fmt 4.6, Leading zero omitted, Abs format (unit mm)*
G04 Created by KiCad (PCBNEW (5.1.9)-1) date 2022-09-19 23:43:11*
%MOMM*%
%LPD*%
G01*
G04 APERTURE LIST*
%ADD10C,0.100000*%
%ADD11O,1.700000X1.700000*%
%ADD12R,1.700000X1.700000*%
%ADD13R,2.000000X1.500000*%
%ADD14R,2.000000X3.800000*%
%ADD15R,0.900000X0.800000*%
%ADD16C,1.600000*%
%ADD17R,1.600000X1.600000*%
%ADD18C,3.200000*%
%ADD19C,6.400000*%
%ADD20R,2.400000X3.500000*%
%ADD21R,1.500000X2.000000*%
%ADD22R,3.800000X2.000000*%
%ADD23R,2.500000X1.000000*%
%ADD24R,1.000000X1.800000*%
%ADD25C,1.700000*%
%ADD26C,2.200000*%
%ADD27C,1.800000*%
%ADD28R,3.000000X3.000000*%
%ADD29C,3.000000*%
%ADD30C,3.800000*%
%ADD31R,1.800000X1.900000*%
%ADD32R,1.900000X1.900000*%
%ADD33R,0.400000X1.350000*%
%ADD34R,2.100000X1.600000*%
%ADD35R,3.430000X3.250000*%
%ADD36R,1.200000X0.900000*%
%ADD37R,1.800000X1.800000*%
%ADD38C,2.400000*%
G04 APERTURE END LIST*
D10*
%TO.C,SW1*%
X164953000Y-94655000D02*
G75*
G03*
X164953000Y-94655000I-635000J0D01*
G01*
X157953000Y-94655000D02*
G75*
G03*
X157953000Y-94655000I-635000J0D01*
G01*
X159012500Y-97155000D02*
G75*
G03*
X159012500Y-97155000I-444500J0D01*
G01*
X163512500Y-97155000D02*
G75*
G03*
X163512500Y-97155000I-444500J0D01*
G01*
%TD*%
D11*
%TO.C,J5*%
X181610000Y-97790000D03*
X184150000Y-97790000D03*
X186690000Y-97790000D03*
X189230000Y-97790000D03*
D12*
X191770000Y-97790000D03*
%TD*%
D13*
%TO.C,U4*%
X156616000Y-82028000D03*
X156616000Y-86628000D03*
X156616000Y-84328000D03*
D14*
X162916000Y-84328000D03*
%TD*%
%TO.C,R26*%
G36*
G01*
X170999999Y-68853000D02*
X171900001Y-68853000D01*
G75*
G02*
X172150000Y-69102999I0J-249999D01*
G01*
X172150000Y-69803001D01*
G75*
G02*
X171900001Y-70053000I-249999J0D01*
G01*
X170999999Y-70053000D01*
G75*
G02*
X170750000Y-69803001I0J249999D01*
G01*
X170750000Y-69102999D01*
G75*
G02*
X170999999Y-68853000I249999J0D01*
G01*
G37*
G36*
G01*
X170999999Y-66853000D02*
X171900001Y-66853000D01*
G75*
G02*
X172150000Y-67102999I0J-249999D01*
G01*
X172150000Y-67803001D01*
G75*
G02*
X171900001Y-68053000I-249999J0D01*
G01*
X170999999Y-68053000D01*
G75*
G02*
X170750000Y-67803001I0J249999D01*
G01*
X170750000Y-67102999D01*
G75*
G02*
X170999999Y-66853000I249999J0D01*
G01*
G37*
%TD*%
%TO.C,R25*%
G36*
G01*
X177742001Y-68053000D02*
X176841999Y-68053000D01*
G75*
G02*
X176592000Y-67803001I0J249999D01*
G01*
X176592000Y-67102999D01*
G75*
G02*
X176841999Y-66853000I249999J0D01*
G01*
X177742001Y-66853000D01*
G75*
G02*
X177992000Y-67102999I0J-249999D01*
G01*
X177992000Y-67803001D01*
G75*
G02*
X177742001Y-68053000I-249999J0D01*
G01*
G37*
G36*
G01*
X177742001Y-70053000D02*
X176841999Y-70053000D01*
G75*
G02*
X176592000Y-69803001I0J249999D01*
G01*
X176592000Y-69102999D01*
G75*
G02*
X176841999Y-68853000I249999J0D01*
G01*
X177742001Y-68853000D01*
G75*
G02*
X177992000Y-69102999I0J-249999D01*
G01*
X177992000Y-69803001D01*
G75*
G02*
X177742001Y-70053000I-249999J0D01*
G01*
G37*
%TD*%
%TO.C,R24*%
G36*
G01*
X162617999Y-68853000D02*
X163518001Y-68853000D01*
G75*
G02*
X163768000Y-69102999I0J-249999D01*
G01*
X163768000Y-69803001D01*
G75*
G02*
X163518001Y-70053000I-249999J0D01*
G01*
X162617999Y-70053000D01*
G75*
G02*
X162368000Y-69803001I0J249999D01*
G01*
X162368000Y-69102999D01*
G75*
G02*
X162617999Y-68853000I249999J0D01*
G01*
G37*
G36*
G01*
X162617999Y-66853000D02*
X163518001Y-66853000D01*
G75*
G02*
X163768000Y-67102999I0J-249999D01*
G01*
X163768000Y-67803001D01*
G75*
G02*
X163518001Y-68053000I-249999J0D01*
G01*
X162617999Y-68053000D01*
G75*
G02*
X162368000Y-67803001I0J249999D01*
G01*
X162368000Y-67102999D01*
G75*
G02*
X162617999Y-66853000I249999J0D01*
G01*
G37*
%TD*%
%TO.C,R23*%
G36*
G01*
X169360001Y-68053000D02*
X168459999Y-68053000D01*
G75*
G02*
X168210000Y-67803001I0J249999D01*
G01*
X168210000Y-67102999D01*
G75*
G02*
X168459999Y-66853000I249999J0D01*
G01*
X169360001Y-66853000D01*
G75*
G02*
X169610000Y-67102999I0J-249999D01*
G01*
X169610000Y-67803001D01*
G75*
G02*
X169360001Y-68053000I-249999J0D01*
G01*
G37*
G36*
G01*
X169360001Y-70053000D02*
X168459999Y-70053000D01*
G75*
G02*
X168210000Y-69803001I0J249999D01*
G01*
X168210000Y-69102999D01*
G75*
G02*
X168459999Y-68853000I249999J0D01*
G01*
X169360001Y-68853000D01*
G75*
G02*
X169610000Y-69102999I0J-249999D01*
G01*
X169610000Y-69803001D01*
G75*
G02*
X169360001Y-70053000I-249999J0D01*
G01*
G37*
%TD*%
%TO.C,R22*%
G36*
G01*
X170999999Y-73425000D02*
X171900001Y-73425000D01*
G75*
G02*
X172150000Y-73674999I0J-249999D01*
G01*
X172150000Y-74375001D01*
G75*
G02*
X171900001Y-74625000I-249999J0D01*
G01*
X170999999Y-74625000D01*
G75*
G02*
X170750000Y-74375001I0J249999D01*
G01*
X170750000Y-73674999D01*
G75*
G02*
X170999999Y-73425000I249999J0D01*
G01*
G37*
G36*
G01*
X170999999Y-71425000D02*
X171900001Y-71425000D01*
G75*
G02*
X172150000Y-71674999I0J-249999D01*
G01*
X172150000Y-72375001D01*
G75*
G02*
X171900001Y-72625000I-249999J0D01*
G01*
X170999999Y-72625000D01*
G75*
G02*
X170750000Y-72375001I0J249999D01*
G01*
X170750000Y-71674999D01*
G75*
G02*
X170999999Y-71425000I249999J0D01*
G01*
G37*
%TD*%
%TO.C,R21*%
G36*
G01*
X176841999Y-73425000D02*
X177742001Y-73425000D01*
G75*
G02*
X177992000Y-73674999I0J-249999D01*
G01*
X177992000Y-74375001D01*
G75*
G02*
X177742001Y-74625000I-249999J0D01*
G01*
X176841999Y-74625000D01*
G75*
G02*
X176592000Y-74375001I0J249999D01*
G01*
X176592000Y-73674999D01*
G75*
G02*
X176841999Y-73425000I249999J0D01*
G01*
G37*
G36*
G01*
X176841999Y-71425000D02*
X177742001Y-71425000D01*
G75*
G02*
X177992000Y-71674999I0J-249999D01*
G01*
X177992000Y-72375001D01*
G75*
G02*
X177742001Y-72625000I-249999J0D01*
G01*
X176841999Y-72625000D01*
G75*
G02*
X176592000Y-72375001I0J249999D01*
G01*
X176592000Y-71674999D01*
G75*
G02*
X176841999Y-71425000I249999J0D01*
G01*
G37*
%TD*%
%TO.C,R20*%
G36*
G01*
X179381999Y-73425000D02*
X180282001Y-73425000D01*
G75*
G02*
X180532000Y-73674999I0J-249999D01*
G01*
X180532000Y-74375001D01*
G75*
G02*
X180282001Y-74625000I-249999J0D01*
G01*
X179381999Y-74625000D01*
G75*
G02*
X179132000Y-74375001I0J249999D01*
G01*
X179132000Y-73674999D01*
G75*
G02*
X179381999Y-73425000I249999J0D01*
G01*
G37*
G36*
G01*
X179381999Y-71425000D02*
X180282001Y-71425000D01*
G75*
G02*
X180532000Y-71674999I0J-249999D01*
G01*
X180532000Y-72375001D01*
G75*
G02*
X180282001Y-72625000I-249999J0D01*
G01*
X179381999Y-72625000D01*
G75*
G02*
X179132000Y-72375001I0J249999D01*
G01*
X179132000Y-71674999D01*
G75*
G02*
X179381999Y-71425000I249999J0D01*
G01*
G37*
%TD*%
%TO.C,R19*%
G36*
G01*
X185223999Y-73425000D02*
X186124001Y-73425000D01*
G75*
G02*
X186374000Y-73674999I0J-249999D01*
G01*
X186374000Y-74375001D01*
G75*
G02*
X186124001Y-74625000I-249999J0D01*
G01*
X185223999Y-74625000D01*
G75*
G02*
X184974000Y-74375001I0J249999D01*
G01*
X184974000Y-73674999D01*
G75*
G02*
X185223999Y-73425000I249999J0D01*
G01*
G37*
G36*
G01*
X185223999Y-71425000D02*
X186124001Y-71425000D01*
G75*
G02*
X186374000Y-71674999I0J-249999D01*
G01*
X186374000Y-72375001D01*
G75*
G02*
X186124001Y-72625000I-249999J0D01*
G01*
X185223999Y-72625000D01*
G75*
G02*
X184974000Y-72375001I0J249999D01*
G01*
X184974000Y-71674999D01*
G75*
G02*
X185223999Y-71425000I249999J0D01*
G01*
G37*
%TD*%
D15*
%TO.C,Q10*%
X175371000Y-68453000D03*
X173371000Y-69403000D03*
X173371000Y-67503000D03*
%TD*%
%TO.C,Q9*%
X166989000Y-68453000D03*
X164989000Y-69403000D03*
X164989000Y-67503000D03*
%TD*%
%TO.C,Q8*%
X175371000Y-73025000D03*
X173371000Y-73975000D03*
X173371000Y-72075000D03*
%TD*%
%TO.C,Q7*%
X183753000Y-73025000D03*
X181753000Y-73975000D03*
X181753000Y-72075000D03*
%TD*%
D16*
%TO.C,J3*%
X192913000Y-56388000D03*
X195453000Y-57658000D03*
X192913000Y-58928000D03*
X195453000Y-60198000D03*
X192913000Y-61468000D03*
X195453000Y-62738000D03*
X192913000Y-64008000D03*
D17*
X195453000Y-65278000D03*
D18*
X201803000Y-66548000D03*
X201803000Y-55118000D03*
%TD*%
D16*
%TO.C,J2*%
X192913000Y-74930000D03*
X195453000Y-76200000D03*
X192913000Y-77470000D03*
X195453000Y-78740000D03*
X192913000Y-80010000D03*
X195453000Y-81280000D03*
X192913000Y-82550000D03*
D17*
X195453000Y-83820000D03*
D18*
X201803000Y-85090000D03*
X201803000Y-73660000D03*
%TD*%
D19*
%TO.C,H1*%
X105050000Y-70000000D03*
%TD*%
%TO.C,H3*%
X187800000Y-50000000D03*
%TD*%
%TO.C,H2*%
X187800000Y-90000000D03*
%TD*%
D20*
%TO.C,Y1*%
X180848000Y-90992000D03*
X180848000Y-85792000D03*
%TD*%
D21*
%TO.C,U3*%
X147334000Y-89814000D03*
X142734000Y-89814000D03*
X145034000Y-89814000D03*
D22*
X145034000Y-96114000D03*
%TD*%
%TO.C,U2*%
G36*
G01*
X168933000Y-86892000D02*
X168633000Y-86892000D01*
G75*
G02*
X168483000Y-86742000I0J150000D01*
G01*
X168483000Y-85092000D01*
G75*
G02*
X168633000Y-84942000I150000J0D01*
G01*
X168933000Y-84942000D01*
G75*
G02*
X169083000Y-85092000I0J-150000D01*
G01*
X169083000Y-86742000D01*
G75*
G02*
X168933000Y-86892000I-150000J0D01*
G01*
G37*
G36*
G01*
X170203000Y-86892000D02*
X169903000Y-86892000D01*
G75*
G02*
X169753000Y-86742000I0J150000D01*
G01*
X169753000Y-85092000D01*
G75*
G02*
X169903000Y-84942000I150000J0D01*
G01*
X170203000Y-84942000D01*
G75*
G02*
X170353000Y-85092000I0J-150000D01*
G01*
X170353000Y-86742000D01*
G75*
G02*
X170203000Y-86892000I-150000J0D01*
G01*
G37*
G36*
G01*
X171473000Y-86892000D02*
X171173000Y-86892000D01*
G75*
G02*
X171023000Y-86742000I0J150000D01*
G01*
X171023000Y-85092000D01*
G75*
G02*
X171173000Y-84942000I150000J0D01*
G01*
X171473000Y-84942000D01*
G75*
G02*
X171623000Y-85092000I0J-150000D01*
G01*
X171623000Y-86742000D01*
G75*
G02*
X171473000Y-86892000I-150000J0D01*
G01*
G37*
G36*
G01*
X172743000Y-86892000D02*
X172443000Y-86892000D01*
G75*
G02*
X172293000Y-86742000I0J150000D01*
G01*
X172293000Y-85092000D01*
G75*
G02*
X172443000Y-84942000I150000J0D01*
G01*
X172743000Y-84942000D01*
G75*
G02*
X172893000Y-85092000I0J-150000D01*
G01*
X172893000Y-86742000D01*
G75*
G02*
X172743000Y-86892000I-150000J0D01*
G01*
G37*
G36*
G01*
X174013000Y-86892000D02*
X173713000Y-86892000D01*
G75*
G02*
X173563000Y-86742000I0J150000D01*
G01*
X173563000Y-85092000D01*
G75*
G02*
X173713000Y-84942000I150000J0D01*
G01*
X174013000Y-84942000D01*
G75*
G02*
X174163000Y-85092000I0J-150000D01*
G01*
X174163000Y-86742000D01*
G75*
G02*
X174013000Y-86892000I-150000J0D01*
G01*
G37*
G36*
G01*
X175283000Y-86892000D02*
X174983000Y-86892000D01*
G75*
G02*
X174833000Y-86742000I0J150000D01*
G01*
X174833000Y-85092000D01*
G75*
G02*
X174983000Y-84942000I150000J0D01*
G01*
X175283000Y-84942000D01*
G75*
G02*
X175433000Y-85092000I0J-150000D01*
G01*
X175433000Y-86742000D01*
G75*
G02*
X175283000Y-86892000I-150000J0D01*
G01*
G37*
G36*
G01*
X176553000Y-86892000D02*
X176253000Y-86892000D01*
G75*
G02*
X176103000Y-86742000I0J150000D01*
G01*
X176103000Y-85092000D01*
G75*
G02*
X176253000Y-84942000I150000J0D01*
G01*
X176553000Y-84942000D01*
G75*
G02*
X176703000Y-85092000I0J-150000D01*
G01*
X176703000Y-86742000D01*
G75*
G02*
X176553000Y-86892000I-150000J0D01*
G01*
G37*
G36*
G01*
X177823000Y-86892000D02*
X177523000Y-86892000D01*
G75*
G02*
X177373000Y-86742000I0J150000D01*
G01*
X177373000Y-85092000D01*
G75*
G02*
X177523000Y-84942000I150000J0D01*
G01*
X177823000Y-84942000D01*
G75*
G02*
X177973000Y-85092000I0J-150000D01*
G01*
X177973000Y-86742000D01*
G75*
G02*
X177823000Y-86892000I-150000J0D01*
G01*
G37*
G36*
G01*
X177823000Y-91842000D02*
X177523000Y-91842000D01*
G75*
G02*
X177373000Y-91692000I0J150000D01*
G01*
X177373000Y-90042000D01*
G75*
G02*
X177523000Y-89892000I150000J0D01*
G01*
X177823000Y-89892000D01*
G75*
G02*
X177973000Y-90042000I0J-150000D01*
G01*
X177973000Y-91692000D01*
G75*
G02*
X177823000Y-91842000I-150000J0D01*
G01*
G37*
G36*
G01*
X176553000Y-91842000D02*
X176253000Y-91842000D01*
G75*
G02*
X176103000Y-91692000I0J150000D01*
G01*
X176103000Y-90042000D01*
G75*
G02*
X176253000Y-89892000I150000J0D01*
G01*
X176553000Y-89892000D01*
G75*
G02*
X176703000Y-90042000I0J-150000D01*
G01*
X176703000Y-91692000D01*
G75*
G02*
X176553000Y-91842000I-150000J0D01*
G01*
G37*
G36*
G01*
X175283000Y-91842000D02*
X174983000Y-91842000D01*
G75*
G02*
X174833000Y-91692000I0J150000D01*
G01*
X174833000Y-90042000D01*
G75*
G02*
X174983000Y-89892000I150000J0D01*
G01*
X175283000Y-89892000D01*
G75*
G02*
X175433000Y-90042000I0J-150000D01*
G01*
X175433000Y-91692000D01*
G75*
G02*
X175283000Y-91842000I-150000J0D01*
G01*
G37*
G36*
G01*
X174013000Y-91842000D02*
X173713000Y-91842000D01*
G75*
G02*
X173563000Y-91692000I0J150000D01*
G01*
X173563000Y-90042000D01*
G75*
G02*
X173713000Y-89892000I150000J0D01*
G01*
X174013000Y-89892000D01*
G75*
G02*
X174163000Y-90042000I0J-150000D01*
G01*
X174163000Y-91692000D01*
G75*
G02*
X174013000Y-91842000I-150000J0D01*
G01*
G37*
G36*
G01*
X172743000Y-91842000D02*
X172443000Y-91842000D01*
G75*
G02*
X172293000Y-91692000I0J150000D01*
G01*
X172293000Y-90042000D01*
G75*
G02*
X172443000Y-89892000I150000J0D01*
G01*
X172743000Y-89892000D01*
G75*
G02*
X172893000Y-90042000I0J-150000D01*
G01*
X172893000Y-91692000D01*
G75*
G02*
X172743000Y-91842000I-150000J0D01*
G01*
G37*
G36*
G01*
X171473000Y-91842000D02*
X171173000Y-91842000D01*
G75*
G02*
X171023000Y-91692000I0J150000D01*
G01*
X171023000Y-90042000D01*
G75*
G02*
X171173000Y-89892000I150000J0D01*
G01*
X171473000Y-89892000D01*
G75*
G02*
X171623000Y-90042000I0J-150000D01*
G01*
X171623000Y-91692000D01*
G75*
G02*
X171473000Y-91842000I-150000J0D01*
G01*
G37*
G36*
G01*
X170203000Y-91842000D02*
X169903000Y-91842000D01*
G75*
G02*
X169753000Y-91692000I0J150000D01*
G01*
X169753000Y-90042000D01*
G75*
G02*
X169903000Y-89892000I150000J0D01*
G01*
X170203000Y-89892000D01*
G75*
G02*
X170353000Y-90042000I0J-150000D01*
G01*
X170353000Y-91692000D01*
G75*
G02*
X170203000Y-91842000I-150000J0D01*
G01*
G37*
G36*
G01*
X168933000Y-91842000D02*
X168633000Y-91842000D01*
G75*
G02*
X168483000Y-91692000I0J150000D01*
G01*
X168483000Y-90042000D01*
G75*
G02*
X168633000Y-89892000I150000J0D01*
G01*
X168933000Y-89892000D01*
G75*
G02*
X169083000Y-90042000I0J-150000D01*
G01*
X169083000Y-91692000D01*
G75*
G02*
X168933000Y-91842000I-150000J0D01*
G01*
G37*
%TD*%
D23*
%TO.C,U1*%
X177272000Y-49078000D03*
X177272000Y-51078000D03*
X177272000Y-53078000D03*
X177272000Y-55078000D03*
X177272000Y-57078000D03*
X177272000Y-59078000D03*
X177272000Y-61078000D03*
X177272000Y-63078000D03*
D24*
X174672000Y-64578000D03*
X172672000Y-64578000D03*
X170672000Y-64578000D03*
X168672000Y-64578000D03*
X166672000Y-64578000D03*
X164672000Y-64578000D03*
D23*
X162072000Y-63078000D03*
X162072000Y-61078000D03*
X162072000Y-59078000D03*
X162072000Y-57078000D03*
X162072000Y-55078000D03*
X162072000Y-53078000D03*
X162072000Y-51078000D03*
X162072000Y-49078000D03*
%TD*%
D25*
%TO.C,SW1*%
X163068000Y-97155000D03*
X158568000Y-97155000D03*
D26*
X164318000Y-94655000D03*
X157318000Y-94655000D03*
%TD*%
D27*
%TO.C,RV1*%
X122054000Y-71280000D03*
X114554000Y-68580000D03*
%TD*%
%TO.C,R18*%
G36*
G01*
X179381999Y-68853000D02*
X180282001Y-68853000D01*
G75*
G02*
X180532000Y-69102999I0J-249999D01*
G01*
X180532000Y-69803001D01*
G75*
G02*
X180282001Y-70053000I-249999J0D01*
G01*
X179381999Y-70053000D01*
G75*
G02*
X179132000Y-69803001I0J249999D01*
G01*
X179132000Y-69102999D01*
G75*
G02*
X179381999Y-68853000I249999J0D01*
G01*
G37*
G36*
G01*
X179381999Y-66853000D02*
X180282001Y-66853000D01*
G75*
G02*
X180532000Y-67102999I0J-249999D01*
G01*
X180532000Y-67803001D01*
G75*
G02*
X180282001Y-68053000I-249999J0D01*
G01*
X179381999Y-68053000D01*
G75*
G02*
X179132000Y-67803001I0J249999D01*
G01*
X179132000Y-67102999D01*
G75*
G02*
X179381999Y-66853000I249999J0D01*
G01*
G37*
%TD*%
%TO.C,R17*%
G36*
G01*
X186124001Y-68053000D02*
X185223999Y-68053000D01*
G75*
G02*
X184974000Y-67803001I0J249999D01*
G01*
X184974000Y-67102999D01*
G75*
G02*
X185223999Y-66853000I249999J0D01*
G01*
X186124001Y-66853000D01*
G75*
G02*
X186374000Y-67102999I0J-249999D01*
G01*
X186374000Y-67803001D01*
G75*
G02*
X186124001Y-68053000I-249999J0D01*
G01*
G37*
G36*
G01*
X186124001Y-70053000D02*
X185223999Y-70053000D01*
G75*
G02*
X184974000Y-69803001I0J249999D01*
G01*
X184974000Y-69102999D01*
G75*
G02*
X185223999Y-68853000I249999J0D01*
G01*
X186124001Y-68853000D01*
G75*
G02*
X186374000Y-69102999I0J-249999D01*
G01*
X186374000Y-69803001D01*
G75*
G02*
X186124001Y-70053000I-249999J0D01*
G01*
G37*
%TD*%
%TO.C,R16*%
G36*
G01*
X162617999Y-73425000D02*
X163518001Y-73425000D01*
G75*
G02*
X163768000Y-73674999I0J-249999D01*
G01*
X163768000Y-74375001D01*
G75*
G02*
X163518001Y-74625000I-249999J0D01*
G01*
X162617999Y-74625000D01*
G75*
G02*
X162368000Y-74375001I0J249999D01*
G01*
X162368000Y-73674999D01*
G75*
G02*
X162617999Y-73425000I249999J0D01*
G01*
G37*
G36*
G01*
X162617999Y-71425000D02*
X163518001Y-71425000D01*
G75*
G02*
X163768000Y-71674999I0J-249999D01*
G01*
X163768000Y-72375001D01*
G75*
G02*
X163518001Y-72625000I-249999J0D01*
G01*
X162617999Y-72625000D01*
G75*
G02*
X162368000Y-72375001I0J249999D01*
G01*
X162368000Y-71674999D01*
G75*
G02*
X162617999Y-71425000I249999J0D01*
G01*
G37*
%TD*%
%TO.C,R15*%
G36*
G01*
X168459999Y-73425000D02*
X169360001Y-73425000D01*
G75*
G02*
X169610000Y-73674999I0J-249999D01*
G01*
X169610000Y-74375001D01*
G75*
G02*
X169360001Y-74625000I-249999J0D01*
G01*
X168459999Y-74625000D01*
G75*
G02*
X168210000Y-74375001I0J249999D01*
G01*
X168210000Y-73674999D01*
G75*
G02*
X168459999Y-73425000I249999J0D01*
G01*
G37*
G36*
G01*
X168459999Y-71425000D02*
X169360001Y-71425000D01*
G75*
G02*
X169610000Y-71674999I0J-249999D01*
G01*
X169610000Y-72375001D01*
G75*
G02*
X169360001Y-72625000I-249999J0D01*
G01*
X168459999Y-72625000D01*
G75*
G02*
X168210000Y-72375001I0J249999D01*
G01*
X168210000Y-71674999D01*
G75*
G02*
X168459999Y-71425000I249999J0D01*
G01*
G37*
%TD*%
%TO.C,R14*%
G36*
G01*
X153689000Y-94811001D02*
X153689000Y-93910999D01*
G75*
G02*
X153938999Y-93661000I249999J0D01*
G01*
X154639001Y-93661000D01*
G75*
G02*
X154889000Y-93910999I0J-249999D01*
G01*
X154889000Y-94811001D01*
G75*
G02*
X154639001Y-95061000I-249999J0D01*
G01*
X153938999Y-95061000D01*
G75*
G02*
X153689000Y-94811001I0J249999D01*
G01*
G37*
G36*
G01*
X151689000Y-94811001D02*
X151689000Y-93910999D01*
G75*
G02*
X151938999Y-93661000I249999J0D01*
G01*
X152639001Y-93661000D01*
G75*
G02*
X152889000Y-93910999I0J-249999D01*
G01*
X152889000Y-94811001D01*
G75*
G02*
X152639001Y-95061000I-249999J0D01*
G01*
X151938999Y-95061000D01*
G75*
G02*
X151689000Y-94811001I0J249999D01*
G01*
G37*
%TD*%
%TO.C,R13*%
G36*
G01*
X170999999Y-77997000D02*
X171900001Y-77997000D01*
G75*
G02*
X172150000Y-78246999I0J-249999D01*
G01*
X172150000Y-78947001D01*
G75*
G02*
X171900001Y-79197000I-249999J0D01*
G01*
X170999999Y-79197000D01*
G75*
G02*
X170750000Y-78947001I0J249999D01*
G01*
X170750000Y-78246999D01*
G75*
G02*
X170999999Y-77997000I249999J0D01*
G01*
G37*
G36*
G01*
X170999999Y-75997000D02*
X171900001Y-75997000D01*
G75*
G02*
X172150000Y-76246999I0J-249999D01*
G01*
X172150000Y-76947001D01*
G75*
G02*
X171900001Y-77197000I-249999J0D01*
G01*
X170999999Y-77197000D01*
G75*
G02*
X170750000Y-76947001I0J249999D01*
G01*
X170750000Y-76246999D01*
G75*
G02*
X170999999Y-75997000I249999J0D01*
G01*
G37*
%TD*%
%TO.C,R12*%
G36*
G01*
X176841999Y-77997000D02*
X177742001Y-77997000D01*
G75*
G02*
X177992000Y-78246999I0J-249999D01*
G01*
X177992000Y-78947001D01*
G75*
G02*
X177742001Y-79197000I-249999J0D01*
G01*
X176841999Y-79197000D01*
G75*
G02*
X176592000Y-78947001I0J249999D01*
G01*
X176592000Y-78246999D01*
G75*
G02*
X176841999Y-77997000I249999J0D01*
G01*
G37*
G36*
G01*
X176841999Y-75997000D02*
X177742001Y-75997000D01*
G75*
G02*
X177992000Y-76246999I0J-249999D01*
G01*
X177992000Y-76947001D01*
G75*
G02*
X177742001Y-77197000I-249999J0D01*
G01*
X176841999Y-77197000D01*
G75*
G02*
X176592000Y-76947001I0J249999D01*
G01*
X176592000Y-76246999D01*
G75*
G02*
X176841999Y-75997000I249999J0D01*
G01*
G37*
%TD*%
%TO.C,R11*%
G36*
G01*
X162617999Y-77997000D02*
X163518001Y-77997000D01*
G75*
G02*
X163768000Y-78246999I0J-249999D01*
G01*
X163768000Y-78947001D01*
G75*
G02*
X163518001Y-79197000I-249999J0D01*
G01*
X162617999Y-79197000D01*
G75*
G02*
X162368000Y-78947001I0J249999D01*
G01*
X162368000Y-78246999D01*
G75*
G02*
X162617999Y-77997000I249999J0D01*
G01*
G37*
G36*
G01*
X162617999Y-75997000D02*
X163518001Y-75997000D01*
G75*
G02*
X163768000Y-76246999I0J-249999D01*
G01*
X163768000Y-76947001D01*
G75*
G02*
X163518001Y-77197000I-249999J0D01*
G01*
X162617999Y-77197000D01*
G75*
G02*
X162368000Y-76947001I0J249999D01*
G01*
X162368000Y-76246999D01*
G75*
G02*
X162617999Y-75997000I249999J0D01*
G01*
G37*
%TD*%
%TO.C,R10*%
G36*
G01*
X168459999Y-77997000D02*
X169360001Y-77997000D01*
G75*
G02*
X169610000Y-78246999I0J-249999D01*
G01*
X169610000Y-78947001D01*
G75*
G02*
X169360001Y-79197000I-249999J0D01*
G01*
X168459999Y-79197000D01*
G75*
G02*
X168210000Y-78947001I0J249999D01*
G01*
X168210000Y-78246999D01*
G75*
G02*
X168459999Y-77997000I249999J0D01*
G01*
G37*
G36*
G01*
X168459999Y-75997000D02*
X169360001Y-75997000D01*
G75*
G02*
X169610000Y-76246999I0J-249999D01*
G01*
X169610000Y-76947001D01*
G75*
G02*
X169360001Y-77197000I-249999J0D01*
G01*
X168459999Y-77197000D01*
G75*
G02*
X168210000Y-76947001I0J249999D01*
G01*
X168210000Y-76246999D01*
G75*
G02*
X168459999Y-75997000I249999J0D01*
G01*
G37*
%TD*%
%TO.C,R9*%
G36*
G01*
X181718000Y-48571999D02*
X181718000Y-49472001D01*
G75*
G02*
X181468001Y-49722000I-249999J0D01*
G01*
X180767999Y-49722000D01*
G75*
G02*
X180518000Y-49472001I0J249999D01*
G01*
X180518000Y-48571999D01*
G75*
G02*
X180767999Y-48322000I249999J0D01*
G01*
X181468001Y-48322000D01*
G75*
G02*
X181718000Y-48571999I0J-249999D01*
G01*
G37*
G36*
G01*
X183718000Y-48571999D02*
X183718000Y-49472001D01*
G75*
G02*
X183468001Y-49722000I-249999J0D01*
G01*
X182767999Y-49722000D01*
G75*
G02*
X182518000Y-49472001I0J249999D01*
G01*
X182518000Y-48571999D01*
G75*
G02*
X182767999Y-48322000I249999J0D01*
G01*
X183468001Y-48322000D01*
G75*
G02*
X183718000Y-48571999I0J-249999D01*
G01*
G37*
%TD*%
%TO.C,R8*%
G36*
G01*
X181718000Y-50857999D02*
X181718000Y-51758001D01*
G75*
G02*
X181468001Y-52008000I-249999J0D01*
G01*
X180767999Y-52008000D01*
G75*
G02*
X180518000Y-51758001I0J249999D01*
G01*
X180518000Y-50857999D01*
G75*
G02*
X180767999Y-50608000I249999J0D01*
G01*
X181468001Y-50608000D01*
G75*
G02*
X181718000Y-50857999I0J-249999D01*
G01*
G37*
G36*
G01*
X183718000Y-50857999D02*
X183718000Y-51758001D01*
G75*
G02*
X183468001Y-52008000I-249999J0D01*
G01*
X182767999Y-52008000D01*
G75*
G02*
X182518000Y-51758001I0J249999D01*
G01*
X182518000Y-50857999D01*
G75*
G02*
X182767999Y-50608000I249999J0D01*
G01*
X183468001Y-50608000D01*
G75*
G02*
X183718000Y-50857999I0J-249999D01*
G01*
G37*
%TD*%
%TO.C,R7*%
G36*
G01*
X181718000Y-60763999D02*
X181718000Y-61664001D01*
G75*
G02*
X181468001Y-61914000I-249999J0D01*
G01*
X180767999Y-61914000D01*
G75*
G02*
X180518000Y-61664001I0J249999D01*
G01*
X180518000Y-60763999D01*
G75*
G02*
X180767999Y-60514000I249999J0D01*
G01*
X181468001Y-60514000D01*
G75*
G02*
X181718000Y-60763999I0J-249999D01*
G01*
G37*
G36*
G01*
X183718000Y-60763999D02*
X183718000Y-61664001D01*
G75*
G02*
X183468001Y-61914000I-249999J0D01*
G01*
X182767999Y-61914000D01*
G75*
G02*
X182518000Y-61664001I0J249999D01*
G01*
X182518000Y-60763999D01*
G75*
G02*
X182767999Y-60514000I249999J0D01*
G01*
X183468001Y-60514000D01*
G75*
G02*
X183718000Y-60763999I0J-249999D01*
G01*
G37*
%TD*%
%TO.C,R6*%
G36*
G01*
X171900001Y-82023000D02*
X170999999Y-82023000D01*
G75*
G02*
X170750000Y-81773001I0J249999D01*
G01*
X170750000Y-81072999D01*
G75*
G02*
X170999999Y-80823000I249999J0D01*
G01*
X171900001Y-80823000D01*
G75*
G02*
X172150000Y-81072999I0J-249999D01*
G01*
X172150000Y-81773001D01*
G75*
G02*
X171900001Y-82023000I-249999J0D01*
G01*
G37*
G36*
G01*
X171900001Y-84023000D02*
X170999999Y-84023000D01*
G75*
G02*
X170750000Y-83773001I0J249999D01*
G01*
X170750000Y-83072999D01*
G75*
G02*
X170999999Y-82823000I249999J0D01*
G01*
X171900001Y-82823000D01*
G75*
G02*
X172150000Y-83072999I0J-249999D01*
G01*
X172150000Y-83773001D01*
G75*
G02*
X171900001Y-84023000I-249999J0D01*
G01*
G37*
%TD*%
%TO.C,R5*%
G36*
G01*
X181718000Y-58477999D02*
X181718000Y-59378001D01*
G75*
G02*
X181468001Y-59628000I-249999J0D01*
G01*
X180767999Y-59628000D01*
G75*
G02*
X180518000Y-59378001I0J249999D01*
G01*
X180518000Y-58477999D01*
G75*
G02*
X180767999Y-58228000I249999J0D01*
G01*
X181468001Y-58228000D01*
G75*
G02*
X181718000Y-58477999I0J-249999D01*
G01*
G37*
G36*
G01*
X183718000Y-58477999D02*
X183718000Y-59378001D01*
G75*
G02*
X183468001Y-59628000I-249999J0D01*
G01*
X182767999Y-59628000D01*
G75*
G02*
X182518000Y-59378001I0J249999D01*
G01*
X182518000Y-58477999D01*
G75*
G02*
X182767999Y-58228000I249999J0D01*
G01*
X183468001Y-58228000D01*
G75*
G02*
X183718000Y-58477999I0J-249999D01*
G01*
G37*
%TD*%
%TO.C,R4*%
G36*
G01*
X181718000Y-56191999D02*
X181718000Y-57092001D01*
G75*
G02*
X181468001Y-57342000I-249999J0D01*
G01*
X180767999Y-57342000D01*
G75*
G02*
X180518000Y-57092001I0J249999D01*
G01*
X180518000Y-56191999D01*
G75*
G02*
X180767999Y-55942000I249999J0D01*
G01*
X181468001Y-55942000D01*
G75*
G02*
X181718000Y-56191999I0J-249999D01*
G01*
G37*
G36*
G01*
X183718000Y-56191999D02*
X183718000Y-57092001D01*
G75*
G02*
X183468001Y-57342000I-249999J0D01*
G01*
X182767999Y-57342000D01*
G75*
G02*
X182518000Y-57092001I0J249999D01*
G01*
X182518000Y-56191999D01*
G75*
G02*
X182767999Y-55942000I249999J0D01*
G01*
X183468001Y-55942000D01*
G75*
G02*
X183718000Y-56191999I0J-249999D01*
G01*
G37*
%TD*%
%TO.C,R3*%
G36*
G01*
X157626000Y-51250001D02*
X157626000Y-50349999D01*
G75*
G02*
X157875999Y-50100000I249999J0D01*
G01*
X158576001Y-50100000D01*
G75*
G02*
X158826000Y-50349999I0J-249999D01*
G01*
X158826000Y-51250001D01*
G75*
G02*
X158576001Y-51500000I-249999J0D01*
G01*
X157875999Y-51500000D01*
G75*
G02*
X157626000Y-51250001I0J249999D01*
G01*
G37*
G36*
G01*
X155626000Y-51250001D02*
X155626000Y-50349999D01*
G75*
G02*
X155875999Y-50100000I249999J0D01*
G01*
X156576001Y-50100000D01*
G75*
G02*
X156826000Y-50349999I0J-249999D01*
G01*
X156826000Y-51250001D01*
G75*
G02*
X156576001Y-51500000I-249999J0D01*
G01*
X155875999Y-51500000D01*
G75*
G02*
X155626000Y-51250001I0J249999D01*
G01*
G37*
%TD*%
%TO.C,R2*%
G36*
G01*
X177742001Y-82023000D02*
X176841999Y-82023000D01*
G75*
G02*
X176592000Y-81773001I0J249999D01*
G01*
X176592000Y-81072999D01*
G75*
G02*
X176841999Y-80823000I249999J0D01*
G01*
X177742001Y-80823000D01*
G75*
G02*
X177992000Y-81072999I0J-249999D01*
G01*
X177992000Y-81773001D01*
G75*
G02*
X177742001Y-82023000I-249999J0D01*
G01*
G37*
G36*
G01*
X177742001Y-84023000D02*
X176841999Y-84023000D01*
G75*
G02*
X176592000Y-83773001I0J249999D01*
G01*
X176592000Y-83072999D01*
G75*
G02*
X176841999Y-82823000I249999J0D01*
G01*
X177742001Y-82823000D01*
G75*
G02*
X177992000Y-83072999I0J-249999D01*
G01*
X177992000Y-83773001D01*
G75*
G02*
X177742001Y-84023000I-249999J0D01*
G01*
G37*
%TD*%
%TO.C,R1*%
G36*
G01*
X157626000Y-53536001D02*
X157626000Y-52635999D01*
G75*
G02*
X157875999Y-52386000I249999J0D01*
G01*
X158576001Y-52386000D01*
G75*
G02*
X158826000Y-52635999I0J-249999D01*
G01*
X158826000Y-53536001D01*
G75*
G02*
X158576001Y-53786000I-249999J0D01*
G01*
X157875999Y-53786000D01*
G75*
G02*
X157626000Y-53536001I0J249999D01*
G01*
G37*
G36*
G01*
X155626000Y-53536001D02*
X155626000Y-52635999D01*
G75*
G02*
X155875999Y-52386000I249999J0D01*
G01*
X156576001Y-52386000D01*
G75*
G02*
X156826000Y-52635999I0J-249999D01*
G01*
X156826000Y-53536001D01*
G75*
G02*
X156576001Y-53786000I-249999J0D01*
G01*
X155875999Y-53786000D01*
G75*
G02*
X155626000Y-53536001I0J249999D01*
G01*
G37*
%TD*%
D15*
%TO.C,Q6*%
X183753000Y-68453000D03*
X181753000Y-69403000D03*
X181753000Y-67503000D03*
%TD*%
%TO.C,Q5*%
X166989000Y-73025000D03*
X164989000Y-73975000D03*
X164989000Y-72075000D03*
%TD*%
%TO.C,Q4*%
X175371000Y-77597000D03*
X173371000Y-78547000D03*
X173371000Y-76647000D03*
%TD*%
%TO.C,Q3*%
X166989000Y-77597000D03*
X164989000Y-78547000D03*
X164989000Y-76647000D03*
%TD*%
%TO.C,Q2*%
X175371000Y-82423000D03*
X173371000Y-83373000D03*
X173371000Y-81473000D03*
%TD*%
%TO.C,Q1*%
X166989000Y-82423000D03*
X164989000Y-83373000D03*
X164989000Y-81473000D03*
%TD*%
D28*
%TO.C,PS1*%
X142748000Y-45466000D03*
D29*
X139998000Y-83966000D03*
X131998000Y-45466000D03*
X131998000Y-83966000D03*
%TD*%
D16*
%TO.C,L1*%
X114364000Y-55570000D03*
X114364000Y-48570000D03*
X122364000Y-48570000D03*
X122364000Y-55570000D03*
%TD*%
D30*
%TO.C,J4*%
X121158000Y-78074000D03*
X121158000Y-90074000D03*
%TD*%
D31*
%TO.C,J1*%
X168228000Y-97790000D03*
X175828000Y-97790000D03*
D32*
X170828000Y-97790000D03*
X173228000Y-97790000D03*
D33*
X170728000Y-95115000D03*
X171378000Y-95115000D03*
X172028000Y-95115000D03*
X172678000Y-95115000D03*
X173328000Y-95115000D03*
D34*
X168928000Y-95240000D03*
X175128000Y-95240000D03*
%TD*%
D35*
%TO.C,F1*%
X114554000Y-88749000D03*
X114554000Y-79399000D03*
%TD*%
D36*
%TO.C,D5*%
X152146000Y-92582000D03*
X152146000Y-89282000D03*
%TD*%
%TO.C,D4*%
X189357000Y-61977000D03*
X189357000Y-65277000D03*
%TD*%
D27*
%TO.C,D3*%
X154559000Y-96647000D03*
D37*
X152019000Y-96647000D03*
%TD*%
D36*
%TO.C,D2*%
X189357000Y-80519000D03*
X189357000Y-83819000D03*
%TD*%
%TO.C,D1*%
X154686000Y-92582000D03*
X154686000Y-89282000D03*
%TD*%
%TO.C,C13*%
G36*
G01*
X156776000Y-79027000D02*
X156776000Y-79977000D01*
G75*
G02*
X156526000Y-80227000I-250000J0D01*
G01*
X155851000Y-80227000D01*
G75*
G02*
X155601000Y-79977000I0J250000D01*
G01*
X155601000Y-79027000D01*
G75*
G02*
X155851000Y-78777000I250000J0D01*
G01*
X156526000Y-78777000D01*
G75*
G02*
X156776000Y-79027000I0J-250000D01*
G01*
G37*
G36*
G01*
X158851000Y-79027000D02*
X158851000Y-79977000D01*
G75*
G02*
X158601000Y-80227000I-250000J0D01*
G01*
X157926000Y-80227000D01*
G75*
G02*
X157676000Y-79977000I0J250000D01*
G01*
X157676000Y-79027000D01*
G75*
G02*
X157926000Y-78777000I250000J0D01*
G01*
X158601000Y-78777000D01*
G75*
G02*
X158851000Y-79027000I0J-250000D01*
G01*
G37*
%TD*%
%TO.C,C12*%
G36*
G01*
X156624000Y-90874000D02*
X157574000Y-90874000D01*
G75*
G02*
X157824000Y-91124000I0J-250000D01*
G01*
X157824000Y-91799000D01*
G75*
G02*
X157574000Y-92049000I-250000J0D01*
G01*
X156624000Y-92049000D01*
G75*
G02*
X156374000Y-91799000I0J250000D01*
G01*
X156374000Y-91124000D01*
G75*
G02*
X156624000Y-90874000I250000J0D01*
G01*
G37*
G36*
G01*
X156624000Y-88799000D02*
X157574000Y-88799000D01*
G75*
G02*
X157824000Y-89049000I0J-250000D01*
G01*
X157824000Y-89724000D01*
G75*
G02*
X157574000Y-89974000I-250000J0D01*
G01*
X156624000Y-89974000D01*
G75*
G02*
X156374000Y-89724000I0J250000D01*
G01*
X156374000Y-89049000D01*
G75*
G02*
X156624000Y-88799000I250000J0D01*
G01*
G37*
%TD*%
%TO.C,C11*%
G36*
G01*
X150335000Y-89974000D02*
X149385000Y-89974000D01*
G75*
G02*
X149135000Y-89724000I0J250000D01*
G01*
X149135000Y-89049000D01*
G75*
G02*
X149385000Y-88799000I250000J0D01*
G01*
X150335000Y-88799000D01*
G75*
G02*
X150585000Y-89049000I0J-250000D01*
G01*
X150585000Y-89724000D01*
G75*
G02*
X150335000Y-89974000I-250000J0D01*
G01*
G37*
G36*
G01*
X150335000Y-92049000D02*
X149385000Y-92049000D01*
G75*
G02*
X149135000Y-91799000I0J250000D01*
G01*
X149135000Y-91124000D01*
G75*
G02*
X149385000Y-90874000I250000J0D01*
G01*
X150335000Y-90874000D01*
G75*
G02*
X150585000Y-91124000I0J-250000D01*
G01*
X150585000Y-91799000D01*
G75*
G02*
X150335000Y-92049000I-250000J0D01*
G01*
G37*
%TD*%
%TO.C,C10*%
G36*
G01*
X139733000Y-90874000D02*
X140683000Y-90874000D01*
G75*
G02*
X140933000Y-91124000I0J-250000D01*
G01*
X140933000Y-91799000D01*
G75*
G02*
X140683000Y-92049000I-250000J0D01*
G01*
X139733000Y-92049000D01*
G75*
G02*
X139483000Y-91799000I0J250000D01*
G01*
X139483000Y-91124000D01*
G75*
G02*
X139733000Y-90874000I250000J0D01*
G01*
G37*
G36*
G01*
X139733000Y-88799000D02*
X140683000Y-88799000D01*
G75*
G02*
X140933000Y-89049000I0J-250000D01*
G01*
X140933000Y-89724000D01*
G75*
G02*
X140683000Y-89974000I-250000J0D01*
G01*
X139733000Y-89974000D01*
G75*
G02*
X139483000Y-89724000I0J250000D01*
G01*
X139483000Y-89049000D01*
G75*
G02*
X139733000Y-88799000I250000J0D01*
G01*
G37*
%TD*%
%TO.C,C9*%
G36*
G01*
X132681000Y-91964000D02*
X132681000Y-93964000D01*
G75*
G02*
X132431000Y-94214000I-250000J0D01*
G01*
X128931000Y-94214000D01*
G75*
G02*
X128681000Y-93964000I0J250000D01*
G01*
X128681000Y-91964000D01*
G75*
G02*
X128931000Y-91714000I250000J0D01*
G01*
X132431000Y-91714000D01*
G75*
G02*
X132681000Y-91964000I0J-250000D01*
G01*
G37*
G36*
G01*
X138781000Y-91964000D02*
X138781000Y-93964000D01*
G75*
G02*
X138531000Y-94214000I-250000J0D01*
G01*
X135031000Y-94214000D01*
G75*
G02*
X134781000Y-93964000I0J250000D01*
G01*
X134781000Y-91964000D01*
G75*
G02*
X135031000Y-91714000I250000J0D01*
G01*
X138531000Y-91714000D01*
G75*
G02*
X138781000Y-91964000I0J-250000D01*
G01*
G37*
%TD*%
D38*
%TO.C,C8*%
X125744000Y-62484000D03*
X110744000Y-62484000D03*
%TD*%
%TO.C,C7*%
G36*
G01*
X182568000Y-94963000D02*
X182568000Y-94013000D01*
G75*
G02*
X182818000Y-93763000I250000J0D01*
G01*
X183493000Y-93763000D01*
G75*
G02*
X183743000Y-94013000I0J-250000D01*
G01*
X183743000Y-94963000D01*
G75*
G02*
X183493000Y-95213000I-250000J0D01*
G01*
X182818000Y-95213000D01*
G75*
G02*
X182568000Y-94963000I0J250000D01*
G01*
G37*
G36*
G01*
X180493000Y-94963000D02*
X180493000Y-94013000D01*
G75*
G02*
X180743000Y-93763000I250000J0D01*
G01*
X181418000Y-93763000D01*
G75*
G02*
X181668000Y-94013000I0J-250000D01*
G01*
X181668000Y-94963000D01*
G75*
G02*
X181418000Y-95213000I-250000J0D01*
G01*
X180743000Y-95213000D01*
G75*
G02*
X180493000Y-94963000I0J250000D01*
G01*
G37*
%TD*%
%TO.C,C6*%
G36*
G01*
X182568000Y-82771000D02*
X182568000Y-81821000D01*
G75*
G02*
X182818000Y-81571000I250000J0D01*
G01*
X183493000Y-81571000D01*
G75*
G02*
X183743000Y-81821000I0J-250000D01*
G01*
X183743000Y-82771000D01*
G75*
G02*
X183493000Y-83021000I-250000J0D01*
G01*
X182818000Y-83021000D01*
G75*
G02*
X182568000Y-82771000I0J250000D01*
G01*
G37*
G36*
G01*
X180493000Y-82771000D02*
X180493000Y-81821000D01*
G75*
G02*
X180743000Y-81571000I250000J0D01*
G01*
X181418000Y-81571000D01*
G75*
G02*
X181668000Y-81821000I0J-250000D01*
G01*
X181668000Y-82771000D01*
G75*
G02*
X181418000Y-83021000I-250000J0D01*
G01*
X180743000Y-83021000D01*
G75*
G02*
X180493000Y-82771000I0J250000D01*
G01*
G37*
%TD*%
%TO.C,C5*%
G36*
G01*
X167099000Y-85910000D02*
X166149000Y-85910000D01*
G75*
G02*
X165899000Y-85660000I0J250000D01*
G01*
X165899000Y-84985000D01*
G75*
G02*
X166149000Y-84735000I250000J0D01*
G01*
X167099000Y-84735000D01*
G75*
G02*
X167349000Y-84985000I0J-250000D01*
G01*
X167349000Y-85660000D01*
G75*
G02*
X167099000Y-85910000I-250000J0D01*
G01*
G37*
G36*
G01*
X167099000Y-87985000D02*
X166149000Y-87985000D01*
G75*
G02*
X165899000Y-87735000I0J250000D01*
G01*
X165899000Y-87060000D01*
G75*
G02*
X166149000Y-86810000I250000J0D01*
G01*
X167099000Y-86810000D01*
G75*
G02*
X167349000Y-87060000I0J-250000D01*
G01*
X167349000Y-87735000D01*
G75*
G02*
X167099000Y-87985000I-250000J0D01*
G01*
G37*
%TD*%
%TO.C,C4*%
G36*
G01*
X166149000Y-90747000D02*
X167099000Y-90747000D01*
G75*
G02*
X167349000Y-90997000I0J-250000D01*
G01*
X167349000Y-91672000D01*
G75*
G02*
X167099000Y-91922000I-250000J0D01*
G01*
X166149000Y-91922000D01*
G75*
G02*
X165899000Y-91672000I0J250000D01*
G01*
X165899000Y-90997000D01*
G75*
G02*
X166149000Y-90747000I250000J0D01*
G01*
G37*
G36*
G01*
X166149000Y-88672000D02*
X167099000Y-88672000D01*
G75*
G02*
X167349000Y-88922000I0J-250000D01*
G01*
X167349000Y-89597000D01*
G75*
G02*
X167099000Y-89847000I-250000J0D01*
G01*
X166149000Y-89847000D01*
G75*
G02*
X165899000Y-89597000I0J250000D01*
G01*
X165899000Y-88922000D01*
G75*
G02*
X166149000Y-88672000I250000J0D01*
G01*
G37*
%TD*%
%TO.C,C3*%
G36*
G01*
X156797500Y-48039000D02*
X156797500Y-48989000D01*
G75*
G02*
X156547500Y-49239000I-250000J0D01*
G01*
X155872500Y-49239000D01*
G75*
G02*
X155622500Y-48989000I0J250000D01*
G01*
X155622500Y-48039000D01*
G75*
G02*
X155872500Y-47789000I250000J0D01*
G01*
X156547500Y-47789000D01*
G75*
G02*
X156797500Y-48039000I0J-250000D01*
G01*
G37*
G36*
G01*
X158872500Y-48039000D02*
X158872500Y-48989000D01*
G75*
G02*
X158622500Y-49239000I-250000J0D01*
G01*
X157947500Y-49239000D01*
G75*
G02*
X157697500Y-48989000I0J250000D01*
G01*
X157697500Y-48039000D01*
G75*
G02*
X157947500Y-47789000I250000J0D01*
G01*
X158622500Y-47789000D01*
G75*
G02*
X158872500Y-48039000I0J-250000D01*
G01*
G37*
%TD*%
%TO.C,C2*%
G36*
G01*
X156776000Y-62517000D02*
X156776000Y-63467000D01*
G75*
G02*
X156526000Y-63717000I-250000J0D01*
G01*
X155851000Y-63717000D01*
G75*
G02*
X155601000Y-63467000I0J250000D01*
G01*
X155601000Y-62517000D01*
G75*
G02*
X155851000Y-62267000I250000J0D01*
G01*
X156526000Y-62267000D01*
G75*
G02*
X156776000Y-62517000I0J-250000D01*
G01*
G37*
G36*
G01*
X158851000Y-62517000D02*
X158851000Y-63467000D01*
G75*
G02*
X158601000Y-63717000I-250000J0D01*
G01*
X157926000Y-63717000D01*
G75*
G02*
X157676000Y-63467000I0J250000D01*
G01*
X157676000Y-62517000D01*
G75*
G02*
X157926000Y-62267000I250000J0D01*
G01*
X158601000Y-62267000D01*
G75*
G02*
X158851000Y-62517000I0J-250000D01*
G01*
G37*
%TD*%
%TO.C,C1*%
G36*
G01*
X157676000Y-61181000D02*
X157676000Y-60231000D01*
G75*
G02*
X157926000Y-59981000I250000J0D01*
G01*
X158601000Y-59981000D01*
G75*
G02*
X158851000Y-60231000I0J-250000D01*
G01*
X158851000Y-61181000D01*
G75*
G02*
X158601000Y-61431000I-250000J0D01*
G01*
X157926000Y-61431000D01*
G75*
G02*
X157676000Y-61181000I0J250000D01*
G01*
G37*
G36*
G01*
X155601000Y-61181000D02*
X155601000Y-60231000D01*
G75*
G02*
X155851000Y-59981000I250000J0D01*
G01*
X156526000Y-59981000D01*
G75*
G02*
X156776000Y-60231000I0J-250000D01*
G01*
X156776000Y-61181000D01*
G75*
G02*
X156526000Y-61431000I-250000J0D01*
G01*
X155851000Y-61431000D01*
G75*
G02*
X155601000Y-61181000I0J250000D01*
G01*
G37*
%TD*%
M02*
