M48
; DRILL file {KiCad (5.1.9)-1} date 09/19/22 23:43:08
; FORMAT={-:-/ absolute / inch / decimal}
; #@! TF.CreationDate,2022-09-19T23:43:08+03:00
; #@! TF.GenerationSoftware,Kicad,Pcbnew,(5.1.9)-1
; #@! TF.FileFunction,Plated,1,2,PTH
FMAT,2
INCH
T1C0.0157
T2C0.0315
T3C0.0354
T4C0.0394
T5C0.0472
T6C0.0512
T7C0.0591
T8C0.0787
T9C0.1260
%
G90
G05
T1
X5.9743Y-3.2874
X6.0493Y-3.2874
X6.28Y-3.6
X6.3258Y-3.5192
X6.33Y-3.205
X6.37Y-3.6
X6.375Y-2.915
X6.375Y-3.095
X6.4Y-3.205
X6.4092Y-3.5192
X6.465Y-3.6
X6.48Y-1.93
X6.48Y-2.165
X6.48Y-2.245
X6.48Y-2.325
X6.48Y-2.405
X6.4961Y-3.4646
X6.55Y-3.85
X6.5551Y-3.3858
X6.575Y-2.655
X6.575Y-2.74
X6.575Y-2.915
X6.575Y-3.095
X6.575Y-3.205
X6.64Y-2.465
X6.66Y-3.5
X6.7Y-2.01
X6.705Y-3.095
X6.72Y-2.465
X6.7393Y-3.66
X6.74Y-3.5
X6.7806Y-3.66
X6.79Y-2.01
X6.8108Y-3.4642
X6.84Y-3.4935
X6.875Y-2.92
X6.88Y-2.01
X6.88Y-2.09
X6.88Y-2.17
X6.88Y-2.245
X6.905Y-2.655
X6.905Y-2.74
X6.905Y-2.83
X6.905Y-3.095
X6.905Y-3.205
X6.98Y-2.96
X7.0Y-3.85
X7.035Y-2.735
X7.05Y-2.96
X7.07Y-2.465
X7.07Y-2.54
X7.125Y-2.96
X7.13Y-2.09
X7.13Y-2.14
X7.19Y-2.96
X7.2Y-3.135
X7.235Y-2.915
X7.27Y-3.135
X7.31Y-2.61
X7.345Y-2.78
T2
X4.5025Y-1.9122
X4.5025Y-2.1878
X4.51Y-2.7
X4.8053Y-2.8063
X4.8175Y-1.9122
X4.8175Y-2.1878
T3
X5.985Y-3.805
X6.085Y-3.805
X7.595Y-2.22
X7.595Y-2.32
X7.595Y-2.42
X7.595Y-2.52
X7.595Y-2.95
X7.595Y-3.05
X7.595Y-3.15
X7.595Y-3.25
X7.695Y-2.27
X7.695Y-2.37
X7.695Y-2.47
X7.695Y-2.57
X7.695Y-3.0
X7.695Y-3.1
X7.695Y-3.2
X7.695Y-3.3
T4
X6.2428Y-3.825
X6.42Y-3.825
X7.15Y-3.85
X7.25Y-3.85
X7.35Y-3.85
X7.45Y-3.85
X7.55Y-3.85
T5
X4.36Y-2.46
X4.9506Y-2.46
T6
X6.1936Y-3.7266
X6.4692Y-3.7266
T7
X5.1968Y-1.79
X5.1968Y-3.3057
X5.5117Y-3.3057
X5.62Y-1.79
T8
X4.77Y-3.0738
X4.77Y-3.5462
T9
X4.1358Y-2.7559
X7.3937Y-1.9685
X7.3937Y-3.5433
T0
M30
