%TF.GenerationSoftware,KiCad,Pcbnew,(5.1.9)-1*%
%TF.CreationDate,2021-09-27T19:56:37+03:00*%
%TF.ProjectId,ESP8266DevBoard,45535038-3236-4364-9465-76426f617264,1.1*%
%TF.SameCoordinates,Original*%
%TF.FileFunction,Legend,Top*%
%TF.FilePolarity,Positive*%
%FSLAX46Y46*%
G04 Gerber Fmt 4.6, Leading zero omitted, Abs format (unit mm)*
G04 Created by KiCad (PCBNEW (5.1.9)-1) date 2021-09-27 19:56:37*
%MOMM*%
%LPD*%
G01*
G04 APERTURE LIST*
%ADD10C,0.120000*%
%ADD11C,0.150000*%
%ADD12C,0.300000*%
G04 APERTURE END LIST*
D10*
X186690000Y-74930000D02*
X186690000Y-71120000D01*
X191135000Y-74930000D02*
X186690000Y-74930000D01*
X191135000Y-71120000D02*
X191135000Y-74930000D01*
X178562000Y-71120000D02*
X191135000Y-71120000D01*
X178562000Y-72771000D02*
X178562000Y-71120000D01*
X186690000Y-70358000D02*
X186690000Y-66548000D01*
X191135000Y-70358000D02*
X186690000Y-70358000D01*
X191135000Y-66548000D02*
X191135000Y-70358000D01*
X178562000Y-66548000D02*
X191135000Y-66548000D01*
X178562000Y-68199000D02*
X178562000Y-66548000D01*
X178562000Y-70358000D02*
X178562000Y-68707000D01*
X154305000Y-70358000D02*
X178562000Y-70358000D01*
X154305000Y-66548000D02*
X154305000Y-70358000D01*
X162052000Y-66548000D02*
X154305000Y-66548000D01*
X162052000Y-70358000D02*
X162052000Y-66548000D01*
X162179000Y-71120000D02*
X162179000Y-74930000D01*
X154305000Y-71120000D02*
X162179000Y-71120000D01*
X154305000Y-74930000D02*
X154305000Y-71120000D01*
X178562000Y-74930000D02*
X154305000Y-74930000D01*
X178562000Y-73406000D02*
X178562000Y-74930000D01*
X178308000Y-79502000D02*
X178308000Y-75692000D01*
X186944000Y-79502000D02*
X178308000Y-79502000D01*
X186944000Y-75692000D02*
X186944000Y-79502000D01*
X161925000Y-75692000D02*
X186944000Y-75692000D01*
X161925000Y-77216000D02*
X161925000Y-75692000D01*
X158369000Y-92837000D02*
X158369000Y-88392000D01*
X162814000Y-92837000D02*
X158369000Y-92837000D01*
X162814000Y-88392000D02*
X162814000Y-92837000D01*
X150876000Y-88392000D02*
X162814000Y-88392000D01*
X150876000Y-89789000D02*
X150876000Y-88392000D01*
X155448000Y-46482000D02*
X155448000Y-41402000D01*
X155448000Y-54356000D02*
X156718000Y-54356000D01*
X155448000Y-54102000D02*
X155448000Y-54356000D01*
X155448000Y-46482000D02*
X155448000Y-54102000D01*
X159004000Y-46482000D02*
X155448000Y-46482000D01*
X159004000Y-41402000D02*
X159004000Y-46482000D01*
X155448000Y-41402000D02*
X159004000Y-41402000D01*
X169672000Y-67818000D02*
X169672000Y-69088000D01*
%TO.C,U4*%
X161676000Y-87738000D02*
X161676000Y-86478000D01*
X161676000Y-80918000D02*
X161676000Y-82178000D01*
X157916000Y-87738000D02*
X161676000Y-87738000D01*
X155666000Y-80918000D02*
X161676000Y-80918000D01*
%TO.C,R26*%
X172185000Y-68225936D02*
X172185000Y-68680064D01*
X170715000Y-68225936D02*
X170715000Y-68680064D01*
%TO.C,R25*%
X176557000Y-68680064D02*
X176557000Y-68225936D01*
X178027000Y-68680064D02*
X178027000Y-68225936D01*
%TO.C,R24*%
X163803000Y-68225936D02*
X163803000Y-68680064D01*
X162333000Y-68225936D02*
X162333000Y-68680064D01*
%TO.C,R23*%
X168175000Y-68680064D02*
X168175000Y-68225936D01*
X169645000Y-68680064D02*
X169645000Y-68225936D01*
%TO.C,R22*%
X172185000Y-72797936D02*
X172185000Y-73252064D01*
X170715000Y-72797936D02*
X170715000Y-73252064D01*
%TO.C,R21*%
X178027000Y-72797936D02*
X178027000Y-73252064D01*
X176557000Y-72797936D02*
X176557000Y-73252064D01*
%TO.C,R20*%
X180567000Y-72797936D02*
X180567000Y-73252064D01*
X179097000Y-72797936D02*
X179097000Y-73252064D01*
%TO.C,R19*%
X186409000Y-72797936D02*
X186409000Y-73252064D01*
X184939000Y-72797936D02*
X184939000Y-73252064D01*
%TO.C,Q10*%
X175131000Y-70033000D02*
X175131000Y-69103000D01*
X175131000Y-66873000D02*
X175131000Y-67803000D01*
X175131000Y-66873000D02*
X172971000Y-66873000D01*
X175131000Y-70033000D02*
X173671000Y-70033000D01*
%TO.C,Q9*%
X166749000Y-70033000D02*
X166749000Y-69103000D01*
X166749000Y-66873000D02*
X166749000Y-67803000D01*
X166749000Y-66873000D02*
X164589000Y-66873000D01*
X166749000Y-70033000D02*
X165289000Y-70033000D01*
%TO.C,Q8*%
X175131000Y-74605000D02*
X175131000Y-73675000D01*
X175131000Y-71445000D02*
X175131000Y-72375000D01*
X175131000Y-71445000D02*
X172971000Y-71445000D01*
X175131000Y-74605000D02*
X173671000Y-74605000D01*
%TO.C,Q7*%
X183513000Y-74605000D02*
X183513000Y-73675000D01*
X183513000Y-71445000D02*
X183513000Y-72375000D01*
X183513000Y-71445000D02*
X181353000Y-71445000D01*
X183513000Y-74605000D02*
X182053000Y-74605000D01*
%TO.C,J3*%
X191573000Y-68593000D02*
X212373000Y-68593000D01*
X191573000Y-53073000D02*
X191573000Y-68593000D01*
X191573000Y-53073000D02*
X212373000Y-53073000D01*
X212373000Y-68593000D02*
X212373000Y-53073000D01*
X195453000Y-68778000D02*
X194953000Y-69278000D01*
X194953000Y-69278000D02*
X195953000Y-69278000D01*
X195953000Y-69278000D02*
X195453000Y-68778000D01*
%TO.C,J2*%
X191573000Y-87135000D02*
X212373000Y-87135000D01*
X191573000Y-71615000D02*
X191573000Y-87135000D01*
X191573000Y-71615000D02*
X212373000Y-71615000D01*
X212373000Y-87135000D02*
X212373000Y-71615000D01*
X195453000Y-87320000D02*
X194953000Y-87820000D01*
X194953000Y-87820000D02*
X195953000Y-87820000D01*
X195953000Y-87820000D02*
X195453000Y-87320000D01*
%TO.C,Y1*%
X182648000Y-91092000D02*
X182648000Y-83842000D01*
X182648000Y-83842000D02*
X179048000Y-83842000D01*
X179048000Y-83842000D02*
X179048000Y-91092000D01*
%TO.C,U3*%
X141624000Y-94874000D02*
X142884000Y-94874000D01*
X148444000Y-94874000D02*
X147184000Y-94874000D01*
X141624000Y-91114000D02*
X141624000Y-94874000D01*
X148444000Y-88864000D02*
X148444000Y-94874000D01*
%TO.C,U2*%
X178288000Y-88392000D02*
X178288000Y-86442000D01*
X178288000Y-88392000D02*
X178288000Y-90342000D01*
X168168000Y-88392000D02*
X168168000Y-86442000D01*
X168168000Y-88392000D02*
X168168000Y-91842000D01*
%TO.C,U1*%
X161552000Y-40458000D02*
X177792000Y-40458000D01*
X177792000Y-40458000D02*
X177792000Y-48078000D01*
X177792000Y-64078000D02*
X177792000Y-64698000D01*
X177792000Y-64698000D02*
X175672000Y-64698000D01*
X163672000Y-64698000D02*
X161552000Y-64698000D01*
X161552000Y-64698000D02*
X161552000Y-64078000D01*
X161552000Y-48078000D02*
X161552000Y-40458000D01*
X161552000Y-48078000D02*
X160942000Y-48078000D01*
%TO.C,SW1*%
X157838000Y-93035000D02*
X157838000Y-93385000D01*
X156948000Y-93035000D02*
X157838000Y-93035000D01*
X156948000Y-93335000D02*
X156948000Y-93035000D01*
X156948000Y-95975000D02*
X156948000Y-99825000D01*
X156948000Y-99825000D02*
X164688000Y-99825000D01*
X164688000Y-99825000D02*
X164688000Y-95975000D01*
X163308000Y-95585000D02*
X158328000Y-95585000D01*
X163798000Y-93035000D02*
X164688000Y-93035000D01*
X163798000Y-93035000D02*
X163798000Y-93385000D01*
X164688000Y-93335000D02*
X164688000Y-93035000D01*
D11*
%TO.C,RV1*%
X112304000Y-72830000D02*
X124304000Y-72830000D01*
X112304000Y-67030000D02*
X124304000Y-67030000D01*
X124304000Y-67030000D02*
X124304000Y-72830000D01*
X112304000Y-67030000D02*
X112304000Y-72830000D01*
D10*
%TO.C,R18*%
X180567000Y-68225936D02*
X180567000Y-68680064D01*
X179097000Y-68225936D02*
X179097000Y-68680064D01*
%TO.C,R17*%
X184939000Y-68680064D02*
X184939000Y-68225936D01*
X186409000Y-68680064D02*
X186409000Y-68225936D01*
%TO.C,R16*%
X163803000Y-72797936D02*
X163803000Y-73252064D01*
X162333000Y-72797936D02*
X162333000Y-73252064D01*
%TO.C,R15*%
X169645000Y-72797936D02*
X169645000Y-73252064D01*
X168175000Y-72797936D02*
X168175000Y-73252064D01*
%TO.C,R14*%
X153061936Y-93626000D02*
X153516064Y-93626000D01*
X153061936Y-95096000D02*
X153516064Y-95096000D01*
%TO.C,R13*%
X172185000Y-77369936D02*
X172185000Y-77824064D01*
X170715000Y-77369936D02*
X170715000Y-77824064D01*
%TO.C,R12*%
X178027000Y-77369936D02*
X178027000Y-77824064D01*
X176557000Y-77369936D02*
X176557000Y-77824064D01*
%TO.C,R11*%
X163803000Y-77369936D02*
X163803000Y-77824064D01*
X162333000Y-77369936D02*
X162333000Y-77824064D01*
%TO.C,R10*%
X169645000Y-77369936D02*
X169645000Y-77824064D01*
X168175000Y-77369936D02*
X168175000Y-77824064D01*
%TO.C,R9*%
X182345064Y-49757000D02*
X181890936Y-49757000D01*
X182345064Y-48287000D02*
X181890936Y-48287000D01*
%TO.C,R8*%
X182345064Y-52043000D02*
X181890936Y-52043000D01*
X182345064Y-50573000D02*
X181890936Y-50573000D01*
%TO.C,R7*%
X182345064Y-61949000D02*
X181890936Y-61949000D01*
X182345064Y-60479000D02*
X181890936Y-60479000D01*
%TO.C,R6*%
X170715000Y-82650064D02*
X170715000Y-82195936D01*
X172185000Y-82650064D02*
X172185000Y-82195936D01*
%TO.C,R5*%
X182345064Y-59663000D02*
X181890936Y-59663000D01*
X182345064Y-58193000D02*
X181890936Y-58193000D01*
%TO.C,R4*%
X182345064Y-57377000D02*
X181890936Y-57377000D01*
X182345064Y-55907000D02*
X181890936Y-55907000D01*
%TO.C,R3*%
X156998936Y-50065000D02*
X157453064Y-50065000D01*
X156998936Y-51535000D02*
X157453064Y-51535000D01*
%TO.C,R2*%
X176557000Y-82650064D02*
X176557000Y-82195936D01*
X178027000Y-82650064D02*
X178027000Y-82195936D01*
%TO.C,R1*%
X156998936Y-52351000D02*
X157453064Y-52351000D01*
X156998936Y-53821000D02*
X157453064Y-53821000D01*
%TO.C,Q6*%
X183513000Y-70033000D02*
X183513000Y-69103000D01*
X183513000Y-66873000D02*
X183513000Y-67803000D01*
X183513000Y-66873000D02*
X181353000Y-66873000D01*
X183513000Y-70033000D02*
X182053000Y-70033000D01*
%TO.C,Q5*%
X166749000Y-74605000D02*
X166749000Y-73675000D01*
X166749000Y-71445000D02*
X166749000Y-72375000D01*
X166749000Y-71445000D02*
X164589000Y-71445000D01*
X166749000Y-74605000D02*
X165289000Y-74605000D01*
%TO.C,Q4*%
X175131000Y-79177000D02*
X175131000Y-78247000D01*
X175131000Y-76017000D02*
X175131000Y-76947000D01*
X175131000Y-76017000D02*
X172971000Y-76017000D01*
X175131000Y-79177000D02*
X173671000Y-79177000D01*
%TO.C,Q3*%
X166749000Y-79177000D02*
X166749000Y-78247000D01*
X166749000Y-76017000D02*
X166749000Y-76947000D01*
X166749000Y-76017000D02*
X164589000Y-76017000D01*
X166749000Y-79177000D02*
X165289000Y-79177000D01*
%TO.C,Q2*%
X175131000Y-84003000D02*
X175131000Y-83073000D01*
X175131000Y-80843000D02*
X175131000Y-81773000D01*
X175131000Y-80843000D02*
X172971000Y-80843000D01*
X175131000Y-84003000D02*
X173671000Y-84003000D01*
%TO.C,Q1*%
X166749000Y-84003000D02*
X166749000Y-83073000D01*
X166749000Y-80843000D02*
X166749000Y-81773000D01*
X166749000Y-80843000D02*
X164589000Y-80843000D01*
X166749000Y-84003000D02*
X165289000Y-84003000D01*
%TO.C,PS1*%
X143748000Y-41466000D02*
X141748000Y-41466000D01*
X154048000Y-87666000D02*
X128448000Y-87666000D01*
X154048000Y-41766000D02*
X154048000Y-87666000D01*
X128448000Y-41766000D02*
X128448000Y-87666000D01*
X154048000Y-41766000D02*
X128448000Y-41766000D01*
%TO.C,L1*%
X109364000Y-58070000D02*
X109364000Y-48570000D01*
X127364000Y-58070000D02*
X109364000Y-58070000D01*
X127364000Y-48570000D02*
X127364000Y-58070000D01*
X115864000Y-42070000D02*
X120864000Y-42070000D01*
X120864000Y-42070000D02*
G75*
G02*
X127364000Y-48570000I0J-6500000D01*
G01*
X109414000Y-48570000D02*
G75*
G02*
X115864000Y-42120000I6450000J0D01*
G01*
%TO.C,J4*%
X117958000Y-93274000D02*
X117958000Y-74874000D01*
X117958000Y-74874000D02*
X124358000Y-74874000D01*
X124358000Y-74874000D02*
X124358000Y-93274000D01*
X124358000Y-93274000D02*
X117958000Y-93274000D01*
D12*
X121158001Y-84073999D02*
G75*
G02*
X121158001Y-82074001I999999J999999D01*
G01*
X121157999Y-84074001D02*
G75*
G02*
X121157999Y-86073999I-999999J-999999D01*
G01*
D10*
%TO.C,J1*%
X168178000Y-96190000D02*
X168178000Y-96774000D01*
X170128000Y-94869000D02*
X170377000Y-94869000D01*
X173679000Y-94869000D02*
X173928000Y-94869000D01*
X175878000Y-96190000D02*
X175878000Y-96774000D01*
X168728000Y-100440000D02*
X175328000Y-100440000D01*
X167773500Y-100457000D02*
X168154500Y-99949000D01*
X167900500Y-100457000D02*
X167773500Y-100457000D01*
X168154500Y-100457000D02*
X167900500Y-100457000D01*
X168472000Y-100012500D02*
X168154500Y-100457000D01*
X168726000Y-100012500D02*
X168472000Y-100012500D01*
X168726000Y-100457000D02*
X168726000Y-100012500D01*
X175584000Y-99949000D02*
X175901500Y-100457000D01*
X175330000Y-99949000D02*
X175584000Y-99949000D01*
X175330000Y-100457000D02*
X175330000Y-99949000D01*
X176282500Y-100457000D02*
X175901500Y-99949000D01*
X175901500Y-100457000D02*
X176282500Y-100457000D01*
X168154500Y-99949000D02*
X168154500Y-98806000D01*
X175901500Y-99949000D02*
X175901500Y-98806000D01*
%TO.C,F1*%
X112954000Y-86974000D02*
X112954000Y-81174000D01*
X116154000Y-81174000D02*
X116154000Y-86974000D01*
%TO.C,D5*%
X153146000Y-88682000D02*
X151146000Y-88682000D01*
X151146000Y-88682000D02*
X151146000Y-92582000D01*
X153146000Y-88682000D02*
X153146000Y-92582000D01*
%TO.C,D4*%
X188357000Y-65877000D02*
X190357000Y-65877000D01*
X190357000Y-65877000D02*
X190357000Y-61977000D01*
X188357000Y-65877000D02*
X188357000Y-61977000D01*
%TO.C,D3*%
X151729000Y-97857000D02*
X151729000Y-101717000D01*
X154849000Y-97857000D02*
X154849000Y-101717000D01*
X151729000Y-97857000D02*
X154849000Y-97857000D01*
X155249000Y-97857000D02*
X155249000Y-98977000D01*
X155249000Y-98977000D02*
X154849000Y-98977000D01*
X154849000Y-98977000D02*
X154849000Y-97857000D01*
X154849000Y-97857000D02*
X155249000Y-97857000D01*
X152019000Y-97727000D02*
X152019000Y-97857000D01*
X152019000Y-97857000D02*
X152019000Y-97857000D01*
X152019000Y-97857000D02*
X152019000Y-97727000D01*
X152019000Y-97727000D02*
X152019000Y-97727000D01*
X154559000Y-97727000D02*
X154559000Y-97857000D01*
X154559000Y-97857000D02*
X154559000Y-97857000D01*
X154559000Y-97857000D02*
X154559000Y-97727000D01*
X154559000Y-97727000D02*
X154559000Y-97727000D01*
X154849000Y-101717000D02*
G75*
G02*
X151729000Y-101717000I-1560000J0D01*
G01*
%TO.C,D2*%
X188357000Y-84419000D02*
X190357000Y-84419000D01*
X190357000Y-84419000D02*
X190357000Y-80519000D01*
X188357000Y-84419000D02*
X188357000Y-80519000D01*
%TO.C,D1*%
X155686000Y-88682000D02*
X153686000Y-88682000D01*
X153686000Y-88682000D02*
X153686000Y-92582000D01*
X155686000Y-88682000D02*
X155686000Y-92582000D01*
%TO.C,C13*%
X157487252Y-80237000D02*
X156964748Y-80237000D01*
X157487252Y-78767000D02*
X156964748Y-78767000D01*
%TO.C,C12*%
X157834000Y-90162748D02*
X157834000Y-90685252D01*
X156364000Y-90162748D02*
X156364000Y-90685252D01*
%TO.C,C11*%
X149125000Y-90685252D02*
X149125000Y-90162748D01*
X150595000Y-90685252D02*
X150595000Y-90162748D01*
%TO.C,C10*%
X140943000Y-90162748D02*
X140943000Y-90685252D01*
X139473000Y-90162748D02*
X139473000Y-90685252D01*
%TO.C,C9*%
X129471000Y-88704000D02*
X129471000Y-91454000D01*
X129471000Y-97224000D02*
X129471000Y-94474000D01*
X136926563Y-97224000D02*
X129471000Y-97224000D01*
X136926563Y-88704000D02*
X129471000Y-88704000D01*
X137991000Y-89768437D02*
X137991000Y-91454000D01*
X137991000Y-96159563D02*
X137991000Y-94474000D01*
X137991000Y-96159563D02*
X136926563Y-97224000D01*
X137991000Y-89768437D02*
X136926563Y-88704000D01*
X139231000Y-95474000D02*
X138231000Y-95474000D01*
X138731000Y-95974000D02*
X138731000Y-94974000D01*
%TO.C,C8*%
X109124000Y-59864000D02*
X127364000Y-59864000D01*
X109124000Y-65104000D02*
X127364000Y-65104000D01*
X109124000Y-59864000D02*
X109124000Y-65104000D01*
X127364000Y-59864000D02*
X127364000Y-65104000D01*
%TO.C,C7*%
X181856748Y-93753000D02*
X182379252Y-93753000D01*
X181856748Y-95223000D02*
X182379252Y-95223000D01*
%TO.C,C6*%
X181856748Y-81561000D02*
X182379252Y-81561000D01*
X181856748Y-83031000D02*
X182379252Y-83031000D01*
%TO.C,C5*%
X165889000Y-86621252D02*
X165889000Y-86098748D01*
X167359000Y-86621252D02*
X167359000Y-86098748D01*
%TO.C,C4*%
X167359000Y-90035748D02*
X167359000Y-90558252D01*
X165889000Y-90035748D02*
X165889000Y-90558252D01*
%TO.C,C3*%
X157508752Y-49249000D02*
X156986248Y-49249000D01*
X157508752Y-47779000D02*
X156986248Y-47779000D01*
%TO.C,C2*%
X157487252Y-63727000D02*
X156964748Y-63727000D01*
X157487252Y-62257000D02*
X156964748Y-62257000D01*
%TO.C,C1*%
X156964748Y-59971000D02*
X157487252Y-59971000D01*
X156964748Y-61441000D02*
X157487252Y-61441000D01*
%TO.C,U4*%
D11*
X162560095Y-79589380D02*
X162560095Y-80398904D01*
X162607714Y-80494142D01*
X162655333Y-80541761D01*
X162750571Y-80589380D01*
X162941047Y-80589380D01*
X163036285Y-80541761D01*
X163083904Y-80494142D01*
X163131523Y-80398904D01*
X163131523Y-79589380D01*
X164036285Y-79922714D02*
X164036285Y-80589380D01*
X163798190Y-79541761D02*
X163560095Y-80256047D01*
X164179142Y-80256047D01*
%TO.C,R26*%
X159329380Y-69095857D02*
X158853190Y-69429190D01*
X159329380Y-69667285D02*
X158329380Y-69667285D01*
X158329380Y-69286333D01*
X158377000Y-69191095D01*
X158424619Y-69143476D01*
X158519857Y-69095857D01*
X158662714Y-69095857D01*
X158757952Y-69143476D01*
X158805571Y-69191095D01*
X158853190Y-69286333D01*
X158853190Y-69667285D01*
X158424619Y-68714904D02*
X158377000Y-68667285D01*
X158329380Y-68572047D01*
X158329380Y-68333952D01*
X158377000Y-68238714D01*
X158424619Y-68191095D01*
X158519857Y-68143476D01*
X158615095Y-68143476D01*
X158757952Y-68191095D01*
X159329380Y-68762523D01*
X159329380Y-68143476D01*
X158329380Y-67286333D02*
X158329380Y-67476809D01*
X158377000Y-67572047D01*
X158424619Y-67619666D01*
X158567476Y-67714904D01*
X158757952Y-67762523D01*
X159138904Y-67762523D01*
X159234142Y-67714904D01*
X159281761Y-67667285D01*
X159329380Y-67572047D01*
X159329380Y-67381571D01*
X159281761Y-67286333D01*
X159234142Y-67238714D01*
X159138904Y-67191095D01*
X158900809Y-67191095D01*
X158805571Y-67238714D01*
X158757952Y-67286333D01*
X158710333Y-67381571D01*
X158710333Y-67572047D01*
X158757952Y-67667285D01*
X158805571Y-67714904D01*
X158900809Y-67762523D01*
%TO.C,R25*%
X161869380Y-69095857D02*
X161393190Y-69429190D01*
X161869380Y-69667285D02*
X160869380Y-69667285D01*
X160869380Y-69286333D01*
X160917000Y-69191095D01*
X160964619Y-69143476D01*
X161059857Y-69095857D01*
X161202714Y-69095857D01*
X161297952Y-69143476D01*
X161345571Y-69191095D01*
X161393190Y-69286333D01*
X161393190Y-69667285D01*
X160964619Y-68714904D02*
X160917000Y-68667285D01*
X160869380Y-68572047D01*
X160869380Y-68333952D01*
X160917000Y-68238714D01*
X160964619Y-68191095D01*
X161059857Y-68143476D01*
X161155095Y-68143476D01*
X161297952Y-68191095D01*
X161869380Y-68762523D01*
X161869380Y-68143476D01*
X160869380Y-67238714D02*
X160869380Y-67714904D01*
X161345571Y-67762523D01*
X161297952Y-67714904D01*
X161250333Y-67619666D01*
X161250333Y-67381571D01*
X161297952Y-67286333D01*
X161345571Y-67238714D01*
X161440809Y-67191095D01*
X161678904Y-67191095D01*
X161774142Y-67238714D01*
X161821761Y-67286333D01*
X161869380Y-67381571D01*
X161869380Y-67619666D01*
X161821761Y-67714904D01*
X161774142Y-67762523D01*
%TO.C,R24*%
X155519380Y-69095857D02*
X155043190Y-69429190D01*
X155519380Y-69667285D02*
X154519380Y-69667285D01*
X154519380Y-69286333D01*
X154567000Y-69191095D01*
X154614619Y-69143476D01*
X154709857Y-69095857D01*
X154852714Y-69095857D01*
X154947952Y-69143476D01*
X154995571Y-69191095D01*
X155043190Y-69286333D01*
X155043190Y-69667285D01*
X154614619Y-68714904D02*
X154567000Y-68667285D01*
X154519380Y-68572047D01*
X154519380Y-68333952D01*
X154567000Y-68238714D01*
X154614619Y-68191095D01*
X154709857Y-68143476D01*
X154805095Y-68143476D01*
X154947952Y-68191095D01*
X155519380Y-68762523D01*
X155519380Y-68143476D01*
X154852714Y-67286333D02*
X155519380Y-67286333D01*
X154471761Y-67524428D02*
X155186047Y-67762523D01*
X155186047Y-67143476D01*
%TO.C,R23*%
X158059380Y-69095857D02*
X157583190Y-69429190D01*
X158059380Y-69667285D02*
X157059380Y-69667285D01*
X157059380Y-69286333D01*
X157107000Y-69191095D01*
X157154619Y-69143476D01*
X157249857Y-69095857D01*
X157392714Y-69095857D01*
X157487952Y-69143476D01*
X157535571Y-69191095D01*
X157583190Y-69286333D01*
X157583190Y-69667285D01*
X157154619Y-68714904D02*
X157107000Y-68667285D01*
X157059380Y-68572047D01*
X157059380Y-68333952D01*
X157107000Y-68238714D01*
X157154619Y-68191095D01*
X157249857Y-68143476D01*
X157345095Y-68143476D01*
X157487952Y-68191095D01*
X158059380Y-68762523D01*
X158059380Y-68143476D01*
X157059380Y-67810142D02*
X157059380Y-67191095D01*
X157440333Y-67524428D01*
X157440333Y-67381571D01*
X157487952Y-67286333D01*
X157535571Y-67238714D01*
X157630809Y-67191095D01*
X157868904Y-67191095D01*
X157964142Y-67238714D01*
X158011761Y-67286333D01*
X158059380Y-67381571D01*
X158059380Y-67667285D01*
X158011761Y-67762523D01*
X157964142Y-67810142D01*
%TO.C,R22*%
X159329380Y-73667857D02*
X158853190Y-74001190D01*
X159329380Y-74239285D02*
X158329380Y-74239285D01*
X158329380Y-73858333D01*
X158377000Y-73763095D01*
X158424619Y-73715476D01*
X158519857Y-73667857D01*
X158662714Y-73667857D01*
X158757952Y-73715476D01*
X158805571Y-73763095D01*
X158853190Y-73858333D01*
X158853190Y-74239285D01*
X158424619Y-73286904D02*
X158377000Y-73239285D01*
X158329380Y-73144047D01*
X158329380Y-72905952D01*
X158377000Y-72810714D01*
X158424619Y-72763095D01*
X158519857Y-72715476D01*
X158615095Y-72715476D01*
X158757952Y-72763095D01*
X159329380Y-73334523D01*
X159329380Y-72715476D01*
X158424619Y-72334523D02*
X158377000Y-72286904D01*
X158329380Y-72191666D01*
X158329380Y-71953571D01*
X158377000Y-71858333D01*
X158424619Y-71810714D01*
X158519857Y-71763095D01*
X158615095Y-71763095D01*
X158757952Y-71810714D01*
X159329380Y-72382142D01*
X159329380Y-71763095D01*
%TO.C,R21*%
X161869380Y-73667857D02*
X161393190Y-74001190D01*
X161869380Y-74239285D02*
X160869380Y-74239285D01*
X160869380Y-73858333D01*
X160917000Y-73763095D01*
X160964619Y-73715476D01*
X161059857Y-73667857D01*
X161202714Y-73667857D01*
X161297952Y-73715476D01*
X161345571Y-73763095D01*
X161393190Y-73858333D01*
X161393190Y-74239285D01*
X160964619Y-73286904D02*
X160917000Y-73239285D01*
X160869380Y-73144047D01*
X160869380Y-72905952D01*
X160917000Y-72810714D01*
X160964619Y-72763095D01*
X161059857Y-72715476D01*
X161155095Y-72715476D01*
X161297952Y-72763095D01*
X161869380Y-73334523D01*
X161869380Y-72715476D01*
X161869380Y-71763095D02*
X161869380Y-72334523D01*
X161869380Y-72048809D02*
X160869380Y-72048809D01*
X161012238Y-72144047D01*
X161107476Y-72239285D01*
X161155095Y-72334523D01*
%TO.C,R20*%
X188031380Y-73667857D02*
X187555190Y-74001190D01*
X188031380Y-74239285D02*
X187031380Y-74239285D01*
X187031380Y-73858333D01*
X187079000Y-73763095D01*
X187126619Y-73715476D01*
X187221857Y-73667857D01*
X187364714Y-73667857D01*
X187459952Y-73715476D01*
X187507571Y-73763095D01*
X187555190Y-73858333D01*
X187555190Y-74239285D01*
X187126619Y-73286904D02*
X187079000Y-73239285D01*
X187031380Y-73144047D01*
X187031380Y-72905952D01*
X187079000Y-72810714D01*
X187126619Y-72763095D01*
X187221857Y-72715476D01*
X187317095Y-72715476D01*
X187459952Y-72763095D01*
X188031380Y-73334523D01*
X188031380Y-72715476D01*
X187031380Y-72096428D02*
X187031380Y-72001190D01*
X187079000Y-71905952D01*
X187126619Y-71858333D01*
X187221857Y-71810714D01*
X187412333Y-71763095D01*
X187650428Y-71763095D01*
X187840904Y-71810714D01*
X187936142Y-71858333D01*
X187983761Y-71905952D01*
X188031380Y-72001190D01*
X188031380Y-72096428D01*
X187983761Y-72191666D01*
X187936142Y-72239285D01*
X187840904Y-72286904D01*
X187650428Y-72334523D01*
X187412333Y-72334523D01*
X187221857Y-72286904D01*
X187126619Y-72239285D01*
X187079000Y-72191666D01*
X187031380Y-72096428D01*
%TO.C,R19*%
X190825380Y-73667857D02*
X190349190Y-74001190D01*
X190825380Y-74239285D02*
X189825380Y-74239285D01*
X189825380Y-73858333D01*
X189873000Y-73763095D01*
X189920619Y-73715476D01*
X190015857Y-73667857D01*
X190158714Y-73667857D01*
X190253952Y-73715476D01*
X190301571Y-73763095D01*
X190349190Y-73858333D01*
X190349190Y-74239285D01*
X190825380Y-72715476D02*
X190825380Y-73286904D01*
X190825380Y-73001190D02*
X189825380Y-73001190D01*
X189968238Y-73096428D01*
X190063476Y-73191666D01*
X190111095Y-73286904D01*
X190825380Y-72239285D02*
X190825380Y-72048809D01*
X190777761Y-71953571D01*
X190730142Y-71905952D01*
X190587285Y-71810714D01*
X190396809Y-71763095D01*
X190015857Y-71763095D01*
X189920619Y-71810714D01*
X189873000Y-71858333D01*
X189825380Y-71953571D01*
X189825380Y-72144047D01*
X189873000Y-72239285D01*
X189920619Y-72286904D01*
X190015857Y-72334523D01*
X190253952Y-72334523D01*
X190349190Y-72286904D01*
X190396809Y-72239285D01*
X190444428Y-72144047D01*
X190444428Y-71953571D01*
X190396809Y-71858333D01*
X190349190Y-71810714D01*
X190253952Y-71763095D01*
%TO.C,Q10*%
X160694619Y-69024428D02*
X160647000Y-69119666D01*
X160551761Y-69214904D01*
X160408904Y-69357761D01*
X160361285Y-69453000D01*
X160361285Y-69548238D01*
X160599380Y-69500619D02*
X160551761Y-69595857D01*
X160456523Y-69691095D01*
X160266047Y-69738714D01*
X159932714Y-69738714D01*
X159742238Y-69691095D01*
X159647000Y-69595857D01*
X159599380Y-69500619D01*
X159599380Y-69310142D01*
X159647000Y-69214904D01*
X159742238Y-69119666D01*
X159932714Y-69072047D01*
X160266047Y-69072047D01*
X160456523Y-69119666D01*
X160551761Y-69214904D01*
X160599380Y-69310142D01*
X160599380Y-69500619D01*
X160599380Y-68119666D02*
X160599380Y-68691095D01*
X160599380Y-68405380D02*
X159599380Y-68405380D01*
X159742238Y-68500619D01*
X159837476Y-68595857D01*
X159885095Y-68691095D01*
X159599380Y-67500619D02*
X159599380Y-67405380D01*
X159647000Y-67310142D01*
X159694619Y-67262523D01*
X159789857Y-67214904D01*
X159980333Y-67167285D01*
X160218428Y-67167285D01*
X160408904Y-67214904D01*
X160504142Y-67262523D01*
X160551761Y-67310142D01*
X160599380Y-67405380D01*
X160599380Y-67500619D01*
X160551761Y-67595857D01*
X160504142Y-67643476D01*
X160408904Y-67691095D01*
X160218428Y-67738714D01*
X159980333Y-67738714D01*
X159789857Y-67691095D01*
X159694619Y-67643476D01*
X159647000Y-67595857D01*
X159599380Y-67500619D01*
%TO.C,Q9*%
X156884619Y-68548238D02*
X156837000Y-68643476D01*
X156741761Y-68738714D01*
X156598904Y-68881571D01*
X156551285Y-68976809D01*
X156551285Y-69072047D01*
X156789380Y-69024428D02*
X156741761Y-69119666D01*
X156646523Y-69214904D01*
X156456047Y-69262523D01*
X156122714Y-69262523D01*
X155932238Y-69214904D01*
X155837000Y-69119666D01*
X155789380Y-69024428D01*
X155789380Y-68833952D01*
X155837000Y-68738714D01*
X155932238Y-68643476D01*
X156122714Y-68595857D01*
X156456047Y-68595857D01*
X156646523Y-68643476D01*
X156741761Y-68738714D01*
X156789380Y-68833952D01*
X156789380Y-69024428D01*
X156789380Y-68119666D02*
X156789380Y-67929190D01*
X156741761Y-67833952D01*
X156694142Y-67786333D01*
X156551285Y-67691095D01*
X156360809Y-67643476D01*
X155979857Y-67643476D01*
X155884619Y-67691095D01*
X155837000Y-67738714D01*
X155789380Y-67833952D01*
X155789380Y-68024428D01*
X155837000Y-68119666D01*
X155884619Y-68167285D01*
X155979857Y-68214904D01*
X156217952Y-68214904D01*
X156313190Y-68167285D01*
X156360809Y-68119666D01*
X156408428Y-68024428D01*
X156408428Y-67833952D01*
X156360809Y-67738714D01*
X156313190Y-67691095D01*
X156217952Y-67643476D01*
%TO.C,Q8*%
X160694619Y-73120238D02*
X160647000Y-73215476D01*
X160551761Y-73310714D01*
X160408904Y-73453571D01*
X160361285Y-73548809D01*
X160361285Y-73644047D01*
X160599380Y-73596428D02*
X160551761Y-73691666D01*
X160456523Y-73786904D01*
X160266047Y-73834523D01*
X159932714Y-73834523D01*
X159742238Y-73786904D01*
X159647000Y-73691666D01*
X159599380Y-73596428D01*
X159599380Y-73405952D01*
X159647000Y-73310714D01*
X159742238Y-73215476D01*
X159932714Y-73167857D01*
X160266047Y-73167857D01*
X160456523Y-73215476D01*
X160551761Y-73310714D01*
X160599380Y-73405952D01*
X160599380Y-73596428D01*
X160027952Y-72596428D02*
X159980333Y-72691666D01*
X159932714Y-72739285D01*
X159837476Y-72786904D01*
X159789857Y-72786904D01*
X159694619Y-72739285D01*
X159647000Y-72691666D01*
X159599380Y-72596428D01*
X159599380Y-72405952D01*
X159647000Y-72310714D01*
X159694619Y-72263095D01*
X159789857Y-72215476D01*
X159837476Y-72215476D01*
X159932714Y-72263095D01*
X159980333Y-72310714D01*
X160027952Y-72405952D01*
X160027952Y-72596428D01*
X160075571Y-72691666D01*
X160123190Y-72739285D01*
X160218428Y-72786904D01*
X160408904Y-72786904D01*
X160504142Y-72739285D01*
X160551761Y-72691666D01*
X160599380Y-72596428D01*
X160599380Y-72405952D01*
X160551761Y-72310714D01*
X160504142Y-72263095D01*
X160408904Y-72215476D01*
X160218428Y-72215476D01*
X160123190Y-72263095D01*
X160075571Y-72310714D01*
X160027952Y-72405952D01*
%TO.C,Q7*%
X189523619Y-73120238D02*
X189476000Y-73215476D01*
X189380761Y-73310714D01*
X189237904Y-73453571D01*
X189190285Y-73548809D01*
X189190285Y-73644047D01*
X189428380Y-73596428D02*
X189380761Y-73691666D01*
X189285523Y-73786904D01*
X189095047Y-73834523D01*
X188761714Y-73834523D01*
X188571238Y-73786904D01*
X188476000Y-73691666D01*
X188428380Y-73596428D01*
X188428380Y-73405952D01*
X188476000Y-73310714D01*
X188571238Y-73215476D01*
X188761714Y-73167857D01*
X189095047Y-73167857D01*
X189285523Y-73215476D01*
X189380761Y-73310714D01*
X189428380Y-73405952D01*
X189428380Y-73596428D01*
X188428380Y-72834523D02*
X188428380Y-72167857D01*
X189428380Y-72596428D01*
%TO.C,J3*%
X189952380Y-54816333D02*
X190666666Y-54816333D01*
X190809523Y-54863952D01*
X190904761Y-54959190D01*
X190952380Y-55102047D01*
X190952380Y-55197285D01*
X189952380Y-54435380D02*
X189952380Y-53816333D01*
X190333333Y-54149666D01*
X190333333Y-54006809D01*
X190380952Y-53911571D01*
X190428571Y-53863952D01*
X190523809Y-53816333D01*
X190761904Y-53816333D01*
X190857142Y-53863952D01*
X190904761Y-53911571D01*
X190952380Y-54006809D01*
X190952380Y-54292523D01*
X190904761Y-54387761D01*
X190857142Y-54435380D01*
%TO.C,J2*%
X189952380Y-86439333D02*
X190666666Y-86439333D01*
X190809523Y-86486952D01*
X190904761Y-86582190D01*
X190952380Y-86725047D01*
X190952380Y-86820285D01*
X190047619Y-86010761D02*
X190000000Y-85963142D01*
X189952380Y-85867904D01*
X189952380Y-85629809D01*
X190000000Y-85534571D01*
X190047619Y-85486952D01*
X190142857Y-85439333D01*
X190238095Y-85439333D01*
X190380952Y-85486952D01*
X190952380Y-86058380D01*
X190952380Y-85439333D01*
%TO.C,Y1*%
X183624190Y-88868190D02*
X184100380Y-88868190D01*
X183100380Y-89201523D02*
X183624190Y-88868190D01*
X183100380Y-88534857D01*
X184100380Y-87677714D02*
X184100380Y-88249142D01*
X184100380Y-87963428D02*
X183100380Y-87963428D01*
X183243238Y-88058666D01*
X183338476Y-88153904D01*
X183386095Y-88249142D01*
%TO.C,U3*%
X144272095Y-97750380D02*
X144272095Y-98559904D01*
X144319714Y-98655142D01*
X144367333Y-98702761D01*
X144462571Y-98750380D01*
X144653047Y-98750380D01*
X144748285Y-98702761D01*
X144795904Y-98655142D01*
X144843523Y-98559904D01*
X144843523Y-97750380D01*
X145224476Y-97750380D02*
X145843523Y-97750380D01*
X145510190Y-98131333D01*
X145653047Y-98131333D01*
X145748285Y-98178952D01*
X145795904Y-98226571D01*
X145843523Y-98321809D01*
X145843523Y-98559904D01*
X145795904Y-98655142D01*
X145748285Y-98702761D01*
X145653047Y-98750380D01*
X145367333Y-98750380D01*
X145272095Y-98702761D01*
X145224476Y-98655142D01*
%TO.C,U2*%
X168148095Y-92416380D02*
X168148095Y-93225904D01*
X168195714Y-93321142D01*
X168243333Y-93368761D01*
X168338571Y-93416380D01*
X168529047Y-93416380D01*
X168624285Y-93368761D01*
X168671904Y-93321142D01*
X168719523Y-93225904D01*
X168719523Y-92416380D01*
X169148095Y-92511619D02*
X169195714Y-92464000D01*
X169290952Y-92416380D01*
X169529047Y-92416380D01*
X169624285Y-92464000D01*
X169671904Y-92511619D01*
X169719523Y-92606857D01*
X169719523Y-92702095D01*
X169671904Y-92844952D01*
X169100476Y-93416380D01*
X169719523Y-93416380D01*
%TO.C,U1*%
X179324095Y-42124380D02*
X179324095Y-42933904D01*
X179371714Y-43029142D01*
X179419333Y-43076761D01*
X179514571Y-43124380D01*
X179705047Y-43124380D01*
X179800285Y-43076761D01*
X179847904Y-43029142D01*
X179895523Y-42933904D01*
X179895523Y-42124380D01*
X180895523Y-43124380D02*
X180324095Y-43124380D01*
X180609809Y-43124380D02*
X180609809Y-42124380D01*
X180514571Y-42267238D01*
X180419333Y-42362476D01*
X180324095Y-42410095D01*
%TO.C,SW1*%
X159484666Y-95059761D02*
X159627523Y-95107380D01*
X159865619Y-95107380D01*
X159960857Y-95059761D01*
X160008476Y-95012142D01*
X160056095Y-94916904D01*
X160056095Y-94821666D01*
X160008476Y-94726428D01*
X159960857Y-94678809D01*
X159865619Y-94631190D01*
X159675142Y-94583571D01*
X159579904Y-94535952D01*
X159532285Y-94488333D01*
X159484666Y-94393095D01*
X159484666Y-94297857D01*
X159532285Y-94202619D01*
X159579904Y-94155000D01*
X159675142Y-94107380D01*
X159913238Y-94107380D01*
X160056095Y-94155000D01*
X160389428Y-94107380D02*
X160627523Y-95107380D01*
X160818000Y-94393095D01*
X161008476Y-95107380D01*
X161246571Y-94107380D01*
X162151333Y-95107380D02*
X161579904Y-95107380D01*
X161865619Y-95107380D02*
X161865619Y-94107380D01*
X161770380Y-94250238D01*
X161675142Y-94345476D01*
X161579904Y-94393095D01*
%TO.C,RV1*%
X117708761Y-74366380D02*
X117375428Y-73890190D01*
X117137333Y-74366380D02*
X117137333Y-73366380D01*
X117518285Y-73366380D01*
X117613523Y-73414000D01*
X117661142Y-73461619D01*
X117708761Y-73556857D01*
X117708761Y-73699714D01*
X117661142Y-73794952D01*
X117613523Y-73842571D01*
X117518285Y-73890190D01*
X117137333Y-73890190D01*
X117994476Y-73366380D02*
X118327809Y-74366380D01*
X118661142Y-73366380D01*
X119518285Y-74366380D02*
X118946857Y-74366380D01*
X119232571Y-74366380D02*
X119232571Y-73366380D01*
X119137333Y-73509238D01*
X119042095Y-73604476D01*
X118946857Y-73652095D01*
%TO.C,R18*%
X188031380Y-69095857D02*
X187555190Y-69429190D01*
X188031380Y-69667285D02*
X187031380Y-69667285D01*
X187031380Y-69286333D01*
X187079000Y-69191095D01*
X187126619Y-69143476D01*
X187221857Y-69095857D01*
X187364714Y-69095857D01*
X187459952Y-69143476D01*
X187507571Y-69191095D01*
X187555190Y-69286333D01*
X187555190Y-69667285D01*
X188031380Y-68143476D02*
X188031380Y-68714904D01*
X188031380Y-68429190D02*
X187031380Y-68429190D01*
X187174238Y-68524428D01*
X187269476Y-68619666D01*
X187317095Y-68714904D01*
X187459952Y-67572047D02*
X187412333Y-67667285D01*
X187364714Y-67714904D01*
X187269476Y-67762523D01*
X187221857Y-67762523D01*
X187126619Y-67714904D01*
X187079000Y-67667285D01*
X187031380Y-67572047D01*
X187031380Y-67381571D01*
X187079000Y-67286333D01*
X187126619Y-67238714D01*
X187221857Y-67191095D01*
X187269476Y-67191095D01*
X187364714Y-67238714D01*
X187412333Y-67286333D01*
X187459952Y-67381571D01*
X187459952Y-67572047D01*
X187507571Y-67667285D01*
X187555190Y-67714904D01*
X187650428Y-67762523D01*
X187840904Y-67762523D01*
X187936142Y-67714904D01*
X187983761Y-67667285D01*
X188031380Y-67572047D01*
X188031380Y-67381571D01*
X187983761Y-67286333D01*
X187936142Y-67238714D01*
X187840904Y-67191095D01*
X187650428Y-67191095D01*
X187555190Y-67238714D01*
X187507571Y-67286333D01*
X187459952Y-67381571D01*
%TO.C,R17*%
X190825380Y-69095857D02*
X190349190Y-69429190D01*
X190825380Y-69667285D02*
X189825380Y-69667285D01*
X189825380Y-69286333D01*
X189873000Y-69191095D01*
X189920619Y-69143476D01*
X190015857Y-69095857D01*
X190158714Y-69095857D01*
X190253952Y-69143476D01*
X190301571Y-69191095D01*
X190349190Y-69286333D01*
X190349190Y-69667285D01*
X190825380Y-68143476D02*
X190825380Y-68714904D01*
X190825380Y-68429190D02*
X189825380Y-68429190D01*
X189968238Y-68524428D01*
X190063476Y-68619666D01*
X190111095Y-68714904D01*
X189825380Y-67810142D02*
X189825380Y-67143476D01*
X190825380Y-67572047D01*
%TO.C,R16*%
X155519380Y-73667857D02*
X155043190Y-74001190D01*
X155519380Y-74239285D02*
X154519380Y-74239285D01*
X154519380Y-73858333D01*
X154567000Y-73763095D01*
X154614619Y-73715476D01*
X154709857Y-73667857D01*
X154852714Y-73667857D01*
X154947952Y-73715476D01*
X154995571Y-73763095D01*
X155043190Y-73858333D01*
X155043190Y-74239285D01*
X155519380Y-72715476D02*
X155519380Y-73286904D01*
X155519380Y-73001190D02*
X154519380Y-73001190D01*
X154662238Y-73096428D01*
X154757476Y-73191666D01*
X154805095Y-73286904D01*
X154519380Y-71858333D02*
X154519380Y-72048809D01*
X154567000Y-72144047D01*
X154614619Y-72191666D01*
X154757476Y-72286904D01*
X154947952Y-72334523D01*
X155328904Y-72334523D01*
X155424142Y-72286904D01*
X155471761Y-72239285D01*
X155519380Y-72144047D01*
X155519380Y-71953571D01*
X155471761Y-71858333D01*
X155424142Y-71810714D01*
X155328904Y-71763095D01*
X155090809Y-71763095D01*
X154995571Y-71810714D01*
X154947952Y-71858333D01*
X154900333Y-71953571D01*
X154900333Y-72144047D01*
X154947952Y-72239285D01*
X154995571Y-72286904D01*
X155090809Y-72334523D01*
%TO.C,R15*%
X158059380Y-73667857D02*
X157583190Y-74001190D01*
X158059380Y-74239285D02*
X157059380Y-74239285D01*
X157059380Y-73858333D01*
X157107000Y-73763095D01*
X157154619Y-73715476D01*
X157249857Y-73667857D01*
X157392714Y-73667857D01*
X157487952Y-73715476D01*
X157535571Y-73763095D01*
X157583190Y-73858333D01*
X157583190Y-74239285D01*
X158059380Y-72715476D02*
X158059380Y-73286904D01*
X158059380Y-73001190D02*
X157059380Y-73001190D01*
X157202238Y-73096428D01*
X157297476Y-73191666D01*
X157345095Y-73286904D01*
X157059380Y-71810714D02*
X157059380Y-72286904D01*
X157535571Y-72334523D01*
X157487952Y-72286904D01*
X157440333Y-72191666D01*
X157440333Y-71953571D01*
X157487952Y-71858333D01*
X157535571Y-71810714D01*
X157630809Y-71763095D01*
X157868904Y-71763095D01*
X157964142Y-71810714D01*
X158011761Y-71858333D01*
X158059380Y-71953571D01*
X158059380Y-72191666D01*
X158011761Y-72286904D01*
X157964142Y-72334523D01*
%TO.C,R14*%
X149217142Y-94813380D02*
X148883809Y-94337190D01*
X148645714Y-94813380D02*
X148645714Y-93813380D01*
X149026666Y-93813380D01*
X149121904Y-93861000D01*
X149169523Y-93908619D01*
X149217142Y-94003857D01*
X149217142Y-94146714D01*
X149169523Y-94241952D01*
X149121904Y-94289571D01*
X149026666Y-94337190D01*
X148645714Y-94337190D01*
X150169523Y-94813380D02*
X149598095Y-94813380D01*
X149883809Y-94813380D02*
X149883809Y-93813380D01*
X149788571Y-93956238D01*
X149693333Y-94051476D01*
X149598095Y-94099095D01*
X151026666Y-94146714D02*
X151026666Y-94813380D01*
X150788571Y-93765761D02*
X150550476Y-94480047D01*
X151169523Y-94480047D01*
%TO.C,R13*%
X183713380Y-78239857D02*
X183237190Y-78573190D01*
X183713380Y-78811285D02*
X182713380Y-78811285D01*
X182713380Y-78430333D01*
X182761000Y-78335095D01*
X182808619Y-78287476D01*
X182903857Y-78239857D01*
X183046714Y-78239857D01*
X183141952Y-78287476D01*
X183189571Y-78335095D01*
X183237190Y-78430333D01*
X183237190Y-78811285D01*
X183713380Y-77287476D02*
X183713380Y-77858904D01*
X183713380Y-77573190D02*
X182713380Y-77573190D01*
X182856238Y-77668428D01*
X182951476Y-77763666D01*
X182999095Y-77858904D01*
X182713380Y-76954142D02*
X182713380Y-76335095D01*
X183094333Y-76668428D01*
X183094333Y-76525571D01*
X183141952Y-76430333D01*
X183189571Y-76382714D01*
X183284809Y-76335095D01*
X183522904Y-76335095D01*
X183618142Y-76382714D01*
X183665761Y-76430333D01*
X183713380Y-76525571D01*
X183713380Y-76811285D01*
X183665761Y-76906523D01*
X183618142Y-76954142D01*
%TO.C,R12*%
X186507380Y-78239857D02*
X186031190Y-78573190D01*
X186507380Y-78811285D02*
X185507380Y-78811285D01*
X185507380Y-78430333D01*
X185555000Y-78335095D01*
X185602619Y-78287476D01*
X185697857Y-78239857D01*
X185840714Y-78239857D01*
X185935952Y-78287476D01*
X185983571Y-78335095D01*
X186031190Y-78430333D01*
X186031190Y-78811285D01*
X186507380Y-77287476D02*
X186507380Y-77858904D01*
X186507380Y-77573190D02*
X185507380Y-77573190D01*
X185650238Y-77668428D01*
X185745476Y-77763666D01*
X185793095Y-77858904D01*
X185602619Y-76906523D02*
X185555000Y-76858904D01*
X185507380Y-76763666D01*
X185507380Y-76525571D01*
X185555000Y-76430333D01*
X185602619Y-76382714D01*
X185697857Y-76335095D01*
X185793095Y-76335095D01*
X185935952Y-76382714D01*
X186507380Y-76954142D01*
X186507380Y-76335095D01*
%TO.C,R11*%
X179522380Y-78239857D02*
X179046190Y-78573190D01*
X179522380Y-78811285D02*
X178522380Y-78811285D01*
X178522380Y-78430333D01*
X178570000Y-78335095D01*
X178617619Y-78287476D01*
X178712857Y-78239857D01*
X178855714Y-78239857D01*
X178950952Y-78287476D01*
X178998571Y-78335095D01*
X179046190Y-78430333D01*
X179046190Y-78811285D01*
X179522380Y-77287476D02*
X179522380Y-77858904D01*
X179522380Y-77573190D02*
X178522380Y-77573190D01*
X178665238Y-77668428D01*
X178760476Y-77763666D01*
X178808095Y-77858904D01*
X179522380Y-76335095D02*
X179522380Y-76906523D01*
X179522380Y-76620809D02*
X178522380Y-76620809D01*
X178665238Y-76716047D01*
X178760476Y-76811285D01*
X178808095Y-76906523D01*
%TO.C,R10*%
X182316380Y-78239857D02*
X181840190Y-78573190D01*
X182316380Y-78811285D02*
X181316380Y-78811285D01*
X181316380Y-78430333D01*
X181364000Y-78335095D01*
X181411619Y-78287476D01*
X181506857Y-78239857D01*
X181649714Y-78239857D01*
X181744952Y-78287476D01*
X181792571Y-78335095D01*
X181840190Y-78430333D01*
X181840190Y-78811285D01*
X182316380Y-77287476D02*
X182316380Y-77858904D01*
X182316380Y-77573190D02*
X181316380Y-77573190D01*
X181459238Y-77668428D01*
X181554476Y-77763666D01*
X181602095Y-77858904D01*
X181316380Y-76668428D02*
X181316380Y-76573190D01*
X181364000Y-76477952D01*
X181411619Y-76430333D01*
X181506857Y-76382714D01*
X181697333Y-76335095D01*
X181935428Y-76335095D01*
X182125904Y-76382714D01*
X182221142Y-76430333D01*
X182268761Y-76477952D01*
X182316380Y-76573190D01*
X182316380Y-76668428D01*
X182268761Y-76763666D01*
X182221142Y-76811285D01*
X182125904Y-76858904D01*
X181935428Y-76906523D01*
X181697333Y-76906523D01*
X181506857Y-76858904D01*
X181411619Y-76811285D01*
X181364000Y-76763666D01*
X181316380Y-76668428D01*
%TO.C,R9*%
X181951333Y-47696380D02*
X181618000Y-47220190D01*
X181379904Y-47696380D02*
X181379904Y-46696380D01*
X181760857Y-46696380D01*
X181856095Y-46744000D01*
X181903714Y-46791619D01*
X181951333Y-46886857D01*
X181951333Y-47029714D01*
X181903714Y-47124952D01*
X181856095Y-47172571D01*
X181760857Y-47220190D01*
X181379904Y-47220190D01*
X182427523Y-47696380D02*
X182618000Y-47696380D01*
X182713238Y-47648761D01*
X182760857Y-47601142D01*
X182856095Y-47458285D01*
X182903714Y-47267809D01*
X182903714Y-46886857D01*
X182856095Y-46791619D01*
X182808476Y-46744000D01*
X182713238Y-46696380D01*
X182522761Y-46696380D01*
X182427523Y-46744000D01*
X182379904Y-46791619D01*
X182332285Y-46886857D01*
X182332285Y-47124952D01*
X182379904Y-47220190D01*
X182427523Y-47267809D01*
X182522761Y-47315428D01*
X182713238Y-47315428D01*
X182808476Y-47267809D01*
X182856095Y-47220190D01*
X182903714Y-47124952D01*
%TO.C,R8*%
X181951333Y-53410380D02*
X181618000Y-52934190D01*
X181379904Y-53410380D02*
X181379904Y-52410380D01*
X181760857Y-52410380D01*
X181856095Y-52458000D01*
X181903714Y-52505619D01*
X181951333Y-52600857D01*
X181951333Y-52743714D01*
X181903714Y-52838952D01*
X181856095Y-52886571D01*
X181760857Y-52934190D01*
X181379904Y-52934190D01*
X182522761Y-52838952D02*
X182427523Y-52791333D01*
X182379904Y-52743714D01*
X182332285Y-52648476D01*
X182332285Y-52600857D01*
X182379904Y-52505619D01*
X182427523Y-52458000D01*
X182522761Y-52410380D01*
X182713238Y-52410380D01*
X182808476Y-52458000D01*
X182856095Y-52505619D01*
X182903714Y-52600857D01*
X182903714Y-52648476D01*
X182856095Y-52743714D01*
X182808476Y-52791333D01*
X182713238Y-52838952D01*
X182522761Y-52838952D01*
X182427523Y-52886571D01*
X182379904Y-52934190D01*
X182332285Y-53029428D01*
X182332285Y-53219904D01*
X182379904Y-53315142D01*
X182427523Y-53362761D01*
X182522761Y-53410380D01*
X182713238Y-53410380D01*
X182808476Y-53362761D01*
X182856095Y-53315142D01*
X182903714Y-53219904D01*
X182903714Y-53029428D01*
X182856095Y-52934190D01*
X182808476Y-52886571D01*
X182713238Y-52838952D01*
%TO.C,R7*%
X184745333Y-61666380D02*
X184412000Y-61190190D01*
X184173904Y-61666380D02*
X184173904Y-60666380D01*
X184554857Y-60666380D01*
X184650095Y-60714000D01*
X184697714Y-60761619D01*
X184745333Y-60856857D01*
X184745333Y-60999714D01*
X184697714Y-61094952D01*
X184650095Y-61142571D01*
X184554857Y-61190190D01*
X184173904Y-61190190D01*
X185078666Y-60666380D02*
X185745333Y-60666380D01*
X185316761Y-61666380D01*
%TO.C,R6*%
X170251380Y-82589666D02*
X169775190Y-82923000D01*
X170251380Y-83161095D02*
X169251380Y-83161095D01*
X169251380Y-82780142D01*
X169299000Y-82684904D01*
X169346619Y-82637285D01*
X169441857Y-82589666D01*
X169584714Y-82589666D01*
X169679952Y-82637285D01*
X169727571Y-82684904D01*
X169775190Y-82780142D01*
X169775190Y-83161095D01*
X169251380Y-81732523D02*
X169251380Y-81923000D01*
X169299000Y-82018238D01*
X169346619Y-82065857D01*
X169489476Y-82161095D01*
X169679952Y-82208714D01*
X170060904Y-82208714D01*
X170156142Y-82161095D01*
X170203761Y-82113476D01*
X170251380Y-82018238D01*
X170251380Y-81827761D01*
X170203761Y-81732523D01*
X170156142Y-81684904D01*
X170060904Y-81637285D01*
X169822809Y-81637285D01*
X169727571Y-81684904D01*
X169679952Y-81732523D01*
X169632333Y-81827761D01*
X169632333Y-82018238D01*
X169679952Y-82113476D01*
X169727571Y-82161095D01*
X169822809Y-82208714D01*
%TO.C,R5*%
X184745333Y-59380380D02*
X184412000Y-58904190D01*
X184173904Y-59380380D02*
X184173904Y-58380380D01*
X184554857Y-58380380D01*
X184650095Y-58428000D01*
X184697714Y-58475619D01*
X184745333Y-58570857D01*
X184745333Y-58713714D01*
X184697714Y-58808952D01*
X184650095Y-58856571D01*
X184554857Y-58904190D01*
X184173904Y-58904190D01*
X185650095Y-58380380D02*
X185173904Y-58380380D01*
X185126285Y-58856571D01*
X185173904Y-58808952D01*
X185269142Y-58761333D01*
X185507238Y-58761333D01*
X185602476Y-58808952D01*
X185650095Y-58856571D01*
X185697714Y-58951809D01*
X185697714Y-59189904D01*
X185650095Y-59285142D01*
X185602476Y-59332761D01*
X185507238Y-59380380D01*
X185269142Y-59380380D01*
X185173904Y-59332761D01*
X185126285Y-59285142D01*
%TO.C,R4*%
X184745333Y-57094380D02*
X184412000Y-56618190D01*
X184173904Y-57094380D02*
X184173904Y-56094380D01*
X184554857Y-56094380D01*
X184650095Y-56142000D01*
X184697714Y-56189619D01*
X184745333Y-56284857D01*
X184745333Y-56427714D01*
X184697714Y-56522952D01*
X184650095Y-56570571D01*
X184554857Y-56618190D01*
X184173904Y-56618190D01*
X185602476Y-56427714D02*
X185602476Y-57094380D01*
X185364380Y-56046761D02*
X185126285Y-56761047D01*
X185745333Y-56761047D01*
%TO.C,R3*%
X157059333Y-44394380D02*
X156726000Y-43918190D01*
X156487904Y-44394380D02*
X156487904Y-43394380D01*
X156868857Y-43394380D01*
X156964095Y-43442000D01*
X157011714Y-43489619D01*
X157059333Y-43584857D01*
X157059333Y-43727714D01*
X157011714Y-43822952D01*
X156964095Y-43870571D01*
X156868857Y-43918190D01*
X156487904Y-43918190D01*
X157392666Y-43394380D02*
X158011714Y-43394380D01*
X157678380Y-43775333D01*
X157821238Y-43775333D01*
X157916476Y-43822952D01*
X157964095Y-43870571D01*
X158011714Y-43965809D01*
X158011714Y-44203904D01*
X157964095Y-44299142D01*
X157916476Y-44346761D01*
X157821238Y-44394380D01*
X157535523Y-44394380D01*
X157440285Y-44346761D01*
X157392666Y-44299142D01*
%TO.C,R2*%
X179522380Y-82589666D02*
X179046190Y-82923000D01*
X179522380Y-83161095D02*
X178522380Y-83161095D01*
X178522380Y-82780142D01*
X178570000Y-82684904D01*
X178617619Y-82637285D01*
X178712857Y-82589666D01*
X178855714Y-82589666D01*
X178950952Y-82637285D01*
X178998571Y-82684904D01*
X179046190Y-82780142D01*
X179046190Y-83161095D01*
X178617619Y-82208714D02*
X178570000Y-82161095D01*
X178522380Y-82065857D01*
X178522380Y-81827761D01*
X178570000Y-81732523D01*
X178617619Y-81684904D01*
X178712857Y-81637285D01*
X178808095Y-81637285D01*
X178950952Y-81684904D01*
X179522380Y-82256333D01*
X179522380Y-81637285D01*
%TO.C,R1*%
X157059333Y-45918380D02*
X156726000Y-45442190D01*
X156487904Y-45918380D02*
X156487904Y-44918380D01*
X156868857Y-44918380D01*
X156964095Y-44966000D01*
X157011714Y-45013619D01*
X157059333Y-45108857D01*
X157059333Y-45251714D01*
X157011714Y-45346952D01*
X156964095Y-45394571D01*
X156868857Y-45442190D01*
X156487904Y-45442190D01*
X158011714Y-45918380D02*
X157440285Y-45918380D01*
X157726000Y-45918380D02*
X157726000Y-44918380D01*
X157630761Y-45061238D01*
X157535523Y-45156476D01*
X157440285Y-45204095D01*
%TO.C,Q6*%
X189523619Y-68548238D02*
X189476000Y-68643476D01*
X189380761Y-68738714D01*
X189237904Y-68881571D01*
X189190285Y-68976809D01*
X189190285Y-69072047D01*
X189428380Y-69024428D02*
X189380761Y-69119666D01*
X189285523Y-69214904D01*
X189095047Y-69262523D01*
X188761714Y-69262523D01*
X188571238Y-69214904D01*
X188476000Y-69119666D01*
X188428380Y-69024428D01*
X188428380Y-68833952D01*
X188476000Y-68738714D01*
X188571238Y-68643476D01*
X188761714Y-68595857D01*
X189095047Y-68595857D01*
X189285523Y-68643476D01*
X189380761Y-68738714D01*
X189428380Y-68833952D01*
X189428380Y-69024428D01*
X188428380Y-67738714D02*
X188428380Y-67929190D01*
X188476000Y-68024428D01*
X188523619Y-68072047D01*
X188666476Y-68167285D01*
X188856952Y-68214904D01*
X189237904Y-68214904D01*
X189333142Y-68167285D01*
X189380761Y-68119666D01*
X189428380Y-68024428D01*
X189428380Y-67833952D01*
X189380761Y-67738714D01*
X189333142Y-67691095D01*
X189237904Y-67643476D01*
X188999809Y-67643476D01*
X188904571Y-67691095D01*
X188856952Y-67738714D01*
X188809333Y-67833952D01*
X188809333Y-68024428D01*
X188856952Y-68119666D01*
X188904571Y-68167285D01*
X188999809Y-68214904D01*
%TO.C,Q5*%
X156884619Y-73120238D02*
X156837000Y-73215476D01*
X156741761Y-73310714D01*
X156598904Y-73453571D01*
X156551285Y-73548809D01*
X156551285Y-73644047D01*
X156789380Y-73596428D02*
X156741761Y-73691666D01*
X156646523Y-73786904D01*
X156456047Y-73834523D01*
X156122714Y-73834523D01*
X155932238Y-73786904D01*
X155837000Y-73691666D01*
X155789380Y-73596428D01*
X155789380Y-73405952D01*
X155837000Y-73310714D01*
X155932238Y-73215476D01*
X156122714Y-73167857D01*
X156456047Y-73167857D01*
X156646523Y-73215476D01*
X156741761Y-73310714D01*
X156789380Y-73405952D01*
X156789380Y-73596428D01*
X155789380Y-72263095D02*
X155789380Y-72739285D01*
X156265571Y-72786904D01*
X156217952Y-72739285D01*
X156170333Y-72644047D01*
X156170333Y-72405952D01*
X156217952Y-72310714D01*
X156265571Y-72263095D01*
X156360809Y-72215476D01*
X156598904Y-72215476D01*
X156694142Y-72263095D01*
X156741761Y-72310714D01*
X156789380Y-72405952D01*
X156789380Y-72644047D01*
X156741761Y-72739285D01*
X156694142Y-72786904D01*
%TO.C,Q4*%
X185205619Y-77692238D02*
X185158000Y-77787476D01*
X185062761Y-77882714D01*
X184919904Y-78025571D01*
X184872285Y-78120809D01*
X184872285Y-78216047D01*
X185110380Y-78168428D02*
X185062761Y-78263666D01*
X184967523Y-78358904D01*
X184777047Y-78406523D01*
X184443714Y-78406523D01*
X184253238Y-78358904D01*
X184158000Y-78263666D01*
X184110380Y-78168428D01*
X184110380Y-77977952D01*
X184158000Y-77882714D01*
X184253238Y-77787476D01*
X184443714Y-77739857D01*
X184777047Y-77739857D01*
X184967523Y-77787476D01*
X185062761Y-77882714D01*
X185110380Y-77977952D01*
X185110380Y-78168428D01*
X184443714Y-76882714D02*
X185110380Y-76882714D01*
X184062761Y-77120809D02*
X184777047Y-77358904D01*
X184777047Y-76739857D01*
%TO.C,Q3*%
X181014619Y-77692238D02*
X180967000Y-77787476D01*
X180871761Y-77882714D01*
X180728904Y-78025571D01*
X180681285Y-78120809D01*
X180681285Y-78216047D01*
X180919380Y-78168428D02*
X180871761Y-78263666D01*
X180776523Y-78358904D01*
X180586047Y-78406523D01*
X180252714Y-78406523D01*
X180062238Y-78358904D01*
X179967000Y-78263666D01*
X179919380Y-78168428D01*
X179919380Y-77977952D01*
X179967000Y-77882714D01*
X180062238Y-77787476D01*
X180252714Y-77739857D01*
X180586047Y-77739857D01*
X180776523Y-77787476D01*
X180871761Y-77882714D01*
X180919380Y-77977952D01*
X180919380Y-78168428D01*
X179919380Y-77406523D02*
X179919380Y-76787476D01*
X180300333Y-77120809D01*
X180300333Y-76977952D01*
X180347952Y-76882714D01*
X180395571Y-76835095D01*
X180490809Y-76787476D01*
X180728904Y-76787476D01*
X180824142Y-76835095D01*
X180871761Y-76882714D01*
X180919380Y-76977952D01*
X180919380Y-77263666D01*
X180871761Y-77358904D01*
X180824142Y-77406523D01*
%TO.C,Q2*%
X174275761Y-80557619D02*
X174180523Y-80510000D01*
X174085285Y-80414761D01*
X173942428Y-80271904D01*
X173847190Y-80224285D01*
X173751952Y-80224285D01*
X173799571Y-80462380D02*
X173704333Y-80414761D01*
X173609095Y-80319523D01*
X173561476Y-80129047D01*
X173561476Y-79795714D01*
X173609095Y-79605238D01*
X173704333Y-79510000D01*
X173799571Y-79462380D01*
X173990047Y-79462380D01*
X174085285Y-79510000D01*
X174180523Y-79605238D01*
X174228142Y-79795714D01*
X174228142Y-80129047D01*
X174180523Y-80319523D01*
X174085285Y-80414761D01*
X173990047Y-80462380D01*
X173799571Y-80462380D01*
X174609095Y-79557619D02*
X174656714Y-79510000D01*
X174751952Y-79462380D01*
X174990047Y-79462380D01*
X175085285Y-79510000D01*
X175132904Y-79557619D01*
X175180523Y-79652857D01*
X175180523Y-79748095D01*
X175132904Y-79890952D01*
X174561476Y-80462380D01*
X175180523Y-80462380D01*
%TO.C,Q1*%
X168949619Y-82518238D02*
X168902000Y-82613476D01*
X168806761Y-82708714D01*
X168663904Y-82851571D01*
X168616285Y-82946809D01*
X168616285Y-83042047D01*
X168854380Y-82994428D02*
X168806761Y-83089666D01*
X168711523Y-83184904D01*
X168521047Y-83232523D01*
X168187714Y-83232523D01*
X167997238Y-83184904D01*
X167902000Y-83089666D01*
X167854380Y-82994428D01*
X167854380Y-82803952D01*
X167902000Y-82708714D01*
X167997238Y-82613476D01*
X168187714Y-82565857D01*
X168521047Y-82565857D01*
X168711523Y-82613476D01*
X168806761Y-82708714D01*
X168854380Y-82803952D01*
X168854380Y-82994428D01*
X168854380Y-81613476D02*
X168854380Y-82184904D01*
X168854380Y-81899190D02*
X167854380Y-81899190D01*
X167997238Y-81994428D01*
X168092476Y-82089666D01*
X168140095Y-82184904D01*
%TO.C,PS1*%
X127960380Y-85288285D02*
X126960380Y-85288285D01*
X126960380Y-84907333D01*
X127008000Y-84812095D01*
X127055619Y-84764476D01*
X127150857Y-84716857D01*
X127293714Y-84716857D01*
X127388952Y-84764476D01*
X127436571Y-84812095D01*
X127484190Y-84907333D01*
X127484190Y-85288285D01*
X127912761Y-84335904D02*
X127960380Y-84193047D01*
X127960380Y-83954952D01*
X127912761Y-83859714D01*
X127865142Y-83812095D01*
X127769904Y-83764476D01*
X127674666Y-83764476D01*
X127579428Y-83812095D01*
X127531809Y-83859714D01*
X127484190Y-83954952D01*
X127436571Y-84145428D01*
X127388952Y-84240666D01*
X127341333Y-84288285D01*
X127246095Y-84335904D01*
X127150857Y-84335904D01*
X127055619Y-84288285D01*
X127008000Y-84240666D01*
X126960380Y-84145428D01*
X126960380Y-83907333D01*
X127008000Y-83764476D01*
X127960380Y-82812095D02*
X127960380Y-83383523D01*
X127960380Y-83097809D02*
X126960380Y-83097809D01*
X127103238Y-83193047D01*
X127198476Y-83288285D01*
X127246095Y-83383523D01*
%TO.C,L1*%
X118197333Y-59522380D02*
X117721142Y-59522380D01*
X117721142Y-58522380D01*
X119054476Y-59522380D02*
X118483047Y-59522380D01*
X118768761Y-59522380D02*
X118768761Y-58522380D01*
X118673523Y-58665238D01*
X118578285Y-58760476D01*
X118483047Y-58808095D01*
%TO.C,J4*%
X116610380Y-84407333D02*
X117324666Y-84407333D01*
X117467523Y-84454952D01*
X117562761Y-84550190D01*
X117610380Y-84693047D01*
X117610380Y-84788285D01*
X116943714Y-83502571D02*
X117610380Y-83502571D01*
X116562761Y-83740666D02*
X117277047Y-83978761D01*
X117277047Y-83359714D01*
%TO.C,J1*%
X171694666Y-92797380D02*
X171694666Y-93511666D01*
X171647047Y-93654523D01*
X171551809Y-93749761D01*
X171408952Y-93797380D01*
X171313714Y-93797380D01*
X172694666Y-93797380D02*
X172123238Y-93797380D01*
X172408952Y-93797380D02*
X172408952Y-92797380D01*
X172313714Y-92940238D01*
X172218476Y-93035476D01*
X172123238Y-93083095D01*
%TO.C,F1*%
X111942571Y-84407333D02*
X111942571Y-84740666D01*
X112466380Y-84740666D02*
X111466380Y-84740666D01*
X111466380Y-84264476D01*
X112466380Y-83359714D02*
X112466380Y-83931142D01*
X112466380Y-83645428D02*
X111466380Y-83645428D01*
X111609238Y-83740666D01*
X111704476Y-83835904D01*
X111752095Y-83931142D01*
%TO.C,D5*%
X159710380Y-91670095D02*
X158710380Y-91670095D01*
X158710380Y-91432000D01*
X158758000Y-91289142D01*
X158853238Y-91193904D01*
X158948476Y-91146285D01*
X159138952Y-91098666D01*
X159281809Y-91098666D01*
X159472285Y-91146285D01*
X159567523Y-91193904D01*
X159662761Y-91289142D01*
X159710380Y-91432000D01*
X159710380Y-91670095D01*
X158710380Y-90193904D02*
X158710380Y-90670095D01*
X159186571Y-90717714D01*
X159138952Y-90670095D01*
X159091333Y-90574857D01*
X159091333Y-90336761D01*
X159138952Y-90241523D01*
X159186571Y-90193904D01*
X159281809Y-90146285D01*
X159519904Y-90146285D01*
X159615142Y-90193904D01*
X159662761Y-90241523D01*
X159710380Y-90336761D01*
X159710380Y-90574857D01*
X159662761Y-90670095D01*
X159615142Y-90717714D01*
%TO.C,D4*%
X189809380Y-60936095D02*
X188809380Y-60936095D01*
X188809380Y-60698000D01*
X188857000Y-60555142D01*
X188952238Y-60459904D01*
X189047476Y-60412285D01*
X189237952Y-60364666D01*
X189380809Y-60364666D01*
X189571285Y-60412285D01*
X189666523Y-60459904D01*
X189761761Y-60555142D01*
X189809380Y-60698000D01*
X189809380Y-60936095D01*
X189142714Y-59507523D02*
X189809380Y-59507523D01*
X188761761Y-59745619D02*
X189476047Y-59983714D01*
X189476047Y-59364666D01*
%TO.C,D3*%
X148994904Y-98750380D02*
X148994904Y-97750380D01*
X149233000Y-97750380D01*
X149375857Y-97798000D01*
X149471095Y-97893238D01*
X149518714Y-97988476D01*
X149566333Y-98178952D01*
X149566333Y-98321809D01*
X149518714Y-98512285D01*
X149471095Y-98607523D01*
X149375857Y-98702761D01*
X149233000Y-98750380D01*
X148994904Y-98750380D01*
X149899666Y-97750380D02*
X150518714Y-97750380D01*
X150185380Y-98131333D01*
X150328238Y-98131333D01*
X150423476Y-98178952D01*
X150471095Y-98226571D01*
X150518714Y-98321809D01*
X150518714Y-98559904D01*
X150471095Y-98655142D01*
X150423476Y-98702761D01*
X150328238Y-98750380D01*
X150042523Y-98750380D01*
X149947285Y-98702761D01*
X149899666Y-98655142D01*
%TO.C,D2*%
X189809380Y-79478095D02*
X188809380Y-79478095D01*
X188809380Y-79240000D01*
X188857000Y-79097142D01*
X188952238Y-79001904D01*
X189047476Y-78954285D01*
X189237952Y-78906666D01*
X189380809Y-78906666D01*
X189571285Y-78954285D01*
X189666523Y-79001904D01*
X189761761Y-79097142D01*
X189809380Y-79240000D01*
X189809380Y-79478095D01*
X188904619Y-78525714D02*
X188857000Y-78478095D01*
X188809380Y-78382857D01*
X188809380Y-78144761D01*
X188857000Y-78049523D01*
X188904619Y-78001904D01*
X188999857Y-77954285D01*
X189095095Y-77954285D01*
X189237952Y-78001904D01*
X189809380Y-78573333D01*
X189809380Y-77954285D01*
%TO.C,D1*%
X161107380Y-91670095D02*
X160107380Y-91670095D01*
X160107380Y-91432000D01*
X160155000Y-91289142D01*
X160250238Y-91193904D01*
X160345476Y-91146285D01*
X160535952Y-91098666D01*
X160678809Y-91098666D01*
X160869285Y-91146285D01*
X160964523Y-91193904D01*
X161059761Y-91289142D01*
X161107380Y-91432000D01*
X161107380Y-91670095D01*
X161107380Y-90146285D02*
X161107380Y-90717714D01*
X161107380Y-90432000D02*
X160107380Y-90432000D01*
X160250238Y-90527238D01*
X160345476Y-90622476D01*
X160393095Y-90717714D01*
%TO.C,C13*%
X156583142Y-78081142D02*
X156535523Y-78128761D01*
X156392666Y-78176380D01*
X156297428Y-78176380D01*
X156154571Y-78128761D01*
X156059333Y-78033523D01*
X156011714Y-77938285D01*
X155964095Y-77747809D01*
X155964095Y-77604952D01*
X156011714Y-77414476D01*
X156059333Y-77319238D01*
X156154571Y-77224000D01*
X156297428Y-77176380D01*
X156392666Y-77176380D01*
X156535523Y-77224000D01*
X156583142Y-77271619D01*
X157535523Y-78176380D02*
X156964095Y-78176380D01*
X157249809Y-78176380D02*
X157249809Y-77176380D01*
X157154571Y-77319238D01*
X157059333Y-77414476D01*
X156964095Y-77462095D01*
X157868857Y-77176380D02*
X158487904Y-77176380D01*
X158154571Y-77557333D01*
X158297428Y-77557333D01*
X158392666Y-77604952D01*
X158440285Y-77652571D01*
X158487904Y-77747809D01*
X158487904Y-77985904D01*
X158440285Y-78081142D01*
X158392666Y-78128761D01*
X158297428Y-78176380D01*
X158011714Y-78176380D01*
X157916476Y-78128761D01*
X157868857Y-78081142D01*
%TO.C,C12*%
X162409142Y-91701857D02*
X162456761Y-91749476D01*
X162504380Y-91892333D01*
X162504380Y-91987571D01*
X162456761Y-92130428D01*
X162361523Y-92225666D01*
X162266285Y-92273285D01*
X162075809Y-92320904D01*
X161932952Y-92320904D01*
X161742476Y-92273285D01*
X161647238Y-92225666D01*
X161552000Y-92130428D01*
X161504380Y-91987571D01*
X161504380Y-91892333D01*
X161552000Y-91749476D01*
X161599619Y-91701857D01*
X162504380Y-90749476D02*
X162504380Y-91320904D01*
X162504380Y-91035190D02*
X161504380Y-91035190D01*
X161647238Y-91130428D01*
X161742476Y-91225666D01*
X161790095Y-91320904D01*
X161599619Y-90368523D02*
X161552000Y-90320904D01*
X161504380Y-90225666D01*
X161504380Y-89987571D01*
X161552000Y-89892333D01*
X161599619Y-89844714D01*
X161694857Y-89797095D01*
X161790095Y-89797095D01*
X161932952Y-89844714D01*
X162504380Y-90416142D01*
X162504380Y-89797095D01*
%TO.C,C11*%
X149217142Y-93321142D02*
X149169523Y-93368761D01*
X149026666Y-93416380D01*
X148931428Y-93416380D01*
X148788571Y-93368761D01*
X148693333Y-93273523D01*
X148645714Y-93178285D01*
X148598095Y-92987809D01*
X148598095Y-92844952D01*
X148645714Y-92654476D01*
X148693333Y-92559238D01*
X148788571Y-92464000D01*
X148931428Y-92416380D01*
X149026666Y-92416380D01*
X149169523Y-92464000D01*
X149217142Y-92511619D01*
X150169523Y-93416380D02*
X149598095Y-93416380D01*
X149883809Y-93416380D02*
X149883809Y-92416380D01*
X149788571Y-92559238D01*
X149693333Y-92654476D01*
X149598095Y-92702095D01*
X151121904Y-93416380D02*
X150550476Y-93416380D01*
X150836190Y-93416380D02*
X150836190Y-92416380D01*
X150740952Y-92559238D01*
X150645714Y-92654476D01*
X150550476Y-92702095D01*
%TO.C,C10*%
X139565142Y-93321142D02*
X139517523Y-93368761D01*
X139374666Y-93416380D01*
X139279428Y-93416380D01*
X139136571Y-93368761D01*
X139041333Y-93273523D01*
X138993714Y-93178285D01*
X138946095Y-92987809D01*
X138946095Y-92844952D01*
X138993714Y-92654476D01*
X139041333Y-92559238D01*
X139136571Y-92464000D01*
X139279428Y-92416380D01*
X139374666Y-92416380D01*
X139517523Y-92464000D01*
X139565142Y-92511619D01*
X140517523Y-93416380D02*
X139946095Y-93416380D01*
X140231809Y-93416380D02*
X140231809Y-92416380D01*
X140136571Y-92559238D01*
X140041333Y-92654476D01*
X139946095Y-92702095D01*
X141136571Y-92416380D02*
X141231809Y-92416380D01*
X141327047Y-92464000D01*
X141374666Y-92511619D01*
X141422285Y-92606857D01*
X141469904Y-92797333D01*
X141469904Y-93035428D01*
X141422285Y-93225904D01*
X141374666Y-93321142D01*
X141327047Y-93368761D01*
X141231809Y-93416380D01*
X141136571Y-93416380D01*
X141041333Y-93368761D01*
X140993714Y-93321142D01*
X140946095Y-93225904D01*
X140898476Y-93035428D01*
X140898476Y-92797333D01*
X140946095Y-92606857D01*
X140993714Y-92511619D01*
X141041333Y-92464000D01*
X141136571Y-92416380D01*
%TO.C,C9*%
X133564333Y-98655142D02*
X133516714Y-98702761D01*
X133373857Y-98750380D01*
X133278619Y-98750380D01*
X133135761Y-98702761D01*
X133040523Y-98607523D01*
X132992904Y-98512285D01*
X132945285Y-98321809D01*
X132945285Y-98178952D01*
X132992904Y-97988476D01*
X133040523Y-97893238D01*
X133135761Y-97798000D01*
X133278619Y-97750380D01*
X133373857Y-97750380D01*
X133516714Y-97798000D01*
X133564333Y-97845619D01*
X134040523Y-98750380D02*
X134231000Y-98750380D01*
X134326238Y-98702761D01*
X134373857Y-98655142D01*
X134469095Y-98512285D01*
X134516714Y-98321809D01*
X134516714Y-97940857D01*
X134469095Y-97845619D01*
X134421476Y-97798000D01*
X134326238Y-97750380D01*
X134135761Y-97750380D01*
X134040523Y-97798000D01*
X133992904Y-97845619D01*
X133945285Y-97940857D01*
X133945285Y-98178952D01*
X133992904Y-98274190D01*
X134040523Y-98321809D01*
X134135761Y-98369428D01*
X134326238Y-98369428D01*
X134421476Y-98321809D01*
X134469095Y-98274190D01*
X134516714Y-98178952D01*
%TO.C,C8*%
X118077333Y-66397142D02*
X118029714Y-66444761D01*
X117886857Y-66492380D01*
X117791619Y-66492380D01*
X117648761Y-66444761D01*
X117553523Y-66349523D01*
X117505904Y-66254285D01*
X117458285Y-66063809D01*
X117458285Y-65920952D01*
X117505904Y-65730476D01*
X117553523Y-65635238D01*
X117648761Y-65540000D01*
X117791619Y-65492380D01*
X117886857Y-65492380D01*
X118029714Y-65540000D01*
X118077333Y-65587619D01*
X118648761Y-65920952D02*
X118553523Y-65873333D01*
X118505904Y-65825714D01*
X118458285Y-65730476D01*
X118458285Y-65682857D01*
X118505904Y-65587619D01*
X118553523Y-65540000D01*
X118648761Y-65492380D01*
X118839238Y-65492380D01*
X118934476Y-65540000D01*
X118982095Y-65587619D01*
X119029714Y-65682857D01*
X119029714Y-65730476D01*
X118982095Y-65825714D01*
X118934476Y-65873333D01*
X118839238Y-65920952D01*
X118648761Y-65920952D01*
X118553523Y-65968571D01*
X118505904Y-66016190D01*
X118458285Y-66111428D01*
X118458285Y-66301904D01*
X118505904Y-66397142D01*
X118553523Y-66444761D01*
X118648761Y-66492380D01*
X118839238Y-66492380D01*
X118934476Y-66444761D01*
X118982095Y-66397142D01*
X119029714Y-66301904D01*
X119029714Y-66111428D01*
X118982095Y-66016190D01*
X118934476Y-65968571D01*
X118839238Y-65920952D01*
%TO.C,C7*%
X181951333Y-96750142D02*
X181903714Y-96797761D01*
X181760857Y-96845380D01*
X181665619Y-96845380D01*
X181522761Y-96797761D01*
X181427523Y-96702523D01*
X181379904Y-96607285D01*
X181332285Y-96416809D01*
X181332285Y-96273952D01*
X181379904Y-96083476D01*
X181427523Y-95988238D01*
X181522761Y-95893000D01*
X181665619Y-95845380D01*
X181760857Y-95845380D01*
X181903714Y-95893000D01*
X181951333Y-95940619D01*
X182284666Y-95845380D02*
X182951333Y-95845380D01*
X182522761Y-96845380D01*
%TO.C,C6*%
X181951333Y-81002142D02*
X181903714Y-81049761D01*
X181760857Y-81097380D01*
X181665619Y-81097380D01*
X181522761Y-81049761D01*
X181427523Y-80954523D01*
X181379904Y-80859285D01*
X181332285Y-80668809D01*
X181332285Y-80525952D01*
X181379904Y-80335476D01*
X181427523Y-80240238D01*
X181522761Y-80145000D01*
X181665619Y-80097380D01*
X181760857Y-80097380D01*
X181903714Y-80145000D01*
X181951333Y-80192619D01*
X182808476Y-80097380D02*
X182618000Y-80097380D01*
X182522761Y-80145000D01*
X182475142Y-80192619D01*
X182379904Y-80335476D01*
X182332285Y-80525952D01*
X182332285Y-80906904D01*
X182379904Y-81002142D01*
X182427523Y-81049761D01*
X182522761Y-81097380D01*
X182713238Y-81097380D01*
X182808476Y-81049761D01*
X182856095Y-81002142D01*
X182903714Y-80906904D01*
X182903714Y-80668809D01*
X182856095Y-80573571D01*
X182808476Y-80525952D01*
X182713238Y-80478333D01*
X182522761Y-80478333D01*
X182427523Y-80525952D01*
X182379904Y-80573571D01*
X182332285Y-80668809D01*
%TO.C,C5*%
X165330142Y-86526666D02*
X165377761Y-86574285D01*
X165425380Y-86717142D01*
X165425380Y-86812380D01*
X165377761Y-86955238D01*
X165282523Y-87050476D01*
X165187285Y-87098095D01*
X164996809Y-87145714D01*
X164853952Y-87145714D01*
X164663476Y-87098095D01*
X164568238Y-87050476D01*
X164473000Y-86955238D01*
X164425380Y-86812380D01*
X164425380Y-86717142D01*
X164473000Y-86574285D01*
X164520619Y-86526666D01*
X164425380Y-85621904D02*
X164425380Y-86098095D01*
X164901571Y-86145714D01*
X164853952Y-86098095D01*
X164806333Y-86002857D01*
X164806333Y-85764761D01*
X164853952Y-85669523D01*
X164901571Y-85621904D01*
X164996809Y-85574285D01*
X165234904Y-85574285D01*
X165330142Y-85621904D01*
X165377761Y-85669523D01*
X165425380Y-85764761D01*
X165425380Y-86002857D01*
X165377761Y-86098095D01*
X165330142Y-86145714D01*
%TO.C,C4*%
X165330142Y-90463666D02*
X165377761Y-90511285D01*
X165425380Y-90654142D01*
X165425380Y-90749380D01*
X165377761Y-90892238D01*
X165282523Y-90987476D01*
X165187285Y-91035095D01*
X164996809Y-91082714D01*
X164853952Y-91082714D01*
X164663476Y-91035095D01*
X164568238Y-90987476D01*
X164473000Y-90892238D01*
X164425380Y-90749380D01*
X164425380Y-90654142D01*
X164473000Y-90511285D01*
X164520619Y-90463666D01*
X164758714Y-89606523D02*
X165425380Y-89606523D01*
X164377761Y-89844619D02*
X165092047Y-90082714D01*
X165092047Y-89463666D01*
%TO.C,C3*%
X157059333Y-42775142D02*
X157011714Y-42822761D01*
X156868857Y-42870380D01*
X156773619Y-42870380D01*
X156630761Y-42822761D01*
X156535523Y-42727523D01*
X156487904Y-42632285D01*
X156440285Y-42441809D01*
X156440285Y-42298952D01*
X156487904Y-42108476D01*
X156535523Y-42013238D01*
X156630761Y-41918000D01*
X156773619Y-41870380D01*
X156868857Y-41870380D01*
X157011714Y-41918000D01*
X157059333Y-41965619D01*
X157392666Y-41870380D02*
X158011714Y-41870380D01*
X157678380Y-42251333D01*
X157821238Y-42251333D01*
X157916476Y-42298952D01*
X157964095Y-42346571D01*
X158011714Y-42441809D01*
X158011714Y-42679904D01*
X157964095Y-42775142D01*
X157916476Y-42822761D01*
X157821238Y-42870380D01*
X157535523Y-42870380D01*
X157440285Y-42822761D01*
X157392666Y-42775142D01*
%TO.C,C2*%
X157059333Y-65127142D02*
X157011714Y-65174761D01*
X156868857Y-65222380D01*
X156773619Y-65222380D01*
X156630761Y-65174761D01*
X156535523Y-65079523D01*
X156487904Y-64984285D01*
X156440285Y-64793809D01*
X156440285Y-64650952D01*
X156487904Y-64460476D01*
X156535523Y-64365238D01*
X156630761Y-64270000D01*
X156773619Y-64222380D01*
X156868857Y-64222380D01*
X157011714Y-64270000D01*
X157059333Y-64317619D01*
X157440285Y-64317619D02*
X157487904Y-64270000D01*
X157583142Y-64222380D01*
X157821238Y-64222380D01*
X157916476Y-64270000D01*
X157964095Y-64317619D01*
X158011714Y-64412857D01*
X158011714Y-64508095D01*
X157964095Y-64650952D01*
X157392666Y-65222380D01*
X158011714Y-65222380D01*
%TO.C,C1*%
X157059333Y-59285142D02*
X157011714Y-59332761D01*
X156868857Y-59380380D01*
X156773619Y-59380380D01*
X156630761Y-59332761D01*
X156535523Y-59237523D01*
X156487904Y-59142285D01*
X156440285Y-58951809D01*
X156440285Y-58808952D01*
X156487904Y-58618476D01*
X156535523Y-58523238D01*
X156630761Y-58428000D01*
X156773619Y-58380380D01*
X156868857Y-58380380D01*
X157011714Y-58428000D01*
X157059333Y-58475619D01*
X158011714Y-59380380D02*
X157440285Y-59380380D01*
X157726000Y-59380380D02*
X157726000Y-58380380D01*
X157630761Y-58523238D01*
X157535523Y-58618476D01*
X157440285Y-58666095D01*
%TD*%
M02*
