%TF.GenerationSoftware,KiCad,Pcbnew,(5.1.9)-1*%
%TF.CreationDate,2021-09-27T19:56:37+03:00*%
%TF.ProjectId,ESP8266DevBoard,45535038-3236-4364-9465-76426f617264,1.1*%
%TF.SameCoordinates,Original*%
%TF.FileFunction,Soldermask,Bot*%
%TF.FilePolarity,Negative*%
%FSLAX46Y46*%
G04 Gerber Fmt 4.6, Leading zero omitted, Abs format (unit mm)*
G04 Created by KiCad (PCBNEW (5.1.9)-1) date 2021-09-27 19:56:37*
%MOMM*%
%LPD*%
G01*
G04 APERTURE LIST*
%ADD10C,0.100000*%
%ADD11C,1.600000*%
%ADD12R,1.600000X1.600000*%
%ADD13C,3.200000*%
%ADD14C,6.400000*%
%ADD15C,1.700000*%
%ADD16C,2.200000*%
%ADD17C,1.800000*%
%ADD18R,3.000000X3.000000*%
%ADD19C,3.000000*%
%ADD20C,3.800000*%
%ADD21R,1.800000X1.800000*%
%ADD22C,2.400000*%
G04 APERTURE END LIST*
D10*
%TO.C,SW1*%
X158461000Y-94655000D02*
G75*
G03*
X158461000Y-94655000I-1143000J0D01*
G01*
X163957000Y-97155000D02*
G75*
G03*
X163957000Y-97155000I-889000J0D01*
G01*
X159457000Y-97155000D02*
G75*
G03*
X159457000Y-97155000I-889000J0D01*
G01*
X165461000Y-94655000D02*
G75*
G03*
X165461000Y-94655000I-1143000J0D01*
G01*
%TD*%
D11*
%TO.C,J3*%
X192913000Y-56388000D03*
X195453000Y-57658000D03*
X192913000Y-58928000D03*
X195453000Y-60198000D03*
X192913000Y-61468000D03*
X195453000Y-62738000D03*
X192913000Y-64008000D03*
D12*
X195453000Y-65278000D03*
D13*
X201803000Y-66548000D03*
X201803000Y-55118000D03*
%TD*%
D11*
%TO.C,J2*%
X192913000Y-74930000D03*
X195453000Y-76200000D03*
X192913000Y-77470000D03*
X195453000Y-78740000D03*
X192913000Y-80010000D03*
X195453000Y-81280000D03*
X192913000Y-82550000D03*
D12*
X195453000Y-83820000D03*
D13*
X201803000Y-85090000D03*
X201803000Y-73660000D03*
%TD*%
D14*
%TO.C,H1*%
X105050000Y-70000000D03*
%TD*%
%TO.C,H3*%
X187800000Y-50000000D03*
%TD*%
%TO.C,H2*%
X187800000Y-90000000D03*
%TD*%
D15*
%TO.C,SW1*%
X163068000Y-97155000D03*
X158568000Y-97155000D03*
D16*
X164318000Y-94655000D03*
X157318000Y-94655000D03*
%TD*%
D17*
%TO.C,RV1*%
X122054000Y-71280000D03*
X114554000Y-68580000D03*
%TD*%
D18*
%TO.C,PS1*%
X142748000Y-45466000D03*
D19*
X139998000Y-83966000D03*
X131998000Y-45466000D03*
X131998000Y-83966000D03*
%TD*%
D11*
%TO.C,L1*%
X114364000Y-55570000D03*
X114364000Y-48570000D03*
X122364000Y-48570000D03*
X122364000Y-55570000D03*
%TD*%
D20*
%TO.C,J4*%
X121158000Y-78074000D03*
X121158000Y-90074000D03*
%TD*%
D17*
%TO.C,D3*%
X154559000Y-96647000D03*
D21*
X152019000Y-96647000D03*
%TD*%
D22*
%TO.C,C8*%
X125744000Y-62484000D03*
X110744000Y-62484000D03*
%TD*%
M02*
