%TF.GenerationSoftware,KiCad,Pcbnew,(5.1.9)-1*%
%TF.CreationDate,2022-09-19T23:43:11+03:00*%
%TF.ProjectId,ESP8266DevBoard,45535038-3236-4364-9465-76426f617264,1.1*%
%TF.SameCoordinates,Original*%
%TF.FileFunction,Profile,NP*%
%FSLAX46Y46*%
G04 Gerber Fmt 4.6, Leading zero omitted, Abs format (unit mm)*
G04 Created by KiCad (PCBNEW (5.1.9)-1) date 2022-09-19 23:43:11*
%MOMM*%
%LPD*%
G01*
G04 APERTURE LIST*
%TA.AperFunction,Profile*%
%ADD10C,0.050000*%
%TD*%
G04 APERTURE END LIST*
D10*
X110000000Y-42000000D02*
G75*
G02*
X112000000Y-40000000I2000000J0D01*
G01*
X100000000Y-50500000D02*
G75*
G02*
X102000000Y-48500000I2000000J0D01*
G01*
X102000000Y-91500000D02*
G75*
G02*
X100000000Y-89500000I0J2000000D01*
G01*
X112000000Y-100000000D02*
G75*
G02*
X110000000Y-98000000I0J2000000D01*
G01*
X195000000Y-98000000D02*
G75*
G02*
X193000000Y-100000000I-2000000J0D01*
G01*
X205000000Y-89500000D02*
G75*
G02*
X203000000Y-91500000I-2000000J0D01*
G01*
X203000000Y-48500000D02*
G75*
G02*
X205000000Y-50500000I0J-2000000D01*
G01*
X193000000Y-40000000D02*
G75*
G02*
X195000000Y-42000000I0J-2000000D01*
G01*
X195000000Y-45000000D02*
X195000000Y-42000000D01*
X198500000Y-48500000D02*
X203000000Y-48500000D01*
X195000000Y-95000000D02*
X195000000Y-98000000D01*
X198500000Y-91500000D02*
X203000000Y-91500000D01*
X195000000Y-95000000D02*
G75*
G02*
X198500000Y-91500000I3500000J0D01*
G01*
X198500000Y-48500000D02*
G75*
G02*
X195000000Y-45000000I0J3500000D01*
G01*
X106500000Y-48500000D02*
X102000000Y-48500000D01*
X110000000Y-45000000D02*
X110000000Y-42000000D01*
X110000000Y-45000000D02*
G75*
G02*
X106500000Y-48500000I-3500000J0D01*
G01*
X106500000Y-91500000D02*
X102000000Y-91500000D01*
X110000000Y-95000000D02*
X110000000Y-98000000D01*
X106500000Y-91500000D02*
G75*
G02*
X110000000Y-95000000I0J-3500000D01*
G01*
X205000000Y-50500000D02*
X205000000Y-89500000D01*
X100000000Y-89500000D02*
X100000000Y-50500000D01*
X112000000Y-40000000D02*
X193000000Y-40000000D01*
X112000000Y-100000000D02*
X193000000Y-100000000D01*
M02*
