%TF.GenerationSoftware,KiCad,Pcbnew,(5.1.9)-1*%
%TF.CreationDate,2021-09-27T19:56:37+03:00*%
%TF.ProjectId,ESP8266DevBoard,45535038-3236-4364-9465-76426f617264,1.1*%
%TF.SameCoordinates,Original*%
%TF.FileFunction,Legend,Bot*%
%TF.FilePolarity,Positive*%
%FSLAX46Y46*%
G04 Gerber Fmt 4.6, Leading zero omitted, Abs format (unit mm)*
G04 Created by KiCad (PCBNEW (5.1.9)-1) date 2021-09-27 19:56:37*
%MOMM*%
%LPD*%
G01*
G04 APERTURE LIST*
%ADD10C,0.150000*%
%ADD11C,0.010000*%
G04 APERTURE END LIST*
D10*
X135532523Y-98623380D02*
X135865857Y-98147190D01*
X136103952Y-98623380D02*
X136103952Y-97623380D01*
X135723000Y-97623380D01*
X135627761Y-97671000D01*
X135580142Y-97718619D01*
X135532523Y-97813857D01*
X135532523Y-97956714D01*
X135580142Y-98051952D01*
X135627761Y-98099571D01*
X135723000Y-98147190D01*
X136103952Y-98147190D01*
X134723000Y-98575761D02*
X134818238Y-98623380D01*
X135008714Y-98623380D01*
X135103952Y-98575761D01*
X135151571Y-98480523D01*
X135151571Y-98099571D01*
X135103952Y-98004333D01*
X135008714Y-97956714D01*
X134818238Y-97956714D01*
X134723000Y-98004333D01*
X134675380Y-98099571D01*
X134675380Y-98194809D01*
X135151571Y-98290047D01*
X134342047Y-97956714D02*
X134103952Y-98623380D01*
X133865857Y-97956714D01*
X133484904Y-98528142D02*
X133437285Y-98575761D01*
X133484904Y-98623380D01*
X133532523Y-98575761D01*
X133484904Y-98528142D01*
X133484904Y-98623380D01*
X133484904Y-98004333D02*
X133437285Y-98051952D01*
X133484904Y-98099571D01*
X133532523Y-98051952D01*
X133484904Y-98004333D01*
X133484904Y-98099571D01*
X131723000Y-98623380D02*
X132294428Y-98623380D01*
X132008714Y-98623380D02*
X132008714Y-97623380D01*
X132103952Y-97766238D01*
X132199190Y-97861476D01*
X132294428Y-97909095D01*
X131294428Y-98528142D02*
X131246809Y-98575761D01*
X131294428Y-98623380D01*
X131342047Y-98575761D01*
X131294428Y-98528142D01*
X131294428Y-98623380D01*
X130294428Y-98623380D02*
X130865857Y-98623380D01*
X130580142Y-98623380D02*
X130580142Y-97623380D01*
X130675380Y-97766238D01*
X130770619Y-97861476D01*
X130865857Y-97909095D01*
D11*
%TO.C,REF\u002A\u002A*%
G36*
X146814100Y-68885903D02*
G01*
X146702550Y-68941522D01*
X146604092Y-69043931D01*
X146576977Y-69081864D01*
X146547438Y-69131500D01*
X146528272Y-69185412D01*
X146517307Y-69257364D01*
X146512371Y-69361122D01*
X146511287Y-69498101D01*
X146516182Y-69685815D01*
X146533196Y-69826758D01*
X146565823Y-69931908D01*
X146617558Y-70012243D01*
X146691896Y-70078741D01*
X146697358Y-70082678D01*
X146770620Y-70122953D01*
X146858840Y-70142880D01*
X146971038Y-70147793D01*
X147153433Y-70147793D01*
X147153509Y-70324857D01*
X147155207Y-70423470D01*
X147165550Y-70481314D01*
X147192578Y-70516006D01*
X147244332Y-70545164D01*
X147256761Y-70551121D01*
X147314923Y-70579039D01*
X147359956Y-70596672D01*
X147393441Y-70598194D01*
X147416962Y-70577781D01*
X147432100Y-70529607D01*
X147440437Y-70447846D01*
X147443556Y-70326672D01*
X147443040Y-70160260D01*
X147440471Y-69942785D01*
X147439668Y-69877736D01*
X147436778Y-69653502D01*
X147434188Y-69506821D01*
X147153586Y-69506821D01*
X147152009Y-69631326D01*
X147145000Y-69712787D01*
X147129142Y-69766515D01*
X147101019Y-69807823D01*
X147081925Y-69827971D01*
X147003865Y-69886921D01*
X146934753Y-69891720D01*
X146863440Y-69843038D01*
X146861632Y-69841241D01*
X146832617Y-69803618D01*
X146814967Y-69752484D01*
X146806064Y-69673738D01*
X146803291Y-69553276D01*
X146803241Y-69526588D01*
X146809942Y-69360583D01*
X146831752Y-69245505D01*
X146871235Y-69175254D01*
X146930956Y-69143729D01*
X146965472Y-69140552D01*
X147047389Y-69155460D01*
X147103579Y-69204548D01*
X147137402Y-69294362D01*
X147152220Y-69431445D01*
X147153586Y-69506821D01*
X147434188Y-69506821D01*
X147433713Y-69479952D01*
X147429753Y-69349382D01*
X147424174Y-69254087D01*
X147416254Y-69186364D01*
X147405269Y-69138507D01*
X147390499Y-69102813D01*
X147371218Y-69071578D01*
X147362951Y-69059824D01*
X147253288Y-68948797D01*
X147114635Y-68885847D01*
X146954246Y-68868297D01*
X146814100Y-68885903D01*
G37*
X146814100Y-68885903D02*
X146702550Y-68941522D01*
X146604092Y-69043931D01*
X146576977Y-69081864D01*
X146547438Y-69131500D01*
X146528272Y-69185412D01*
X146517307Y-69257364D01*
X146512371Y-69361122D01*
X146511287Y-69498101D01*
X146516182Y-69685815D01*
X146533196Y-69826758D01*
X146565823Y-69931908D01*
X146617558Y-70012243D01*
X146691896Y-70078741D01*
X146697358Y-70082678D01*
X146770620Y-70122953D01*
X146858840Y-70142880D01*
X146971038Y-70147793D01*
X147153433Y-70147793D01*
X147153509Y-70324857D01*
X147155207Y-70423470D01*
X147165550Y-70481314D01*
X147192578Y-70516006D01*
X147244332Y-70545164D01*
X147256761Y-70551121D01*
X147314923Y-70579039D01*
X147359956Y-70596672D01*
X147393441Y-70598194D01*
X147416962Y-70577781D01*
X147432100Y-70529607D01*
X147440437Y-70447846D01*
X147443556Y-70326672D01*
X147443040Y-70160260D01*
X147440471Y-69942785D01*
X147439668Y-69877736D01*
X147436778Y-69653502D01*
X147434188Y-69506821D01*
X147153586Y-69506821D01*
X147152009Y-69631326D01*
X147145000Y-69712787D01*
X147129142Y-69766515D01*
X147101019Y-69807823D01*
X147081925Y-69827971D01*
X147003865Y-69886921D01*
X146934753Y-69891720D01*
X146863440Y-69843038D01*
X146861632Y-69841241D01*
X146832617Y-69803618D01*
X146814967Y-69752484D01*
X146806064Y-69673738D01*
X146803291Y-69553276D01*
X146803241Y-69526588D01*
X146809942Y-69360583D01*
X146831752Y-69245505D01*
X146871235Y-69175254D01*
X146930956Y-69143729D01*
X146965472Y-69140552D01*
X147047389Y-69155460D01*
X147103579Y-69204548D01*
X147137402Y-69294362D01*
X147152220Y-69431445D01*
X147153586Y-69506821D01*
X147434188Y-69506821D01*
X147433713Y-69479952D01*
X147429753Y-69349382D01*
X147424174Y-69254087D01*
X147416254Y-69186364D01*
X147405269Y-69138507D01*
X147390499Y-69102813D01*
X147371218Y-69071578D01*
X147362951Y-69059824D01*
X147253288Y-68948797D01*
X147114635Y-68885847D01*
X146954246Y-68868297D01*
X146814100Y-68885903D01*
G36*
X144568571Y-68901719D02*
G01*
X144474877Y-68955914D01*
X144409736Y-69009707D01*
X144362093Y-69066066D01*
X144329272Y-69134987D01*
X144308594Y-69226468D01*
X144297380Y-69350506D01*
X144292951Y-69517098D01*
X144292437Y-69636851D01*
X144292437Y-70077659D01*
X144416517Y-70133283D01*
X144540598Y-70188907D01*
X144555195Y-69706095D01*
X144561227Y-69525779D01*
X144567555Y-69394901D01*
X144575394Y-69304511D01*
X144585963Y-69245664D01*
X144600477Y-69209413D01*
X144620152Y-69186810D01*
X144626465Y-69181917D01*
X144722112Y-69143706D01*
X144818793Y-69158827D01*
X144876345Y-69198943D01*
X144899755Y-69227370D01*
X144915961Y-69264672D01*
X144926259Y-69321223D01*
X144931951Y-69407394D01*
X144934336Y-69533558D01*
X144934736Y-69665042D01*
X144934814Y-69829999D01*
X144937639Y-69946761D01*
X144947093Y-70025510D01*
X144967060Y-70076431D01*
X145001424Y-70109706D01*
X145054068Y-70135520D01*
X145124383Y-70162344D01*
X145201180Y-70191542D01*
X145192038Y-69673346D01*
X145188357Y-69486539D01*
X145184050Y-69348490D01*
X145177877Y-69249568D01*
X145168598Y-69180145D01*
X145154973Y-69130590D01*
X145135761Y-69091273D01*
X145112598Y-69056584D01*
X145000848Y-68945770D01*
X144864487Y-68881689D01*
X144716175Y-68866339D01*
X144568571Y-68901719D01*
G37*
X144568571Y-68901719D02*
X144474877Y-68955914D01*
X144409736Y-69009707D01*
X144362093Y-69066066D01*
X144329272Y-69134987D01*
X144308594Y-69226468D01*
X144297380Y-69350506D01*
X144292951Y-69517098D01*
X144292437Y-69636851D01*
X144292437Y-70077659D01*
X144416517Y-70133283D01*
X144540598Y-70188907D01*
X144555195Y-69706095D01*
X144561227Y-69525779D01*
X144567555Y-69394901D01*
X144575394Y-69304511D01*
X144585963Y-69245664D01*
X144600477Y-69209413D01*
X144620152Y-69186810D01*
X144626465Y-69181917D01*
X144722112Y-69143706D01*
X144818793Y-69158827D01*
X144876345Y-69198943D01*
X144899755Y-69227370D01*
X144915961Y-69264672D01*
X144926259Y-69321223D01*
X144931951Y-69407394D01*
X144934336Y-69533558D01*
X144934736Y-69665042D01*
X144934814Y-69829999D01*
X144937639Y-69946761D01*
X144947093Y-70025510D01*
X144967060Y-70076431D01*
X145001424Y-70109706D01*
X145054068Y-70135520D01*
X145124383Y-70162344D01*
X145201180Y-70191542D01*
X145192038Y-69673346D01*
X145188357Y-69486539D01*
X145184050Y-69348490D01*
X145177877Y-69249568D01*
X145168598Y-69180145D01*
X145154973Y-69130590D01*
X145135761Y-69091273D01*
X145112598Y-69056584D01*
X145000848Y-68945770D01*
X144864487Y-68881689D01*
X144716175Y-68866339D01*
X144568571Y-68901719D01*
G36*
X147937779Y-68890015D02*
G01*
X147800939Y-68961968D01*
X147699949Y-69077766D01*
X147664075Y-69152213D01*
X147636161Y-69263992D01*
X147621871Y-69405227D01*
X147620516Y-69559371D01*
X147631405Y-69709879D01*
X147653847Y-69840205D01*
X147687150Y-69933803D01*
X147697385Y-69949922D01*
X147818618Y-70070249D01*
X147962613Y-70142317D01*
X148118861Y-70163408D01*
X148276852Y-70130802D01*
X148320820Y-70111253D01*
X148406444Y-70051012D01*
X148481592Y-69971135D01*
X148488694Y-69961004D01*
X148517561Y-69912181D01*
X148536643Y-69859990D01*
X148547916Y-69791285D01*
X148553355Y-69692918D01*
X148554938Y-69551744D01*
X148554965Y-69520092D01*
X148554893Y-69510019D01*
X148263011Y-69510019D01*
X148261313Y-69643256D01*
X148254628Y-69731674D01*
X148240575Y-69788785D01*
X148216771Y-69828102D01*
X148204621Y-69841241D01*
X148134764Y-69891172D01*
X148066941Y-69888895D01*
X147998365Y-69845584D01*
X147957465Y-69799346D01*
X147933242Y-69731857D01*
X147919639Y-69625433D01*
X147918706Y-69613020D01*
X147916384Y-69420147D01*
X147940650Y-69276900D01*
X147991176Y-69184160D01*
X148067632Y-69142807D01*
X148094924Y-69140552D01*
X148166589Y-69151893D01*
X148215610Y-69191184D01*
X148245582Y-69266326D01*
X148260101Y-69385222D01*
X148263011Y-69510019D01*
X148554893Y-69510019D01*
X148553878Y-69369659D01*
X148549312Y-69264549D01*
X148539312Y-69191714D01*
X148521921Y-69138108D01*
X148495184Y-69090681D01*
X148489276Y-69081864D01*
X148389968Y-68963007D01*
X148281758Y-68894008D01*
X148150019Y-68866619D01*
X148105283Y-68865281D01*
X147937779Y-68890015D01*
G37*
X147937779Y-68890015D02*
X147800939Y-68961968D01*
X147699949Y-69077766D01*
X147664075Y-69152213D01*
X147636161Y-69263992D01*
X147621871Y-69405227D01*
X147620516Y-69559371D01*
X147631405Y-69709879D01*
X147653847Y-69840205D01*
X147687150Y-69933803D01*
X147697385Y-69949922D01*
X147818618Y-70070249D01*
X147962613Y-70142317D01*
X148118861Y-70163408D01*
X148276852Y-70130802D01*
X148320820Y-70111253D01*
X148406444Y-70051012D01*
X148481592Y-69971135D01*
X148488694Y-69961004D01*
X148517561Y-69912181D01*
X148536643Y-69859990D01*
X148547916Y-69791285D01*
X148553355Y-69692918D01*
X148554938Y-69551744D01*
X148554965Y-69520092D01*
X148554893Y-69510019D01*
X148263011Y-69510019D01*
X148261313Y-69643256D01*
X148254628Y-69731674D01*
X148240575Y-69788785D01*
X148216771Y-69828102D01*
X148204621Y-69841241D01*
X148134764Y-69891172D01*
X148066941Y-69888895D01*
X147998365Y-69845584D01*
X147957465Y-69799346D01*
X147933242Y-69731857D01*
X147919639Y-69625433D01*
X147918706Y-69613020D01*
X147916384Y-69420147D01*
X147940650Y-69276900D01*
X147991176Y-69184160D01*
X148067632Y-69142807D01*
X148094924Y-69140552D01*
X148166589Y-69151893D01*
X148215610Y-69191184D01*
X148245582Y-69266326D01*
X148260101Y-69385222D01*
X148263011Y-69510019D01*
X148554893Y-69510019D01*
X148553878Y-69369659D01*
X148549312Y-69264549D01*
X148539312Y-69191714D01*
X148521921Y-69138108D01*
X148495184Y-69090681D01*
X148489276Y-69081864D01*
X148389968Y-68963007D01*
X148281758Y-68894008D01*
X148150019Y-68866619D01*
X148105283Y-68865281D01*
X147937779Y-68890015D01*
G36*
X145670448Y-68908676D02*
G01*
X145555342Y-68986111D01*
X145466389Y-69097949D01*
X145413251Y-69240265D01*
X145402503Y-69345015D01*
X145403724Y-69388726D01*
X145413944Y-69422194D01*
X145442039Y-69452179D01*
X145496884Y-69485440D01*
X145587355Y-69528738D01*
X145722328Y-69588833D01*
X145723011Y-69589134D01*
X145847249Y-69646037D01*
X145949127Y-69696565D01*
X146018233Y-69735280D01*
X146044154Y-69756740D01*
X146044161Y-69756913D01*
X146021315Y-69803644D01*
X145967891Y-69855154D01*
X145906558Y-69892261D01*
X145875485Y-69899632D01*
X145790711Y-69874138D01*
X145717707Y-69810291D01*
X145682087Y-69740094D01*
X145647820Y-69688343D01*
X145580697Y-69629409D01*
X145501792Y-69578496D01*
X145432179Y-69550809D01*
X145417623Y-69549287D01*
X145401237Y-69574321D01*
X145400250Y-69638311D01*
X145412292Y-69724593D01*
X145434993Y-69816501D01*
X145465986Y-69897369D01*
X145467552Y-69900509D01*
X145560819Y-70030734D01*
X145681696Y-70119311D01*
X145818973Y-70162786D01*
X145961440Y-70157706D01*
X146097888Y-70100616D01*
X146103955Y-70096602D01*
X146211290Y-69999326D01*
X146281868Y-69872409D01*
X146320926Y-69705526D01*
X146326168Y-69658639D01*
X146335452Y-69437329D01*
X146324322Y-69334124D01*
X146044161Y-69334124D01*
X146040521Y-69398503D01*
X146020611Y-69417291D01*
X145970974Y-69403235D01*
X145892733Y-69370009D01*
X145805274Y-69328359D01*
X145803101Y-69327256D01*
X145728970Y-69288265D01*
X145699219Y-69262244D01*
X145706555Y-69234965D01*
X145737447Y-69199121D01*
X145816040Y-69147251D01*
X145900677Y-69143439D01*
X145976597Y-69181189D01*
X146029035Y-69254001D01*
X146044161Y-69334124D01*
X146324322Y-69334124D01*
X146316356Y-69260261D01*
X146267366Y-69119829D01*
X146199164Y-69021447D01*
X146076065Y-68922030D01*
X145940472Y-68872711D01*
X145802045Y-68869568D01*
X145670448Y-68908676D01*
G37*
X145670448Y-68908676D02*
X145555342Y-68986111D01*
X145466389Y-69097949D01*
X145413251Y-69240265D01*
X145402503Y-69345015D01*
X145403724Y-69388726D01*
X145413944Y-69422194D01*
X145442039Y-69452179D01*
X145496884Y-69485440D01*
X145587355Y-69528738D01*
X145722328Y-69588833D01*
X145723011Y-69589134D01*
X145847249Y-69646037D01*
X145949127Y-69696565D01*
X146018233Y-69735280D01*
X146044154Y-69756740D01*
X146044161Y-69756913D01*
X146021315Y-69803644D01*
X145967891Y-69855154D01*
X145906558Y-69892261D01*
X145875485Y-69899632D01*
X145790711Y-69874138D01*
X145717707Y-69810291D01*
X145682087Y-69740094D01*
X145647820Y-69688343D01*
X145580697Y-69629409D01*
X145501792Y-69578496D01*
X145432179Y-69550809D01*
X145417623Y-69549287D01*
X145401237Y-69574321D01*
X145400250Y-69638311D01*
X145412292Y-69724593D01*
X145434993Y-69816501D01*
X145465986Y-69897369D01*
X145467552Y-69900509D01*
X145560819Y-70030734D01*
X145681696Y-70119311D01*
X145818973Y-70162786D01*
X145961440Y-70157706D01*
X146097888Y-70100616D01*
X146103955Y-70096602D01*
X146211290Y-69999326D01*
X146281868Y-69872409D01*
X146320926Y-69705526D01*
X146326168Y-69658639D01*
X146335452Y-69437329D01*
X146324322Y-69334124D01*
X146044161Y-69334124D01*
X146040521Y-69398503D01*
X146020611Y-69417291D01*
X145970974Y-69403235D01*
X145892733Y-69370009D01*
X145805274Y-69328359D01*
X145803101Y-69327256D01*
X145728970Y-69288265D01*
X145699219Y-69262244D01*
X145706555Y-69234965D01*
X145737447Y-69199121D01*
X145816040Y-69147251D01*
X145900677Y-69143439D01*
X145976597Y-69181189D01*
X146029035Y-69254001D01*
X146044161Y-69334124D01*
X146324322Y-69334124D01*
X146316356Y-69260261D01*
X146267366Y-69119829D01*
X146199164Y-69021447D01*
X146076065Y-68922030D01*
X145940472Y-68872711D01*
X145802045Y-68869568D01*
X145670448Y-68908676D01*
G36*
X143241402Y-68747857D02*
G01*
X143232846Y-68867188D01*
X143223019Y-68937506D01*
X143209401Y-68968179D01*
X143189473Y-68968571D01*
X143183011Y-68964910D01*
X143097060Y-68938398D01*
X142985255Y-68939946D01*
X142871586Y-68967199D01*
X142800490Y-69002455D01*
X142727595Y-69058778D01*
X142674307Y-69122519D01*
X142637725Y-69203510D01*
X142614950Y-69311586D01*
X142603081Y-69456580D01*
X142599218Y-69648326D01*
X142599149Y-69685109D01*
X142599103Y-70098288D01*
X142691046Y-70130339D01*
X142756348Y-70152144D01*
X142792176Y-70162297D01*
X142793230Y-70162391D01*
X142796758Y-70134860D01*
X142799761Y-70058923D01*
X142802010Y-69944565D01*
X142803276Y-69801769D01*
X142803471Y-69714951D01*
X142803877Y-69543773D01*
X142805968Y-69421088D01*
X142811053Y-69337000D01*
X142820440Y-69281614D01*
X142835439Y-69245032D01*
X142857358Y-69217359D01*
X142871043Y-69204032D01*
X142965051Y-69150328D01*
X143067636Y-69146307D01*
X143160710Y-69191725D01*
X143177922Y-69208123D01*
X143203168Y-69238957D01*
X143220680Y-69275531D01*
X143231858Y-69328415D01*
X143238104Y-69408177D01*
X143240818Y-69525385D01*
X143241402Y-69686991D01*
X143241402Y-70098288D01*
X143333345Y-70130339D01*
X143398647Y-70152144D01*
X143434475Y-70162297D01*
X143435529Y-70162391D01*
X143438225Y-70134448D01*
X143440655Y-70055630D01*
X143442722Y-69933453D01*
X143444329Y-69775432D01*
X143445377Y-69589083D01*
X143445769Y-69381920D01*
X143445770Y-69372706D01*
X143445770Y-68583020D01*
X143350885Y-68542997D01*
X143256000Y-68502973D01*
X143241402Y-68747857D01*
G37*
X143241402Y-68747857D02*
X143232846Y-68867188D01*
X143223019Y-68937506D01*
X143209401Y-68968179D01*
X143189473Y-68968571D01*
X143183011Y-68964910D01*
X143097060Y-68938398D01*
X142985255Y-68939946D01*
X142871586Y-68967199D01*
X142800490Y-69002455D01*
X142727595Y-69058778D01*
X142674307Y-69122519D01*
X142637725Y-69203510D01*
X142614950Y-69311586D01*
X142603081Y-69456580D01*
X142599218Y-69648326D01*
X142599149Y-69685109D01*
X142599103Y-70098288D01*
X142691046Y-70130339D01*
X142756348Y-70152144D01*
X142792176Y-70162297D01*
X142793230Y-70162391D01*
X142796758Y-70134860D01*
X142799761Y-70058923D01*
X142802010Y-69944565D01*
X142803276Y-69801769D01*
X142803471Y-69714951D01*
X142803877Y-69543773D01*
X142805968Y-69421088D01*
X142811053Y-69337000D01*
X142820440Y-69281614D01*
X142835439Y-69245032D01*
X142857358Y-69217359D01*
X142871043Y-69204032D01*
X142965051Y-69150328D01*
X143067636Y-69146307D01*
X143160710Y-69191725D01*
X143177922Y-69208123D01*
X143203168Y-69238957D01*
X143220680Y-69275531D01*
X143231858Y-69328415D01*
X143238104Y-69408177D01*
X143240818Y-69525385D01*
X143241402Y-69686991D01*
X143241402Y-70098288D01*
X143333345Y-70130339D01*
X143398647Y-70152144D01*
X143434475Y-70162297D01*
X143435529Y-70162391D01*
X143438225Y-70134448D01*
X143440655Y-70055630D01*
X143442722Y-69933453D01*
X143444329Y-69775432D01*
X143445377Y-69589083D01*
X143445769Y-69381920D01*
X143445770Y-69372706D01*
X143445770Y-68583020D01*
X143350885Y-68542997D01*
X143256000Y-68502973D01*
X143241402Y-68747857D01*
G36*
X141906056Y-68948360D02*
G01*
X141791657Y-68990842D01*
X141790348Y-68991658D01*
X141719597Y-69043730D01*
X141667364Y-69104584D01*
X141630629Y-69183887D01*
X141606366Y-69291309D01*
X141591555Y-69436517D01*
X141583171Y-69629179D01*
X141582436Y-69656628D01*
X141571880Y-70070521D01*
X141660709Y-70116456D01*
X141724982Y-70147498D01*
X141763790Y-70162206D01*
X141765585Y-70162391D01*
X141772300Y-70135250D01*
X141777635Y-70062041D01*
X141780917Y-69955081D01*
X141781632Y-69868469D01*
X141781649Y-69728162D01*
X141788063Y-69640051D01*
X141810420Y-69598025D01*
X141858268Y-69595975D01*
X141941151Y-69627790D01*
X142066287Y-69686272D01*
X142158303Y-69734845D01*
X142205629Y-69776986D01*
X142219542Y-69822916D01*
X142219563Y-69825189D01*
X142196605Y-69904311D01*
X142128630Y-69947055D01*
X142024602Y-69953246D01*
X141949670Y-69952172D01*
X141910161Y-69973753D01*
X141885522Y-70025591D01*
X141871341Y-70091632D01*
X141891777Y-70129104D01*
X141899472Y-70134467D01*
X141971917Y-70156006D01*
X142073367Y-70159055D01*
X142177843Y-70144778D01*
X142251875Y-70118688D01*
X142354228Y-70031785D01*
X142412409Y-69910816D01*
X142423931Y-69816308D01*
X142415138Y-69731062D01*
X142383320Y-69661476D01*
X142320316Y-69599672D01*
X142217969Y-69537772D01*
X142068118Y-69467897D01*
X142058988Y-69463948D01*
X141924003Y-69401588D01*
X141840706Y-69350446D01*
X141805003Y-69304488D01*
X141812797Y-69257683D01*
X141859993Y-69203998D01*
X141874106Y-69191644D01*
X141968641Y-69143741D01*
X142066594Y-69145758D01*
X142151903Y-69192724D01*
X142208504Y-69279669D01*
X142213763Y-69296734D01*
X142264977Y-69379504D01*
X142329963Y-69419372D01*
X142423931Y-69458882D01*
X142423931Y-69356658D01*
X142395347Y-69208072D01*
X142310505Y-69071784D01*
X142266355Y-69026191D01*
X142165995Y-68967674D01*
X142038365Y-68941184D01*
X141906056Y-68948360D01*
G37*
X141906056Y-68948360D02*
X141791657Y-68990842D01*
X141790348Y-68991658D01*
X141719597Y-69043730D01*
X141667364Y-69104584D01*
X141630629Y-69183887D01*
X141606366Y-69291309D01*
X141591555Y-69436517D01*
X141583171Y-69629179D01*
X141582436Y-69656628D01*
X141571880Y-70070521D01*
X141660709Y-70116456D01*
X141724982Y-70147498D01*
X141763790Y-70162206D01*
X141765585Y-70162391D01*
X141772300Y-70135250D01*
X141777635Y-70062041D01*
X141780917Y-69955081D01*
X141781632Y-69868469D01*
X141781649Y-69728162D01*
X141788063Y-69640051D01*
X141810420Y-69598025D01*
X141858268Y-69595975D01*
X141941151Y-69627790D01*
X142066287Y-69686272D01*
X142158303Y-69734845D01*
X142205629Y-69776986D01*
X142219542Y-69822916D01*
X142219563Y-69825189D01*
X142196605Y-69904311D01*
X142128630Y-69947055D01*
X142024602Y-69953246D01*
X141949670Y-69952172D01*
X141910161Y-69973753D01*
X141885522Y-70025591D01*
X141871341Y-70091632D01*
X141891777Y-70129104D01*
X141899472Y-70134467D01*
X141971917Y-70156006D01*
X142073367Y-70159055D01*
X142177843Y-70144778D01*
X142251875Y-70118688D01*
X142354228Y-70031785D01*
X142412409Y-69910816D01*
X142423931Y-69816308D01*
X142415138Y-69731062D01*
X142383320Y-69661476D01*
X142320316Y-69599672D01*
X142217969Y-69537772D01*
X142068118Y-69467897D01*
X142058988Y-69463948D01*
X141924003Y-69401588D01*
X141840706Y-69350446D01*
X141805003Y-69304488D01*
X141812797Y-69257683D01*
X141859993Y-69203998D01*
X141874106Y-69191644D01*
X141968641Y-69143741D01*
X142066594Y-69145758D01*
X142151903Y-69192724D01*
X142208504Y-69279669D01*
X142213763Y-69296734D01*
X142264977Y-69379504D01*
X142329963Y-69419372D01*
X142423931Y-69458882D01*
X142423931Y-69356658D01*
X142395347Y-69208072D01*
X142310505Y-69071784D01*
X142266355Y-69026191D01*
X142165995Y-68967674D01*
X142038365Y-68941184D01*
X141906056Y-68948360D01*
G36*
X140920057Y-68945920D02*
G01*
X140787435Y-68994859D01*
X140679990Y-69081419D01*
X140637968Y-69142352D01*
X140592157Y-69254161D01*
X140593109Y-69335006D01*
X140641192Y-69389378D01*
X140658983Y-69398624D01*
X140735796Y-69427450D01*
X140775024Y-69420065D01*
X140788311Y-69371658D01*
X140788988Y-69344920D01*
X140813314Y-69246548D01*
X140876719Y-69177734D01*
X140964846Y-69144498D01*
X141063337Y-69152861D01*
X141143398Y-69196296D01*
X141170439Y-69221072D01*
X141189606Y-69251129D01*
X141202554Y-69296565D01*
X141210936Y-69367476D01*
X141216407Y-69473960D01*
X141220622Y-69626112D01*
X141221713Y-69674287D01*
X141225693Y-69839095D01*
X141230219Y-69955088D01*
X141237005Y-70031833D01*
X141247769Y-70078893D01*
X141264227Y-70105835D01*
X141288094Y-70122223D01*
X141303374Y-70129463D01*
X141368267Y-70154220D01*
X141406466Y-70162391D01*
X141419088Y-70135103D01*
X141426792Y-70052603D01*
X141429620Y-69913941D01*
X141427614Y-69718162D01*
X141426989Y-69687965D01*
X141422579Y-69509349D01*
X141417365Y-69378923D01*
X141409945Y-69286492D01*
X141398918Y-69221858D01*
X141382883Y-69174825D01*
X141360439Y-69135196D01*
X141348698Y-69118215D01*
X141281381Y-69043080D01*
X141206090Y-68984638D01*
X141196872Y-68979536D01*
X141061867Y-68939260D01*
X140920057Y-68945920D01*
G37*
X140920057Y-68945920D02*
X140787435Y-68994859D01*
X140679990Y-69081419D01*
X140637968Y-69142352D01*
X140592157Y-69254161D01*
X140593109Y-69335006D01*
X140641192Y-69389378D01*
X140658983Y-69398624D01*
X140735796Y-69427450D01*
X140775024Y-69420065D01*
X140788311Y-69371658D01*
X140788988Y-69344920D01*
X140813314Y-69246548D01*
X140876719Y-69177734D01*
X140964846Y-69144498D01*
X141063337Y-69152861D01*
X141143398Y-69196296D01*
X141170439Y-69221072D01*
X141189606Y-69251129D01*
X141202554Y-69296565D01*
X141210936Y-69367476D01*
X141216407Y-69473960D01*
X141220622Y-69626112D01*
X141221713Y-69674287D01*
X141225693Y-69839095D01*
X141230219Y-69955088D01*
X141237005Y-70031833D01*
X141247769Y-70078893D01*
X141264227Y-70105835D01*
X141288094Y-70122223D01*
X141303374Y-70129463D01*
X141368267Y-70154220D01*
X141406466Y-70162391D01*
X141419088Y-70135103D01*
X141426792Y-70052603D01*
X141429620Y-69913941D01*
X141427614Y-69718162D01*
X141426989Y-69687965D01*
X141422579Y-69509349D01*
X141417365Y-69378923D01*
X141409945Y-69286492D01*
X141398918Y-69221858D01*
X141382883Y-69174825D01*
X141360439Y-69135196D01*
X141348698Y-69118215D01*
X141281381Y-69043080D01*
X141206090Y-68984638D01*
X141196872Y-68979536D01*
X141061867Y-68939260D01*
X140920057Y-68945920D01*
G36*
X139592086Y-69178455D02*
G01*
X139592457Y-69396661D01*
X139593892Y-69564519D01*
X139596998Y-69690070D01*
X139602378Y-69781355D01*
X139610638Y-69846415D01*
X139622384Y-69893291D01*
X139638219Y-69930024D01*
X139650210Y-69950991D01*
X139749510Y-70064694D01*
X139875412Y-70135965D01*
X140014709Y-70161538D01*
X140154195Y-70138150D01*
X140237257Y-70096119D01*
X140324455Y-70023411D01*
X140383883Y-69934612D01*
X140419739Y-69818320D01*
X140436219Y-69663135D01*
X140438553Y-69549287D01*
X140438239Y-69541106D01*
X140234276Y-69541106D01*
X140233030Y-69671657D01*
X140227322Y-69758080D01*
X140214196Y-69814618D01*
X140190694Y-69855514D01*
X140162614Y-69886362D01*
X140068312Y-69945905D01*
X139967060Y-69950992D01*
X139871364Y-69901279D01*
X139863916Y-69894543D01*
X139832126Y-69859502D01*
X139812192Y-69817811D01*
X139801400Y-69755762D01*
X139797035Y-69659644D01*
X139796345Y-69553379D01*
X139797841Y-69419880D01*
X139804036Y-69330822D01*
X139817486Y-69272293D01*
X139840749Y-69230382D01*
X139859825Y-69208123D01*
X139948437Y-69151985D01*
X140050492Y-69145235D01*
X140147905Y-69188114D01*
X140166704Y-69204032D01*
X140198707Y-69239382D01*
X140218682Y-69281502D01*
X140229407Y-69344251D01*
X140233661Y-69441487D01*
X140234276Y-69541106D01*
X140438239Y-69541106D01*
X140431496Y-69365947D01*
X140407528Y-69228195D01*
X140362452Y-69124632D01*
X140292072Y-69043856D01*
X140237257Y-69002455D01*
X140137624Y-68957728D01*
X140022145Y-68936967D01*
X139914801Y-68942525D01*
X139854736Y-68964943D01*
X139831165Y-68971323D01*
X139815523Y-68947535D01*
X139804605Y-68883788D01*
X139796345Y-68786687D01*
X139787301Y-68678541D01*
X139774739Y-68613475D01*
X139751881Y-68576268D01*
X139711949Y-68551699D01*
X139686862Y-68540819D01*
X139591977Y-68501072D01*
X139592086Y-69178455D01*
G37*
X139592086Y-69178455D02*
X139592457Y-69396661D01*
X139593892Y-69564519D01*
X139596998Y-69690070D01*
X139602378Y-69781355D01*
X139610638Y-69846415D01*
X139622384Y-69893291D01*
X139638219Y-69930024D01*
X139650210Y-69950991D01*
X139749510Y-70064694D01*
X139875412Y-70135965D01*
X140014709Y-70161538D01*
X140154195Y-70138150D01*
X140237257Y-70096119D01*
X140324455Y-70023411D01*
X140383883Y-69934612D01*
X140419739Y-69818320D01*
X140436219Y-69663135D01*
X140438553Y-69549287D01*
X140438239Y-69541106D01*
X140234276Y-69541106D01*
X140233030Y-69671657D01*
X140227322Y-69758080D01*
X140214196Y-69814618D01*
X140190694Y-69855514D01*
X140162614Y-69886362D01*
X140068312Y-69945905D01*
X139967060Y-69950992D01*
X139871364Y-69901279D01*
X139863916Y-69894543D01*
X139832126Y-69859502D01*
X139812192Y-69817811D01*
X139801400Y-69755762D01*
X139797035Y-69659644D01*
X139796345Y-69553379D01*
X139797841Y-69419880D01*
X139804036Y-69330822D01*
X139817486Y-69272293D01*
X139840749Y-69230382D01*
X139859825Y-69208123D01*
X139948437Y-69151985D01*
X140050492Y-69145235D01*
X140147905Y-69188114D01*
X140166704Y-69204032D01*
X140198707Y-69239382D01*
X140218682Y-69281502D01*
X140229407Y-69344251D01*
X140233661Y-69441487D01*
X140234276Y-69541106D01*
X140438239Y-69541106D01*
X140431496Y-69365947D01*
X140407528Y-69228195D01*
X140362452Y-69124632D01*
X140292072Y-69043856D01*
X140237257Y-69002455D01*
X140137624Y-68957728D01*
X140022145Y-68936967D01*
X139914801Y-68942525D01*
X139854736Y-68964943D01*
X139831165Y-68971323D01*
X139815523Y-68947535D01*
X139804605Y-68883788D01*
X139796345Y-68786687D01*
X139787301Y-68678541D01*
X139774739Y-68613475D01*
X139751881Y-68576268D01*
X139711949Y-68551699D01*
X139686862Y-68540819D01*
X139591977Y-68501072D01*
X139592086Y-69178455D01*
G36*
X138405876Y-68963840D02*
G01*
X138401421Y-69040653D01*
X138397929Y-69157391D01*
X138395685Y-69304821D01*
X138394965Y-69459455D01*
X138394965Y-69982727D01*
X138487355Y-70075117D01*
X138551022Y-70132047D01*
X138606911Y-70155107D01*
X138683298Y-70153647D01*
X138713620Y-70149934D01*
X138808390Y-70139126D01*
X138886778Y-70132933D01*
X138905885Y-70132361D01*
X138970301Y-70136102D01*
X139062429Y-70145494D01*
X139098150Y-70149934D01*
X139185886Y-70156801D01*
X139244847Y-70141885D01*
X139303310Y-70095835D01*
X139324415Y-70075117D01*
X139416805Y-69982727D01*
X139416805Y-69003947D01*
X139342442Y-68970066D01*
X139278410Y-68944970D01*
X139240948Y-68936184D01*
X139231343Y-68963950D01*
X139222365Y-69041530D01*
X139214614Y-69160348D01*
X139208686Y-69311828D01*
X139205827Y-69439805D01*
X139197839Y-69943425D01*
X139128152Y-69953278D01*
X139064771Y-69946389D01*
X139033714Y-69924083D01*
X139025033Y-69882379D01*
X139017622Y-69793544D01*
X139012069Y-69668834D01*
X139008964Y-69519507D01*
X139008516Y-69442661D01*
X139008069Y-69000287D01*
X138916126Y-68968235D01*
X138851051Y-68946443D01*
X138815653Y-68936281D01*
X138814632Y-68936184D01*
X138811080Y-68963809D01*
X138807177Y-69040411D01*
X138803249Y-69156579D01*
X138799624Y-69302904D01*
X138797092Y-69439805D01*
X138789103Y-69943425D01*
X138613931Y-69943425D01*
X138605893Y-69483965D01*
X138597854Y-69024505D01*
X138512457Y-68980344D01*
X138449407Y-68950019D01*
X138412090Y-68936258D01*
X138411013Y-68936184D01*
X138405876Y-68963840D01*
G37*
X138405876Y-68963840D02*
X138401421Y-69040653D01*
X138397929Y-69157391D01*
X138395685Y-69304821D01*
X138394965Y-69459455D01*
X138394965Y-69982727D01*
X138487355Y-70075117D01*
X138551022Y-70132047D01*
X138606911Y-70155107D01*
X138683298Y-70153647D01*
X138713620Y-70149934D01*
X138808390Y-70139126D01*
X138886778Y-70132933D01*
X138905885Y-70132361D01*
X138970301Y-70136102D01*
X139062429Y-70145494D01*
X139098150Y-70149934D01*
X139185886Y-70156801D01*
X139244847Y-70141885D01*
X139303310Y-70095835D01*
X139324415Y-70075117D01*
X139416805Y-69982727D01*
X139416805Y-69003947D01*
X139342442Y-68970066D01*
X139278410Y-68944970D01*
X139240948Y-68936184D01*
X139231343Y-68963950D01*
X139222365Y-69041530D01*
X139214614Y-69160348D01*
X139208686Y-69311828D01*
X139205827Y-69439805D01*
X139197839Y-69943425D01*
X139128152Y-69953278D01*
X139064771Y-69946389D01*
X139033714Y-69924083D01*
X139025033Y-69882379D01*
X139017622Y-69793544D01*
X139012069Y-69668834D01*
X139008964Y-69519507D01*
X139008516Y-69442661D01*
X139008069Y-69000287D01*
X138916126Y-68968235D01*
X138851051Y-68946443D01*
X138815653Y-68936281D01*
X138814632Y-68936184D01*
X138811080Y-68963809D01*
X138807177Y-69040411D01*
X138803249Y-69156579D01*
X138799624Y-69302904D01*
X138797092Y-69439805D01*
X138789103Y-69943425D01*
X138613931Y-69943425D01*
X138605893Y-69483965D01*
X138597854Y-69024505D01*
X138512457Y-68980344D01*
X138449407Y-68950019D01*
X138412090Y-68936258D01*
X138411013Y-68936184D01*
X138405876Y-68963840D01*
G36*
X137671594Y-68959156D02*
G01*
X137587531Y-68997393D01*
X137521550Y-69043726D01*
X137473206Y-69095532D01*
X137439828Y-69162363D01*
X137418747Y-69253769D01*
X137407293Y-69379301D01*
X137402797Y-69548508D01*
X137402322Y-69659933D01*
X137402322Y-70094627D01*
X137476684Y-70128509D01*
X137535254Y-70153272D01*
X137564270Y-70162391D01*
X137569821Y-70135257D01*
X137574225Y-70062094D01*
X137576922Y-69955263D01*
X137577494Y-69870437D01*
X137579954Y-69747887D01*
X137586588Y-69650668D01*
X137596274Y-69591134D01*
X137603968Y-69578483D01*
X137655689Y-69591402D01*
X137736883Y-69624539D01*
X137830898Y-69669461D01*
X137921083Y-69717735D01*
X137990785Y-69760928D01*
X138023352Y-69790608D01*
X138023481Y-69790929D01*
X138020680Y-69845857D01*
X137995561Y-69898292D01*
X137951459Y-69940881D01*
X137887091Y-69955126D01*
X137832079Y-69953466D01*
X137754165Y-69952245D01*
X137713268Y-69970498D01*
X137688705Y-70018726D01*
X137685608Y-70027820D01*
X137674960Y-70096598D01*
X137703435Y-70138360D01*
X137777656Y-70158263D01*
X137857832Y-70161944D01*
X138002110Y-70134658D01*
X138076797Y-70095690D01*
X138169037Y-70004148D01*
X138217957Y-69891782D01*
X138222346Y-69773051D01*
X138180999Y-69662411D01*
X138118803Y-69593080D01*
X138056706Y-69554265D01*
X137959105Y-69505125D01*
X137845368Y-69455292D01*
X137826410Y-69447677D01*
X137701479Y-69392545D01*
X137629461Y-69343954D01*
X137606300Y-69295647D01*
X137627936Y-69241370D01*
X137665080Y-69198943D01*
X137752873Y-69146702D01*
X137849470Y-69142784D01*
X137938056Y-69183041D01*
X138001814Y-69263326D01*
X138010183Y-69284040D01*
X138058904Y-69360225D01*
X138130035Y-69416785D01*
X138219793Y-69463201D01*
X138219793Y-69331584D01*
X138214510Y-69251168D01*
X138191858Y-69187786D01*
X138141633Y-69120163D01*
X138093418Y-69068076D01*
X138018446Y-68994322D01*
X137960194Y-68954702D01*
X137897628Y-68938810D01*
X137826807Y-68936184D01*
X137671594Y-68959156D01*
G37*
X137671594Y-68959156D02*
X137587531Y-68997393D01*
X137521550Y-69043726D01*
X137473206Y-69095532D01*
X137439828Y-69162363D01*
X137418747Y-69253769D01*
X137407293Y-69379301D01*
X137402797Y-69548508D01*
X137402322Y-69659933D01*
X137402322Y-70094627D01*
X137476684Y-70128509D01*
X137535254Y-70153272D01*
X137564270Y-70162391D01*
X137569821Y-70135257D01*
X137574225Y-70062094D01*
X137576922Y-69955263D01*
X137577494Y-69870437D01*
X137579954Y-69747887D01*
X137586588Y-69650668D01*
X137596274Y-69591134D01*
X137603968Y-69578483D01*
X137655689Y-69591402D01*
X137736883Y-69624539D01*
X137830898Y-69669461D01*
X137921083Y-69717735D01*
X137990785Y-69760928D01*
X138023352Y-69790608D01*
X138023481Y-69790929D01*
X138020680Y-69845857D01*
X137995561Y-69898292D01*
X137951459Y-69940881D01*
X137887091Y-69955126D01*
X137832079Y-69953466D01*
X137754165Y-69952245D01*
X137713268Y-69970498D01*
X137688705Y-70018726D01*
X137685608Y-70027820D01*
X137674960Y-70096598D01*
X137703435Y-70138360D01*
X137777656Y-70158263D01*
X137857832Y-70161944D01*
X138002110Y-70134658D01*
X138076797Y-70095690D01*
X138169037Y-70004148D01*
X138217957Y-69891782D01*
X138222346Y-69773051D01*
X138180999Y-69662411D01*
X138118803Y-69593080D01*
X138056706Y-69554265D01*
X137959105Y-69505125D01*
X137845368Y-69455292D01*
X137826410Y-69447677D01*
X137701479Y-69392545D01*
X137629461Y-69343954D01*
X137606300Y-69295647D01*
X137627936Y-69241370D01*
X137665080Y-69198943D01*
X137752873Y-69146702D01*
X137849470Y-69142784D01*
X137938056Y-69183041D01*
X138001814Y-69263326D01*
X138010183Y-69284040D01*
X138058904Y-69360225D01*
X138130035Y-69416785D01*
X138219793Y-69463201D01*
X138219793Y-69331584D01*
X138214510Y-69251168D01*
X138191858Y-69187786D01*
X138141633Y-69120163D01*
X138093418Y-69068076D01*
X138018446Y-68994322D01*
X137960194Y-68954702D01*
X137897628Y-68938810D01*
X137826807Y-68936184D01*
X137671594Y-68959156D01*
G36*
X136650310Y-68964018D02*
G01*
X136615415Y-68979269D01*
X136532123Y-69045235D01*
X136460897Y-69140618D01*
X136416847Y-69242406D01*
X136409678Y-69292587D01*
X136433715Y-69362647D01*
X136486439Y-69399717D01*
X136542969Y-69422164D01*
X136568854Y-69426300D01*
X136581458Y-69396283D01*
X136606346Y-69330961D01*
X136617265Y-69301445D01*
X136678492Y-69199348D01*
X136767139Y-69148423D01*
X136880807Y-69149989D01*
X136889226Y-69151994D01*
X136949912Y-69180767D01*
X136994526Y-69236859D01*
X137024998Y-69327163D01*
X137043256Y-69458571D01*
X137051229Y-69637974D01*
X137051977Y-69733433D01*
X137052348Y-69883913D01*
X137054777Y-69986495D01*
X137061240Y-70051672D01*
X137073712Y-70089938D01*
X137094167Y-70111785D01*
X137124581Y-70127707D01*
X137126339Y-70128509D01*
X137184909Y-70153272D01*
X137213925Y-70162391D01*
X137218384Y-70134822D01*
X137222201Y-70058620D01*
X137225101Y-69943541D01*
X137226809Y-69799341D01*
X137227149Y-69693814D01*
X137225412Y-69489613D01*
X137218618Y-69334697D01*
X137204393Y-69220024D01*
X137180362Y-69136551D01*
X137144152Y-69075236D01*
X137093388Y-69027034D01*
X137043261Y-68993393D01*
X136922725Y-68948619D01*
X136782443Y-68938521D01*
X136650310Y-68964018D01*
G37*
X136650310Y-68964018D02*
X136615415Y-68979269D01*
X136532123Y-69045235D01*
X136460897Y-69140618D01*
X136416847Y-69242406D01*
X136409678Y-69292587D01*
X136433715Y-69362647D01*
X136486439Y-69399717D01*
X136542969Y-69422164D01*
X136568854Y-69426300D01*
X136581458Y-69396283D01*
X136606346Y-69330961D01*
X136617265Y-69301445D01*
X136678492Y-69199348D01*
X136767139Y-69148423D01*
X136880807Y-69149989D01*
X136889226Y-69151994D01*
X136949912Y-69180767D01*
X136994526Y-69236859D01*
X137024998Y-69327163D01*
X137043256Y-69458571D01*
X137051229Y-69637974D01*
X137051977Y-69733433D01*
X137052348Y-69883913D01*
X137054777Y-69986495D01*
X137061240Y-70051672D01*
X137073712Y-70089938D01*
X137094167Y-70111785D01*
X137124581Y-70127707D01*
X137126339Y-70128509D01*
X137184909Y-70153272D01*
X137213925Y-70162391D01*
X137218384Y-70134822D01*
X137222201Y-70058620D01*
X137225101Y-69943541D01*
X137226809Y-69799341D01*
X137227149Y-69693814D01*
X137225412Y-69489613D01*
X137218618Y-69334697D01*
X137204393Y-69220024D01*
X137180362Y-69136551D01*
X137144152Y-69075236D01*
X137093388Y-69027034D01*
X137043261Y-68993393D01*
X136922725Y-68948619D01*
X136782443Y-68938521D01*
X136650310Y-68964018D01*
G36*
X135642561Y-68980540D02*
G01*
X135527050Y-69056034D01*
X135471336Y-69123617D01*
X135427196Y-69246255D01*
X135423691Y-69343298D01*
X135431632Y-69473056D01*
X135730885Y-69604039D01*
X135876389Y-69670958D01*
X135971463Y-69724790D01*
X136020899Y-69771416D01*
X136029489Y-69816720D01*
X136002028Y-69866582D01*
X135971747Y-69899632D01*
X135883637Y-69952633D01*
X135787804Y-69956347D01*
X135699788Y-69915041D01*
X135635131Y-69832983D01*
X135623567Y-69804008D01*
X135568175Y-69713509D01*
X135504447Y-69674940D01*
X135417034Y-69641946D01*
X135417034Y-69767034D01*
X135424762Y-69852156D01*
X135455034Y-69923938D01*
X135518482Y-70006356D01*
X135527912Y-70017066D01*
X135598487Y-70090391D01*
X135659153Y-70129742D01*
X135735050Y-70147845D01*
X135797970Y-70153774D01*
X135910513Y-70155251D01*
X135990630Y-70136535D01*
X136040610Y-70108747D01*
X136119162Y-70047641D01*
X136173537Y-69981554D01*
X136207948Y-69898441D01*
X136226612Y-69786254D01*
X136233744Y-69632946D01*
X136234313Y-69555136D01*
X136232378Y-69461853D01*
X136056101Y-69461853D01*
X136054056Y-69511896D01*
X136048961Y-69520092D01*
X136015334Y-69508958D01*
X135942970Y-69479493D01*
X135846253Y-69437601D01*
X135826027Y-69428597D01*
X135703797Y-69366442D01*
X135636453Y-69311815D01*
X135621652Y-69260649D01*
X135657053Y-69208876D01*
X135686289Y-69186000D01*
X135791784Y-69140250D01*
X135890524Y-69147808D01*
X135973188Y-69203651D01*
X136030452Y-69302753D01*
X136048812Y-69381414D01*
X136056101Y-69461853D01*
X136232378Y-69461853D01*
X136230541Y-69373351D01*
X136216641Y-69238853D01*
X136189106Y-69140916D01*
X136144428Y-69068811D01*
X136079099Y-69011813D01*
X136050617Y-68993393D01*
X135921237Y-68945422D01*
X135779588Y-68942403D01*
X135642561Y-68980540D01*
G37*
X135642561Y-68980540D02*
X135527050Y-69056034D01*
X135471336Y-69123617D01*
X135427196Y-69246255D01*
X135423691Y-69343298D01*
X135431632Y-69473056D01*
X135730885Y-69604039D01*
X135876389Y-69670958D01*
X135971463Y-69724790D01*
X136020899Y-69771416D01*
X136029489Y-69816720D01*
X136002028Y-69866582D01*
X135971747Y-69899632D01*
X135883637Y-69952633D01*
X135787804Y-69956347D01*
X135699788Y-69915041D01*
X135635131Y-69832983D01*
X135623567Y-69804008D01*
X135568175Y-69713509D01*
X135504447Y-69674940D01*
X135417034Y-69641946D01*
X135417034Y-69767034D01*
X135424762Y-69852156D01*
X135455034Y-69923938D01*
X135518482Y-70006356D01*
X135527912Y-70017066D01*
X135598487Y-70090391D01*
X135659153Y-70129742D01*
X135735050Y-70147845D01*
X135797970Y-70153774D01*
X135910513Y-70155251D01*
X135990630Y-70136535D01*
X136040610Y-70108747D01*
X136119162Y-70047641D01*
X136173537Y-69981554D01*
X136207948Y-69898441D01*
X136226612Y-69786254D01*
X136233744Y-69632946D01*
X136234313Y-69555136D01*
X136232378Y-69461853D01*
X136056101Y-69461853D01*
X136054056Y-69511896D01*
X136048961Y-69520092D01*
X136015334Y-69508958D01*
X135942970Y-69479493D01*
X135846253Y-69437601D01*
X135826027Y-69428597D01*
X135703797Y-69366442D01*
X135636453Y-69311815D01*
X135621652Y-69260649D01*
X135657053Y-69208876D01*
X135686289Y-69186000D01*
X135791784Y-69140250D01*
X135890524Y-69147808D01*
X135973188Y-69203651D01*
X136030452Y-69302753D01*
X136048812Y-69381414D01*
X136056101Y-69461853D01*
X136232378Y-69461853D01*
X136230541Y-69373351D01*
X136216641Y-69238853D01*
X136189106Y-69140916D01*
X136144428Y-69068811D01*
X136079099Y-69011813D01*
X136050617Y-68993393D01*
X135921237Y-68945422D01*
X135779588Y-68942403D01*
X135642561Y-68980540D01*
G36*
X141776986Y-59476998D02*
G01*
X141618994Y-59477863D01*
X141504653Y-59480205D01*
X141426593Y-59484762D01*
X141377446Y-59492270D01*
X141349841Y-59503466D01*
X141336408Y-59519088D01*
X141329779Y-59539873D01*
X141329135Y-59542563D01*
X141319065Y-59591113D01*
X141300425Y-59686905D01*
X141275155Y-59819743D01*
X141245193Y-59979431D01*
X141212478Y-60155774D01*
X141211336Y-60161967D01*
X141178567Y-60334782D01*
X141147907Y-60487469D01*
X141121336Y-60610871D01*
X141100833Y-60695831D01*
X141088374Y-60733190D01*
X141087780Y-60733852D01*
X141051081Y-60752095D01*
X140975414Y-60782497D01*
X140877122Y-60818493D01*
X140876575Y-60818685D01*
X140752767Y-60865222D01*
X140606804Y-60924504D01*
X140469219Y-60984109D01*
X140462707Y-60987056D01*
X140238610Y-61088765D01*
X139742381Y-60749897D01*
X139590154Y-60646592D01*
X139452259Y-60554237D01*
X139336685Y-60478084D01*
X139251421Y-60423385D01*
X139204456Y-60395393D01*
X139199996Y-60393317D01*
X139165866Y-60402560D01*
X139102119Y-60447156D01*
X139006269Y-60529209D01*
X138875831Y-60650821D01*
X138742672Y-60780205D01*
X138614306Y-60907702D01*
X138499419Y-61024046D01*
X138404927Y-61122052D01*
X138337747Y-61194536D01*
X138304794Y-61234313D01*
X138303568Y-61236361D01*
X138299926Y-61263656D01*
X138313650Y-61308234D01*
X138348131Y-61376112D01*
X138406761Y-61473311D01*
X138492930Y-61605851D01*
X138607800Y-61776476D01*
X138709746Y-61926655D01*
X138800877Y-62061350D01*
X138875927Y-62172740D01*
X138929631Y-62253005D01*
X138956720Y-62294325D01*
X138958426Y-62297130D01*
X138955118Y-62336721D01*
X138930047Y-62413669D01*
X138888202Y-62513432D01*
X138873288Y-62545291D01*
X138808214Y-62687226D01*
X138738788Y-62848273D01*
X138682391Y-62987621D01*
X138641753Y-63091044D01*
X138609474Y-63169642D01*
X138590822Y-63210720D01*
X138588503Y-63213885D01*
X138554197Y-63219128D01*
X138473331Y-63233494D01*
X138356657Y-63254937D01*
X138214925Y-63281413D01*
X138058890Y-63310877D01*
X137899302Y-63341283D01*
X137746915Y-63370588D01*
X137612479Y-63396745D01*
X137506748Y-63417710D01*
X137440474Y-63431439D01*
X137424218Y-63435320D01*
X137407427Y-63444900D01*
X137394751Y-63466536D01*
X137385622Y-63507531D01*
X137379469Y-63575189D01*
X137375720Y-63676812D01*
X137373808Y-63819703D01*
X137373160Y-64011165D01*
X137373126Y-64089645D01*
X137373126Y-64727906D01*
X137526402Y-64758160D01*
X137611678Y-64774564D01*
X137738930Y-64798509D01*
X137892685Y-64827107D01*
X138057466Y-64857467D01*
X138103011Y-64865806D01*
X138255068Y-64895370D01*
X138387532Y-64924442D01*
X138489286Y-64950329D01*
X138549212Y-64970337D01*
X138559195Y-64976301D01*
X138583707Y-65018534D01*
X138618852Y-65100370D01*
X138657827Y-65205683D01*
X138665558Y-65228368D01*
X138716640Y-65369018D01*
X138780046Y-65527714D01*
X138842096Y-65670225D01*
X138842402Y-65670886D01*
X138945733Y-65894440D01*
X138266039Y-66894232D01*
X138702379Y-67331300D01*
X138834351Y-67461381D01*
X138954721Y-67576048D01*
X139056727Y-67669181D01*
X139133609Y-67734658D01*
X139178607Y-67766357D01*
X139185062Y-67768368D01*
X139222960Y-67752529D01*
X139300292Y-67708496D01*
X139408611Y-67641490D01*
X139539468Y-67556734D01*
X139680948Y-67461816D01*
X139824539Y-67364998D01*
X139952565Y-67280751D01*
X140056895Y-67214258D01*
X140129400Y-67170702D01*
X140161842Y-67155264D01*
X140201424Y-67168328D01*
X140276481Y-67202750D01*
X140371532Y-67251380D01*
X140381608Y-67256785D01*
X140509609Y-67320980D01*
X140597382Y-67352463D01*
X140651972Y-67352798D01*
X140680425Y-67323548D01*
X140680590Y-67323138D01*
X140694812Y-67288498D01*
X140728731Y-67206269D01*
X140779716Y-67082814D01*
X140845138Y-66924498D01*
X140922366Y-66737686D01*
X141008771Y-66528742D01*
X141092449Y-66326446D01*
X141184412Y-66103200D01*
X141268850Y-65896392D01*
X141343231Y-65712362D01*
X141405026Y-65557451D01*
X141451703Y-65437996D01*
X141480732Y-65360339D01*
X141489678Y-65331356D01*
X141467244Y-65298110D01*
X141408561Y-65245123D01*
X141330311Y-65186704D01*
X141107466Y-65001952D01*
X140933282Y-64790182D01*
X140809846Y-64555856D01*
X140739246Y-64303434D01*
X140723569Y-64037377D01*
X140734964Y-63914575D01*
X140797050Y-63659793D01*
X140903977Y-63434801D01*
X141049111Y-63241817D01*
X141225822Y-63083061D01*
X141427478Y-62960750D01*
X141647446Y-62877105D01*
X141879094Y-62834344D01*
X142115791Y-62834687D01*
X142350905Y-62880352D01*
X142577804Y-62973559D01*
X142789856Y-63116527D01*
X142878364Y-63197383D01*
X143048111Y-63405007D01*
X143166301Y-63631895D01*
X143233722Y-63871433D01*
X143251160Y-64117007D01*
X143219402Y-64362003D01*
X143139235Y-64599808D01*
X143011445Y-64823807D01*
X142836820Y-65027387D01*
X142641688Y-65186704D01*
X142560409Y-65247602D01*
X142502991Y-65300015D01*
X142482322Y-65331406D01*
X142493144Y-65365639D01*
X142523923Y-65447419D01*
X142572126Y-65570407D01*
X142635222Y-65728263D01*
X142710678Y-65914649D01*
X142795962Y-66123226D01*
X142879781Y-66326496D01*
X142972255Y-66549933D01*
X143057911Y-66756984D01*
X143134118Y-66941286D01*
X143198247Y-67096475D01*
X143247668Y-67216188D01*
X143279752Y-67294061D01*
X143291641Y-67323138D01*
X143319726Y-67352677D01*
X143374051Y-67352591D01*
X143461605Y-67321326D01*
X143589381Y-67257329D01*
X143590392Y-67256785D01*
X143686598Y-67207121D01*
X143764369Y-67170945D01*
X143808223Y-67155408D01*
X143810158Y-67155264D01*
X143843171Y-67171024D01*
X143916054Y-67214850D01*
X144020678Y-67281557D01*
X144148910Y-67365964D01*
X144291052Y-67461816D01*
X144435767Y-67558867D01*
X144566196Y-67643270D01*
X144673890Y-67709801D01*
X144750402Y-67753238D01*
X144786938Y-67768368D01*
X144820582Y-67748482D01*
X144888224Y-67692903D01*
X144983107Y-67607754D01*
X145098470Y-67499153D01*
X145227555Y-67373221D01*
X145269771Y-67331149D01*
X145706261Y-66893931D01*
X145374023Y-66406340D01*
X145273054Y-66256605D01*
X145184438Y-66122220D01*
X145113146Y-66010969D01*
X145064150Y-65930639D01*
X145042422Y-65889014D01*
X145041785Y-65886053D01*
X145053240Y-65846818D01*
X145084051Y-65767895D01*
X145128884Y-65662509D01*
X145160353Y-65591954D01*
X145219192Y-65456876D01*
X145274604Y-65320409D01*
X145317564Y-65205103D01*
X145329234Y-65169977D01*
X145362389Y-65076174D01*
X145394799Y-65003694D01*
X145412601Y-64976301D01*
X145451886Y-64959536D01*
X145537626Y-64935770D01*
X145658697Y-64907697D01*
X145803973Y-64878009D01*
X145868988Y-64865806D01*
X146034087Y-64835468D01*
X146192448Y-64806093D01*
X146328596Y-64780569D01*
X146427057Y-64761785D01*
X146445598Y-64758160D01*
X146598873Y-64727906D01*
X146598873Y-64089645D01*
X146598529Y-63879770D01*
X146597116Y-63720980D01*
X146594064Y-63605973D01*
X146588803Y-63527446D01*
X146580763Y-63478096D01*
X146569373Y-63450619D01*
X146554063Y-63437713D01*
X146547782Y-63435320D01*
X146509896Y-63426833D01*
X146426195Y-63409900D01*
X146307433Y-63386566D01*
X146164361Y-63358875D01*
X146007732Y-63328873D01*
X145848297Y-63298604D01*
X145696809Y-63270115D01*
X145564019Y-63245449D01*
X145460681Y-63226651D01*
X145397545Y-63215767D01*
X145383497Y-63213885D01*
X145370770Y-63188704D01*
X145342600Y-63121622D01*
X145304252Y-63025333D01*
X145289609Y-62987621D01*
X145230548Y-62841921D01*
X145161000Y-62680951D01*
X145098712Y-62545291D01*
X145052879Y-62441561D01*
X145022387Y-62356326D01*
X145012208Y-62304126D01*
X145013831Y-62297130D01*
X145035343Y-62264102D01*
X145084465Y-62190643D01*
X145155923Y-62084577D01*
X145244445Y-61953726D01*
X145344759Y-61805912D01*
X145364594Y-61776734D01*
X145480988Y-61603863D01*
X145566548Y-61472226D01*
X145624684Y-61375761D01*
X145658808Y-61308408D01*
X145672331Y-61264106D01*
X145668664Y-61236794D01*
X145668570Y-61236620D01*
X145639707Y-61200746D01*
X145575867Y-61131391D01*
X145483969Y-61035745D01*
X145370933Y-60920999D01*
X145243679Y-60794341D01*
X145229328Y-60780205D01*
X145068957Y-60624903D01*
X144945195Y-60510870D01*
X144855555Y-60436002D01*
X144797552Y-60398196D01*
X144772004Y-60393317D01*
X144734718Y-60414603D01*
X144657343Y-60463773D01*
X144547867Y-60535575D01*
X144414280Y-60624755D01*
X144264570Y-60726063D01*
X144229618Y-60749897D01*
X143733390Y-61088765D01*
X143509293Y-60987056D01*
X143373011Y-60927783D01*
X143226724Y-60868170D01*
X143100965Y-60820640D01*
X143095425Y-60818685D01*
X142997057Y-60782677D01*
X142921229Y-60752229D01*
X142884282Y-60733905D01*
X142884220Y-60733852D01*
X142872496Y-60700729D01*
X142852568Y-60619267D01*
X142826413Y-60498625D01*
X142796010Y-60347959D01*
X142763337Y-60176428D01*
X142760664Y-60161967D01*
X142727890Y-59985235D01*
X142697802Y-59824810D01*
X142672339Y-59690888D01*
X142653441Y-59593663D01*
X142643047Y-59543332D01*
X142642865Y-59542563D01*
X142636539Y-59521153D01*
X142624239Y-59504988D01*
X142598594Y-59493331D01*
X142552235Y-59485445D01*
X142477792Y-59480593D01*
X142367895Y-59478039D01*
X142215175Y-59477045D01*
X142012262Y-59476874D01*
X141986000Y-59476874D01*
X141776986Y-59476998D01*
G37*
X141776986Y-59476998D02*
X141618994Y-59477863D01*
X141504653Y-59480205D01*
X141426593Y-59484762D01*
X141377446Y-59492270D01*
X141349841Y-59503466D01*
X141336408Y-59519088D01*
X141329779Y-59539873D01*
X141329135Y-59542563D01*
X141319065Y-59591113D01*
X141300425Y-59686905D01*
X141275155Y-59819743D01*
X141245193Y-59979431D01*
X141212478Y-60155774D01*
X141211336Y-60161967D01*
X141178567Y-60334782D01*
X141147907Y-60487469D01*
X141121336Y-60610871D01*
X141100833Y-60695831D01*
X141088374Y-60733190D01*
X141087780Y-60733852D01*
X141051081Y-60752095D01*
X140975414Y-60782497D01*
X140877122Y-60818493D01*
X140876575Y-60818685D01*
X140752767Y-60865222D01*
X140606804Y-60924504D01*
X140469219Y-60984109D01*
X140462707Y-60987056D01*
X140238610Y-61088765D01*
X139742381Y-60749897D01*
X139590154Y-60646592D01*
X139452259Y-60554237D01*
X139336685Y-60478084D01*
X139251421Y-60423385D01*
X139204456Y-60395393D01*
X139199996Y-60393317D01*
X139165866Y-60402560D01*
X139102119Y-60447156D01*
X139006269Y-60529209D01*
X138875831Y-60650821D01*
X138742672Y-60780205D01*
X138614306Y-60907702D01*
X138499419Y-61024046D01*
X138404927Y-61122052D01*
X138337747Y-61194536D01*
X138304794Y-61234313D01*
X138303568Y-61236361D01*
X138299926Y-61263656D01*
X138313650Y-61308234D01*
X138348131Y-61376112D01*
X138406761Y-61473311D01*
X138492930Y-61605851D01*
X138607800Y-61776476D01*
X138709746Y-61926655D01*
X138800877Y-62061350D01*
X138875927Y-62172740D01*
X138929631Y-62253005D01*
X138956720Y-62294325D01*
X138958426Y-62297130D01*
X138955118Y-62336721D01*
X138930047Y-62413669D01*
X138888202Y-62513432D01*
X138873288Y-62545291D01*
X138808214Y-62687226D01*
X138738788Y-62848273D01*
X138682391Y-62987621D01*
X138641753Y-63091044D01*
X138609474Y-63169642D01*
X138590822Y-63210720D01*
X138588503Y-63213885D01*
X138554197Y-63219128D01*
X138473331Y-63233494D01*
X138356657Y-63254937D01*
X138214925Y-63281413D01*
X138058890Y-63310877D01*
X137899302Y-63341283D01*
X137746915Y-63370588D01*
X137612479Y-63396745D01*
X137506748Y-63417710D01*
X137440474Y-63431439D01*
X137424218Y-63435320D01*
X137407427Y-63444900D01*
X137394751Y-63466536D01*
X137385622Y-63507531D01*
X137379469Y-63575189D01*
X137375720Y-63676812D01*
X137373808Y-63819703D01*
X137373160Y-64011165D01*
X137373126Y-64089645D01*
X137373126Y-64727906D01*
X137526402Y-64758160D01*
X137611678Y-64774564D01*
X137738930Y-64798509D01*
X137892685Y-64827107D01*
X138057466Y-64857467D01*
X138103011Y-64865806D01*
X138255068Y-64895370D01*
X138387532Y-64924442D01*
X138489286Y-64950329D01*
X138549212Y-64970337D01*
X138559195Y-64976301D01*
X138583707Y-65018534D01*
X138618852Y-65100370D01*
X138657827Y-65205683D01*
X138665558Y-65228368D01*
X138716640Y-65369018D01*
X138780046Y-65527714D01*
X138842096Y-65670225D01*
X138842402Y-65670886D01*
X138945733Y-65894440D01*
X138266039Y-66894232D01*
X138702379Y-67331300D01*
X138834351Y-67461381D01*
X138954721Y-67576048D01*
X139056727Y-67669181D01*
X139133609Y-67734658D01*
X139178607Y-67766357D01*
X139185062Y-67768368D01*
X139222960Y-67752529D01*
X139300292Y-67708496D01*
X139408611Y-67641490D01*
X139539468Y-67556734D01*
X139680948Y-67461816D01*
X139824539Y-67364998D01*
X139952565Y-67280751D01*
X140056895Y-67214258D01*
X140129400Y-67170702D01*
X140161842Y-67155264D01*
X140201424Y-67168328D01*
X140276481Y-67202750D01*
X140371532Y-67251380D01*
X140381608Y-67256785D01*
X140509609Y-67320980D01*
X140597382Y-67352463D01*
X140651972Y-67352798D01*
X140680425Y-67323548D01*
X140680590Y-67323138D01*
X140694812Y-67288498D01*
X140728731Y-67206269D01*
X140779716Y-67082814D01*
X140845138Y-66924498D01*
X140922366Y-66737686D01*
X141008771Y-66528742D01*
X141092449Y-66326446D01*
X141184412Y-66103200D01*
X141268850Y-65896392D01*
X141343231Y-65712362D01*
X141405026Y-65557451D01*
X141451703Y-65437996D01*
X141480732Y-65360339D01*
X141489678Y-65331356D01*
X141467244Y-65298110D01*
X141408561Y-65245123D01*
X141330311Y-65186704D01*
X141107466Y-65001952D01*
X140933282Y-64790182D01*
X140809846Y-64555856D01*
X140739246Y-64303434D01*
X140723569Y-64037377D01*
X140734964Y-63914575D01*
X140797050Y-63659793D01*
X140903977Y-63434801D01*
X141049111Y-63241817D01*
X141225822Y-63083061D01*
X141427478Y-62960750D01*
X141647446Y-62877105D01*
X141879094Y-62834344D01*
X142115791Y-62834687D01*
X142350905Y-62880352D01*
X142577804Y-62973559D01*
X142789856Y-63116527D01*
X142878364Y-63197383D01*
X143048111Y-63405007D01*
X143166301Y-63631895D01*
X143233722Y-63871433D01*
X143251160Y-64117007D01*
X143219402Y-64362003D01*
X143139235Y-64599808D01*
X143011445Y-64823807D01*
X142836820Y-65027387D01*
X142641688Y-65186704D01*
X142560409Y-65247602D01*
X142502991Y-65300015D01*
X142482322Y-65331406D01*
X142493144Y-65365639D01*
X142523923Y-65447419D01*
X142572126Y-65570407D01*
X142635222Y-65728263D01*
X142710678Y-65914649D01*
X142795962Y-66123226D01*
X142879781Y-66326496D01*
X142972255Y-66549933D01*
X143057911Y-66756984D01*
X143134118Y-66941286D01*
X143198247Y-67096475D01*
X143247668Y-67216188D01*
X143279752Y-67294061D01*
X143291641Y-67323138D01*
X143319726Y-67352677D01*
X143374051Y-67352591D01*
X143461605Y-67321326D01*
X143589381Y-67257329D01*
X143590392Y-67256785D01*
X143686598Y-67207121D01*
X143764369Y-67170945D01*
X143808223Y-67155408D01*
X143810158Y-67155264D01*
X143843171Y-67171024D01*
X143916054Y-67214850D01*
X144020678Y-67281557D01*
X144148910Y-67365964D01*
X144291052Y-67461816D01*
X144435767Y-67558867D01*
X144566196Y-67643270D01*
X144673890Y-67709801D01*
X144750402Y-67753238D01*
X144786938Y-67768368D01*
X144820582Y-67748482D01*
X144888224Y-67692903D01*
X144983107Y-67607754D01*
X145098470Y-67499153D01*
X145227555Y-67373221D01*
X145269771Y-67331149D01*
X145706261Y-66893931D01*
X145374023Y-66406340D01*
X145273054Y-66256605D01*
X145184438Y-66122220D01*
X145113146Y-66010969D01*
X145064150Y-65930639D01*
X145042422Y-65889014D01*
X145041785Y-65886053D01*
X145053240Y-65846818D01*
X145084051Y-65767895D01*
X145128884Y-65662509D01*
X145160353Y-65591954D01*
X145219192Y-65456876D01*
X145274604Y-65320409D01*
X145317564Y-65205103D01*
X145329234Y-65169977D01*
X145362389Y-65076174D01*
X145394799Y-65003694D01*
X145412601Y-64976301D01*
X145451886Y-64959536D01*
X145537626Y-64935770D01*
X145658697Y-64907697D01*
X145803973Y-64878009D01*
X145868988Y-64865806D01*
X146034087Y-64835468D01*
X146192448Y-64806093D01*
X146328596Y-64780569D01*
X146427057Y-64761785D01*
X146445598Y-64758160D01*
X146598873Y-64727906D01*
X146598873Y-64089645D01*
X146598529Y-63879770D01*
X146597116Y-63720980D01*
X146594064Y-63605973D01*
X146588803Y-63527446D01*
X146580763Y-63478096D01*
X146569373Y-63450619D01*
X146554063Y-63437713D01*
X146547782Y-63435320D01*
X146509896Y-63426833D01*
X146426195Y-63409900D01*
X146307433Y-63386566D01*
X146164361Y-63358875D01*
X146007732Y-63328873D01*
X145848297Y-63298604D01*
X145696809Y-63270115D01*
X145564019Y-63245449D01*
X145460681Y-63226651D01*
X145397545Y-63215767D01*
X145383497Y-63213885D01*
X145370770Y-63188704D01*
X145342600Y-63121622D01*
X145304252Y-63025333D01*
X145289609Y-62987621D01*
X145230548Y-62841921D01*
X145161000Y-62680951D01*
X145098712Y-62545291D01*
X145052879Y-62441561D01*
X145022387Y-62356326D01*
X145012208Y-62304126D01*
X145013831Y-62297130D01*
X145035343Y-62264102D01*
X145084465Y-62190643D01*
X145155923Y-62084577D01*
X145244445Y-61953726D01*
X145344759Y-61805912D01*
X145364594Y-61776734D01*
X145480988Y-61603863D01*
X145566548Y-61472226D01*
X145624684Y-61375761D01*
X145658808Y-61308408D01*
X145672331Y-61264106D01*
X145668664Y-61236794D01*
X145668570Y-61236620D01*
X145639707Y-61200746D01*
X145575867Y-61131391D01*
X145483969Y-61035745D01*
X145370933Y-60920999D01*
X145243679Y-60794341D01*
X145229328Y-60780205D01*
X145068957Y-60624903D01*
X144945195Y-60510870D01*
X144855555Y-60436002D01*
X144797552Y-60398196D01*
X144772004Y-60393317D01*
X144734718Y-60414603D01*
X144657343Y-60463773D01*
X144547867Y-60535575D01*
X144414280Y-60624755D01*
X144264570Y-60726063D01*
X144229618Y-60749897D01*
X143733390Y-61088765D01*
X143509293Y-60987056D01*
X143373011Y-60927783D01*
X143226724Y-60868170D01*
X143100965Y-60820640D01*
X143095425Y-60818685D01*
X142997057Y-60782677D01*
X142921229Y-60752229D01*
X142884282Y-60733905D01*
X142884220Y-60733852D01*
X142872496Y-60700729D01*
X142852568Y-60619267D01*
X142826413Y-60498625D01*
X142796010Y-60347959D01*
X142763337Y-60176428D01*
X142760664Y-60161967D01*
X142727890Y-59985235D01*
X142697802Y-59824810D01*
X142672339Y-59690888D01*
X142653441Y-59593663D01*
X142643047Y-59543332D01*
X142642865Y-59542563D01*
X142636539Y-59521153D01*
X142624239Y-59504988D01*
X142598594Y-59493331D01*
X142552235Y-59485445D01*
X142477792Y-59480593D01*
X142367895Y-59478039D01*
X142215175Y-59477045D01*
X142012262Y-59476874D01*
X141986000Y-59476874D01*
X141776986Y-59476998D01*
%TD*%
M02*
