%TF.GenerationSoftware,KiCad,Pcbnew,(5.1.9)-1*%
%TF.CreationDate,2021-08-08T17:51:26+03:00*%
%TF.ProjectId,ESP8266DevBoard,45535038-3236-4364-9465-76426f617264,1.0*%
%TF.SameCoordinates,Original*%
%TF.FileFunction,Paste,Top*%
%TF.FilePolarity,Positive*%
%FSLAX46Y46*%
G04 Gerber Fmt 4.6, Leading zero omitted, Abs format (unit mm)*
G04 Created by KiCad (PCBNEW (5.1.9)-1) date 2021-08-08 17:51:26*
%MOMM*%
%LPD*%
G01*
G04 APERTURE LIST*
%ADD10R,2.400000X3.500000*%
%ADD11R,2.000000X1.500000*%
%ADD12R,2.000000X3.800000*%
%ADD13R,1.500000X2.000000*%
%ADD14R,3.800000X2.000000*%
%ADD15R,2.500000X1.000000*%
%ADD16R,1.000000X1.800000*%
%ADD17R,0.900000X0.800000*%
%ADD18R,1.800000X1.900000*%
%ADD19R,1.900000X1.900000*%
%ADD20R,0.400000X1.350000*%
%ADD21R,2.100000X1.600000*%
%ADD22R,3.430000X3.250000*%
%ADD23R,1.200000X0.900000*%
G04 APERTURE END LIST*
D10*
%TO.C,Y1*%
X180848000Y-90992000D03*
X180848000Y-85792000D03*
%TD*%
D11*
%TO.C,U4*%
X156616000Y-82028000D03*
X156616000Y-86628000D03*
X156616000Y-84328000D03*
D12*
X162916000Y-84328000D03*
%TD*%
D13*
%TO.C,U3*%
X149112000Y-89814000D03*
X144512000Y-89814000D03*
X146812000Y-89814000D03*
D14*
X146812000Y-96114000D03*
%TD*%
%TO.C,U2*%
G36*
G01*
X168933000Y-86892000D02*
X168633000Y-86892000D01*
G75*
G02*
X168483000Y-86742000I0J150000D01*
G01*
X168483000Y-85092000D01*
G75*
G02*
X168633000Y-84942000I150000J0D01*
G01*
X168933000Y-84942000D01*
G75*
G02*
X169083000Y-85092000I0J-150000D01*
G01*
X169083000Y-86742000D01*
G75*
G02*
X168933000Y-86892000I-150000J0D01*
G01*
G37*
G36*
G01*
X170203000Y-86892000D02*
X169903000Y-86892000D01*
G75*
G02*
X169753000Y-86742000I0J150000D01*
G01*
X169753000Y-85092000D01*
G75*
G02*
X169903000Y-84942000I150000J0D01*
G01*
X170203000Y-84942000D01*
G75*
G02*
X170353000Y-85092000I0J-150000D01*
G01*
X170353000Y-86742000D01*
G75*
G02*
X170203000Y-86892000I-150000J0D01*
G01*
G37*
G36*
G01*
X171473000Y-86892000D02*
X171173000Y-86892000D01*
G75*
G02*
X171023000Y-86742000I0J150000D01*
G01*
X171023000Y-85092000D01*
G75*
G02*
X171173000Y-84942000I150000J0D01*
G01*
X171473000Y-84942000D01*
G75*
G02*
X171623000Y-85092000I0J-150000D01*
G01*
X171623000Y-86742000D01*
G75*
G02*
X171473000Y-86892000I-150000J0D01*
G01*
G37*
G36*
G01*
X172743000Y-86892000D02*
X172443000Y-86892000D01*
G75*
G02*
X172293000Y-86742000I0J150000D01*
G01*
X172293000Y-85092000D01*
G75*
G02*
X172443000Y-84942000I150000J0D01*
G01*
X172743000Y-84942000D01*
G75*
G02*
X172893000Y-85092000I0J-150000D01*
G01*
X172893000Y-86742000D01*
G75*
G02*
X172743000Y-86892000I-150000J0D01*
G01*
G37*
G36*
G01*
X174013000Y-86892000D02*
X173713000Y-86892000D01*
G75*
G02*
X173563000Y-86742000I0J150000D01*
G01*
X173563000Y-85092000D01*
G75*
G02*
X173713000Y-84942000I150000J0D01*
G01*
X174013000Y-84942000D01*
G75*
G02*
X174163000Y-85092000I0J-150000D01*
G01*
X174163000Y-86742000D01*
G75*
G02*
X174013000Y-86892000I-150000J0D01*
G01*
G37*
G36*
G01*
X175283000Y-86892000D02*
X174983000Y-86892000D01*
G75*
G02*
X174833000Y-86742000I0J150000D01*
G01*
X174833000Y-85092000D01*
G75*
G02*
X174983000Y-84942000I150000J0D01*
G01*
X175283000Y-84942000D01*
G75*
G02*
X175433000Y-85092000I0J-150000D01*
G01*
X175433000Y-86742000D01*
G75*
G02*
X175283000Y-86892000I-150000J0D01*
G01*
G37*
G36*
G01*
X176553000Y-86892000D02*
X176253000Y-86892000D01*
G75*
G02*
X176103000Y-86742000I0J150000D01*
G01*
X176103000Y-85092000D01*
G75*
G02*
X176253000Y-84942000I150000J0D01*
G01*
X176553000Y-84942000D01*
G75*
G02*
X176703000Y-85092000I0J-150000D01*
G01*
X176703000Y-86742000D01*
G75*
G02*
X176553000Y-86892000I-150000J0D01*
G01*
G37*
G36*
G01*
X177823000Y-86892000D02*
X177523000Y-86892000D01*
G75*
G02*
X177373000Y-86742000I0J150000D01*
G01*
X177373000Y-85092000D01*
G75*
G02*
X177523000Y-84942000I150000J0D01*
G01*
X177823000Y-84942000D01*
G75*
G02*
X177973000Y-85092000I0J-150000D01*
G01*
X177973000Y-86742000D01*
G75*
G02*
X177823000Y-86892000I-150000J0D01*
G01*
G37*
G36*
G01*
X177823000Y-91842000D02*
X177523000Y-91842000D01*
G75*
G02*
X177373000Y-91692000I0J150000D01*
G01*
X177373000Y-90042000D01*
G75*
G02*
X177523000Y-89892000I150000J0D01*
G01*
X177823000Y-89892000D01*
G75*
G02*
X177973000Y-90042000I0J-150000D01*
G01*
X177973000Y-91692000D01*
G75*
G02*
X177823000Y-91842000I-150000J0D01*
G01*
G37*
G36*
G01*
X176553000Y-91842000D02*
X176253000Y-91842000D01*
G75*
G02*
X176103000Y-91692000I0J150000D01*
G01*
X176103000Y-90042000D01*
G75*
G02*
X176253000Y-89892000I150000J0D01*
G01*
X176553000Y-89892000D01*
G75*
G02*
X176703000Y-90042000I0J-150000D01*
G01*
X176703000Y-91692000D01*
G75*
G02*
X176553000Y-91842000I-150000J0D01*
G01*
G37*
G36*
G01*
X175283000Y-91842000D02*
X174983000Y-91842000D01*
G75*
G02*
X174833000Y-91692000I0J150000D01*
G01*
X174833000Y-90042000D01*
G75*
G02*
X174983000Y-89892000I150000J0D01*
G01*
X175283000Y-89892000D01*
G75*
G02*
X175433000Y-90042000I0J-150000D01*
G01*
X175433000Y-91692000D01*
G75*
G02*
X175283000Y-91842000I-150000J0D01*
G01*
G37*
G36*
G01*
X174013000Y-91842000D02*
X173713000Y-91842000D01*
G75*
G02*
X173563000Y-91692000I0J150000D01*
G01*
X173563000Y-90042000D01*
G75*
G02*
X173713000Y-89892000I150000J0D01*
G01*
X174013000Y-89892000D01*
G75*
G02*
X174163000Y-90042000I0J-150000D01*
G01*
X174163000Y-91692000D01*
G75*
G02*
X174013000Y-91842000I-150000J0D01*
G01*
G37*
G36*
G01*
X172743000Y-91842000D02*
X172443000Y-91842000D01*
G75*
G02*
X172293000Y-91692000I0J150000D01*
G01*
X172293000Y-90042000D01*
G75*
G02*
X172443000Y-89892000I150000J0D01*
G01*
X172743000Y-89892000D01*
G75*
G02*
X172893000Y-90042000I0J-150000D01*
G01*
X172893000Y-91692000D01*
G75*
G02*
X172743000Y-91842000I-150000J0D01*
G01*
G37*
G36*
G01*
X171473000Y-91842000D02*
X171173000Y-91842000D01*
G75*
G02*
X171023000Y-91692000I0J150000D01*
G01*
X171023000Y-90042000D01*
G75*
G02*
X171173000Y-89892000I150000J0D01*
G01*
X171473000Y-89892000D01*
G75*
G02*
X171623000Y-90042000I0J-150000D01*
G01*
X171623000Y-91692000D01*
G75*
G02*
X171473000Y-91842000I-150000J0D01*
G01*
G37*
G36*
G01*
X170203000Y-91842000D02*
X169903000Y-91842000D01*
G75*
G02*
X169753000Y-91692000I0J150000D01*
G01*
X169753000Y-90042000D01*
G75*
G02*
X169903000Y-89892000I150000J0D01*
G01*
X170203000Y-89892000D01*
G75*
G02*
X170353000Y-90042000I0J-150000D01*
G01*
X170353000Y-91692000D01*
G75*
G02*
X170203000Y-91842000I-150000J0D01*
G01*
G37*
G36*
G01*
X168933000Y-91842000D02*
X168633000Y-91842000D01*
G75*
G02*
X168483000Y-91692000I0J150000D01*
G01*
X168483000Y-90042000D01*
G75*
G02*
X168633000Y-89892000I150000J0D01*
G01*
X168933000Y-89892000D01*
G75*
G02*
X169083000Y-90042000I0J-150000D01*
G01*
X169083000Y-91692000D01*
G75*
G02*
X168933000Y-91842000I-150000J0D01*
G01*
G37*
%TD*%
D15*
%TO.C,U1*%
X177272000Y-49078000D03*
X177272000Y-51078000D03*
X177272000Y-53078000D03*
X177272000Y-55078000D03*
X177272000Y-57078000D03*
X177272000Y-59078000D03*
X177272000Y-61078000D03*
X177272000Y-63078000D03*
D16*
X174672000Y-64578000D03*
X172672000Y-64578000D03*
X170672000Y-64578000D03*
X168672000Y-64578000D03*
X166672000Y-64578000D03*
X164672000Y-64578000D03*
D15*
X162072000Y-63078000D03*
X162072000Y-61078000D03*
X162072000Y-59078000D03*
X162072000Y-57078000D03*
X162072000Y-55078000D03*
X162072000Y-53078000D03*
X162072000Y-51078000D03*
X162072000Y-49078000D03*
%TD*%
%TO.C,R18*%
G36*
G01*
X161347999Y-74568000D02*
X162248001Y-74568000D01*
G75*
G02*
X162498000Y-74817999I0J-249999D01*
G01*
X162498000Y-75518001D01*
G75*
G02*
X162248001Y-75768000I-249999J0D01*
G01*
X161347999Y-75768000D01*
G75*
G02*
X161098000Y-75518001I0J249999D01*
G01*
X161098000Y-74817999D01*
G75*
G02*
X161347999Y-74568000I249999J0D01*
G01*
G37*
G36*
G01*
X161347999Y-72568000D02*
X162248001Y-72568000D01*
G75*
G02*
X162498000Y-72817999I0J-249999D01*
G01*
X162498000Y-73518001D01*
G75*
G02*
X162248001Y-73768000I-249999J0D01*
G01*
X161347999Y-73768000D01*
G75*
G02*
X161098000Y-73518001I0J249999D01*
G01*
X161098000Y-72817999D01*
G75*
G02*
X161347999Y-72568000I249999J0D01*
G01*
G37*
%TD*%
%TO.C,R17*%
G36*
G01*
X167951999Y-74568000D02*
X168852001Y-74568000D01*
G75*
G02*
X169102000Y-74817999I0J-249999D01*
G01*
X169102000Y-75518001D01*
G75*
G02*
X168852001Y-75768000I-249999J0D01*
G01*
X167951999Y-75768000D01*
G75*
G02*
X167702000Y-75518001I0J249999D01*
G01*
X167702000Y-74817999D01*
G75*
G02*
X167951999Y-74568000I249999J0D01*
G01*
G37*
G36*
G01*
X167951999Y-72568000D02*
X168852001Y-72568000D01*
G75*
G02*
X169102000Y-72817999I0J-249999D01*
G01*
X169102000Y-73518001D01*
G75*
G02*
X168852001Y-73768000I-249999J0D01*
G01*
X167951999Y-73768000D01*
G75*
G02*
X167702000Y-73518001I0J249999D01*
G01*
X167702000Y-72817999D01*
G75*
G02*
X167951999Y-72568000I249999J0D01*
G01*
G37*
%TD*%
%TO.C,R16*%
G36*
G01*
X161347999Y-69996000D02*
X162248001Y-69996000D01*
G75*
G02*
X162498000Y-70245999I0J-249999D01*
G01*
X162498000Y-70946001D01*
G75*
G02*
X162248001Y-71196000I-249999J0D01*
G01*
X161347999Y-71196000D01*
G75*
G02*
X161098000Y-70946001I0J249999D01*
G01*
X161098000Y-70245999D01*
G75*
G02*
X161347999Y-69996000I249999J0D01*
G01*
G37*
G36*
G01*
X161347999Y-67996000D02*
X162248001Y-67996000D01*
G75*
G02*
X162498000Y-68245999I0J-249999D01*
G01*
X162498000Y-68946001D01*
G75*
G02*
X162248001Y-69196000I-249999J0D01*
G01*
X161347999Y-69196000D01*
G75*
G02*
X161098000Y-68946001I0J249999D01*
G01*
X161098000Y-68245999D01*
G75*
G02*
X161347999Y-67996000I249999J0D01*
G01*
G37*
%TD*%
%TO.C,R15*%
G36*
G01*
X167951999Y-69996000D02*
X168852001Y-69996000D01*
G75*
G02*
X169102000Y-70245999I0J-249999D01*
G01*
X169102000Y-70946001D01*
G75*
G02*
X168852001Y-71196000I-249999J0D01*
G01*
X167951999Y-71196000D01*
G75*
G02*
X167702000Y-70946001I0J249999D01*
G01*
X167702000Y-70245999D01*
G75*
G02*
X167951999Y-69996000I249999J0D01*
G01*
G37*
G36*
G01*
X167951999Y-67996000D02*
X168852001Y-67996000D01*
G75*
G02*
X169102000Y-68245999I0J-249999D01*
G01*
X169102000Y-68946001D01*
G75*
G02*
X168852001Y-69196000I-249999J0D01*
G01*
X167951999Y-69196000D01*
G75*
G02*
X167702000Y-68946001I0J249999D01*
G01*
X167702000Y-68245999D01*
G75*
G02*
X167951999Y-67996000I249999J0D01*
G01*
G37*
%TD*%
%TO.C,R14*%
G36*
G01*
X198062001Y-87484000D02*
X197161999Y-87484000D01*
G75*
G02*
X196912000Y-87234001I0J249999D01*
G01*
X196912000Y-86533999D01*
G75*
G02*
X197161999Y-86284000I249999J0D01*
G01*
X198062001Y-86284000D01*
G75*
G02*
X198312000Y-86533999I0J-249999D01*
G01*
X198312000Y-87234001D01*
G75*
G02*
X198062001Y-87484000I-249999J0D01*
G01*
G37*
G36*
G01*
X198062001Y-89484000D02*
X197161999Y-89484000D01*
G75*
G02*
X196912000Y-89234001I0J249999D01*
G01*
X196912000Y-88533999D01*
G75*
G02*
X197161999Y-88284000I249999J0D01*
G01*
X198062001Y-88284000D01*
G75*
G02*
X198312000Y-88533999I0J-249999D01*
G01*
X198312000Y-89234001D01*
G75*
G02*
X198062001Y-89484000I-249999J0D01*
G01*
G37*
%TD*%
%TO.C,R13*%
G36*
G01*
X170491999Y-74568000D02*
X171392001Y-74568000D01*
G75*
G02*
X171642000Y-74817999I0J-249999D01*
G01*
X171642000Y-75518001D01*
G75*
G02*
X171392001Y-75768000I-249999J0D01*
G01*
X170491999Y-75768000D01*
G75*
G02*
X170242000Y-75518001I0J249999D01*
G01*
X170242000Y-74817999D01*
G75*
G02*
X170491999Y-74568000I249999J0D01*
G01*
G37*
G36*
G01*
X170491999Y-72568000D02*
X171392001Y-72568000D01*
G75*
G02*
X171642000Y-72817999I0J-249999D01*
G01*
X171642000Y-73518001D01*
G75*
G02*
X171392001Y-73768000I-249999J0D01*
G01*
X170491999Y-73768000D01*
G75*
G02*
X170242000Y-73518001I0J249999D01*
G01*
X170242000Y-72817999D01*
G75*
G02*
X170491999Y-72568000I249999J0D01*
G01*
G37*
%TD*%
%TO.C,R12*%
G36*
G01*
X177095999Y-74568000D02*
X177996001Y-74568000D01*
G75*
G02*
X178246000Y-74817999I0J-249999D01*
G01*
X178246000Y-75518001D01*
G75*
G02*
X177996001Y-75768000I-249999J0D01*
G01*
X177095999Y-75768000D01*
G75*
G02*
X176846000Y-75518001I0J249999D01*
G01*
X176846000Y-74817999D01*
G75*
G02*
X177095999Y-74568000I249999J0D01*
G01*
G37*
G36*
G01*
X177095999Y-72568000D02*
X177996001Y-72568000D01*
G75*
G02*
X178246000Y-72817999I0J-249999D01*
G01*
X178246000Y-73518001D01*
G75*
G02*
X177996001Y-73768000I-249999J0D01*
G01*
X177095999Y-73768000D01*
G75*
G02*
X176846000Y-73518001I0J249999D01*
G01*
X176846000Y-72817999D01*
G75*
G02*
X177095999Y-72568000I249999J0D01*
G01*
G37*
%TD*%
%TO.C,R11*%
G36*
G01*
X170491999Y-69996000D02*
X171392001Y-69996000D01*
G75*
G02*
X171642000Y-70245999I0J-249999D01*
G01*
X171642000Y-70946001D01*
G75*
G02*
X171392001Y-71196000I-249999J0D01*
G01*
X170491999Y-71196000D01*
G75*
G02*
X170242000Y-70946001I0J249999D01*
G01*
X170242000Y-70245999D01*
G75*
G02*
X170491999Y-69996000I249999J0D01*
G01*
G37*
G36*
G01*
X170491999Y-67996000D02*
X171392001Y-67996000D01*
G75*
G02*
X171642000Y-68245999I0J-249999D01*
G01*
X171642000Y-68946001D01*
G75*
G02*
X171392001Y-69196000I-249999J0D01*
G01*
X170491999Y-69196000D01*
G75*
G02*
X170242000Y-68946001I0J249999D01*
G01*
X170242000Y-68245999D01*
G75*
G02*
X170491999Y-67996000I249999J0D01*
G01*
G37*
%TD*%
%TO.C,R10*%
G36*
G01*
X177095999Y-69996000D02*
X177996001Y-69996000D01*
G75*
G02*
X178246000Y-70245999I0J-249999D01*
G01*
X178246000Y-70946001D01*
G75*
G02*
X177996001Y-71196000I-249999J0D01*
G01*
X177095999Y-71196000D01*
G75*
G02*
X176846000Y-70946001I0J249999D01*
G01*
X176846000Y-70245999D01*
G75*
G02*
X177095999Y-69996000I249999J0D01*
G01*
G37*
G36*
G01*
X177095999Y-67996000D02*
X177996001Y-67996000D01*
G75*
G02*
X178246000Y-68245999I0J-249999D01*
G01*
X178246000Y-68946001D01*
G75*
G02*
X177996001Y-69196000I-249999J0D01*
G01*
X177095999Y-69196000D01*
G75*
G02*
X176846000Y-68946001I0J249999D01*
G01*
X176846000Y-68245999D01*
G75*
G02*
X177095999Y-67996000I249999J0D01*
G01*
G37*
%TD*%
%TO.C,R9*%
G36*
G01*
X181718000Y-48571999D02*
X181718000Y-49472001D01*
G75*
G02*
X181468001Y-49722000I-249999J0D01*
G01*
X180767999Y-49722000D01*
G75*
G02*
X180518000Y-49472001I0J249999D01*
G01*
X180518000Y-48571999D01*
G75*
G02*
X180767999Y-48322000I249999J0D01*
G01*
X181468001Y-48322000D01*
G75*
G02*
X181718000Y-48571999I0J-249999D01*
G01*
G37*
G36*
G01*
X183718000Y-48571999D02*
X183718000Y-49472001D01*
G75*
G02*
X183468001Y-49722000I-249999J0D01*
G01*
X182767999Y-49722000D01*
G75*
G02*
X182518000Y-49472001I0J249999D01*
G01*
X182518000Y-48571999D01*
G75*
G02*
X182767999Y-48322000I249999J0D01*
G01*
X183468001Y-48322000D01*
G75*
G02*
X183718000Y-48571999I0J-249999D01*
G01*
G37*
%TD*%
%TO.C,R8*%
G36*
G01*
X181718000Y-50857999D02*
X181718000Y-51758001D01*
G75*
G02*
X181468001Y-52008000I-249999J0D01*
G01*
X180767999Y-52008000D01*
G75*
G02*
X180518000Y-51758001I0J249999D01*
G01*
X180518000Y-50857999D01*
G75*
G02*
X180767999Y-50608000I249999J0D01*
G01*
X181468001Y-50608000D01*
G75*
G02*
X181718000Y-50857999I0J-249999D01*
G01*
G37*
G36*
G01*
X183718000Y-50857999D02*
X183718000Y-51758001D01*
G75*
G02*
X183468001Y-52008000I-249999J0D01*
G01*
X182767999Y-52008000D01*
G75*
G02*
X182518000Y-51758001I0J249999D01*
G01*
X182518000Y-50857999D01*
G75*
G02*
X182767999Y-50608000I249999J0D01*
G01*
X183468001Y-50608000D01*
G75*
G02*
X183718000Y-50857999I0J-249999D01*
G01*
G37*
%TD*%
%TO.C,R7*%
G36*
G01*
X181718000Y-60763999D02*
X181718000Y-61664001D01*
G75*
G02*
X181468001Y-61914000I-249999J0D01*
G01*
X180767999Y-61914000D01*
G75*
G02*
X180518000Y-61664001I0J249999D01*
G01*
X180518000Y-60763999D01*
G75*
G02*
X180767999Y-60514000I249999J0D01*
G01*
X181468001Y-60514000D01*
G75*
G02*
X181718000Y-60763999I0J-249999D01*
G01*
G37*
G36*
G01*
X183718000Y-60763999D02*
X183718000Y-61664001D01*
G75*
G02*
X183468001Y-61914000I-249999J0D01*
G01*
X182767999Y-61914000D01*
G75*
G02*
X182518000Y-61664001I0J249999D01*
G01*
X182518000Y-60763999D01*
G75*
G02*
X182767999Y-60514000I249999J0D01*
G01*
X183468001Y-60514000D01*
G75*
G02*
X183718000Y-60763999I0J-249999D01*
G01*
G37*
%TD*%
%TO.C,R6*%
G36*
G01*
X171392001Y-78340000D02*
X170491999Y-78340000D01*
G75*
G02*
X170242000Y-78090001I0J249999D01*
G01*
X170242000Y-77389999D01*
G75*
G02*
X170491999Y-77140000I249999J0D01*
G01*
X171392001Y-77140000D01*
G75*
G02*
X171642000Y-77389999I0J-249999D01*
G01*
X171642000Y-78090001D01*
G75*
G02*
X171392001Y-78340000I-249999J0D01*
G01*
G37*
G36*
G01*
X171392001Y-80340000D02*
X170491999Y-80340000D01*
G75*
G02*
X170242000Y-80090001I0J249999D01*
G01*
X170242000Y-79389999D01*
G75*
G02*
X170491999Y-79140000I249999J0D01*
G01*
X171392001Y-79140000D01*
G75*
G02*
X171642000Y-79389999I0J-249999D01*
G01*
X171642000Y-80090001D01*
G75*
G02*
X171392001Y-80340000I-249999J0D01*
G01*
G37*
%TD*%
%TO.C,R5*%
G36*
G01*
X181718000Y-58477999D02*
X181718000Y-59378001D01*
G75*
G02*
X181468001Y-59628000I-249999J0D01*
G01*
X180767999Y-59628000D01*
G75*
G02*
X180518000Y-59378001I0J249999D01*
G01*
X180518000Y-58477999D01*
G75*
G02*
X180767999Y-58228000I249999J0D01*
G01*
X181468001Y-58228000D01*
G75*
G02*
X181718000Y-58477999I0J-249999D01*
G01*
G37*
G36*
G01*
X183718000Y-58477999D02*
X183718000Y-59378001D01*
G75*
G02*
X183468001Y-59628000I-249999J0D01*
G01*
X182767999Y-59628000D01*
G75*
G02*
X182518000Y-59378001I0J249999D01*
G01*
X182518000Y-58477999D01*
G75*
G02*
X182767999Y-58228000I249999J0D01*
G01*
X183468001Y-58228000D01*
G75*
G02*
X183718000Y-58477999I0J-249999D01*
G01*
G37*
%TD*%
%TO.C,R4*%
G36*
G01*
X181718000Y-56191999D02*
X181718000Y-57092001D01*
G75*
G02*
X181468001Y-57342000I-249999J0D01*
G01*
X180767999Y-57342000D01*
G75*
G02*
X180518000Y-57092001I0J249999D01*
G01*
X180518000Y-56191999D01*
G75*
G02*
X180767999Y-55942000I249999J0D01*
G01*
X181468001Y-55942000D01*
G75*
G02*
X181718000Y-56191999I0J-249999D01*
G01*
G37*
G36*
G01*
X183718000Y-56191999D02*
X183718000Y-57092001D01*
G75*
G02*
X183468001Y-57342000I-249999J0D01*
G01*
X182767999Y-57342000D01*
G75*
G02*
X182518000Y-57092001I0J249999D01*
G01*
X182518000Y-56191999D01*
G75*
G02*
X182767999Y-55942000I249999J0D01*
G01*
X183468001Y-55942000D01*
G75*
G02*
X183718000Y-56191999I0J-249999D01*
G01*
G37*
%TD*%
%TO.C,R3*%
G36*
G01*
X157626000Y-51250001D02*
X157626000Y-50349999D01*
G75*
G02*
X157875999Y-50100000I249999J0D01*
G01*
X158576001Y-50100000D01*
G75*
G02*
X158826000Y-50349999I0J-249999D01*
G01*
X158826000Y-51250001D01*
G75*
G02*
X158576001Y-51500000I-249999J0D01*
G01*
X157875999Y-51500000D01*
G75*
G02*
X157626000Y-51250001I0J249999D01*
G01*
G37*
G36*
G01*
X155626000Y-51250001D02*
X155626000Y-50349999D01*
G75*
G02*
X155875999Y-50100000I249999J0D01*
G01*
X156576001Y-50100000D01*
G75*
G02*
X156826000Y-50349999I0J-249999D01*
G01*
X156826000Y-51250001D01*
G75*
G02*
X156576001Y-51500000I-249999J0D01*
G01*
X155875999Y-51500000D01*
G75*
G02*
X155626000Y-51250001I0J249999D01*
G01*
G37*
%TD*%
%TO.C,R2*%
G36*
G01*
X177996001Y-78340000D02*
X177095999Y-78340000D01*
G75*
G02*
X176846000Y-78090001I0J249999D01*
G01*
X176846000Y-77389999D01*
G75*
G02*
X177095999Y-77140000I249999J0D01*
G01*
X177996001Y-77140000D01*
G75*
G02*
X178246000Y-77389999I0J-249999D01*
G01*
X178246000Y-78090001D01*
G75*
G02*
X177996001Y-78340000I-249999J0D01*
G01*
G37*
G36*
G01*
X177996001Y-80340000D02*
X177095999Y-80340000D01*
G75*
G02*
X176846000Y-80090001I0J249999D01*
G01*
X176846000Y-79389999D01*
G75*
G02*
X177095999Y-79140000I249999J0D01*
G01*
X177996001Y-79140000D01*
G75*
G02*
X178246000Y-79389999I0J-249999D01*
G01*
X178246000Y-80090001D01*
G75*
G02*
X177996001Y-80340000I-249999J0D01*
G01*
G37*
%TD*%
%TO.C,R1*%
G36*
G01*
X157626000Y-53536001D02*
X157626000Y-52635999D01*
G75*
G02*
X157875999Y-52386000I249999J0D01*
G01*
X158576001Y-52386000D01*
G75*
G02*
X158826000Y-52635999I0J-249999D01*
G01*
X158826000Y-53536001D01*
G75*
G02*
X158576001Y-53786000I-249999J0D01*
G01*
X157875999Y-53786000D01*
G75*
G02*
X157626000Y-53536001I0J249999D01*
G01*
G37*
G36*
G01*
X155626000Y-53536001D02*
X155626000Y-52635999D01*
G75*
G02*
X155875999Y-52386000I249999J0D01*
G01*
X156576001Y-52386000D01*
G75*
G02*
X156826000Y-52635999I0J-249999D01*
G01*
X156826000Y-53536001D01*
G75*
G02*
X156576001Y-53786000I-249999J0D01*
G01*
X155875999Y-53786000D01*
G75*
G02*
X155626000Y-53536001I0J249999D01*
G01*
G37*
%TD*%
D17*
%TO.C,Q6*%
X166100000Y-74168000D03*
X164100000Y-75118000D03*
X164100000Y-73218000D03*
%TD*%
%TO.C,Q5*%
X166100000Y-69596000D03*
X164100000Y-70546000D03*
X164100000Y-68646000D03*
%TD*%
%TO.C,Q4*%
X175244000Y-74168000D03*
X173244000Y-75118000D03*
X173244000Y-73218000D03*
%TD*%
%TO.C,Q3*%
X175244000Y-69596000D03*
X173244000Y-70546000D03*
X173244000Y-68646000D03*
%TD*%
%TO.C,Q2*%
X175244000Y-78740000D03*
X173244000Y-79690000D03*
X173244000Y-77790000D03*
%TD*%
%TO.C,Q1*%
X166100000Y-78740000D03*
X164100000Y-79690000D03*
X164100000Y-77790000D03*
%TD*%
D18*
%TO.C,J1*%
X168228000Y-97790000D03*
X175828000Y-97790000D03*
D19*
X170828000Y-97790000D03*
X173228000Y-97790000D03*
D20*
X170728000Y-95115000D03*
X171378000Y-95115000D03*
X172028000Y-95115000D03*
X172678000Y-95115000D03*
X173328000Y-95115000D03*
D21*
X168928000Y-95240000D03*
X175128000Y-95240000D03*
%TD*%
D22*
%TO.C,F1*%
X114554000Y-88749000D03*
X114554000Y-79399000D03*
%TD*%
D23*
%TO.C,D5*%
X153924000Y-92582000D03*
X153924000Y-89282000D03*
%TD*%
%TO.C,D4*%
X186436000Y-61088000D03*
X186436000Y-64388000D03*
%TD*%
%TO.C,D2*%
X186436000Y-75566000D03*
X186436000Y-78866000D03*
%TD*%
%TO.C,D1*%
X156464000Y-92582000D03*
X156464000Y-89282000D03*
%TD*%
%TO.C,C13*%
G36*
G01*
X156776000Y-79027000D02*
X156776000Y-79977000D01*
G75*
G02*
X156526000Y-80227000I-250000J0D01*
G01*
X155851000Y-80227000D01*
G75*
G02*
X155601000Y-79977000I0J250000D01*
G01*
X155601000Y-79027000D01*
G75*
G02*
X155851000Y-78777000I250000J0D01*
G01*
X156526000Y-78777000D01*
G75*
G02*
X156776000Y-79027000I0J-250000D01*
G01*
G37*
G36*
G01*
X158851000Y-79027000D02*
X158851000Y-79977000D01*
G75*
G02*
X158601000Y-80227000I-250000J0D01*
G01*
X157926000Y-80227000D01*
G75*
G02*
X157676000Y-79977000I0J250000D01*
G01*
X157676000Y-79027000D01*
G75*
G02*
X157926000Y-78777000I250000J0D01*
G01*
X158601000Y-78777000D01*
G75*
G02*
X158851000Y-79027000I0J-250000D01*
G01*
G37*
%TD*%
%TO.C,C12*%
G36*
G01*
X158275000Y-90874000D02*
X159225000Y-90874000D01*
G75*
G02*
X159475000Y-91124000I0J-250000D01*
G01*
X159475000Y-91799000D01*
G75*
G02*
X159225000Y-92049000I-250000J0D01*
G01*
X158275000Y-92049000D01*
G75*
G02*
X158025000Y-91799000I0J250000D01*
G01*
X158025000Y-91124000D01*
G75*
G02*
X158275000Y-90874000I250000J0D01*
G01*
G37*
G36*
G01*
X158275000Y-88799000D02*
X159225000Y-88799000D01*
G75*
G02*
X159475000Y-89049000I0J-250000D01*
G01*
X159475000Y-89724000D01*
G75*
G02*
X159225000Y-89974000I-250000J0D01*
G01*
X158275000Y-89974000D01*
G75*
G02*
X158025000Y-89724000I0J250000D01*
G01*
X158025000Y-89049000D01*
G75*
G02*
X158275000Y-88799000I250000J0D01*
G01*
G37*
%TD*%
%TO.C,C11*%
G36*
G01*
X152113000Y-89974000D02*
X151163000Y-89974000D01*
G75*
G02*
X150913000Y-89724000I0J250000D01*
G01*
X150913000Y-89049000D01*
G75*
G02*
X151163000Y-88799000I250000J0D01*
G01*
X152113000Y-88799000D01*
G75*
G02*
X152363000Y-89049000I0J-250000D01*
G01*
X152363000Y-89724000D01*
G75*
G02*
X152113000Y-89974000I-250000J0D01*
G01*
G37*
G36*
G01*
X152113000Y-92049000D02*
X151163000Y-92049000D01*
G75*
G02*
X150913000Y-91799000I0J250000D01*
G01*
X150913000Y-91124000D01*
G75*
G02*
X151163000Y-90874000I250000J0D01*
G01*
X152113000Y-90874000D01*
G75*
G02*
X152363000Y-91124000I0J-250000D01*
G01*
X152363000Y-91799000D01*
G75*
G02*
X152113000Y-92049000I-250000J0D01*
G01*
G37*
%TD*%
%TO.C,C10*%
G36*
G01*
X142461000Y-89974000D02*
X141511000Y-89974000D01*
G75*
G02*
X141261000Y-89724000I0J250000D01*
G01*
X141261000Y-89049000D01*
G75*
G02*
X141511000Y-88799000I250000J0D01*
G01*
X142461000Y-88799000D01*
G75*
G02*
X142711000Y-89049000I0J-250000D01*
G01*
X142711000Y-89724000D01*
G75*
G02*
X142461000Y-89974000I-250000J0D01*
G01*
G37*
G36*
G01*
X142461000Y-92049000D02*
X141511000Y-92049000D01*
G75*
G02*
X141261000Y-91799000I0J250000D01*
G01*
X141261000Y-91124000D01*
G75*
G02*
X141511000Y-90874000I250000J0D01*
G01*
X142461000Y-90874000D01*
G75*
G02*
X142711000Y-91124000I0J-250000D01*
G01*
X142711000Y-91799000D01*
G75*
G02*
X142461000Y-92049000I-250000J0D01*
G01*
G37*
%TD*%
%TO.C,C9*%
G36*
G01*
X134078000Y-91964000D02*
X134078000Y-93964000D01*
G75*
G02*
X133828000Y-94214000I-250000J0D01*
G01*
X130328000Y-94214000D01*
G75*
G02*
X130078000Y-93964000I0J250000D01*
G01*
X130078000Y-91964000D01*
G75*
G02*
X130328000Y-91714000I250000J0D01*
G01*
X133828000Y-91714000D01*
G75*
G02*
X134078000Y-91964000I0J-250000D01*
G01*
G37*
G36*
G01*
X140178000Y-91964000D02*
X140178000Y-93964000D01*
G75*
G02*
X139928000Y-94214000I-250000J0D01*
G01*
X136428000Y-94214000D01*
G75*
G02*
X136178000Y-93964000I0J250000D01*
G01*
X136178000Y-91964000D01*
G75*
G02*
X136428000Y-91714000I250000J0D01*
G01*
X139928000Y-91714000D01*
G75*
G02*
X140178000Y-91964000I0J-250000D01*
G01*
G37*
%TD*%
%TO.C,C7*%
G36*
G01*
X182568000Y-94963000D02*
X182568000Y-94013000D01*
G75*
G02*
X182818000Y-93763000I250000J0D01*
G01*
X183493000Y-93763000D01*
G75*
G02*
X183743000Y-94013000I0J-250000D01*
G01*
X183743000Y-94963000D01*
G75*
G02*
X183493000Y-95213000I-250000J0D01*
G01*
X182818000Y-95213000D01*
G75*
G02*
X182568000Y-94963000I0J250000D01*
G01*
G37*
G36*
G01*
X180493000Y-94963000D02*
X180493000Y-94013000D01*
G75*
G02*
X180743000Y-93763000I250000J0D01*
G01*
X181418000Y-93763000D01*
G75*
G02*
X181668000Y-94013000I0J-250000D01*
G01*
X181668000Y-94963000D01*
G75*
G02*
X181418000Y-95213000I-250000J0D01*
G01*
X180743000Y-95213000D01*
G75*
G02*
X180493000Y-94963000I0J250000D01*
G01*
G37*
%TD*%
%TO.C,C6*%
G36*
G01*
X182568000Y-82771000D02*
X182568000Y-81821000D01*
G75*
G02*
X182818000Y-81571000I250000J0D01*
G01*
X183493000Y-81571000D01*
G75*
G02*
X183743000Y-81821000I0J-250000D01*
G01*
X183743000Y-82771000D01*
G75*
G02*
X183493000Y-83021000I-250000J0D01*
G01*
X182818000Y-83021000D01*
G75*
G02*
X182568000Y-82771000I0J250000D01*
G01*
G37*
G36*
G01*
X180493000Y-82771000D02*
X180493000Y-81821000D01*
G75*
G02*
X180743000Y-81571000I250000J0D01*
G01*
X181418000Y-81571000D01*
G75*
G02*
X181668000Y-81821000I0J-250000D01*
G01*
X181668000Y-82771000D01*
G75*
G02*
X181418000Y-83021000I-250000J0D01*
G01*
X180743000Y-83021000D01*
G75*
G02*
X180493000Y-82771000I0J250000D01*
G01*
G37*
%TD*%
%TO.C,C5*%
G36*
G01*
X167099000Y-85656000D02*
X166149000Y-85656000D01*
G75*
G02*
X165899000Y-85406000I0J250000D01*
G01*
X165899000Y-84731000D01*
G75*
G02*
X166149000Y-84481000I250000J0D01*
G01*
X167099000Y-84481000D01*
G75*
G02*
X167349000Y-84731000I0J-250000D01*
G01*
X167349000Y-85406000D01*
G75*
G02*
X167099000Y-85656000I-250000J0D01*
G01*
G37*
G36*
G01*
X167099000Y-87731000D02*
X166149000Y-87731000D01*
G75*
G02*
X165899000Y-87481000I0J250000D01*
G01*
X165899000Y-86806000D01*
G75*
G02*
X166149000Y-86556000I250000J0D01*
G01*
X167099000Y-86556000D01*
G75*
G02*
X167349000Y-86806000I0J-250000D01*
G01*
X167349000Y-87481000D01*
G75*
G02*
X167099000Y-87731000I-250000J0D01*
G01*
G37*
%TD*%
%TO.C,C4*%
G36*
G01*
X166149000Y-90874000D02*
X167099000Y-90874000D01*
G75*
G02*
X167349000Y-91124000I0J-250000D01*
G01*
X167349000Y-91799000D01*
G75*
G02*
X167099000Y-92049000I-250000J0D01*
G01*
X166149000Y-92049000D01*
G75*
G02*
X165899000Y-91799000I0J250000D01*
G01*
X165899000Y-91124000D01*
G75*
G02*
X166149000Y-90874000I250000J0D01*
G01*
G37*
G36*
G01*
X166149000Y-88799000D02*
X167099000Y-88799000D01*
G75*
G02*
X167349000Y-89049000I0J-250000D01*
G01*
X167349000Y-89724000D01*
G75*
G02*
X167099000Y-89974000I-250000J0D01*
G01*
X166149000Y-89974000D01*
G75*
G02*
X165899000Y-89724000I0J250000D01*
G01*
X165899000Y-89049000D01*
G75*
G02*
X166149000Y-88799000I250000J0D01*
G01*
G37*
%TD*%
%TO.C,C3*%
G36*
G01*
X156797500Y-48039000D02*
X156797500Y-48989000D01*
G75*
G02*
X156547500Y-49239000I-250000J0D01*
G01*
X155872500Y-49239000D01*
G75*
G02*
X155622500Y-48989000I0J250000D01*
G01*
X155622500Y-48039000D01*
G75*
G02*
X155872500Y-47789000I250000J0D01*
G01*
X156547500Y-47789000D01*
G75*
G02*
X156797500Y-48039000I0J-250000D01*
G01*
G37*
G36*
G01*
X158872500Y-48039000D02*
X158872500Y-48989000D01*
G75*
G02*
X158622500Y-49239000I-250000J0D01*
G01*
X157947500Y-49239000D01*
G75*
G02*
X157697500Y-48989000I0J250000D01*
G01*
X157697500Y-48039000D01*
G75*
G02*
X157947500Y-47789000I250000J0D01*
G01*
X158622500Y-47789000D01*
G75*
G02*
X158872500Y-48039000I0J-250000D01*
G01*
G37*
%TD*%
%TO.C,C2*%
G36*
G01*
X156776000Y-62517000D02*
X156776000Y-63467000D01*
G75*
G02*
X156526000Y-63717000I-250000J0D01*
G01*
X155851000Y-63717000D01*
G75*
G02*
X155601000Y-63467000I0J250000D01*
G01*
X155601000Y-62517000D01*
G75*
G02*
X155851000Y-62267000I250000J0D01*
G01*
X156526000Y-62267000D01*
G75*
G02*
X156776000Y-62517000I0J-250000D01*
G01*
G37*
G36*
G01*
X158851000Y-62517000D02*
X158851000Y-63467000D01*
G75*
G02*
X158601000Y-63717000I-250000J0D01*
G01*
X157926000Y-63717000D01*
G75*
G02*
X157676000Y-63467000I0J250000D01*
G01*
X157676000Y-62517000D01*
G75*
G02*
X157926000Y-62267000I250000J0D01*
G01*
X158601000Y-62267000D01*
G75*
G02*
X158851000Y-62517000I0J-250000D01*
G01*
G37*
%TD*%
%TO.C,C1*%
G36*
G01*
X157676000Y-61181000D02*
X157676000Y-60231000D01*
G75*
G02*
X157926000Y-59981000I250000J0D01*
G01*
X158601000Y-59981000D01*
G75*
G02*
X158851000Y-60231000I0J-250000D01*
G01*
X158851000Y-61181000D01*
G75*
G02*
X158601000Y-61431000I-250000J0D01*
G01*
X157926000Y-61431000D01*
G75*
G02*
X157676000Y-61181000I0J250000D01*
G01*
G37*
G36*
G01*
X155601000Y-61181000D02*
X155601000Y-60231000D01*
G75*
G02*
X155851000Y-59981000I250000J0D01*
G01*
X156526000Y-59981000D01*
G75*
G02*
X156776000Y-60231000I0J-250000D01*
G01*
X156776000Y-61181000D01*
G75*
G02*
X156526000Y-61431000I-250000J0D01*
G01*
X155851000Y-61431000D01*
G75*
G02*
X155601000Y-61181000I0J250000D01*
G01*
G37*
%TD*%
M02*
