M48
; DRILL file {KiCad (5.1.9)-1} date 09/27/21 19:56:43
; FORMAT={-:-/ absolute / metric / decimal}
; #@! TF.CreationDate,2021-09-27T19:56:43+03:00
; #@! TF.GenerationSoftware,Kicad,Pcbnew,(5.1.9)-1
; #@! TF.FileFunction,Plated,1,2,PTH
FMAT,2
METRIC
T1C0.400
T2C0.800
T3C0.900
T4C1.000
T5C1.200
T6C1.300
T7C1.500
T8C2.000
T9C3.200
%
G90
G05
T1
X151.746Y-83.966
X153.651Y-83.966
X159.512Y-91.44
X160.677Y-89.386
X160.782Y-81.407
X161.798Y-91.44
X161.925Y-74.041
X161.925Y-78.613
X162.56Y-81.407
X162.792Y-89.386
X164.211Y-91.44
X164.592Y-49.022
X164.592Y-54.991
X164.592Y-57.023
X164.592Y-59.055
X164.592Y-61.087
X164.973Y-86.233
X166.37Y-97.79
X167.005Y-67.437
X167.005Y-69.596
X167.005Y-74.041
X167.005Y-78.613
X167.005Y-81.407
X168.656Y-62.611
X169.164Y-88.9
X170.18Y-51.054
X170.307Y-78.613
X170.688Y-62.611
X171.178Y-92.964
X171.196Y-88.9
X172.228Y-92.964
X172.466Y-51.054
X172.994Y-87.991
X173.736Y-88.734
X174.625Y-74.168
X174.752Y-51.054
X174.752Y-53.086
X174.752Y-55.118
X174.752Y-57.023
X175.387Y-67.437
X175.387Y-69.596
X175.387Y-71.882
X175.387Y-78.613
X175.387Y-81.407
X177.292Y-75.184
X177.8Y-97.79
X178.689Y-69.469
X179.07Y-75.184
X179.578Y-62.611
X179.578Y-64.516
X180.975Y-75.184
X181.102Y-53.086
X181.102Y-54.356
X182.626Y-75.184
X182.88Y-79.629
X183.769Y-74.041
X184.658Y-79.629
X185.674Y-66.294
X186.563Y-70.612
T2
X114.364Y-48.57
X114.364Y-55.57
X114.554Y-68.58
X122.054Y-71.28
X122.364Y-48.57
X122.364Y-55.57
T3
X152.019Y-96.647
X154.559Y-96.647
X192.913Y-56.388
X192.913Y-58.928
X192.913Y-61.468
X192.913Y-64.008
X192.913Y-74.93
X192.913Y-77.47
X192.913Y-80.01
X192.913Y-82.55
X195.453Y-57.658
X195.453Y-60.198
X195.453Y-62.738
X195.453Y-65.278
X195.453Y-76.2
X195.453Y-78.74
X195.453Y-81.28
X195.453Y-83.82
T4
X158.568Y-97.155
X163.068Y-97.155
T5
X110.744Y-62.484
X125.744Y-62.484
T6
X157.318Y-94.655
X164.318Y-94.655
T7
X131.998Y-45.466
X131.998Y-83.966
X139.998Y-83.966
X142.748Y-45.466
T8
X121.158Y-78.074
X121.158Y-90.074
T9
X105.05Y-70.0
X187.8Y-50.0
X187.8Y-90.0
T0
M30
